<svg width="286" height="456" viewBox="0 0 286 456" fill="none" xmlns="http://www.w3.org/2000/svg">
<path d="M223.679 408.176C233.213 397.229 241.789 389.498 249.01 376.858C256.232 364.218 262.099 346.612 263.058 332.11M207.656 393.109C221.535 377.084 233.89 359.76 244.44 341.42C248.672 334.085 252.677 326.467 254.765 318.285C256.909 310.046 257.021 301.13 253.749 293.343M184.807 379.171C195.865 358.067 209.744 338.543 220.294 317.212C230.844 295.882 238.122 271.9 234.624 248.369M168.221 358.631C177.699 347.797 184.695 337.978 189.659 330.586C203.933 309.03 210.759 291.763 217.078 275.963C220.463 267.386 223.679 258.301 224.694 246.281C225.146 240.864 225.033 236.293 224.807 233.19M159.025 329.909C165.231 313.827 174.201 297.462 180.181 280.534C184.807 267.386 185.823 253.222 186.782 239.284M142.043 303.839C149.152 291.142 159.081 280.195 166.528 267.724C175.724 252.263 181.027 234.487 181.704 216.543M130.534 277.994C133.693 267.781 137.925 257.906 143.059 248.538C147.346 240.695 152.311 233.19 156.147 225.064C161.225 214.455 164.328 203.057 167.374 191.714M130.083 239.679C140.915 219.703 155.301 201.477 161.451 182.46M162.41 160.396C160.322 161.299 158.291 162.315 156.317 163.443M156.317 163.443C156.204 163.5 156.091 163.556 155.978 163.613M156.317 163.443C155.978 162.992 155.583 162.484 155.245 161.976C155.978 159.663 156.599 157.349 157.107 155.035C158.573 154.64 160.266 154.245 162.24 153.794M156.317 163.443C156.599 163.895 156.937 164.29 157.219 164.741C157.276 164.854 157.389 164.911 157.445 165.023C157.727 165.362 157.953 165.757 158.235 166.152C158.348 166.321 158.461 166.434 158.573 166.603C158.855 167.055 159.194 167.45 159.476 167.901C159.815 168.409 160.153 168.917 160.492 169.425C160.661 169.312 160.886 169.256 161.112 169.143C162.071 165.193 162.353 162.371 162.466 160.453C162.466 159.888 162.466 159.38 162.466 158.985C162.466 157.067 162.41 155.374 162.24 153.794M216.627 144.765C216.232 144.935 215.893 145.104 215.498 145.273C199.194 152.101 180.689 153.117 164.441 159.606M164.441 159.606C164.836 161.13 165.174 162.653 165.456 164.064M164.441 159.606C163.933 157.744 163.369 155.769 162.748 153.738L162.692 153.681M107.234 205.427C115.978 191.319 127.6 178.961 141.084 169.256M118.686 220.606C123.031 210.562 129.97 201.928 136.289 193.012C142.607 184.096 148.588 174.503 150.562 163.782M154.342 139.461C153.609 139.63 152.875 139.8 152.142 140.025C148.531 140.985 144.977 142.17 141.535 143.524C141.366 143.58 141.14 143.693 140.971 143.75C124.836 150.239 110.393 161.073 101.818 176.083M158.686 138.502C177.191 134.721 196.486 135.455 215.329 137.599M158.686 138.502C158.517 137.994 158.291 137.486 158.122 136.978M158.686 138.502C158.686 138.502 158.404 138.558 158.235 138.615C158.235 138.784 158.235 138.953 158.235 139.122C158.235 139.235 158.235 139.348 158.235 139.461C158.235 139.574 158.235 139.687 158.235 139.8C158.235 139.912 158.235 140.025 158.235 140.138C158.235 140.251 158.235 140.364 158.235 140.477C158.235 140.702 158.235 140.928 158.235 141.154C158.235 141.154 158.235 141.21 158.235 141.267V141.436C158.235 141.436 158.235 141.775 158.235 141.944C158.235 142.17 158.235 142.395 158.235 142.678C158.348 142.96 158.517 143.242 158.63 143.524C159.815 146.12 160.83 148.715 161.733 151.255C161.507 149.9 161.281 148.715 161.112 147.7C160.83 146.12 160.435 144.653 160.04 143.185C159.589 141.549 159.081 139.969 158.517 138.445L158.686 138.502ZM94.5962 153.907C106.67 139.8 118.968 125.523 134.596 115.479C148.362 106.619 164.159 101.541 179.843 96.9136M90.4214 138.502C97.4171 126.482 107.685 116.551 119.194 108.707C130.703 100.864 148.757 91.44 165.738 87.3207M85.0617 122.702C90.9291 111.021 100.069 101.089 110.506 93.1893C120.943 85.2892 132.734 79.3642 144.864 74.3984M84.8361 107.184C90.5342 97.5343 96.2888 87.8849 103.454 79.2513C110.562 70.6177 119.081 62.8869 129.18 58.034M77.6711 102.387C84.6668 88.7878 89.293 73.552 99.7866 62.4355M67.4032 14.8658C67.1775 16.6151 66.9518 18.5337 66.7826 20.4523C65.9927 30.0452 66.9518 32.7538 67.7417 49.0618C68.4751 64.8055 67.7417 66.8934 68.6443 87.6592C68.7572 90.1421 68.87 92.4557 68.9828 94.6C69.0957 94.205 69.1521 93.81 69.2085 93.3586C70.3933 82.4113 73.6091 71.7463 75.4144 60.8555C76.7684 52.6168 77.3326 44.096 75.6401 35.9138C74.1168 28.5216 70.224 21.863 67.4032 14.8094V14.8658ZM67.4032 14.8658C68.1366 9.50506 69.0393 5.16002 69.8291 2C70.1676 6.34503 71.1831 13.1729 74.1732 21.0166C78.2353 31.5124 82.128 33.8824 84.6104 43.1367C86.6978 50.9804 86.0772 57.3004 85.3438 64.6362C84.7797 70.5048 83.5949 80.8313 77.389 92.0607C74.6246 97.0829 71.6344 100.864 69.4342 103.29C69.3213 101.089 69.1521 98.155 68.9828 94.6564C69.0957 94.2614 69.2085 93.81 69.2085 93.415C70.3933 82.4678 73.6091 71.8027 75.4144 60.9119C76.7684 52.7297 77.3326 44.2089 75.6401 35.9703C74.0604 28.5781 70.224 21.863 67.4032 14.8658ZM33.0451 95.9543C41.9026 108.256 51.0986 120.275 60.6895 132.012M66.5005 150.634C59.3355 142.17 51.6628 134.157 43.4823 126.652C37.6713 121.291 31.3526 115.874 28.4189 108.538M15.8378 128.175C29.378 140.702 43.7643 152.327 58.8842 162.823M11.1552 140.364C15.7814 147.135 23.3413 151.085 30.2806 155.487C38.8561 160.904 46.8109 167.281 53.9194 174.447M22.89 172.021C39.1945 182.234 55.4427 192.561 71.5216 203.113M16.5713 168.24C19.7306 176.478 25.8801 183.306 32.7066 188.893C39.5331 194.479 67.1211 216.43 74.2297 221.678M16.2892 184.548C32.8194 203.79 51.3807 221.396 71.4652 236.858M18.8844 224.556C32.4245 238.833 48.9547 250.288 67.1211 257.906C75.8093 261.573 84.9489 264.395 92.6781 269.699M21.7616 237.309C42.9181 258.301 67.7981 275.455 94.9348 287.756M45.344 287.474C54.9349 295.487 91.5497 313.375 101.987 314.899M41.6769 290.86C61.2537 310.836 85.6823 326.072 112.311 334.762M93.5807 353.496C115.019 362.468 138.32 367.096 161.563 367.039M64.5259 351.691C87.0928 371.271 116.373 383.121 146.218 384.702M65.2029 356.487C76.4299 374.996 94.1449 389.047 113.891 397.849C133.637 406.652 155.358 410.546 176.965 411.449M68.4751 103.911C68.4187 103.29 68.3058 102.669 68.2494 102.049H68.3058C68.0802 100.299 67.8545 98.6065 67.6288 96.97C67.8545 98.7193 68.0802 100.525 68.3623 102.387C68.4187 102.951 68.5315 103.516 68.5879 104.08M68.4751 103.911C68.4751 103.911 68.5315 104.024 68.5879 104.08M68.4751 103.911C68.5315 103.967 68.5879 104.08 68.5879 104.08M68.4751 103.911C69.7163 113.222 71.3524 124.564 73.4962 137.43C74.1732 141.662 75.8657 151.424 77.7839 161.694M68.5879 104.08C71.4652 123.774 75.9222 149.675 83.0872 179.639M83.0872 179.639C83.0872 179.695 83.0872 179.695 83.0872 179.695C83.4257 181.219 83.7641 182.686 84.1591 184.209C85.7388 190.811 87.3184 197.131 88.8417 203.226C88.9545 203.508 89.0109 203.79 89.0674 204.072C91.719 214.681 94.3706 224.669 97.3043 234.375C97.4735 234.826 97.5864 235.334 97.7556 235.785C99.3353 240.977 101.028 246.112 102.833 251.247C102.89 251.473 103.002 251.698 103.059 251.924C105.316 258.357 107.798 264.79 110.562 271.336C110.732 271.674 110.901 272.069 111.07 272.464C113.214 277.43 115.527 282.509 118.066 287.756C118.912 289.562 119.871 291.481 120.887 293.569C121 293.851 121.169 294.077 121.282 294.359C124.385 300.622 128.221 308.014 133.016 316.253C133.468 317.043 133.919 317.89 134.427 318.68C138.658 325.846 143.623 333.633 149.434 341.703C150.167 342.718 150.957 343.734 151.69 344.75C155.865 350.393 160.435 356.205 165.456 362.13C165.626 362.356 165.795 362.581 166.02 362.807C168.672 365.911 171.493 369.071 174.427 372.231C177.022 375.052 179.617 377.704 182.212 380.3C182.833 380.977 183.51 381.598 184.13 382.219C190.111 388.144 196.034 393.448 201.733 398.301C202.353 398.809 202.917 399.26 203.481 399.768C208.785 404.17 213.806 408.12 218.601 411.731C219.673 412.521 220.689 413.311 221.704 414.045C226.725 417.712 231.352 420.985 235.47 423.92C254.426 437.35 271.464 447.225 284.497 454.166H284.44C282.071 454.673 279.758 455.238 277.388 455.746C264.976 449.482 249.179 440.623 231.803 428.66C225.879 424.597 218.319 419.405 209.857 412.69C207.713 410.997 205.512 409.192 203.256 407.33C197.276 402.364 190.957 396.664 184.469 390.175C183.792 389.498 183.115 388.877 182.494 388.2C181.648 387.297 180.858 386.451 180.012 385.604C166.81 371.779 157.05 358.631 149.265 346.894C149.152 346.668 149.039 346.499 148.926 346.33C144.695 339.84 141.028 333.803 137.699 328.329C135.837 325.282 134.145 322.291 132.452 319.357C132.396 319.244 132.339 319.131 132.283 319.018C118.686 294.979 109.998 273.649 103.736 256.382C103.567 255.818 103.341 255.253 103.172 254.745C101.423 249.78 99.8431 245.153 98.3762 240.92C97.7556 239.171 97.1914 237.478 96.6273 235.785C96.2888 234.826 96.0067 233.81 95.6682 232.851C86.3593 203.959 81.3946 179.695 79.42 169.876C78.9687 167.619 78.5173 165.362 78.066 163.105C77.9532 162.653 77.8968 162.146 77.7839 161.694M83.0872 179.639C83.0872 179.582 83.0872 179.582 83.0872 179.582C83.3128 176.648 84.2719 172.077 85.2874 167.337C87.4313 157.688 90.8727 149.788 94.0885 143.975M83.0872 179.639C85.4567 175.576 89.293 169.538 93.8064 163.387C98.9968 156.277 109.772 141.605 127.431 127.95C132.283 124.169 137.078 120.952 141.817 118.187M77.7839 161.694C76.4863 159.663 73.2141 155.938 72.4807 155.148C64.0745 146.007 72.3679 152.891 47.77 125.805C37.5584 114.576 33.4964 111.247 28.5317 104.532C24.6953 99.2836 22.89 95.2207 21.0282 92.1171C23.5106 106.168 29.6036 115.027 33.3272 121.009C39.5895 130.997 46.2467 137.317 53.8066 144.427C62.4384 152.609 68.7008 158.308 74.6246 162.371C75.1887 162.597 77.2762 163.105 78.066 163.048C77.9532 162.597 77.8968 162.089 77.7839 161.638V161.694ZM244.892 258.413C241.789 248.425 237.614 240.525 234.342 235.221M244.892 258.413C254.201 272.746 262.099 287.756 267.91 303.895H267.966C272.141 315.52 274.285 324.943 273.721 337.696C272.367 369.014 251.887 395.818 229.772 409.643C226.613 411.618 223.848 413.029 221.817 414.045C220.802 413.311 219.786 412.521 218.714 411.731C218.263 409.869 219.504 408.007 220.012 407.217C222.72 402.872 221.14 402.251 224.694 394.407C228.079 387.072 231.972 382.049 234.342 378.72C236.937 375.052 239.983 370.143 242.917 363.766M244.892 258.413C245.399 260.05 245.851 261.686 246.302 263.436M246.302 263.436C249.856 270.433 253.129 277.543 255.667 284.935M246.302 263.436C248.164 270.715 249.349 278.954 249.236 287.926C249.236 291.199 248.784 305.983 242.127 323.137C235.752 339.445 225.315 353.891 221.253 359.534C215.216 367.829 209.969 373.754 205.682 384.814C203.651 390.006 202.522 394.689 201.845 398.301C202.41 398.809 203.03 399.26 203.594 399.768C213.637 395.592 222.494 388.369 229.885 380.413C234.68 375.278 238.968 369.635 242.917 363.766M255.667 284.935C256.119 286.233 256.57 287.587 256.965 288.941M255.667 284.935C256.119 286.289 256.57 287.587 256.965 288.941M256.965 288.941C258.657 294.528 260.012 300.227 260.519 306.039M256.965 288.941C258.657 294.528 260.068 300.227 260.519 306.039M260.519 306.039C262.212 327.539 255.611 343.17 250.195 352.198M260.519 306.039C262.268 327.539 255.611 343.17 250.195 352.198M250.195 352.198C247.882 356.092 245.456 359.986 242.917 363.766M184.92 226.418C185.766 232.174 185.71 238.099 184.807 243.516M184.92 226.418L184.977 226.362C194.511 245.096 195.527 267.837 189.49 288.095C183.115 309.594 168.616 329.683 151.747 344.75C150.957 343.734 150.224 342.718 149.49 341.703C151.408 328.611 157.332 314.56 162.579 302.936C167.431 292.214 172.621 281.549 176.119 270.32C180.181 261.799 183.228 252.883 184.807 243.516M184.92 226.418C185.766 232.174 185.71 238.043 184.807 243.516M184.92 226.418C184.018 220.211 182.099 214.117 179.109 208.925H179.053C178.827 208.474 178.545 208.079 178.263 207.627C181.14 218.01 178.432 229.183 173.693 238.833C168.954 248.482 162.184 256.946 156.26 265.918C145.992 281.436 138.15 298.478 133.016 316.31C133.468 317.1 133.975 317.946 134.427 318.736C142.946 315.689 149.603 309.199 155.414 302.146C163.425 292.384 170.703 281.775 176.119 270.376C180.181 261.856 183.228 252.883 184.807 243.516M178.207 262.363C177.586 265.072 176.909 267.724 176.063 270.32M171.154 187.539C169.631 184.435 167.995 181.388 166.246 178.453M171.154 187.539L171.042 187.482C174.37 194.366 177.135 201.477 178.996 208.869C178.432 206.724 176.119 203.903 174.878 201.984C173.411 199.671 171.888 197.301 170.421 194.931C168.503 191.827 166.585 188.667 164.666 185.564C164.61 185.507 164.497 185.394 164.497 185.338C162.579 182.291 160.774 179.187 158.912 176.083C158.009 174.56 157.107 173.036 156.204 171.513C155.809 170.836 155.47 170.215 155.075 169.538C154.568 168.578 154.004 167.676 153.496 166.773C151.69 163.556 149.829 160.283 148.023 157.067C147.911 156.898 147.798 156.672 147.685 156.503C146.5 154.358 144.864 151.593 143.397 148.772C142.438 147.023 141.592 145.273 140.915 143.693C140.633 142.96 140.351 142.283 140.125 141.605C140.576 142.226 141.028 142.903 141.479 143.468C142.777 145.33 143.848 146.853 144.751 148.151C145.428 149.11 146.049 149.957 146.669 150.747C147.572 151.875 148.475 153.004 149.321 154.133C150.393 155.487 151.465 156.898 152.48 158.252C153.439 159.437 154.342 160.678 155.245 161.92C155.583 162.371 155.978 162.879 156.317 163.387C156.599 163.838 156.937 164.233 157.219 164.685C157.332 164.741 157.389 164.854 157.445 164.967C157.727 165.362 157.953 165.701 158.235 166.096C158.348 166.265 158.461 166.378 158.573 166.547C158.855 166.998 159.194 167.393 159.476 167.845C159.815 168.353 160.153 168.861 160.492 169.368C160.604 169.538 160.774 169.763 160.886 169.933C161.733 171.231 162.635 172.585 163.482 173.939C164.441 175.463 165.343 176.93 166.246 178.453M171.154 187.539C169.631 184.435 167.995 181.444 166.246 178.453M171.154 187.539C171.38 180.316 170.082 172.923 166.81 166.491C166.415 165.644 165.964 164.854 165.456 164.064M166.246 178.453C166.359 177.833 166.472 177.156 166.528 176.478C166.754 174.221 166.585 170.892 165.964 166.886M165.456 164.064C165.626 165.023 165.795 165.983 165.964 166.886M165.964 166.886C164.272 167.619 162.635 168.353 161.056 169.143C162.015 165.193 162.297 162.315 162.41 160.453C162.41 159.832 162.41 159.38 162.41 158.985C162.41 157.067 162.353 155.318 162.184 153.794C162.353 153.738 162.692 153.681 162.692 153.681M154.963 130.32C151.521 123.887 147.628 119.203 144.92 116.325C144.243 115.648 143.679 115.027 143.171 114.576C141.366 112.827 139.843 111.529 138.884 110.739M162.24 153.794C162.128 152.891 162.015 152.045 161.902 151.255C162.184 152.101 162.41 152.891 162.692 153.681M154.906 135.793C154.681 135.398 154.455 135.06 154.286 134.665M154.286 134.665C150.901 128.852 146.782 123.153 141.817 118.187M154.286 134.665C154.511 134.608 155.019 134.495 155.019 134.495L155.075 134.552C155.019 135.003 154.963 135.398 154.963 135.85C154.85 136.978 154.681 138.22 154.398 139.517C154.06 141.21 153.552 143.073 152.819 145.217C151.747 145.499 150.675 145.894 149.603 146.289C147.967 146.91 146.387 147.53 144.864 148.208C143.961 146.853 142.889 145.33 141.592 143.524C141.197 142.96 140.746 142.339 140.238 141.662C140.463 142.283 140.689 143.016 141.028 143.75C141.705 145.386 142.607 147.079 143.51 148.828C129.293 155.318 119.928 164.29 113.665 170.384C101.818 181.952 94.1449 194.141 89.1802 204.016C89.0674 203.734 88.9545 203.169 88.9545 203.169C88.9545 200.517 89.1238 197.075 89.8572 193.125C91.719 182.911 95.9503 175.801 98.8275 171.061C104.864 161.073 111.578 154.923 113.609 153.173C125.908 142.283 138.827 138.671 149.885 135.737C151.013 135.455 152.48 135.06 154.286 134.665ZM141.817 118.187C140.576 116.946 139.335 115.817 137.981 114.689M141.817 118.187C142.889 117.567 143.961 116.946 144.977 116.325C146.782 115.309 148.644 114.294 150.393 113.391C161.056 107.974 171.154 104.306 180.576 100.92C191.183 97.0829 200.322 94.6564 206.923 93.02L206.979 93.0764C195.752 91.6657 182.833 92.8507 172.903 94.8257C164.328 96.5186 153.778 98.945 143.341 103.008C142.777 103.234 142.212 103.459 141.648 103.685M140.802 100.356C141.479 101.033 142.212 101.766 143.002 102.613C143.115 102.726 143.228 102.839 143.341 102.951C145.654 105.547 148.249 109.046 150.449 113.447C151.352 115.309 152.198 117.341 152.932 119.542C153.214 120.444 153.496 121.291 153.721 122.137M153.552 166.773C151.69 163.556 149.885 160.34 148.08 157.067C147.854 157.575 147.628 158.083 147.403 158.534C143.059 168.127 138.658 175.293 136.232 179.131C130.929 187.539 129.349 188.836 126.81 192.222C125.739 193.689 124.441 195.551 122.692 198.542C118.009 206.386 111.521 217.277 107.177 232.738C105.259 239.51 102.269 247.297 102.777 251.19C102.833 251.416 102.946 251.642 103.002 251.868C118.574 231.158 132.96 208.248 144.92 185.281C146.726 181.896 148.475 178.397 150.054 174.898C151.296 172.19 152.424 169.481 153.496 166.716L153.552 166.773ZM153.552 166.773C154.06 167.732 154.624 168.635 155.132 169.538C155.47 170.215 155.865 170.836 156.26 171.513C154.116 172.641 152.085 173.77 150.111 174.955C151.352 172.246 152.537 169.538 153.552 166.773ZM141.648 103.685C137.135 105.491 132.621 107.635 128.334 110.118C121.959 113.842 110.224 120.783 100.012 134.665M141.648 103.685C143.284 102.444 144.638 101.484 145.879 100.694C158.404 92.5686 169.293 89.3521 172.508 88.5057C177.36 87.1514 184.187 85.6842 192.537 85.2892L192.48 85.1764C187.685 83.4271 180.407 81.3392 171.436 81.2263C157.163 81.0006 146.782 85.7406 136.683 90.5371C127.375 94.9386 112.311 102.218 99.4481 118.3C97.6992 120.501 89.3494 131.11 83.5385 147.305C81.5639 152.835 80.3227 157.688 79.5893 161.356C81.2818 158.929 83.7641 155.487 87.0363 151.593C89.293 148.941 91.4369 146.571 94.0885 143.975M100.012 134.665C98.6583 136.527 96.458 139.687 94.0885 143.975M100.012 134.665C98.6583 136.47 96.458 139.63 94.0885 143.975M24.1312 63.3383C24.4697 68.2477 25.9365 73.4391 27.9675 78.4613M2.41052 157.293C2.41052 157.293 2.41053 157.236 2.35411 157.18C2.35411 157.18 2.3541 157.18 2.41052 157.236V157.293ZM2.41052 157.293C7.54449 164.967 13.9196 173.657 22.1001 183.194M2.41052 157.293C2.41052 157.293 2.41053 157.293 2.35411 157.236M18.8844 175.293C18.8844 175.293 18.8843 175.181 18.8279 175.124C16.9097 170.271 15.048 165.588 13.299 161.017C9.57551 159.155 5.45705 157.293 1.00009 155.374C1.45143 155.995 1.90277 156.559 2.35411 157.236M18.8844 175.293L18.8279 175.35C18.2073 174.786 17.5868 174.221 16.9662 173.601C10.7603 167.676 5.9648 162.033 2.41052 157.349C2.3541 157.293 2.35411 157.236 2.35411 157.236M18.8844 175.293C20.1255 178.397 21.141 180.993 22.1001 183.194M18.8844 175.293C18.2638 174.729 17.6432 174.165 17.0226 173.544C10.8167 167.676 6.02123 161.976 2.46695 157.293C7.5445 164.967 13.9196 173.713 22.1565 183.194H22.1001M2.35411 157.236C4.55438 161.638 7.71375 169.707 11.8322 177.099C21.8745 195.156 26.7828 201.984 35.8659 212.988C44.3849 223.258 61.2537 241.654 87.0928 251.755C90.9291 253.278 102.551 258.301 103.623 256.382C103.623 256.382 103.623 256.382 103.623 256.326H103.679C103.51 255.761 103.285 255.253 103.115 254.689C99.3917 249.723 79.8149 236.801 58.8277 219.195C55.1042 216.092 51.3243 212.762 47.6007 209.377C37.5585 200.179 29.1523 191.432 22.1001 183.194M57.9815 347.91C50.9293 337.922 46.0774 329.063 40.9999 318.962M45.4005 317.325C47.6571 323.137 48.3906 326.692 52.8475 335.326C49.124 330.812 45.5697 325.733 42.4668 319.865C36.2609 308.24 33.7221 297.519 32.5937 290.352M26.3314 257.454C27.1213 260.953 28.2496 265.128 29.9421 269.812C30.055 270.151 30.1678 270.433 30.2806 270.771M17.5303 248.369C19.11 253.504 22.213 261.178 28.5317 268.683C29.1523 269.417 29.7729 270.094 30.337 270.771M153.665 122.137C154.511 125.467 154.85 128.345 155.019 130.32C155.132 131.617 155.132 132.52 155.075 132.972C155.075 133.48 155.075 133.987 155.075 134.495C155.075 134.947 155.019 135.342 154.963 135.793C154.85 136.978 154.681 138.163 154.398 139.461C154.06 141.154 153.552 143.016 152.819 145.16C152.255 146.853 151.521 148.772 150.675 150.916C150.224 151.988 149.829 153.06 149.377 154.133C150.449 155.487 151.465 156.841 152.537 158.252C153.439 159.493 154.398 160.678 155.301 161.92C156.035 159.663 156.655 157.349 157.163 154.979C157.501 153.455 157.784 151.875 158.009 150.295C158.348 148.095 158.517 145.838 158.517 143.58C158.517 143.355 158.517 143.185 158.517 142.96C158.517 142.847 158.517 142.734 158.517 142.621C158.517 142.621 158.517 142.113 158.517 141.888C158.517 141.718 158.517 141.549 158.517 141.38V141.21C158.517 141.21 158.517 141.154 158.517 141.097C158.517 140.872 158.517 140.646 158.517 140.42C158.517 140.307 158.517 140.195 158.517 140.082C158.517 139.969 158.517 139.856 158.517 139.743C158.517 139.63 158.517 139.517 158.517 139.405C158.517 139.292 158.517 139.179 158.517 139.066C158.517 138.897 158.517 138.727 158.517 138.558C158.517 138.502 158.517 138.445 158.517 138.332C158.517 138.163 158.517 137.937 158.517 137.768C158.517 137.768 158.517 137.712 158.517 137.655C158.517 137.43 158.517 137.204 158.461 136.978C158.461 136.978 158.461 136.696 158.461 136.583C158.461 136.47 158.461 136.357 158.461 136.245C158.461 136.245 158.461 136.245 158.461 136.188C158.461 135.962 158.404 135.737 158.348 135.567C158.348 135.567 158.348 135.455 158.348 135.398C158.348 135.342 158.348 135.229 158.348 135.172C158.348 135.116 158.348 135.003 158.348 134.947C158.348 134.834 158.348 134.721 158.348 134.665C158.348 134.439 158.291 134.27 158.235 134.044C157.501 129.925 156.204 125.918 154.229 122.25L153.665 122.137ZM164.666 185.62C164.666 185.62 164.554 185.451 164.497 185.394C162.635 182.291 160.774 179.243 158.912 176.14C157.953 178.848 156.712 181.896 155.188 185.225C152.029 191.996 148.475 197.526 141.423 208.304C131.775 223.145 131.888 221.34 127.6 228.788C120.717 240.808 116.768 251.698 114.512 258.018C112.424 263.943 111.521 266.708 110.562 270.32C110.619 270.433 110.562 270.884 110.506 271.392C110.675 271.787 110.844 272.182 111.014 272.521C113.496 270.038 121.902 262.702 122.861 261.517C127.205 256.213 132.452 247.748 136.119 241.993C143.566 230.312 149.998 217.897 156.43 205.539C159.589 199.502 162.41 193.181 164.328 186.692C164.441 186.354 164.554 185.959 164.61 185.62H164.666ZM227.459 222.694C230.054 231.553 230.957 238.945 231.295 243.855C232.649 263.266 227.797 278.841 223.792 291.368C221.366 298.873 218.94 304.854 217.247 308.692C213.467 314.56 209.687 320.824 206.02 327.483C196.204 345.314 187.741 364.331 182.269 380.3C182.889 380.921 183.566 381.598 184.187 382.219C193.439 376.068 202.297 366.588 208.221 357.728C210.816 353.891 220.632 341.985 228.249 323.476C231.126 316.535 236.768 302.484 238.347 283.919C240.604 257.116 233.1 235.277 227.402 222.694H227.459ZM219.842 206.104C223.284 226.587 221.309 252.827 211.606 271.166C204.61 284.371 195.075 299.155 186.951 311.739C176.514 328.047 168.898 343.226 165.4 362.13C165.569 362.356 165.795 362.581 165.964 362.807C188.531 345.201 206.923 322.517 217.755 295.995C228.7 269.191 229.659 233.302 219.786 206.047L219.842 206.104ZM165.964 166.829C164.272 167.563 162.635 168.296 161.056 169.086C160.999 169.368 160.886 169.651 160.83 169.933C161.733 171.231 162.579 172.585 163.425 173.939C164.384 175.406 165.287 176.93 166.19 178.453C166.303 177.776 166.359 177.156 166.472 176.478C166.754 174.221 166.585 170.892 165.908 166.886L165.964 166.829ZM170.477 194.931C168.559 191.827 166.585 188.724 164.723 185.564C164.61 185.902 164.554 186.297 164.441 186.636C163.651 192.73 162.24 199.05 159.871 205.483C156.486 214.737 153.834 216.938 142.833 236.914C136.063 249.215 132.678 255.366 129.349 263.605C124.554 275.568 122.184 286.12 120.943 293.569C121.056 293.851 121.225 294.077 121.338 294.359C124.328 292.271 126.585 289.562 128.729 286.571C144.131 264.733 156.43 240.695 165.118 215.471C167.431 208.812 169.462 201.928 170.534 194.987L170.477 194.931ZM232.029 143.129C226.161 143.863 220.689 144.54 215.498 145.217C205.456 146.571 196.824 147.813 189.885 148.885C177.135 150.86 168.672 152.327 162.748 153.625C163.425 155.656 163.989 157.631 164.441 159.493C164.836 161.017 165.174 162.541 165.456 163.951C165.964 164.741 166.415 165.531 166.81 166.378C166.98 166.321 167.149 166.208 167.374 166.152C180.181 160.791 193.721 157.462 195.978 156.898C204.046 154.923 213.129 153.286 224.299 147.53C227.628 145.838 230.28 144.201 232.029 143.073V143.129ZM147.403 158.59C131.267 166.434 121.451 177.551 116.599 183.137C111.296 189.288 104.469 197.357 100.238 209.997C97.8684 217.164 97.135 223.484 96.8529 227.885C105.428 214.06 114.568 204.016 121.564 197.244C122.974 195.89 124.723 194.197 126.81 192.335C129.293 188.949 130.929 187.595 136.232 179.244C138.658 175.406 143.002 168.24 147.403 158.647V158.59ZM234.906 142.621C227.402 139.348 216.232 135.285 202.24 133.141C183.228 130.207 167.374 132.069 157.671 133.931C157.671 134.157 157.727 134.326 157.784 134.552C157.784 134.665 157.784 134.777 157.784 134.834C157.784 134.89 157.784 135.003 157.784 135.06C157.784 135.116 157.784 135.229 157.784 135.285C157.784 135.342 157.784 135.398 157.784 135.455C157.784 135.68 157.84 135.906 157.896 136.075C157.896 136.075 157.896 136.075 157.896 136.132C157.896 136.245 157.896 136.357 157.896 136.47C157.896 136.583 157.896 136.696 157.896 136.809C157.896 136.809 157.896 137.317 157.953 137.542C157.953 137.542 157.953 137.599 157.953 137.655C157.953 137.825 157.953 138.05 157.953 138.22C157.953 138.276 157.953 138.332 157.953 138.445C158.066 138.445 158.235 138.389 158.404 138.332C158.968 139.856 159.476 141.436 159.927 143.073C163.989 142.17 168.108 141.605 172.903 140.928C190.562 138.389 204.666 139.292 213.072 139.912C221.93 140.533 229.321 141.605 234.624 142.508L234.906 142.621ZM158.404 143.637C158.404 143.637 158.686 143.58 158.799 143.524C158.686 143.242 158.517 142.96 158.404 142.678C158.404 142.79 158.404 142.903 158.404 143.016C158.404 143.185 158.404 143.411 158.404 143.637ZM165.795 69.7712C155.64 69.4891 138.432 70.5048 120.266 79.5899C116.599 81.452 111.352 84.1042 105.654 88.4492C101.818 91.3835 97.7556 95.0514 93.9192 99.735C88.7289 105.999 85.3438 112.262 83.0307 117.567C80.9997 122.25 79.8714 126.144 79.1943 128.514C77.389 134.777 76.6556 140.307 76.3171 144.314C84.7232 128.57 94.0885 117.059 101.31 109.441C109.66 100.581 124.215 85.3456 148.023 75.527C155.132 72.5927 161.338 70.8434 165.795 69.7712ZM151.747 51.1497C131.437 52.2782 119.025 60.0654 113.383 64.3541C107.685 68.6991 103.454 74.2291 94.9912 85.2328C80.9433 103.572 77.0505 114.914 75.5272 120.049C74.3425 124.169 73.6091 127.611 73.2141 130.037C76.7684 125.636 80.0406 121.46 83.0872 117.623C85.3438 112.319 88.7853 106.055 93.9757 99.7915C97.812 95.1079 101.874 91.44 105.71 88.5057C117.05 73.8341 124.046 65.5391 136.289 58.3161C142.438 54.7047 147.967 52.504 151.803 51.1497H151.747ZM109.208 50.1904C94.5398 60.5733 88.1647 70.392 85.0617 76.8813C82.3537 82.5242 82.1845 85.6278 77.5582 94.4307C75.5272 98.2679 73.1577 102.274 72.0294 108.312C71.4088 111.698 71.3524 114.519 71.4088 116.494C73.7219 113.447 76.9941 108.989 80.774 103.346C89.1238 90.8193 94.4834 80.3235 99.8995 69.602C102.325 64.8055 105.598 58.2033 109.208 50.2468V50.1904ZM50.9293 4.82145C49.2932 8.43291 47.3751 14.0758 47.2058 21.073C47.2058 22.9916 47.2058 27.5623 50.6473 39.2431C53.9195 50.3032 56.0069 53.3504 59.2227 63.2819C60.6895 67.7962 62.6641 74.5677 64.3002 83.0321C65.3721 87.4335 66.5005 91.7785 67.5724 96.18C67.4596 92.6814 67.2339 87.6592 66.6133 81.6213C65.7671 73.3263 64.2438 59.3883 58.6585 43.3625C54.4836 31.3995 50.9293 26.7723 50.3652 15.8251C50.1395 11.1979 50.5344 7.41718 50.8729 4.87788L50.9293 4.82145ZM66.7262 97.4779C64.3566 90.3678 61.2537 82.4113 54.3144 67.3448C46.3595 50.1339 44.2157 47.2561 39.8151 35.5753C37.897 30.4966 36.4301 26.208 35.5274 23.3866C35.8095 26.8852 36.4865 31.9638 37.9534 37.9453C39.1381 42.7982 40.605 46.9175 47.375 62.4919C52.3962 74.0034 54.8785 79.8156 57.1916 84.3299C61.3101 92.3993 65.3157 99.0015 68.4187 103.854C68.4187 103.854 68.4751 103.967 68.5315 104.024C68.7008 104.306 68.87 104.588 69.0393 104.87C68.8136 104.136 68.5879 103.346 68.2494 102.387C68.2494 102.387 68.193 102.161 68.1366 102.105C67.6852 100.751 67.2339 99.2272 66.6697 97.5343L66.7262 97.4779ZM29.9421 27.7881C30.1114 30.2709 30.5063 34.0517 31.6346 38.5096C33.1579 44.6603 35.471 49.8518 37.6149 53.9147C37.1635 50.1339 36.4301 45.7325 34.6812 39.9767C33.0451 34.6724 31.2397 30.4966 29.9421 27.7881ZM69.0393 115.197C57.8686 85.6842 49.3496 70.8998 43.4258 62.8305C42.4103 61.4197 40.0972 58.3726 37.6713 53.9147C37.8969 55.7768 38.0662 57.4697 38.2919 59.1062C40.3793 73.552 46.8673 84.3299 52.6218 93.8664C56.1197 99.6786 61.4229 107.24 68.9828 115.197H69.0393ZM25.3723 60.1783C27.9111 65.7083 31.3526 72.9877 35.9788 81.2828C39.8151 88.1671 45.2312 97.9293 53.8066 109.497C58.1507 115.422 64.131 122.871 71.8601 130.94C69.9983 127.047 67.0082 121.065 62.8334 114.068C55.4427 101.766 50.0831 95.6157 39.1381 80.2106C35.8095 75.527 31.0141 68.6991 25.4288 60.1219L25.3723 60.1783ZM73.7219 146.176C69.7163 133.367 60.1253 123.21 50.8165 113.56C44.3285 106.845 39.1381 99.1143 34.3991 91.1014C32.086 87.2642 29.8293 82.9192 28.0239 78.4049C27.7983 79.6463 27.629 81.1135 27.5726 82.8063C27.3469 90.0857 30.055 95.7286 32.6501 100.469C41.5641 116.72 52.9603 128.232 54.4272 129.699C58.7149 133.987 64.9208 139.574 72.9885 145.386C73.327 145.668 73.3834 145.95 73.7783 146.176H73.7219ZM80.774 178.736C77.2762 173.883 71.0703 167.506 63.1155 159.945C53.2424 150.465 46.4724 146.74 35.9224 138.445C28.8702 132.915 17.5303 124.564 7.206 111.472C10.3654 118.752 16.402 129.586 24.3004 139.574C28.7574 145.273 33.1579 149.11 37.0507 152.214C39.1946 153.907 41.1691 155.374 42.9181 156.841C46.9801 160.171 51.0986 163.161 55.217 165.813C64.3566 171.738 73.327 176.083 80.7176 178.679L80.774 178.736ZM85.4567 197.978C79.0815 189.514 73.1577 183.137 68.7572 178.736C64.5823 174.56 60.1817 170.102 55.217 165.757C51.0986 163.105 46.9237 160.114 42.9181 156.785C41.1691 155.318 39.1381 153.85 37.0507 152.158C35.2454 151.085 33.3836 150.013 31.4654 148.941C26.6135 146.345 21.2539 143.863 15.3301 138.05C10.0833 132.915 6.92391 127.555 5.00573 123.717C6.52899 130.376 9.63194 140.195 16.7969 149.957C22.1001 157.293 28.1932 162.484 45.9646 174.052C55.9505 180.541 69.2085 188.836 85.4567 197.865V197.978ZM90.5342 216.43C86.6979 212.932 80.8869 207.74 73.7219 201.759C61.4229 191.601 47.6571 180.259 28.5317 169.143C25.0902 167.168 20.859 164.798 15.8943 162.258C18.3202 166.152 21.141 170.158 24.4696 174.165C31.014 182.065 36.9943 186.974 48.3906 196.285C48.5034 196.341 48.6162 196.454 48.6726 196.511C53.2988 199.163 57.4737 201.307 61.5358 203.395C68.87 207.176 78.6866 211.803 90.5906 216.374L90.5342 216.43ZM96.5709 235.785C96.2324 234.826 95.9503 233.81 95.6118 232.851C86.6414 225.177 60.8588 206.555 48.6162 196.567C48.5034 196.511 48.3906 196.398 48.3341 196.341C36.9379 187.031 30.9576 182.121 24.4132 174.221C21.0846 170.215 18.2638 166.208 15.8378 162.315C11.8886 155.938 9.01133 149.9 7.03673 144.822C9.01133 150.013 11.0988 155.43 13.299 161.073C15.1044 165.644 16.9097 170.328 18.8279 175.181C18.8279 175.181 18.8279 175.293 18.8844 175.35C20.1255 178.51 21.141 181.049 22.1001 183.25C29.1523 191.489 37.5585 200.235 47.6007 209.433C51.3243 212.819 55.1042 216.092 58.8277 219.252C67.2903 224.217 74.8502 227.49 80.8305 230.086C86.2465 232.4 92.6217 235.56 96.5709 235.842V235.785ZM5.73914 141.436C6.13406 142.508 6.52898 143.58 6.98032 144.709C6.5854 143.58 6.13406 142.508 5.73914 141.436ZM102.664 270.433C85.9644 259.316 67.5724 251.021 50.1959 240.92C37.3328 233.415 24.921 224.838 14.8223 213.778C12.1707 210.9 7.883 204.354 6.07765 200.856C7.77016 205.257 10.7038 211.408 12.6785 214.963C14.6531 218.518 16.9097 221.904 19.3357 225.177C24.244 231.779 29.9985 237.817 36.2608 243.178C39.8151 246.225 43.4823 249.046 47.375 251.642C65.5978 264.056 104.131 280.082 109.716 278.276C110.055 275.173 105.259 272.182 102.664 270.433ZM209.913 412.69C207.769 410.997 205.569 409.248 203.312 407.33C197.558 405.693 191.126 405.072 185.71 404.169C160.774 400.107 135.555 396.326 111.973 387.297C92.396 379.792 71.8037 365.121 58.0379 347.91C66.6697 362.581 76.5427 376.011 89.97 387.467C113.835 407.781 146.782 419.18 178.15 419.292C188.362 419.292 200.83 417.712 209.913 412.69ZM182.551 388.2C181.704 387.354 180.858 386.451 180.068 385.604C171.042 383.799 158.686 381.936 143.905 378.494C112.819 371.159 97.0222 367.378 86.6978 361.961C80.0406 358.462 65.4286 350.506 52.9039 335.383C69.1521 366.814 98.6583 378.776 111.803 383.46C143.284 394.689 177.755 391.812 182.607 388.2H182.551ZM28.5317 264.846C28.8702 266.539 29.3215 268.401 29.8293 270.32C29.378 268.345 28.983 266.483 28.5317 264.846ZM165.851 369.635C165.005 368.676 163.933 366.531 161.563 365.798C155.47 363.823 136.289 361.227 132.396 360.437C103.792 354.851 78.1224 342.38 63.8489 329.006C43.8772 310.384 34.117 286.515 29.8857 270.32C31.4654 277.261 33.3836 286.064 37.5585 295.374C45.062 312.077 48.1085 323.025 69.7163 342.154C89.6879 359.873 111.634 365.008 122.805 367.434C140.689 371.328 155.922 370.707 165.964 369.579L165.851 369.635ZM149.208 348.248C148.362 345.596 137.699 340.405 124.272 335.89C111.747 331.715 86.9799 321.445 64.8644 305.362C57.8686 300.284 51.155 294.641 45.1748 288.434C41.6205 284.709 36.7122 279.292 31.4654 271.956C31.0705 271.561 30.6756 271.166 30.2806 270.715C32.086 275.511 34.5119 280.816 37.7277 286.233C46.9237 301.694 57.9251 310.497 65.7106 316.592C87.7698 333.859 109.716 339.953 121.846 343.17C132.904 346.104 142.382 347.515 149.152 348.248H149.208ZM133.75 323.589C118.122 315.576 104.921 309.764 95.5553 305.87C84.2719 301.187 66.7261 294.415 46.5288 282.96C41.959 280.364 36.7122 277.204 31.5218 272.013C36.7686 279.349 41.6205 284.766 45.2312 288.49C51.2114 294.697 57.9251 300.34 64.9208 305.419C83.9334 315.915 105.09 322.517 126.698 324.661C129.067 324.887 132.114 325.338 133.806 323.645L133.75 323.589ZM119.533 300.509C114.681 296.729 107.403 291.312 98.0941 285.443C83.0871 275.963 77.8968 274.778 65.2029 267.329C53.1296 260.276 38.7432 251.868 25.9929 237.083C20.0691 230.255 11.945 219.026 5.85197 202.436C8.2215 210.562 12.2835 221.847 19.6178 234.149C23.0592 239.905 36.0916 260.783 61.705 278.051C85.9644 294.415 108.418 298.704 113.552 299.607C116.035 300.058 118.066 300.34 119.533 300.509Z" stroke="#BC9D5A" stroke-width="0.46" stroke-miterlimit="10"/>
</svg>
