<svg width="9" height="8" viewBox="0 0 9 8" fill="none" xmlns="http://www.w3.org/2000/svg">
<path d="M8.7972 4.47065C9.0676 4.21033 9.0676 3.78758 8.7972 3.52727L5.33608 0.195236C5.06568 -0.0650787 4.62655 -0.0650787 4.35615 0.195236C4.08575 0.455551 4.08575 0.878303 4.35615 1.13862L7.32839 4L4.35831 6.86138C4.08791 7.1217 4.08791 7.54445 4.35831 7.80476C4.62871 8.06508 5.06784 8.06508 5.33824 7.80476L8.79936 4.47273L8.7972 4.47065ZM1.18273 7.80268L4.64385 4.47065C4.91425 4.21033 4.91425 3.78758 4.64385 3.52727L1.18273 0.195236C0.91233 -0.0650787 0.4732 -0.0650787 0.2028 0.195236C-0.0676 0.455551 -0.0676 0.878303 0.2028 1.13862L3.17504 4L0.204963 6.86138C-0.0654369 7.1217 -0.0654369 7.54445 0.204963 7.80476C0.475364 8.06508 0.914493 8.06508 1.18489 7.80476L1.18273 7.80268Z" fill="#C1C1C1"/>
</svg>
