<svg width="327" height="96" viewBox="0 0 327 96" fill="none" xmlns="http://www.w3.org/2000/svg">
<g clip-path="url(#clip0_522_911)">
<path d="M118.572 67.6132C111.995 68.5416 105.302 68.1935 98.7485 67.0793C105.58 67.4971 112.528 66.9169 119.267 66.0116C129.063 64.6886 138.581 62.0658 148.308 60.2786C153.588 59.3037 158.938 58.4217 164.102 56.8898C168.595 55.5668 172.787 53.3617 176.839 51.0174C181.147 48.5339 185.362 45.9111 189.716 43.4971C194.07 41.0832 198.261 38.414 202.36 35.6055C206.575 32.7041 210.721 29.6403 214.704 26.414C218.409 23.4198 221.698 19.9614 224.94 16.5029C228.344 12.8356 231.725 9.14511 235.5 5.84917C238.372 3.3424 241.359 1.8337 245.181 1.32306C252.684 0.324992 260.558 2.80855 267.459 5.45459C274.314 8.07741 280.914 11.4894 287.167 15.3192C294.601 19.8453 301.966 24.2089 310.187 27.2496C315.282 29.1296 320.585 30.4759 325.935 31.1954C318.987 30.4062 312.155 28.8047 305.625 26.0194C301.062 24.0697 296.662 21.7486 292.123 19.7757C287.538 17.7795 282.721 16.5958 277.996 15.0407C269.15 12.1161 259.608 7.86851 250.09 8.56484C241.938 9.14511 235.246 14.7621 229.989 20.588C228.483 22.2592 227.094 24 225.38 25.4855C223.574 27.0639 221.536 28.3869 219.451 29.5706C215.584 31.7525 211.438 33.4236 207.409 35.3037C202.847 37.4391 198.539 40.0619 194.162 42.5455C189.461 45.2147 184.713 47.8376 179.92 50.3675C171.281 54.9401 162.226 58.2824 152.963 60.8588C152.963 60.8588 152.963 60.8588 152.94 60.8588C152.662 60.6732 152.291 60.7892 152.037 60.9517C151.828 61.0677 151.643 61.1838 151.434 61.2998C140.689 64.178 129.665 66.0813 118.596 67.6364L118.572 67.6132ZM164.496 58.2824C174.524 54.6848 183.787 49.4623 193.051 44.2631C197.52 41.7563 201.897 39.0407 206.506 36.766C210.512 34.7931 214.681 33.1451 218.641 31.0793C222.346 29.1528 225.797 26.7853 228.669 23.7215C231.725 20.472 234.481 17.1296 238.094 14.3908C241.73 11.6519 245.945 9.79501 250.507 9.47006C255.509 9.09869 260.766 10.6074 265.514 12.0233C270.447 13.4855 275.264 15.296 280.173 16.8511C284.944 18.3598 289.576 19.7757 294.115 21.8646C298.631 23.9304 303.054 26.2051 307.686 28.0387C312.41 29.8956 317.366 31.0561 322.368 31.7989C323.735 32.0078 325.078 32.1703 326.444 32.3095V30.5455C320.284 29.6867 314.263 27.9923 308.427 25.648C300.321 22.3985 293.165 17.6635 285.662 13.2998C279.201 9.53969 272.415 6.26696 265.352 3.80662C258.891 1.55517 251.827 -0.0928028 244.949 0.81242C237.399 1.81049 232.328 7.45072 227.325 12.7428C223.875 16.3869 220.517 20.147 216.834 23.5822C213.106 27.0407 208.937 30.0581 204.815 33.0523C196.455 39.1103 187.423 43.9381 178.623 49.2534C174.13 51.9691 169.521 54.5687 164.496 56.2167C159.1 57.9807 153.38 58.8163 147.822 59.8376C138.141 61.6016 128.646 64.2012 118.873 65.5242C109.471 66.7776 99.7212 67.2186 90.3883 65.3153C89.9483 65.2225 89.4851 65.1296 89.0451 65.0136C88.0029 64.735 86.9608 64.4333 85.9187 64.1084C82.8849 63.1103 79.99 61.7409 77.2342 60.0465C73.2972 57.6325 69.6845 54.7312 65.8401 52.2012C61.9031 49.6016 57.6651 47.9536 53.3113 46.1896C48.5869 44.3095 43.9552 42.2205 39.4393 39.8995C35.0854 37.648 30.9864 34.9091 26.5167 32.8898C22.024 30.8472 17.2764 29.4314 12.691 27.6674C9.12461 26.2979 5.7666 24.441 2.33912 22.7467C1.737 22.4449 1.11172 22.12 0.486433 21.8182V22.8627C1.22751 23.2573 1.96859 23.6287 2.66335 23.9768C6.36873 25.8337 10.0278 27.6674 13.9416 29.0832C18.8049 30.8472 23.7377 32.4488 28.3694 34.8395C33.0475 37.2534 37.4939 40.0851 42.2415 42.3598C46.85 44.588 51.5976 46.5145 56.3682 48.3482C60.861 50.0658 64.8211 52.6886 68.7118 55.4739C71.2592 57.2844 73.7835 59.118 76.4468 60.7428C76.1689 60.6267 75.891 60.5339 75.6131 60.4178C71.0971 58.5842 66.8359 56.2167 62.2274 54.6151C52.8018 51.3192 42.7278 50.8086 33.557 46.677C29.0874 44.6577 24.8262 42.1973 20.3797 40.1084C15.6553 37.8569 10.792 36.1161 6.13714 33.7022C4.23813 32.7273 2.33912 31.7292 0.416957 30.8008V32.0078C3.12652 33.354 5.81292 34.7931 8.52248 36.1393C13.1542 38.4372 18.0638 40.1316 22.6956 42.4527C26.9336 44.588 31.1022 46.8859 35.5023 48.6964C40.0182 50.53 44.7889 51.412 49.5364 52.4101C54.585 53.4546 59.5641 54.6383 64.358 56.5648C68.8044 58.3521 73.0425 60.6035 77.5121 62.3443C86.405 65.7795 95.7842 68.147 105.279 68.8898C114.867 69.6325 124.385 67.7989 133.788 66.1277C137.887 65.4082 141.986 64.5726 146.038 63.6441C145.969 63.6906 145.946 63.7602 145.923 63.8298C144.001 64.5494 142.032 65.1761 140.04 65.7099C135.918 66.8472 131.703 67.5203 127.535 68.472C119.174 70.3753 110.444 71.6751 101.875 70.9555C97.4285 70.5842 93.3294 69.3076 89.184 67.6596C84.6913 65.8956 80.3374 63.8298 75.9373 61.8569C71.5835 59.9072 67.1833 58.0735 62.6211 56.7041C57.8504 55.265 52.9639 54.3134 48.0311 53.6635C43.0752 53.0136 38.0729 52.619 33.0938 52.0619C28.161 51.5281 23.3209 50.5532 18.3881 50.0426C13.7332 49.5552 9.05513 49.1374 4.70131 47.3037C3.21915 46.677 1.78332 45.9111 0.393799 45.0987V46.3289C1.38962 46.8859 2.4086 47.4198 3.45074 47.9072C7.66561 49.8337 12.2742 50.3443 16.8133 50.8318C21.6997 51.3424 26.5167 52.2708 31.4032 52.8279C36.475 53.4082 41.5699 53.8027 46.6416 54.4294C51.6902 55.0561 56.6925 56.0078 61.5789 57.4468C66.1412 58.7699 70.5645 60.6267 74.8952 62.5532C79.2953 64.5029 83.6491 66.5687 88.1187 68.3559C92.1947 69.9807 96.2474 71.2805 100.601 71.7447C109.1 72.6499 117.808 71.4198 126.122 69.6325C133.394 68.0774 140.851 66.8937 147.729 63.9923C157.294 61.9962 166.858 59.884 176.168 56.8202C180.892 55.265 185.547 53.4314 189.994 51.1567C192.402 49.9265 194.718 48.4643 197.057 47.1412C199.604 45.7022 202.152 44.3095 204.722 42.9401C209.748 40.294 214.889 37.8337 220.146 35.6983C225.334 33.5629 230.683 31.9149 235.732 29.4778C238.025 28.3637 240.271 27.1335 242.471 25.8337C244.833 24.4643 247.08 22.8627 249.511 21.6325C253.911 19.4507 258.682 19.5436 263.453 19.9381C274.986 20.8666 286.426 23.2805 297.334 27.1799C300.067 28.1548 302.753 29.2457 305.555 30.0813C308.242 30.8937 310.974 31.5203 313.73 32.0078C317.876 32.7505 322.067 33.1683 326.282 33.4004V32.5416C323.063 32.3327 319.844 32.031 316.625 31.5668C310.905 30.7312 305.416 29.1761 300.02 27.1103C289.298 23.0484 278.043 20.588 266.649 19.3579C261.971 18.8472 257.107 18.383 252.499 19.6132C250.206 20.2399 248.099 21.3076 246.107 22.6074C243.814 24.0929 241.452 25.4623 239.044 26.7853C234.227 29.4314 229.201 31.4043 224.06 33.2844C218.71 35.2341 213.5 37.5552 208.405 40.0851C203.356 42.5919 198.4 45.3308 193.514 48.1625C189.021 50.7621 184.436 52.9672 179.549 54.7776C170.239 58.2128 160.536 60.4643 150.855 62.5068C150.971 62.4604 151.064 62.3908 151.18 62.3443C155.603 61.1838 159.98 59.8376 164.288 58.3056L164.496 58.2824Z" stroke="#BC9D5A" stroke-width="0.46" stroke-miterlimit="10"/>
<path d="M201.781 58.1896C205.741 56.9362 209.539 55.3811 213.106 53.2921C214.866 52.2476 216.58 51.1335 218.34 50.0658C220.169 48.9749 222.068 48.0465 223.898 46.9788C226.769 45.2844 229.294 43.0793 232.119 41.2921C233.184 40.619 234.227 39.9923 235.384 39.5281C236.519 39.0639 237.677 38.6925 238.835 38.3211C241.776 37.3695 244.717 36.4875 247.612 35.443C250.53 34.3985 253.425 33.1683 256.042 31.4971C257.362 30.6615 258.45 29.5242 259.771 28.6654C261.345 27.6209 263.198 27.2496 265.074 27.296C267.992 27.3656 270.864 28.3637 273.573 29.4314C276.491 30.5687 279.34 31.9149 282.304 32.9594C288.51 35.1877 295.087 36.1393 301.271 38.4604C300.043 38.8086 298.839 39.2496 297.635 39.6906C293.744 41.0832 289.9 42.1045 285.824 42.7312C284.157 42.9865 282.489 43.3347 280.938 43.9381C279.409 44.5416 277.95 45.2844 276.422 45.9111C273.272 47.2109 269.636 47.0716 266.278 47.1412C258.126 47.3501 249.974 48.3018 241.962 49.8569C234.134 51.3656 226.445 53.4778 218.872 55.9846C214.843 57.3076 210.836 58.2824 206.645 58.9091C202.638 59.5126 198.632 59.9536 194.648 60.7196C193.606 60.9285 192.587 61.1142 191.568 61.3231C194.926 60.1161 198.377 59.2341 201.758 58.1664L201.781 58.1896ZM326.467 88.4333C321.836 88.5494 317.204 88.6654 312.572 88.294C310.002 88.0851 307.408 87.2728 304.907 86.6693C302.475 86.0658 300.02 85.4391 297.612 84.766C293.119 83.5358 288.649 82.2128 284.18 80.8898C279.664 79.5668 275.125 78.3134 270.725 76.5958C261.924 73.1838 253.518 68.6577 244.208 66.7312C241.267 66.1277 238.349 65.7795 235.384 65.6171C235.292 65.5706 235.222 65.5474 235.107 65.5474C234.898 65.5242 234.713 65.5474 234.504 65.5706C227.673 65.2689 220.818 65.9188 213.963 66.4991C209.007 66.9169 204.143 67.9149 199.164 68.147C194.579 68.3792 189.994 68.1935 185.431 68.0542C180.846 67.9149 176.376 67.7989 171.837 68.4952C167.414 69.1683 163.06 70.4217 158.822 71.7679C153.658 71.4662 148.586 72.5339 143.445 72.8821C138.234 73.2302 133.139 74.2979 128.067 75.4352C122.972 76.5726 117.762 76.7815 112.621 77.5706C107.78 78.3366 103.01 79.5668 98.1001 79.8917C95.5989 80.0542 93.1441 79.8221 90.643 79.6596C88.1419 79.4971 85.6407 79.5436 83.1627 79.6596C79.11 79.8221 75.0804 80.1935 71.0276 80.4488C77.1183 78.8704 83.487 78.9169 89.8093 78.6615C91.7083 78.5919 93.6073 78.6615 95.5063 78.5919C97.5906 78.5223 99.6749 78.2437 101.736 77.9884C105.742 77.4778 109.703 76.7118 113.663 76.0155C120.958 74.7621 128.299 73.5784 135.524 71.9536C143.167 70.236 150.485 67.4739 158.15 65.8724C166.024 64.2244 174.037 64.7583 182.004 64.0851C186.126 63.737 190.109 62.9014 194.162 62.0658C198.122 61.2534 202.152 60.8124 206.135 60.2322C210.049 59.6519 213.94 58.9091 217.691 57.6557C221.512 56.3792 225.357 55.1722 229.271 54.1045C237.214 51.9227 245.32 50.2979 253.518 49.3695C257.107 48.9749 260.674 48.7196 264.286 48.6499C267.506 48.5803 270.725 48.766 273.897 48.2554C276.445 47.8376 278.969 47.1645 281.308 46.12C284.388 44.7273 287.816 44.2863 291.035 43.4043C294.439 42.4527 297.681 41.0832 301.039 40.0387C304.305 39.0407 307.825 39.0871 311.183 38.7853C316.254 38.3211 321.28 36.5571 326.398 36.5803V35.0484C323.735 35.0484 321.025 35.5822 318.431 36.0465C315.097 36.6499 311.831 37.207 308.427 37.4623C306.62 37.6016 304.814 37.7409 303.031 38.0426C302.915 38.0426 302.776 38.089 302.66 38.1122C298.886 36.6499 294.925 35.7215 291.012 34.7234C286.797 33.6557 282.721 32.3327 278.714 30.6383C272.415 27.9923 264.773 24.4875 258.404 28.8743C257.13 29.7331 256.065 30.824 254.768 31.6364C253.448 32.472 252.036 33.1451 250.623 33.7718C247.682 35.0716 244.602 36.0465 241.522 37.0213C239.067 37.7873 236.589 38.5068 234.227 39.5281C231.494 40.7118 229.062 42.6383 226.677 44.4024C225.588 45.2147 224.477 46.0039 223.319 46.7002C221.814 47.6287 220.216 48.3946 218.664 49.2766C215.63 50.9942 212.758 53.0136 209.655 54.6383C203.148 58.0039 195.783 59.0948 189.044 61.8801C186.89 62.2979 184.713 62.6461 182.513 62.855C178.391 63.2496 174.246 63.3192 170.123 63.4352C166.233 63.5281 162.458 63.853 158.614 64.5958C154.885 65.3385 151.226 66.3366 147.59 67.4275C144.186 68.4256 140.805 69.4701 137.331 70.1896C134.135 70.8627 130.939 71.4198 127.72 71.9768C120.981 73.1606 114.218 74.3675 107.479 75.5513C100.509 76.7583 93.561 77.501 86.4976 77.7563C80.0595 77.9652 73.6214 78.2438 67.577 80.6345C65.2148 80.7041 62.8758 80.6345 60.5368 80.5648C58.0125 80.4952 55.5345 80.031 53.0334 79.7989C47.9848 79.3347 42.8899 79.6596 37.8413 79.9149C34.3212 80.0774 30.8242 80.1702 27.3273 80.5184C23.8303 80.8666 20.426 81.7486 16.9522 82.2128C15.2385 82.4449 13.5247 82.6306 11.811 82.8395C10.213 83.0252 8.61508 83.2805 6.99398 83.3269C4.86338 83.3966 2.66331 83.2805 0.532715 83.559V84.8588C2.03803 84.6964 3.5665 84.6964 5.09497 84.6732C7.48031 84.6499 9.77301 84.3482 12.1352 84.0697C14.6595 83.7679 17.1838 83.4894 19.7081 83.0484C22.2555 82.6074 24.7798 82.0503 27.3736 81.7718C32.4916 81.2147 37.7023 81.1219 42.8436 80.9594C45.3678 80.8898 47.869 80.8898 50.3933 81.0291C52.9176 81.1683 55.4187 81.5397 57.9198 81.8182C67.9475 83.002 77.9984 80.7737 88.0492 80.8434C90.5504 80.8434 93.0515 81.1683 95.5526 81.1915C97.9611 81.2147 100.37 80.9362 102.732 80.5648C107.734 79.7757 112.621 78.4759 117.669 77.9652C121.05 77.6171 124.478 77.4546 127.836 76.8743C131.333 76.294 134.783 75.5745 138.257 74.9246C139.901 74.5997 141.546 74.2747 143.19 73.8801C144.927 73.4855 146.687 73.2766 148.447 73.0909C151.041 72.8124 153.611 72.7428 156.205 72.6267C148.146 75.3888 140.341 78.8937 132.166 81.3772C122.463 84.325 112.435 86.2283 102.338 87.2496C92.542 88.2244 82.6996 89.0832 72.8571 89.7795C68.017 90.1277 63.1768 90.4991 58.3367 91.0097C53.5892 91.5203 48.7953 92.3095 44.0246 92.4488C39.3234 92.6113 34.6686 91.706 29.9673 92.031C27.4894 92.1935 25.0114 92.6113 22.5566 93.0523C19.546 93.5861 16.5353 94.3753 13.6405 95.3966C13.571 95.4198 13.4784 95.443 13.4089 95.4894H16.5585C19.1754 94.9323 21.8155 94.4913 24.4556 94.0735C27.3967 93.6093 30.2916 93.3076 33.279 93.3772C38.3508 93.4701 43.2141 94.0735 48.2858 93.5165C58.3367 92.4024 68.3875 91.4971 78.4615 90.8008C83.5796 90.4526 88.7208 90.3134 93.8389 89.8492C98.9338 89.385 104.029 88.5261 109.077 87.737C118.688 86.2051 128.229 84 137.447 80.8898C146.316 77.8956 154.769 73.9497 163.824 71.5126C168.34 70.2824 173.088 69.4933 177.766 69.3772C182.351 69.2379 186.96 69.7022 191.522 69.795C196.2 69.8646 200.855 69.7022 205.487 69.1219C207.918 68.8202 210.327 68.147 212.758 67.9149C215.422 67.6596 218.108 67.4275 220.795 67.2186C230.498 66.4526 240.086 66.5223 249.465 69.4004C257.964 72 265.838 76.3173 274.245 79.2186C278.321 80.6345 282.535 81.7022 286.658 82.9091C290.965 84.1857 295.296 85.4159 299.627 86.5764C301.526 87.0871 303.425 87.5745 305.347 88.0387C294.277 87.6906 283.3 85.9265 272.485 83.6287C266.556 82.3521 260.72 80.8202 254.838 79.4043C251.734 78.6383 248.631 77.826 245.528 76.9904C242.587 76.2012 239.553 75.5745 236.658 74.6229C231.517 72.9285 226.839 69.9807 221.397 69.2844C216.765 68.6809 211.902 70.0271 207.594 71.6287C202.777 73.4159 198.238 75.8995 193.792 78.4991C189.438 81.0523 185.269 84.0465 180.707 86.2051C170.193 91.2186 158.197 91.6364 146.895 93.4004C143.977 93.8646 141.059 94.4217 138.165 95.0484C137.447 95.2109 136.729 95.3733 136.011 95.559H137.956C137.956 95.559 138.165 95.5126 138.28 95.4894C141.175 94.8627 144.093 94.3056 147.034 93.8414C158.058 92.1238 169.498 91.5668 179.873 87.1103C184.459 85.1374 188.604 82.2592 192.888 79.6828C197.474 76.9207 202.175 74.2747 207.177 72.3018C211.971 70.3985 217.228 69.0523 222.369 70.1664C227.788 71.3501 232.559 74.4604 237.932 75.8066C260.882 81.6325 283.948 88.5494 307.825 88.6654C309.77 89.1296 311.715 89.5706 313.661 89.9652C317.829 90.8472 322.183 90.5223 326.421 90.1973V88.5029L326.467 88.4333Z" stroke="#BC9D5A" stroke-width="0.46" stroke-miterlimit="10"/>
</g>
<defs>
<clipPath id="clip0_522_911">
<rect width="327" height="96" fill="white"/>
</clipPath>
</defs>
</svg>
