<svg width="331" height="96" viewBox="0 0 331 96" fill="none" xmlns="http://www.w3.org/2000/svg">
<g clip-path="url(#clip0_442_216)">
<path d="M120.459 67.6132C113.831 68.5416 107.086 68.1935 100.481 67.0793C107.366 67.4971 114.368 66.9169 121.16 66.0116C131.032 64.6886 140.625 62.0658 150.428 60.2786C155.749 59.3037 161.14 58.4217 166.345 56.8898C170.873 55.5668 175.097 53.3617 179.182 51.0174C183.523 48.5339 187.771 45.9111 192.159 43.4971C196.546 41.0832 200.771 38.414 204.902 35.6055C209.15 32.7041 213.328 29.6403 217.342 26.414C221.076 23.4198 224.391 19.9614 227.658 16.5029C231.089 12.8356 234.497 9.14511 238.301 5.84917C241.195 3.3424 244.206 1.8337 248.057 1.32306C255.619 0.324992 263.554 2.80855 270.51 5.45459C277.418 8.07741 284.07 11.4894 290.372 15.3192C297.864 19.8453 305.286 24.2089 313.571 27.2496C318.706 29.1296 324.051 30.4759 329.442 31.1954C322.44 30.4062 315.555 28.8047 308.973 26.0194C304.375 24.0697 299.941 21.7486 295.366 19.7757C290.745 17.7795 285.89 16.5958 281.129 15.0407C272.213 12.1161 262.597 7.86851 253.005 8.56484C244.789 9.14511 238.044 14.7621 232.746 20.588C231.229 22.2592 229.829 24 228.102 25.4855C226.281 27.0639 224.227 28.3869 222.127 29.5706C218.229 31.7525 214.051 33.4236 209.99 35.3037C205.392 37.4391 201.051 40.0619 196.64 42.5455C191.902 45.2147 187.117 47.8376 182.286 50.3675C173.58 54.9401 164.455 58.2824 155.119 60.8588C155.119 60.8588 155.119 60.8588 155.095 60.8588C154.815 60.6732 154.442 60.7892 154.185 60.9517C153.975 61.0677 153.788 61.1838 153.578 61.2998C142.749 64.178 131.639 66.0813 120.483 67.6364L120.459 67.6132ZM166.742 58.2824C176.848 54.6848 186.184 49.4623 195.52 44.2631C200.024 41.7563 204.435 39.0407 209.08 36.766C213.118 34.7931 217.319 33.1451 221.31 31.0793C225.044 29.1528 228.522 26.7853 231.416 23.7215C234.497 20.472 237.274 17.1296 240.915 14.3908C244.579 11.6519 248.827 9.79501 253.425 9.47006C258.466 9.09869 263.764 10.6074 268.549 12.0233C273.52 13.4855 278.375 15.296 283.323 16.8511C288.131 18.3598 292.799 19.7757 297.373 21.8646C301.925 23.9304 306.383 26.2051 311.05 28.0387C315.812 29.8956 320.806 31.0561 325.848 31.7989C327.225 32.0078 328.578 32.1703 329.955 32.3095V30.5455C323.747 29.6867 317.679 27.9923 311.797 25.648C303.628 22.3985 296.417 17.6635 288.854 13.2998C282.343 9.53969 275.504 6.26696 268.386 3.80662C261.874 1.55517 254.755 -0.0928028 247.824 0.81242C240.215 1.81049 235.103 7.45072 230.062 12.7428C226.585 16.3869 223.2 20.147 219.489 23.5822C215.732 27.0407 211.53 30.0581 207.376 33.0523C198.95 39.1103 189.848 43.9381 180.979 49.2534C176.451 51.9691 171.807 54.5687 166.742 56.2167C161.304 57.9807 155.539 58.8163 149.937 59.8376C140.181 61.6016 130.612 64.2012 120.763 65.5242C111.287 66.7776 101.461 67.2186 92.0552 65.3153C91.6118 65.2225 91.145 65.1296 90.7015 65.0136C89.6513 64.735 88.601 64.4333 87.5507 64.1084C84.4932 63.1103 81.5758 61.7409 78.7984 60.0465C74.8306 57.6325 71.1897 54.7312 67.3153 52.2012C63.3476 49.6016 59.0764 47.9536 54.6886 46.1896C49.9273 44.3095 45.2594 42.2205 40.7082 39.8995C36.3203 37.648 32.1892 34.9091 27.6847 32.8898C23.1568 30.8472 18.3722 29.4314 13.751 27.6674C10.1567 26.2979 6.77245 24.441 3.31819 22.7467C2.71136 22.4449 2.08119 22.12 1.45102 21.8182V22.8627C2.19789 23.2573 2.94476 23.6287 3.64494 23.9768C7.37927 25.8337 11.0669 27.6674 15.0113 29.0832C19.9126 30.8472 24.884 32.4488 29.5519 34.8395C34.2665 37.2534 38.7477 40.0851 43.5323 42.3598C48.1768 44.588 52.9615 46.5145 57.7694 48.3482C62.2973 50.0658 66.2883 52.6886 70.2094 55.4739C72.7767 57.2844 75.3208 59.118 78.0048 60.7428C77.7247 60.6267 77.4447 60.5339 77.1646 60.4178C72.6134 58.5842 68.3189 56.2167 63.6743 54.6151C54.1751 51.3192 44.0224 50.8086 34.7799 46.677C30.2754 44.6577 25.9809 42.1973 21.4997 40.1084C16.7384 37.8569 11.8371 36.1161 7.14588 33.7022C5.23203 32.7273 3.31819 31.7292 1.38101 30.8008V32.0078C4.11174 33.354 6.81913 34.7931 9.54985 36.1393C14.2178 38.4372 19.1658 40.1316 23.8337 42.4527C28.1048 44.588 32.3059 46.8859 36.7405 48.6964C41.2917 50.53 46.0996 51.412 50.8842 52.4101C55.9723 53.4546 60.9903 54.6383 65.8216 56.5648C70.3028 58.3521 74.5739 60.6035 79.0784 62.3443C88.0408 65.7795 97.4934 68.147 107.063 68.8898C116.725 69.6325 126.318 67.7989 135.794 66.1277C139.925 65.4082 144.056 64.5726 148.14 63.6441C148.07 63.6906 148.047 63.7602 148.024 63.8298C146.086 64.5494 144.102 65.1761 142.095 65.7099C137.941 66.8472 133.693 67.5203 129.492 68.472C121.066 70.3753 112.267 71.6751 103.632 70.9555C99.1505 70.5842 95.0194 69.3076 90.8416 67.6596C86.3137 65.8956 81.9259 63.8298 77.4913 61.8569C73.1035 59.9072 68.669 58.0735 64.0711 56.7041C59.2631 55.265 54.3385 54.3134 49.3672 53.6635C44.3725 53.0136 39.3311 52.619 34.3131 52.0619C29.3418 51.5281 24.4638 50.5532 19.4925 50.0426C14.8013 49.5552 10.0867 49.1374 5.69883 47.3037C4.20509 46.677 2.75804 45.9111 1.35767 45.0987V46.3289C2.36127 46.8859 3.38821 47.4198 4.43849 47.9072C8.68629 49.8337 13.3309 50.3443 17.9054 50.8318C22.8301 51.3424 27.6847 52.2708 32.6094 52.8279C37.7207 53.4082 42.8554 53.8027 47.9668 54.4294C53.0548 55.0561 58.0962 56.0078 63.0208 57.4468C67.6187 58.7699 72.0766 60.6267 76.4411 62.5532C80.8756 64.5029 85.2634 66.5687 89.768 68.3559C93.8757 69.9807 97.9601 71.2805 102.348 71.7447C110.914 72.6499 119.689 71.4198 128.068 69.6325C135.397 68.0774 142.912 66.8937 149.844 63.9923C159.483 61.9962 169.122 59.884 178.505 56.8202C183.266 55.265 187.958 53.4314 192.439 51.1567C194.866 49.9265 197.2 48.4643 199.557 47.1412C202.125 45.7022 204.692 44.3095 207.283 42.9401C212.347 40.294 217.529 37.8337 222.827 35.6983C228.055 33.5629 233.446 31.9149 238.534 29.4778C240.845 28.3637 243.109 27.1335 245.326 25.8337C247.707 24.4643 249.971 22.8627 252.421 21.6325C256.856 19.4507 261.664 19.5436 266.472 19.9381C278.095 20.8666 289.625 23.2805 300.618 27.1799C303.372 28.1548 306.079 29.2457 308.903 30.0813C311.611 30.8937 314.365 31.5203 317.142 32.0078C321.32 32.7505 325.544 33.1683 329.792 33.4004V32.5416C326.548 32.3327 323.304 32.031 320.059 31.5668C314.295 30.7312 308.763 29.1761 303.325 27.1103C292.519 23.0484 281.176 20.588 269.693 19.3579C264.978 18.8472 260.077 18.383 255.432 19.6132C253.122 20.2399 250.998 21.3076 248.99 22.6074C246.68 24.0929 244.299 25.4623 241.872 26.7853C237.017 29.4314 231.953 31.4043 226.771 33.2844C221.38 35.2341 216.128 37.5552 210.994 40.0851C205.906 42.5919 200.911 45.3308 195.986 48.1625C191.458 50.7621 186.837 52.9672 181.913 54.7776C172.53 58.2128 162.751 60.4643 152.995 62.5068C153.112 62.4604 153.205 62.3908 153.322 62.3443C157.779 61.1838 162.191 59.8376 166.532 58.3056L166.742 58.2824Z" stroke="#BC9D5A" stroke-width="0.46" stroke-miterlimit="10"/>
<path d="M204.319 58.1896C208.31 56.9362 212.137 55.3811 215.732 53.2921C217.505 52.2476 219.233 51.1335 221.006 50.0658C222.85 48.9749 224.764 48.0465 226.608 46.9788C229.502 45.2844 232.046 43.0793 234.893 41.2921C235.967 40.619 237.017 39.9923 238.184 39.5281C239.328 39.0639 240.495 38.6925 241.662 38.3211C244.626 37.3695 247.59 36.4875 250.508 35.443C253.448 34.3985 256.366 33.1683 259.003 31.4971C260.334 30.6615 261.431 29.5242 262.761 28.6654C264.348 27.6209 266.215 27.2496 268.106 27.296C271.046 27.3656 273.941 28.3637 276.671 29.4314C279.612 30.5687 282.483 31.9149 285.47 32.9594C291.725 35.1877 298.354 36.1393 304.585 38.4604C303.348 38.8086 302.135 39.2496 300.921 39.6906C297 41.0832 293.126 42.1045 289.018 42.7312C287.337 42.9865 285.657 43.3347 284.093 43.9381C282.553 44.5416 281.082 45.2844 279.542 45.9111C276.368 47.2109 272.704 47.0716 269.319 47.1412C261.104 47.3501 252.888 48.3018 244.813 49.8569C236.924 51.3656 229.175 53.4778 221.543 55.9846C217.482 57.3076 213.444 58.2824 209.22 58.9091C205.182 59.5126 201.144 59.9536 197.13 60.7196C196.08 60.9285 195.053 61.1142 194.026 61.3231C197.41 60.1161 200.888 59.2341 204.295 58.1664L204.319 58.1896ZM329.979 88.4333C325.311 88.5494 320.643 88.6654 315.975 88.294C313.384 88.0851 310.77 87.2728 308.25 86.6693C305.799 86.0658 303.325 85.4391 300.898 84.766C296.37 83.5358 291.865 82.2128 287.361 80.8898C282.81 79.5668 278.235 78.3134 273.801 76.5958C264.931 73.1838 256.459 68.6577 247.077 66.7312C244.113 66.1277 241.172 65.7795 238.184 65.6171C238.091 65.5706 238.021 65.5474 237.904 65.5474C237.694 65.5242 237.508 65.5474 237.297 65.5706C230.412 65.2689 223.504 65.9188 216.595 66.4991C211.601 66.9169 206.699 67.9149 201.681 68.147C197.06 68.3792 192.439 68.1935 187.841 68.0542C183.22 67.9149 178.715 67.7989 174.141 68.4952C169.683 69.1683 165.295 70.4217 161.024 71.7679C155.819 71.4662 150.708 72.5339 145.526 72.8821C140.275 73.2302 135.14 74.2979 130.029 75.4352C124.894 76.5726 119.643 76.7815 114.461 77.5706C109.583 78.3366 104.775 79.5668 99.8274 79.8917C97.3067 80.0542 94.8327 79.8221 92.3121 79.6596C89.7914 79.4971 87.2707 79.5436 84.7734 79.6596C80.689 79.8221 76.6279 80.1935 72.5434 80.4488C78.6818 78.8704 85.1001 78.9169 91.4718 78.6615C93.3857 78.5919 95.2995 78.6615 97.2134 78.5919C99.3139 78.5223 101.414 78.2437 103.492 77.9884C107.529 77.4778 111.521 76.7118 115.512 76.0155C122.864 74.7621 130.262 73.5784 137.544 71.9536C145.246 70.236 152.621 67.4739 160.347 65.8724C168.282 64.2244 176.358 64.7583 184.387 64.0851C188.541 63.737 192.555 62.9014 196.64 62.0658C200.631 61.2534 204.692 60.8124 208.706 60.2322C212.651 59.6519 216.572 58.9091 220.353 57.6557C224.204 56.3792 228.078 55.1722 232.023 54.1045C240.028 51.9227 248.197 50.2979 256.459 49.3695C260.077 48.9749 263.671 48.7196 267.312 48.6499C270.556 48.5803 273.801 48.766 276.998 48.2554C279.565 47.8376 282.109 47.1645 284.467 46.12C287.571 44.7273 291.025 44.2863 294.269 43.4043C297.7 42.4527 300.968 41.0832 304.352 40.0387C307.643 39.0407 311.191 39.0871 314.575 38.7853C319.686 38.3211 324.751 36.5571 329.909 36.5803V35.0484C327.225 35.0484 324.494 35.5822 321.88 36.0465C318.519 36.6499 315.228 37.207 311.797 37.4623C309.977 37.6016 308.156 37.7409 306.359 38.0426C306.243 38.0426 306.103 38.089 305.986 38.1122C302.181 36.6499 298.19 35.7215 294.246 34.7234C289.998 33.6557 285.89 32.3327 281.853 30.6383C275.504 27.9923 267.802 24.4875 261.384 28.8743C260.1 29.7331 259.027 30.824 257.72 31.6364C256.389 32.472 254.965 33.1451 253.542 33.7718C250.578 35.0716 247.473 36.0465 244.369 37.0213C241.895 37.7873 239.398 38.5068 237.017 39.5281C234.263 40.7118 231.813 42.6383 229.409 44.4024C228.312 45.2147 227.191 46.0039 226.024 46.7002C224.507 47.6287 222.897 48.3946 221.333 49.2766C218.276 50.9942 215.382 53.0136 212.254 54.6383C205.696 58.0039 198.274 59.0948 191.482 61.8801C189.311 62.2979 187.117 62.6461 184.9 62.855C180.746 63.2496 176.568 63.3192 172.413 63.4352C168.492 63.5281 164.688 63.853 160.814 64.5958C157.056 65.3385 153.368 66.3366 149.704 67.4275C146.273 68.4256 142.866 69.4701 139.365 70.1896C136.144 70.8627 132.923 71.4198 129.679 71.9768C122.887 73.1606 116.072 74.3675 109.28 75.5513C102.255 76.7583 95.2528 77.501 88.1343 77.7563C81.6459 77.9652 75.1575 78.2438 69.0659 80.6345C66.6852 80.7041 64.3279 80.6345 61.9706 80.5648C59.4266 80.4952 56.9293 80.031 54.4086 79.7989C49.3206 79.3347 44.1859 79.6596 39.0978 79.9149C35.5502 80.0774 32.026 80.1702 28.5017 80.5184C24.9774 80.8666 21.5465 81.7486 18.0456 82.2128C16.3184 82.4449 14.5913 82.6306 12.8642 82.8395C11.2537 83.0252 9.64331 83.2805 8.00954 83.3269C5.8623 83.3966 3.64504 83.2805 1.4978 83.559V84.8588C3.01487 84.6964 4.55529 84.6964 6.0957 84.6732C8.49967 84.6499 10.8103 84.3482 13.1909 84.0697C15.7349 83.7679 18.279 83.4894 20.823 83.0484C23.3903 82.6074 25.9343 82.0503 28.5484 81.7718C33.7064 81.2147 38.9578 81.1219 44.1392 80.9594C46.6832 80.8898 49.2039 80.8898 51.7479 81.0291C54.2919 81.1683 56.8126 81.5397 59.3333 81.8182C69.4393 83.002 79.5687 80.7737 89.698 80.8434C92.2187 80.8434 94.7394 81.1683 97.26 81.1915C99.6874 81.2147 102.115 80.9362 104.495 80.5648C109.537 79.7757 114.461 78.4759 119.549 77.9652C122.957 77.6171 126.411 77.4546 129.795 76.8743C133.32 76.294 136.797 75.5745 140.298 74.9246C141.955 74.5997 143.612 74.2747 145.27 73.8801C147.02 73.4855 148.794 73.2766 150.568 73.0909C153.182 72.8124 155.772 72.7428 158.386 72.6267C150.264 75.3888 142.399 78.8937 134.16 81.3772C124.381 84.325 114.275 86.2283 104.099 87.2496C94.2259 88.2244 84.3066 89.0832 74.3873 89.7795C69.5093 90.1277 64.6313 90.4991 59.7534 91.0097C54.9688 91.5203 50.1375 92.3095 45.3295 92.4488C40.5916 92.6113 35.9003 91.706 31.1624 92.031C28.6651 92.1935 26.1677 92.6113 23.6937 93.0523C20.6596 93.5861 17.6254 94.3753 14.708 95.3966C14.638 95.4198 14.5446 95.443 14.4746 95.4894H17.6488C20.2862 94.9323 22.9469 94.4913 25.6076 94.0735C28.5717 93.6093 31.4891 93.3076 34.5 93.3772C39.6113 93.4701 44.5126 94.0735 49.624 93.5165C59.7534 92.4024 69.8827 91.4971 80.0354 90.8008C85.1935 90.4526 90.3749 90.3134 95.5329 89.8492C100.668 89.385 105.802 88.5261 110.89 87.737C120.576 86.2051 130.192 84 139.481 80.8898C148.42 77.8956 156.939 73.9497 166.065 71.5126C170.616 70.2824 175.401 69.4933 180.116 69.3772C184.737 69.2379 189.381 69.7022 193.979 69.795C198.694 69.8646 203.385 69.7022 208.053 69.1219C210.504 68.8202 212.931 68.147 215.382 67.9149C218.066 67.6596 220.773 67.4275 223.48 67.2186C233.26 66.4526 242.922 66.5223 252.375 69.4004C260.94 72 268.876 76.3173 277.348 79.2186C281.456 80.6345 285.704 81.7022 289.858 82.9091C294.199 84.1857 298.564 85.4159 302.928 86.5764C304.842 87.0871 306.756 87.5745 308.693 88.0387C297.537 87.6906 286.474 85.9265 275.574 83.6287C269.599 82.3521 263.718 80.8202 257.79 79.4043C254.662 78.6383 251.535 77.826 248.407 76.9904C245.443 76.2012 242.385 75.5745 239.468 74.6229C234.287 72.9285 229.572 69.9807 224.087 69.2844C219.419 68.6809 214.518 70.0271 210.177 71.6287C205.322 73.4159 200.748 75.8995 196.266 78.4991C191.879 81.0523 187.678 84.0465 183.08 86.2051C172.483 91.2186 160.394 91.6364 149.004 93.4004C146.063 93.8646 143.122 94.4217 140.205 95.0484C139.481 95.2109 138.758 95.3733 138.034 95.559H139.995C139.995 95.559 140.205 95.5126 140.322 95.4894C143.239 94.8627 146.18 94.3056 149.144 93.8414C160.254 92.1238 171.783 91.5668 182.239 87.1103C186.861 85.1374 191.038 82.2592 195.356 79.6828C199.977 76.9207 204.715 74.2747 209.757 72.3018C214.588 70.3985 219.886 69.0523 225.068 70.1664C230.529 71.3501 235.337 74.4604 240.752 75.8066C263.881 81.6325 287.127 88.5494 311.191 88.6654C313.151 89.1296 315.112 89.5706 317.072 89.9652C321.273 90.8472 325.661 90.5223 329.932 90.1973V88.5029L329.979 88.4333Z" stroke="#BC9D5A" stroke-width="0.46" stroke-miterlimit="10"/>
</g>
<defs>
<clipPath id="clip0_442_216">
<rect width="329.555" height="96" fill="white" transform="translate(0.960938)"/>
</clipPath>
</defs>
</svg>
