<svg width="196" height="373" viewBox="0 0 196 373" fill="none" xmlns="http://www.w3.org/2000/svg">
<path d="M47.2866 330.147C38.8914 322.61 31.543 317.463 24.7687 308.399C17.9945 299.335 11.7892 286.31 9.66357 275.211M58.1954 316.991C45.9665 305.95 34.7876 293.762 24.9031 280.618C20.9405 275.361 17.125 269.866 14.7339 263.751C12.2939 257.599 11.3546 250.73 13.1322 244.408M74.4736 304.054C63.9333 288.825 51.37 275.084 41.1995 259.632C31.029 244.181 23.127 226.37 23.5734 207.878M85.2939 286.62C76.953 279.165 70.6225 272.257 66.0893 267.027C53.0273 251.756 46.1152 239.084 39.7346 227.495C36.3056 221.2 32.9586 214.497 31.0268 205.319C30.1611 201.182 29.8111 197.644 29.6883 195.228M89.6358 263.579C83.3152 251.762 74.837 239.991 68.6094 227.499C63.7869 217.796 61.6501 206.963 59.5785 196.3M100.232 241.841C93.5392 232.722 84.8397 225.223 77.9077 216.311C69.3419 205.259 63.5552 192.049 61.3179 178.267M106.632 220.799C103.22 213.22 99.0149 206.004 94.1625 199.266C90.1079 193.623 85.564 188.306 81.8303 182.402C76.9026 174.701 73.4214 166.201 69.989 157.74M103.317 191.19C93.0582 176.811 80.2276 164.12 73.67 150.033M70.8215 133.1C72.5167 133.597 74.1792 134.187 75.8089 134.869M75.8089 134.869C75.9013 134.902 75.9937 134.935 76.086 134.967M75.8089 134.869C76.0267 134.489 76.2825 134.059 76.4949 133.635C75.7084 131.919 75.0089 130.193 74.3964 128.457C73.2281 128.292 71.8858 128.149 70.3208 127.989M75.8089 134.869C75.6347 135.244 75.4115 135.582 75.2373 135.957C75.2046 136.049 75.123 136.104 75.0903 136.196C74.9053 136.484 74.7691 136.811 74.5895 137.142C74.5187 137.284 74.4425 137.382 74.3717 137.523C74.1975 137.898 73.9743 138.235 73.8001 138.611C73.5877 139.035 73.3754 139.459 73.163 139.883C73.0218 139.812 72.8425 139.79 72.6577 139.725C71.5409 136.769 71.0538 134.618 70.7834 133.149C70.7294 132.713 70.6809 132.321 70.6431 132.017C70.4597 130.536 70.3414 129.224 70.3208 127.989M27.54 126.215C27.8606 126.308 28.1377 126.407 28.4582 126.5C41.6776 130.211 56.0371 129.228 69.1806 132.684M69.1806 132.684C69.0218 133.897 68.9066 135.105 68.824 136.221M69.1806 132.684C69.3939 131.199 69.6399 129.621 69.924 127.994L69.9621 127.945M117.653 162.578C109.564 152.527 99.4253 144.101 88.105 137.9M110.277 175.385C105.968 168.049 99.7946 162.05 94.0722 155.773C88.3497 149.497 82.8235 142.666 80.2766 134.581M75.0381 116.175C75.6196 116.236 76.2011 116.296 76.7879 116.4C79.6626 116.796 82.5153 117.371 85.2972 118.087C85.433 118.115 85.6178 118.18 85.7536 118.207C98.8101 121.674 110.978 128.655 119.022 139.419M71.5983 115.85C56.9744 114.699 42.1733 117.108 27.855 120.562M71.5983 115.85C71.6802 115.441 71.8055 115.028 71.8874 114.62M71.5983 115.85C71.5983 115.85 71.8211 115.866 71.9569 115.894C71.9731 116.024 71.9893 116.155 72.0055 116.285C72.0162 116.372 72.027 116.46 72.0378 116.547C72.0486 116.634 72.0594 116.721 72.0702 116.808C72.081 116.895 72.0918 116.982 72.1026 117.069C72.1133 117.156 72.1241 117.243 72.1349 117.33C72.1565 117.505 72.1781 117.679 72.1997 117.853C72.1997 117.853 72.2051 117.896 72.2105 117.94L72.2266 118.071C72.2266 118.071 72.259 118.332 72.2752 118.463C72.2968 118.637 72.3183 118.811 72.3453 119.029C72.2853 119.257 72.1818 119.491 72.1218 119.719C71.4569 121.836 70.9223 123.935 70.4693 125.981C70.5138 124.915 70.5745 123.979 70.6078 123.179C70.6742 121.933 70.8383 120.763 71.0024 119.593C71.1938 118.287 71.4341 117.019 71.7233 115.79L71.5983 115.85ZM122.468 121.617C111.814 111.884 100.97 102.042 87.9645 95.7837C76.5077 90.262 63.8469 87.8516 51.3163 85.7787M124.213 109.331C117.672 100.724 108.808 94.0414 99.188 89.0879C89.5676 84.1344 74.7522 78.5867 61.27 77.0296M126.833 96.6273C121.194 88.1742 113.2 81.3834 104.401 76.284C95.6013 71.1847 85.9469 67.7386 76.1233 65.0651M125.523 84.6315C120.209 77.7298 114.851 70.8334 108.504 64.8556C102.2 58.8723 94.8946 53.7204 86.6472 50.94M130.587 80.2462C123.895 70.4204 118.873 59.1056 109.723 51.5296M130.134 11.7308C130.475 13.0591 130.833 14.518 131.147 15.9823C132.672 23.3092 132.192 25.4908 133.142 38.1501C134.082 50.3685 134.847 51.9096 136.137 68.0195C136.287 69.9462 136.421 71.7422 136.539 73.4076C136.414 73.1136 136.333 72.8142 136.247 72.4712C134.287 64.1371 130.789 56.2145 128.356 47.9832C126.525 41.7552 125.276 35.2341 125.798 28.7588C126.265 22.9093 128.629 17.3995 130.129 11.6873L130.134 11.7308ZM130.134 11.7308C129.056 7.6643 127.945 4.3977 127.034 2.03472C127.189 5.41984 127.059 10.7855 125.504 17.1235C123.377 25.6103 120.603 27.8108 119.575 35.1889C118.716 41.4406 119.798 46.2582 121.065 51.8487C122.06 56.3233 123.961 64.1785 129.817 72.2509C132.428 75.8622 135.094 78.4941 137.022 80.1563C136.899 78.4474 136.749 76.167 136.545 73.4512C136.42 73.1571 136.29 72.8196 136.252 72.5148C134.292 64.1806 130.794 56.2581 128.362 48.0267C126.536 41.8423 125.286 35.3212 125.803 28.8024C126.314 22.9474 128.629 17.3995 130.134 11.7308ZM164.367 71.021C158.717 81.3591 152.778 91.5119 146.508 101.485M143.809 116.409C148.522 109.193 153.67 102.277 159.258 95.7049C163.224 91.0135 167.576 86.23 169.136 80.2893M180.71 94.2409C171.472 105.2 161.495 115.544 150.845 125.087M185.484 103.199C182.566 108.866 177.117 112.636 172.189 116.695C166.098 121.694 160.576 127.374 155.783 133.582M179.466 128.747C167.876 138.185 156.34 147.705 144.956 157.383M183.975 125.226C182.327 131.885 178.24 137.741 173.513 142.704C168.786 147.666 149.621 167.239 144.644 171.967M185.751 137.783C174.85 154.21 162.228 169.567 148.226 183.416M187.576 168.903C178.505 181.212 166.859 191.63 153.586 199.243C147.24 202.903 140.466 205.952 135.016 210.783M186.577 179.018C172.278 197.236 154.742 212.849 135.003 224.933M173.197 219.98C166.571 227.079 140.061 244.378 132.162 246.55M176.347 222.242C163.168 239.526 145.797 253.615 126.104 262.863M142.331 275.531C126.665 284.501 109.149 290.297 91.2287 292.473M164.552 271.363C149.031 288.627 127.596 300.567 104.745 304.636M164.489 275.129C157.605 290.483 145.295 303.017 130.917 311.695C116.54 320.373 100.171 325.451 83.6034 328.211M137.821 80.5437C137.805 80.0593 137.832 79.5696 137.817 79.0852L137.773 79.0906C137.78 77.7192 137.792 76.3914 137.809 75.1071C137.803 76.4785 137.801 77.8934 137.762 79.3573C137.772 79.7981 137.739 80.2443 137.75 80.6851M137.821 80.5437C137.821 80.5437 137.788 80.6362 137.75 80.6851M137.821 80.5437C137.783 80.5926 137.75 80.6851 137.75 80.6851M137.821 80.5437C137.754 87.8468 137.577 96.7551 137.155 106.888C137.038 110.218 136.667 117.912 136.17 126.02M137.75 80.6851C137.415 96.1563 136.456 116.568 133.798 140.373M133.798 140.373C133.803 140.417 133.803 140.417 133.803 140.417C133.688 141.625 133.568 142.789 133.409 144.003C132.823 149.248 132.209 154.276 131.618 159.124C131.558 159.352 131.541 159.575 131.525 159.798C130.495 168.238 129.406 176.198 128.073 183.967C127.986 184.332 127.947 184.735 127.86 185.099C127.139 189.256 126.325 193.38 125.425 197.515C125.403 197.694 125.338 197.879 125.316 198.059C124.191 203.238 122.893 208.439 121.388 213.754C121.29 214.031 121.197 214.352 121.105 214.673C119.927 218.71 118.63 222.85 117.175 227.141C116.695 228.616 116.139 230.188 115.556 231.896C115.496 232.124 115.387 232.314 115.327 232.543C113.535 237.673 111.284 243.743 108.376 250.558C108.104 251.211 107.837 251.907 107.521 252.565C104.945 258.499 101.863 264.982 98.1554 271.764C97.6872 272.617 97.1756 273.477 96.7074 274.33C94.0291 279.083 91.0626 284.005 87.7591 289.056C87.6502 289.246 87.5413 289.437 87.389 289.632C85.642 292.28 83.7699 294.988 81.8109 297.707C80.0804 300.132 78.3337 302.426 76.5817 304.677C76.1681 305.259 75.7056 305.802 75.2867 306.34C71.2439 311.483 67.1853 316.142 63.2574 320.431C62.8277 320.882 62.436 321.284 62.0497 321.73C58.3831 325.633 54.8907 329.16 51.5399 332.405C50.7893 333.117 50.0821 333.823 49.3695 334.486C45.8502 337.796 42.5975 340.763 39.7038 343.421C26.3774 355.594 14.1896 364.841 4.80854 371.441L4.85202 371.436C6.72686 371.602 8.56361 371.816 10.4384 371.982C19.4059 365.963 30.7342 357.619 42.9833 346.728C47.1606 343.028 52.491 338.3 58.3715 332.31C59.862 330.799 61.3852 329.196 62.9465 327.543C67.081 323.14 71.4062 318.139 75.7864 312.512C76.2435 311.925 76.7059 311.381 77.1195 310.8C77.6854 310.022 78.2133 309.294 78.7846 308.56C87.6379 296.631 93.9036 285.554 98.7821 275.753C98.8475 275.568 98.9183 275.427 98.9891 275.286C101.63 269.874 103.879 264.865 105.921 260.323C107.065 257.794 108.084 255.325 109.108 252.899C109.14 252.807 109.173 252.714 109.206 252.622C117.387 232.774 122.044 215.485 125.22 201.563C125.296 201.112 125.416 200.655 125.498 200.247C126.372 196.248 127.147 192.527 127.873 189.121C128.184 187.712 128.457 186.352 128.73 184.991C128.899 184.219 129.019 183.408 129.188 182.636C133.601 159.453 135.108 140.255 135.691 132.49C135.823 130.706 135.955 128.921 136.087 127.136C136.131 126.777 136.126 126.38 136.17 126.02M133.798 140.373C133.793 140.33 133.793 140.33 133.793 140.33C133.338 138.087 132.162 134.652 130.926 131.091C128.351 123.85 124.944 118.083 121.91 113.905M133.798 140.373C131.583 137.465 128.049 133.172 123.983 128.857C119.303 123.866 109.595 113.574 94.679 104.723C90.5781 102.268 86.5745 100.244 82.6576 98.5634M136.17 126.02C136.976 124.329 139.142 121.143 139.632 120.463C145.237 112.606 139.503 118.711 155.872 95.4612C162.669 85.8211 165.481 82.8642 168.666 77.2085C171.121 72.7927 172.124 69.4853 173.262 66.9126C172.692 77.9918 168.843 85.4099 166.545 90.3809C162.673 98.686 158.147 104.198 153 110.407C147.129 117.545 142.847 122.54 138.67 126.241C138.257 126.469 136.696 127.06 136.082 127.092C136.126 126.733 136.121 126.336 136.165 125.977L136.17 126.02ZM16.6198 216.61C18.0565 208.606 20.519 202.112 22.5339 197.706M16.6198 216.61C10.8153 228.558 6.16263 240.895 3.22674 253.903L3.18325 253.908C1.0768 263.277 0.32534 270.753 1.97935 280.54C6.01694 304.577 24.3637 323.304 42.7307 331.86C45.3546 333.083 47.6201 333.907 49.2826 334.497C49.9951 333.834 50.7023 333.128 51.453 332.416C51.6228 330.936 50.4882 329.617 50.0213 329.056C47.5187 325.962 48.6769 325.332 45.1876 319.619C41.8774 314.282 38.3969 310.778 36.2523 308.435C33.9015 305.853 31.0841 302.356 28.2134 297.715M16.6198 216.61C16.3848 217.921 16.1934 219.227 16.0128 220.62M16.0128 220.62C13.9423 226.358 12.1 232.157 10.85 238.104M16.0128 220.62C15.2738 226.414 15.1482 232.885 16.0929 239.797C16.4058 242.323 18.1671 253.688 24.938 266.289C31.4106 278.264 40.836 288.415 44.5062 292.381C49.9519 298.205 54.5623 302.276 58.9243 310.401C60.986 314.213 62.3034 317.72 63.1705 320.442C62.7842 320.887 62.349 321.295 61.9628 321.741C53.8236 319.478 46.3062 314.75 39.8493 309.316C35.6624 305.812 31.8182 301.867 28.2134 297.715M10.85 238.104C10.6262 239.148 10.4078 240.236 10.2329 241.319M10.85 238.104C10.6316 239.192 10.4078 240.236 10.2329 241.319M10.2329 241.319C9.46244 245.791 8.9637 250.319 9.128 254.852M10.2329 241.319C9.46244 245.791 8.92022 250.324 9.128 254.852M9.128 254.852C9.87885 271.603 16.4607 283.034 21.4982 289.484M9.128 254.852C9.83537 271.609 16.4607 283.034 21.4982 289.484M21.4982 289.484C23.6532 292.268 25.8952 295.04 28.2134 297.715M59.7834 186.194C59.6814 190.716 60.2914 195.283 61.505 199.377M59.7834 186.194L59.7346 186.156C54.1769 201.523 55.5683 219.167 62.1576 234.223C69.1265 250.204 82.2221 264.321 96.6639 274.336C97.1756 273.477 97.6437 272.623 98.1119 271.769C95.3819 261.85 89.473 251.574 84.3178 243.105C79.5533 235.295 74.5332 227.561 70.7638 219.23C66.8184 213.043 63.618 206.454 61.505 199.377M59.7834 186.194C59.6814 190.716 60.286 195.239 61.505 199.377M59.7834 186.194C59.8858 181.318 60.7816 176.433 62.5899 172.141L62.6333 172.136C62.7641 171.766 62.9438 171.434 63.118 171.059C61.893 179.345 65.0483 187.708 69.6234 194.702C74.1984 201.695 80.2255 207.58 85.649 213.937C95.0464 224.931 102.72 237.332 108.381 250.602C108.109 251.254 107.799 251.956 107.526 252.609C100.669 251.071 94.9177 246.699 89.7646 241.811C82.6567 235.043 76.0332 227.552 70.7692 219.274C66.8238 213.087 63.618 206.454 61.505 199.377M68.3943 213.29C69.1315 215.321 69.9069 217.303 70.8073 219.225M66.6764 154.879C67.5537 152.338 68.5234 149.831 69.5909 147.4M66.6764 154.879L66.758 154.824C64.8506 160.455 63.3997 166.205 62.6714 172.087C62.9013 170.378 64.4143 167.98 65.1875 166.381C66.0969 164.456 67.0444 162.482 67.9484 160.513C69.1301 157.935 70.3064 155.313 71.4881 152.735C71.5262 152.686 71.6024 152.588 71.597 152.545C72.7841 150.01 73.8789 147.443 75.0171 144.871C75.5672 143.609 76.1173 142.347 76.6673 141.085C76.907 140.525 77.1085 140.014 77.3482 139.453C77.6478 138.665 77.9963 137.914 78.3014 137.169C79.3853 134.515 80.5074 131.811 81.5914 129.157C81.6621 129.016 81.7275 128.831 81.7983 128.689C82.5065 126.921 83.5031 124.632 84.364 122.314C84.9359 120.873 85.4209 119.442 85.7917 118.159C85.939 117.566 86.0917 117.016 86.2009 116.472C85.9123 116.994 85.6292 117.56 85.3353 118.038C84.5132 119.599 83.8327 120.877 83.261 121.965C82.8309 122.77 82.4335 123.482 82.0308 124.151C81.4429 125.108 80.8551 126.065 80.3107 127.017C79.614 128.164 78.9227 129.355 78.2695 130.497C77.6436 131.503 77.0665 132.547 76.4895 133.591C76.2717 133.972 76.0159 134.401 75.8036 134.826C75.6293 135.201 75.4062 135.538 75.2319 135.913C75.1503 135.968 75.1176 136.06 75.0849 136.153C74.9053 136.484 74.7637 136.767 74.5841 137.099C74.5133 137.24 74.4371 137.338 74.3663 137.48C74.1921 137.855 73.9689 138.192 73.7947 138.567C73.5823 138.991 73.37 139.416 73.1576 139.84C73.0869 139.981 72.978 140.172 72.9072 140.313C72.379 141.395 71.8128 142.526 71.29 143.652C70.6964 144.92 70.141 146.138 69.5909 147.4M66.6764 154.879C67.5537 152.338 68.5288 149.874 69.5909 147.4M66.6764 154.879C65.812 149.327 66.1054 143.499 68.0124 138.223C68.2359 137.532 68.5082 136.879 68.824 136.221M69.5909 147.4C69.4446 146.932 69.2929 146.42 69.1847 145.903C68.795 144.182 68.6071 141.597 68.7024 138.447M68.824 136.221C68.7853 136.977 68.7466 137.734 68.7024 138.447M68.7024 138.447C70.077 138.851 71.4082 139.261 72.7012 139.72C71.5844 136.763 71.0919 134.569 70.8269 133.143C70.7675 132.664 70.7244 132.316 70.6866 132.011C70.5032 130.531 70.3794 129.175 70.3642 127.984C70.2284 127.956 69.9621 127.945 69.9621 127.945M73.6859 109.18C75.7234 103.888 78.276 99.902 80.088 97.4227C80.5451 96.8356 80.9206 96.3027 81.2688 95.9059C82.493 94.3837 83.5429 93.2368 84.2066 92.5356M70.3208 127.989C70.3214 127.282 70.3275 126.618 70.3389 125.997C70.2024 126.677 70.104 127.308 69.9621 127.945M74.2527 113.399C74.3888 113.072 74.5304 112.789 74.6231 112.468M74.6231 112.468C76.6764 107.66 79.3058 102.869 82.6576 98.5634M74.6231 112.468C74.4438 112.446 74.0416 112.408 74.0416 112.408L74.0035 112.457C74.0902 112.8 74.1714 113.099 74.2146 113.447C74.4094 114.308 74.6586 115.249 75.0001 116.224C75.4228 117.498 75.9922 118.886 76.7624 120.471C77.6156 120.586 78.4795 120.789 79.3435 120.991C80.6638 121.314 81.9407 121.642 83.1794 122.019C83.7457 120.888 84.4262 119.61 85.2537 118.093C85.5041 117.619 85.7927 117.097 86.1193 116.526C86.0047 117.027 85.9009 117.614 85.7101 118.213C85.3448 119.54 84.8109 120.933 84.2824 122.369C95.8605 126.019 103.936 132.048 109.346 136.152C119.583 143.947 126.662 152.62 131.432 159.766C131.492 159.537 131.525 159.091 131.525 159.091C131.272 157.044 130.812 154.405 129.869 151.427C127.458 143.723 123.517 138.641 120.846 135.258C115.239 128.127 109.476 124.022 107.744 122.866C97.2233 115.637 86.9204 114.084 78.1173 112.876C77.2206 112.766 76.0523 112.601 74.6231 112.468ZM82.6576 98.5634C83.4956 97.4869 84.3443 96.4975 85.28 95.4974M82.6576 98.5634C81.7721 98.1867 80.8866 97.8101 80.0445 97.4281C78.556 96.8168 77.0239 96.2108 75.5897 95.6811C66.8535 92.5191 58.7194 90.6532 51.1341 88.9403C42.5924 86.9921 35.3162 85.9925 30.0723 85.3601L30.0342 85.409C38.5524 83.2484 48.6233 82.9291 56.4651 83.505C63.2364 83.9924 71.5997 84.8574 80.0324 86.9958C80.4888 87.1161 80.9452 87.2364 81.4016 87.3567M81.7356 84.7069C81.2786 85.294 80.7834 85.9301 80.2556 86.6587C80.1794 86.7565 80.1032 86.8544 80.027 86.9523C78.4924 89.1761 76.8266 92.1236 75.5516 95.73C75.0339 97.2531 74.5758 98.9015 74.2209 100.67C74.0898 101.393 73.9533 102.073 73.8603 102.748M78.2579 137.174C79.3853 134.515 80.4693 131.86 81.5479 129.162C81.7704 129.533 81.9928 129.903 82.2099 130.23C86.4752 137.217 90.552 142.327 92.7886 145.056C97.6798 151.038 99.0214 151.888 101.302 154.258C102.268 155.288 103.446 156.601 105.08 158.742C109.439 164.347 115.481 172.132 120.307 183.647C122.433 188.689 125.482 194.413 125.463 197.466C125.441 197.645 125.376 197.83 125.354 198.01C111.373 183.516 98.0942 167.212 86.6802 150.632C84.9651 148.192 83.2826 145.659 81.7307 143.11C80.5151 141.139 79.3865 139.157 78.296 137.125L78.2579 137.174ZM78.2579 137.174C77.9583 137.963 77.6097 138.714 77.3047 139.459C77.1085 140.014 76.8635 140.53 76.6239 141.09C78.3841 141.757 80.0574 142.433 81.6926 143.159C80.477 141.188 79.3049 139.211 78.2579 137.174ZM81.4016 87.3567C85.0529 88.3191 88.7365 89.5427 92.2786 91.0492C97.5482 93.3143 107.256 97.5495 116.454 107.286M81.4016 87.3567C80.022 86.555 78.8867 85.9441 77.8545 85.453C67.4245 80.3788 58.7248 78.9366 56.1653 78.5905C52.2963 78.0088 46.8946 77.5285 40.4214 78.021L40.454 77.9285C43.9829 76.1208 49.3926 73.8148 56.2956 72.8711C67.2752 71.334 75.7292 74.0003 83.9712 76.7372C91.5667 79.2446 103.873 83.4233 115.324 94.6047C116.882 96.1358 124.332 103.525 130.359 115.466C132.41 119.545 133.83 123.171 134.746 125.932C133.21 124.221 130.967 121.802 128.073 119.11C126.08 117.279 124.201 115.655 121.91 113.905M116.454 107.286C117.675 108.594 119.673 110.822 121.91 113.905M116.454 107.286C117.67 108.55 119.668 110.778 121.91 113.905M168.12 45.0021C168.328 48.8227 167.694 52.9687 166.608 57.0379M193.843 115.427C193.843 115.427 193.837 115.383 193.875 115.334C193.875 115.334 193.875 115.334 193.837 115.383L193.843 115.427ZM193.843 115.427C190.619 121.839 186.536 129.153 181.143 137.293M193.843 115.427C193.843 115.427 193.843 115.427 193.881 115.378M182.866 130.89C182.866 130.89 182.856 130.803 182.894 130.754C183.908 126.826 184.895 123.034 185.806 119.34C188.498 117.548 191.494 115.718 194.746 113.812C194.458 114.334 194.164 114.812 193.881 115.378M182.866 130.89L182.915 130.928C183.34 130.433 183.764 129.939 184.183 129.401C188.4 124.236 191.556 119.424 193.848 115.47C193.886 115.421 193.881 115.378 193.881 115.378M182.866 130.89C182.206 133.403 181.672 135.503 181.143 137.293M182.866 130.89C183.291 130.395 183.715 129.901 184.134 129.362C188.356 124.241 191.507 119.386 193.799 115.432C190.619 121.839 186.542 129.197 181.1 137.298L181.143 137.293M193.881 115.378C192.606 118.984 190.942 125.513 188.474 131.61C182.461 146.503 179.33 152.24 173.382 161.598C167.797 170.336 156.555 186.142 137.605 196.404C134.794 197.946 126.317 202.931 125.307 201.553C125.307 201.553 125.307 201.553 125.302 201.509L125.258 201.514C125.335 201.063 125.46 200.649 125.536 200.198C127.932 196.01 141.785 184.17 156.277 168.58C158.851 165.83 161.446 162.9 163.992 159.932C170.853 151.876 176.495 144.324 181.143 137.293M169.235 267.821C173.715 259.44 176.608 252.141 179.556 243.862M176.008 243.019C174.824 247.72 174.598 250.533 171.989 257.62C174.427 253.781 176.681 249.523 178.511 244.698C182.183 235.136 183.115 226.62 183.3 220.983M184.981 194.999C184.707 197.774 184.236 201.104 183.38 204.88C183.325 205.152 183.265 205.381 183.21 205.653M190.896 187.149C190.169 191.262 188.511 197.48 184.359 203.874C183.951 204.5 183.537 205.082 183.167 205.658M73.9038 102.743C73.5698 105.392 73.5841 107.645 73.6424 109.186C73.6795 110.198 73.7659 110.895 73.8525 111.238C73.901 111.629 73.9496 112.021 73.9981 112.413C74.0413 112.762 74.1225 113.061 74.2092 113.404C74.4094 114.308 74.6532 115.206 74.9947 116.18C75.4174 117.454 75.9868 118.843 76.757 120.427C77.3537 121.68 78.1024 123.09 78.9596 124.664C79.41 125.448 79.8169 126.238 80.2672 127.022C79.5705 128.169 78.9173 129.311 78.226 130.502C77.649 131.546 77.023 132.552 76.446 133.597C75.6649 131.925 74.9654 130.199 74.3475 128.419C73.941 127.275 73.5725 126.083 73.2475 124.885C72.7762 123.219 72.43 121.494 72.2142 119.752C72.1926 119.578 72.1764 119.447 72.1549 119.273C72.1441 119.186 72.1333 119.099 72.1225 119.012C72.1225 119.012 72.074 118.62 72.0524 118.446C72.0362 118.315 72.02 118.185 72.0038 118.054L71.9876 117.923C71.9876 117.923 71.9822 117.88 71.9768 117.836C71.9553 117.662 71.9337 117.488 71.9121 117.314C71.9013 117.227 71.8905 117.14 71.8797 117.053C71.869 116.965 71.8582 116.878 71.8474 116.791C71.8366 116.704 71.8258 116.617 71.815 116.53C71.8042 116.443 71.7934 116.356 71.7826 116.269C71.7665 116.138 71.7503 116.008 71.7341 115.877C71.7287 115.833 71.7233 115.79 71.7125 115.703C71.6963 115.572 71.6748 115.398 71.6586 115.267C71.6586 115.267 71.6532 115.224 71.6478 115.18C71.6262 115.006 71.6046 114.832 71.6265 114.652C71.6265 114.652 71.5996 114.435 71.5888 114.348C71.578 114.26 71.5672 114.173 71.5564 114.086C71.5564 114.086 71.5564 114.086 71.551 114.043C71.5294 113.869 71.5513 113.689 71.5786 113.553C71.5786 113.553 71.5678 113.466 71.5624 113.422C71.5571 113.379 71.5463 113.292 71.5409 113.248C71.5355 113.205 71.5247 113.118 71.5193 113.074C71.5085 112.987 71.4977 112.9 71.4923 112.856C71.4707 112.682 71.498 112.546 71.5199 112.367C71.6914 109.118 72.3085 105.902 73.4798 102.884L73.9038 102.743ZM71.4935 152.779C71.4935 152.779 71.5643 152.637 71.6024 152.588C72.7406 150.016 73.8843 147.487 75.0225 144.914C76.0207 146.913 77.2686 149.145 78.7609 151.569C81.8433 156.492 85.1114 160.42 91.5772 168.063C100.432 178.594 100.172 177.211 104.189 182.55C110.643 191.167 114.728 199.194 117.071 203.855C119.246 208.228 120.207 210.275 121.291 212.97C121.258 213.063 121.345 213.406 121.437 213.792C121.344 214.113 121.252 214.434 121.154 214.711C119.003 213.033 111.823 208.175 110.97 207.352C107.115 203.674 102.262 197.643 98.8851 193.552C92.0287 185.25 85.8848 176.285 79.7463 167.363C76.7341 163.005 73.9557 158.398 71.8569 153.574C71.7376 153.323 71.6129 153.029 71.537 152.773L71.4935 152.779ZM26.6412 187.382C25.488 194.466 25.4989 200.257 25.7073 204.077C26.5195 219.185 31.7479 230.74 36.0328 240.024C38.6201 245.583 41.0617 249.967 42.733 252.766C46.2074 256.934 49.7196 261.406 53.1825 266.194C62.4532 279.016 70.7937 292.882 76.5382 304.682C76.1192 305.22 75.6622 305.808 75.2432 306.346C67.524 302.483 59.7908 296.014 54.3782 289.743C52.0111 287.03 43.3068 278.78 35.6672 265.225C32.786 260.144 27.0945 249.841 24.1021 235.666C19.8004 215.199 23.4959 197.631 26.6847 187.377L26.6412 187.382ZM30.9254 173.853C30.2312 189.988 34.2616 210.047 43.4939 223.272C50.1481 232.793 58.9101 243.291 66.3747 252.225C75.9781 263.812 83.2994 274.798 87.8025 289.051C87.6937 289.241 87.5413 289.437 87.4324 289.627C68.3561 278.197 52.0121 262.449 41.1279 243.018C30.1297 223.38 25.9596 195.778 30.9635 173.805L30.9254 173.853ZM68.697 138.403C70.0716 138.807 71.4028 139.217 72.6958 139.676C72.7663 139.888 72.8802 140.095 72.9507 140.308C72.379 141.395 71.8563 142.521 71.3335 143.647C70.7345 144.871 70.1845 146.132 69.6344 147.394C69.4827 146.883 69.3799 146.409 69.2282 145.897C68.795 144.182 68.6071 141.597 68.7459 138.441L68.697 138.403ZM67.9049 160.518C69.0866 157.94 70.3118 155.357 71.4447 152.741C71.564 152.991 71.6452 153.291 71.7646 153.541C72.956 158.168 74.6472 162.91 77.0885 167.648C80.5822 174.466 82.8363 175.911 93.2251 190.274C99.6191 199.12 102.816 203.543 106.169 209.583C111.009 218.356 113.844 226.272 115.513 231.901C115.453 232.13 115.344 232.32 115.284 232.548C112.78 231.223 110.781 229.348 108.843 227.245C94.8846 211.865 83.1072 194.49 73.9994 175.856C71.58 170.939 69.3565 165.821 67.8668 160.567L67.9049 160.518ZM15.5127 126.423C20.1051 126.429 24.3877 126.429 28.4528 126.456C36.3223 126.542 43.0939 126.676 48.5448 126.841C58.5607 127.147 65.2234 127.471 69.9132 127.907C69.5856 129.539 69.3396 131.117 69.1698 132.597C69.011 133.81 68.8958 135.018 68.8133 136.134C68.4974 136.792 68.2251 137.445 68.0016 138.135C67.8658 138.108 67.7245 138.037 67.5452 138.015C57.1621 135.101 46.4079 133.825 44.6146 133.605C38.2078 132.852 31.0505 132.456 21.8907 129.082C19.1633 128.093 16.9632 127.084 15.5073 126.38L15.5127 126.423ZM82.2153 130.273C95.4013 134.785 104.03 142.426 108.304 146.273C112.979 150.513 119.012 156.088 123.482 165.437C125.993 170.741 127.162 175.548 127.801 178.917C119.87 169.068 111.865 162.19 105.826 157.633C104.609 156.722 103.099 155.583 101.313 154.346C99.0757 151.97 97.6852 151.081 92.7994 145.143C90.5628 142.414 86.5295 137.299 82.2207 130.317L82.2153 130.273ZM13.2465 126.306C18.7169 123.064 26.9381 118.863 37.5169 115.872C51.8901 111.792 64.2869 111.715 71.944 112.226C71.9656 112.4 71.9383 112.536 71.9164 112.715C71.9271 112.802 71.9379 112.89 71.9433 112.933C71.9487 112.977 71.9595 113.064 71.9649 113.107C71.9703 113.151 71.9811 113.238 71.9865 113.281C71.9919 113.325 71.9973 113.368 72.0027 113.412C72.0243 113.586 72.0023 113.766 71.975 113.902C71.975 113.902 71.975 113.902 71.9804 113.945C71.9912 114.032 72.002 114.119 72.0128 114.207C72.0236 114.294 72.0344 114.381 72.0452 114.468C72.0452 114.468 72.0937 114.86 72.0718 115.039C72.0718 115.039 72.0772 115.083 72.0826 115.126C72.0988 115.257 72.1204 115.431 72.1366 115.562C72.142 115.605 72.1473 115.649 72.1581 115.736C72.0712 115.747 71.9353 115.719 71.7995 115.692C71.5103 116.921 71.27 118.189 71.0786 119.495C67.8615 119.186 64.6333 119.144 60.8725 119.079C47.0196 118.806 36.2351 120.85 29.8155 122.131C23.048 123.456 17.4543 124.989 13.4532 126.192L13.2465 126.306ZM72.3066 119.785C72.3066 119.785 72.0838 119.768 71.9914 119.736C72.0514 119.507 72.1549 119.273 72.2149 119.045C72.2257 119.132 72.2364 119.219 72.2472 119.306C72.2634 119.437 72.285 119.611 72.3066 119.785ZM59.5488 63.4932C67.3487 62.3058 80.7082 61.4465 95.5782 66.7222C98.5826 67.8089 102.88 69.3544 107.687 72.1631C110.925 74.061 114.406 76.5034 117.811 79.7511C122.41 84.0888 125.618 88.5988 127.908 92.4709C129.921 95.8911 131.163 98.7878 131.911 100.552C133.901 105.213 134.995 109.41 135.639 112.469C127.655 101.123 119.336 93.135 113.042 87.9462C105.76 81.9073 93.0846 71.5407 73.7962 66.2376C68.0368 64.6522 63.0864 63.8949 59.5488 63.4932ZM68.5958 47.7827C84.3576 46.7141 94.6683 51.5379 99.4266 54.3084C104.234 57.1171 108.024 60.9802 115.598 68.663C128.179 81.473 132.263 89.8534 133.928 93.6703C135.235 96.7358 136.129 99.3219 136.666 101.157C133.506 98.0996 130.584 95.1899 127.869 92.5199C125.623 88.6423 122.372 84.1377 117.773 79.8001C114.368 76.5524 110.887 74.11 107.649 72.2121C97.5065 61.9738 91.3216 56.241 81.1953 51.8365C76.1104 49.637 71.6387 48.4668 68.5523 47.7881L68.5958 47.7827ZM101.29 42.9805C113.588 49.5917 119.441 56.5594 122.453 61.2705C125.079 65.3662 125.506 67.7449 129.914 74.0958C131.846 76.8628 134.055 79.7281 135.502 84.2794C136.304 86.8327 136.617 89.0045 136.763 90.5339C134.688 88.4034 131.74 85.276 128.287 81.2827C120.654 72.4135 115.52 64.8263 110.321 57.0703C107.992 53.6009 104.839 48.8188 101.296 43.0241L101.29 42.9805ZM141.871 2.40715C143.477 5.03766 145.495 9.20878 146.294 14.5919C146.478 16.0724 146.915 19.5993 145.379 28.9413C143.914 37.7882 142.597 40.3388 141.068 48.3094C140.369 51.9329 139.494 57.3466 139.042 64.0342C138.637 67.5329 138.183 70.9934 137.777 74.4921C137.53 71.7817 137.224 67.8849 137.125 63.1665C136.984 56.6849 136.826 45.7844 139.598 32.8849C141.672 23.2552 143.969 19.3453 143.358 10.8441C143.089 7.25207 142.423 4.37241 141.92 2.44531L141.871 2.40715ZM138.554 75.4128C139.7 69.7002 141.331 63.2643 145.239 50.9758C149.725 36.9356 151.102 34.5103 153.377 25.0767C154.37 20.9747 155.091 17.5254 155.517 15.262C155.634 17.9886 155.597 21.9721 155.039 26.7277C154.589 30.5855 153.853 33.9042 150.124 46.5685C147.354 55.9307 145.997 60.6526 144.645 64.3569C142.242 70.9768 139.786 76.4538 137.859 80.4948C137.859 80.4948 137.826 80.5872 137.788 80.6362C137.684 80.87 137.581 81.1039 137.478 81.3378C137.581 80.7502 137.68 80.119 137.849 79.3465C137.849 79.3465 137.871 79.1669 137.909 79.118C138.127 78.0299 138.33 76.8111 138.603 75.451L138.554 75.4128ZM160.242 18.125C160.349 20.0571 160.406 23.0122 159.963 26.5598C159.377 31.4514 158.09 35.6782 156.826 39.018C156.813 36.0575 156.957 32.5912 157.755 27.9828C158.509 23.7335 159.501 20.339 160.242 18.125ZM138.465 89.3061C144.253 65.4666 149.406 53.2449 153.2 46.4526C153.848 45.2671 155.339 42.6949 156.783 39.0234C156.787 40.4819 156.818 41.8043 156.801 43.0886C156.573 54.4349 152.603 63.3711 149.079 71.2793C146.939 76.0982 143.574 82.4393 138.508 89.3007L138.465 89.3061ZM166.861 42.6822C165.433 47.1918 163.476 53.1375 160.704 59.98C158.405 65.6586 155.164 73.7086 149.66 83.4538C146.879 88.4406 142.981 94.7593 137.796 101.724C138.858 98.5417 140.591 93.6406 143.14 87.8427C147.66 77.6446 151.203 72.3867 158.166 59.4544C160.284 55.5225 163.327 49.7959 166.812 42.6441L166.861 42.6822ZM137.817 113.658C139.68 103.392 146.101 94.638 152.353 86.3033C156.712 80.5022 159.973 74.0412 162.86 67.4056C164.276 64.2238 165.6 60.6556 166.56 56.9997C166.852 57.9361 167.123 59.0521 167.328 60.353C168.198 65.9485 166.65 70.5613 165.103 74.4667C159.787 87.8582 152.104 97.8292 151.113 99.1013C148.219 102.82 143.969 107.723 138.307 112.979C138.073 113.229 138.057 113.452 137.774 113.664L137.817 113.658ZM135.495 139.456C137.727 135.377 141.9 129.864 147.308 123.27C154.012 115.012 158.874 111.492 166.212 104.083C171.119 99.1429 179.06 91.6157 185.766 80.5279C184.027 86.4466 180.41 95.3833 175.277 103.845C172.387 108.668 169.362 112.049 166.658 114.816C165.168 116.327 163.786 117.647 162.579 118.946C159.766 121.903 156.878 124.604 153.957 127.044C147.479 132.489 140.981 136.698 135.533 139.407L135.495 139.456ZM133.725 154.751C137.829 147.611 141.786 142.125 144.756 138.308C147.575 134.688 150.541 130.827 153.952 127.001C156.872 124.561 159.804 121.854 162.573 118.903C163.781 117.604 165.206 116.278 166.653 114.772C167.942 113.772 169.274 112.767 170.65 111.757C174.142 109.291 178.035 106.863 182.045 101.812C185.598 97.349 187.521 92.9107 188.633 89.7666C188.095 95.0501 186.642 102.923 182.053 111.14C178.667 117.307 174.467 121.895 161.876 132.518C154.8 138.479 145.374 146.146 133.714 154.664L133.725 154.751ZM131.576 169.474C134.198 166.408 138.18 161.848 143.131 156.548C151.639 147.536 161.165 137.469 174.843 127.065C177.306 125.212 180.341 122.98 183.925 120.546C182.427 123.782 180.636 127.143 178.454 130.552C174.165 137.273 170.025 141.633 162.132 149.905C162.05 149.96 161.974 150.058 161.936 150.106C158.624 152.595 155.611 154.648 152.68 156.647C147.388 160.265 140.265 164.773 131.527 169.436L131.576 169.474ZM128.773 184.986C128.942 184.213 129.063 183.403 129.232 182.63C135.412 175.852 153.504 159.021 161.985 150.145C162.066 150.09 162.142 149.992 162.18 149.944C170.074 141.671 174.214 137.312 178.503 130.591C180.685 127.181 182.476 123.82 183.974 120.584C186.408 115.287 188.048 110.353 189.085 106.246C188.059 110.44 186.968 114.819 185.812 119.384C184.857 123.083 183.914 126.87 182.899 130.798C182.899 130.798 182.91 130.885 182.872 130.934C182.217 133.49 181.677 135.547 181.148 137.337C176.501 144.367 170.858 151.919 163.997 159.975C161.451 162.944 158.851 165.83 156.283 168.624C150.235 173.264 144.721 176.511 140.36 179.085C136.407 181.388 131.796 184.435 128.779 185.03L128.773 184.986ZM189.761 103.509C189.559 104.374 189.357 105.239 189.117 106.153C189.314 105.245 189.559 104.374 189.761 103.509ZM127.389 212.303C139.198 202.131 152.58 193.974 165.007 184.52C174.204 177.501 182.95 169.697 189.676 160.198C191.445 157.724 194.124 152.264 195.181 149.392C194.297 152.95 192.624 157.976 191.442 160.908C190.26 163.84 188.844 166.668 187.287 169.425C184.135 174.988 180.277 180.197 175.963 184.931C173.515 187.622 170.959 190.149 168.206 192.524C155.348 203.843 127.181 219.889 122.704 219.029C122.146 216.666 125.556 213.901 127.389 212.303ZM58.328 332.315C59.8185 330.804 61.3471 329.245 62.903 327.549C67.1819 325.736 72.0796 324.643 76.1676 323.429C94.9987 317.913 114.074 312.588 131.387 303.369C145.758 295.709 160.227 282.421 169.191 267.826C163.941 279.971 157.615 291.277 148.361 301.399C131.91 319.353 107.606 331.295 83.4401 334.377C75.5697 335.352 65.8089 335.323 58.328 332.315ZM77.076 310.805C77.6473 310.071 78.2133 309.294 78.7411 308.565C85.5258 306.31 94.8705 303.693 105.934 299.626C129.192 290.997 141.006 286.571 148.445 281.405C153.242 278.07 163.743 270.535 171.951 257.669C162.432 283.474 140.834 295.523 131.151 300.392C107.961 312.063 81.1173 313.134 77.0325 310.81L77.076 310.805ZM183.992 200.914C183.893 202.252 183.723 203.732 183.515 205.261C183.674 203.694 183.801 202.219 183.992 200.914ZM88.1722 294.885C88.7327 294.064 89.3539 292.307 91.11 291.515C95.6174 289.409 110.153 285.574 113.078 284.593C134.59 277.551 153.183 265.477 162.905 253.794C176.518 237.518 181.759 218.167 183.472 205.267C182.918 210.773 182.281 217.749 179.953 225.332C175.767 238.937 174.465 247.676 159.64 264.5C145.941 280.079 129.517 286.137 121.139 289.076C107.727 293.789 95.9277 294.764 88.0798 294.852L88.1722 294.885ZM98.9551 276.793C99.3538 274.666 107.076 269.642 116.993 264.876C126.247 260.458 144.354 250.168 159.862 235.647C164.769 231.06 169.404 226.064 173.419 220.704C175.803 217.49 179.068 212.842 182.411 206.68C182.677 206.338 182.944 205.995 183.205 205.609C182.272 209.483 180.909 213.807 178.949 218.294C173.339 231.103 165.702 238.946 160.284 244.392C144.932 259.823 128.6 266.621 119.559 270.261C111.317 273.581 104.146 275.575 98.9986 276.788L98.9551 276.793ZM108.512 256.289C119.791 248.613 129.41 242.868 136.256 238.969C144.505 234.278 157.381 227.377 171.853 216.609C175.127 214.17 178.868 211.231 182.373 206.729C179.03 212.891 175.808 217.534 173.381 220.753C169.366 226.113 164.731 231.109 159.824 235.696C146.174 245.61 130.499 252.725 114.05 256.443C112.245 256.843 109.94 257.482 108.474 256.338L108.512 256.289ZM117.263 237.122C120.641 233.741 125.733 228.866 132.346 223.449C143.007 214.701 146.894 213.291 155.965 206.331C164.596 199.735 174.881 191.874 183.295 179.248C187.208 173.414 192.396 163.973 195.506 150.59C194.456 157.086 192.404 166.182 187.928 176.375C185.825 181.145 177.777 198.5 159.686 214.27C142.553 229.214 125.657 234.668 121.786 235.854C119.916 236.44 118.378 236.851 117.263 237.122Z" stroke="#BC9D5A" stroke-width="0.46" stroke-miterlimit="10"/>
</svg>
