<svg width="13" height="19" viewBox="0 0 13 19" fill="none" xmlns="http://www.w3.org/2000/svg">
<path d="M0.949275 18.6197L0.691895 16.3548L3.62603 8.27307C3.88341 8.51329 4.16224 8.7149 4.46251 8.87791C4.76279 9.04092 5.08451 9.16532 5.42769 9.25111L2.59651 17.024L0.949275 18.6197ZM11.7592 18.6197L10.112 17.024L7.28082 9.25111C7.624 9.16532 7.94572 9.04092 8.246 8.87791C8.54628 8.7149 8.82511 8.51329 9.08249 8.27307L12.0166 16.3548L11.7592 18.6197ZM6.35426 8.32454C5.49632 8.32454 4.76708 8.02426 4.16653 7.42371C3.56597 6.82316 3.2657 6.09391 3.2657 5.23598C3.2657 4.56679 3.45873 3.97053 3.8448 3.44719C4.23087 2.92385 4.72418 2.55923 5.32474 2.35332V0.0883789H7.38378V2.35332C7.98433 2.55923 8.47764 2.92385 8.86371 3.44719C9.24978 3.97053 9.44282 4.56679 9.44282 5.23598C9.44282 6.09391 9.14254 6.82316 8.54199 7.42371C7.94143 8.02426 7.21219 8.32454 6.35426 8.32454ZM6.35426 6.2655C6.64595 6.2655 6.89046 6.16684 7.08779 5.96951C7.28511 5.77219 7.38378 5.52768 7.38378 5.23598C7.38378 4.94428 7.28511 4.69977 7.08779 4.50245C6.89046 4.30512 6.64595 4.20646 6.35426 4.20646C6.06256 4.20646 5.81805 4.30512 5.62072 4.50245C5.4234 4.69977 5.32474 4.94428 5.32474 5.23598C5.32474 5.52768 5.4234 5.77219 5.62072 5.96951C5.81805 6.16684 6.06256 6.2655 6.35426 6.2655Z" fill="#2C2C2C"/>
</svg>
