<svg width="20" height="20" viewBox="0 0 20 20" fill="none" xmlns="http://www.w3.org/2000/svg">
<g clip-path="url(#clip0_335_198)">
<path d="M14.6272 11.2182C13.1424 9.66364 11.2605 9.00606 9.18478 9.32121C7.66963 9.55152 5.68175 10.503 5.07266 12.4394C4.90297 12.9758 4.9363 13.4364 5.16963 13.8091C5.43327 14.2303 5.9363 14.5061 6.62721 14.6091C7.81509 14.7848 9.02418 14.8758 10.2302 14.8758C10.4757 14.8758 10.7181 14.8727 10.9636 14.8636C11.7151 14.8424 12.4727 14.7848 13.2181 14.6909C13.303 14.6818 13.3908 14.6697 13.4757 14.6606C14.0636 14.597 14.6696 14.5333 15.1393 14.0636C15.8181 13.3909 15.6121 12.2485 14.6272 11.2182ZM14.8272 13.7515C14.4666 14.1121 13.9636 14.1636 13.4302 14.2212C13.3424 14.2303 13.2515 14.2394 13.1636 14.2515C12.4333 14.3424 11.6878 14.397 10.9515 14.4212C9.53024 14.4636 8.09691 14.3788 6.69388 14.1727C6.306 14.1152 5.79085 13.9636 5.54842 13.5758C5.38782 13.3182 5.36963 12.9788 5.49691 12.5727C6.00903 10.9455 7.75145 9.98788 9.25145 9.76061C9.56357 9.71212 9.87266 9.69091 10.1727 9.69091C11.7333 9.69091 13.1484 10.3152 14.303 11.5273C14.9757 12.2242 15.3969 13.1848 14.8272 13.7515Z" fill="#112A25"/>
<path d="M10.5332 8.85151C10.7787 8.85151 11.0242 8.81212 11.2575 8.72727C11.7999 8.53333 12.2575 8.1 12.5181 7.53939C12.7696 6.99394 12.7999 6.38788 12.606 5.87273C12.2969 5.06667 11.6242 4.53333 10.7575 4.40909C9.86355 4.28182 8.96658 4.61515 8.4787 5.26061C8.03021 5.85151 7.98173 6.63333 8.34233 7.45454C8.71506 8.30606 9.62415 8.85151 10.5332 8.85151ZM8.82718 5.52727C9.16052 5.08788 9.75749 4.82727 10.3817 4.82727C10.4848 4.82727 10.5878 4.83333 10.6908 4.84848C11.3938 4.94848 11.9393 5.38182 12.1878 6.03333C12.3423 6.43636 12.3151 6.91818 12.112 7.35454C11.9029 7.80909 11.5363 8.15757 11.106 8.30909C10.2272 8.62121 9.12415 8.13636 8.74233 7.27273C8.44536 6.59697 8.47567 5.99394 8.82718 5.52727Z" fill="#112A25"/>
<path d="M19.6848 10.3394C19.5515 5.54545 16.7636 1.83333 12.4091 0.657576C10.1212 0.0393946 7.70603 0.257576 5.61512 1.27273C2.62421 2.72121 0.657541 5.5697 0.34845 8.89091C0.0545107 12.0939 1.49997 15.4545 4.03027 17.4545C5.84542 18.8909 8.23936 19.6879 10.6818 19.6879C10.9121 19.6879 11.1454 19.6818 11.3757 19.6667C13.7666 19.5182 15.8757 18.6273 17.3121 17.1545C18.8939 15.5364 19.7606 13.0515 19.6848 10.3394ZM16.9939 16.8455C15.6333 18.2364 13.6303 19.0818 11.3485 19.2242C8.77572 19.3848 6.20906 18.6121 4.30603 17.1091C1.88784 15.2 0.509056 11.9909 0.790874 8.93333C1.08178 5.7697 2.95754 3.05455 5.80603 1.67273C7.803 0.706061 10.106 0.49697 12.2909 1.08788C16.5121 2.22727 19.1091 5.69394 19.2394 10.3545C19.3121 12.9455 18.4939 15.3121 16.9939 16.8455Z" fill="#112A25"/>
<path d="M17.3515 14.5727C17.106 14.9788 16.6939 15.503 16.1212 15.9515C15.5484 16.397 14.9424 16.6697 14.4878 16.8121C14.0333 16.9545 13.7333 16.9939 13.7393 17.0303C13.7393 17.0515 14.0484 17.0667 14.5303 16.9576C15.009 16.8485 15.6575 16.5848 16.2545 16.1182C16.8515 15.6485 17.2636 15.0848 17.4848 14.6455C17.709 14.2061 17.7666 13.903 17.7454 13.897C17.709 13.8848 17.6 14.1667 17.3515 14.5727Z" fill="#112A25"/>
<path d="M6.81514 11.7424C6.46059 12.0818 6.33635 12.4697 6.38787 12.4879C6.44241 12.5152 6.63938 12.2 6.96059 11.8939C7.27878 11.5848 7.59999 11.4 7.57575 11.3455C7.55756 11.2909 7.16666 11.403 6.81514 11.7424Z" fill="#112A25"/>
</g>
<defs>
<clipPath id="clip0_335_198">
<rect width="20" height="20" fill="white"/>
</clipPath>
</defs>
</svg>
