<svg width="479" height="249" viewBox="0 0 479 249" fill="none" xmlns="http://www.w3.org/2000/svg">
<path d="M137.731 212.597C136.337 212.675 134.944 212.675 133.705 212.364C131.847 211.898 130.918 210.734 130.84 208.794C130.84 206.698 130.995 204.602 132.157 202.817C132.621 202.118 133.241 201.42 133.937 200.954C135.176 200.1 136.647 200.644 137.266 201.963C137.499 202.429 137.653 202.972 137.653 203.438C137.653 204.757 137.653 206.155 137.653 207.474C137.653 208.328 137.653 209.104 137.653 209.958C137.653 210.812 137.653 211.588 137.653 212.597H137.731ZM145.783 212.597C144.157 212.442 142.531 212.519 140.828 212.519C140.286 212.519 139.744 212.519 138.97 212.597C138.97 211.433 138.815 210.268 138.737 209.104C138.737 207.319 138.737 205.534 138.737 203.748C138.737 203.05 138.583 202.351 138.35 201.73C137.499 199.635 135.253 198.936 133.318 200.023C132.389 200.566 131.692 201.342 131.228 202.274C129.989 204.525 129.679 207.008 129.911 209.57C130.066 211.277 131.073 212.442 132.621 213.063C133.395 213.373 134.324 213.528 135.176 213.606C136.028 213.684 136.879 213.606 138.041 213.606C138.195 216.711 138.35 219.66 138.428 222.61C138.428 223.852 137.731 224.705 136.57 225.171C136.182 225.326 135.795 225.404 135.486 225.482C133.318 225.792 131.15 225.947 129.06 225.637C127.434 225.404 126.969 224.861 126.737 223.308C126.582 222.377 126.582 221.445 126.582 220.436C126.35 215.702 126.118 210.967 125.963 206.232C125.963 204.757 125.963 203.283 126.273 201.808C126.66 199.712 127.976 198.238 130.066 197.617C130.918 197.384 131.77 197.073 132.621 197.073C136.415 196.763 140.131 196.608 143.847 197.461C143.847 197.461 143.925 197.461 144.002 197.461C148.028 198.47 149.731 200.256 150.273 204.369C150.428 205.223 150.428 206.077 150.428 206.931C150.35 211.433 150.196 215.935 149.963 220.436C149.886 219.66 149.808 218.884 149.731 218.185C149.654 217.409 149.576 216.633 149.421 215.857C149.034 213.916 147.796 212.675 145.783 212.442V212.597ZM219.874 223.929C221.113 226.025 223.203 226.258 225.371 226.258C225.835 226.258 226.3 226.258 226.764 226.258C228.003 226.258 229.242 226.103 230.558 226.103C232.803 226.025 235.048 225.947 237.294 225.87C240.236 225.714 241.861 224.24 242.326 221.29C242.868 217.797 241.707 215.081 238.997 213.606C238.145 213.14 237.139 212.83 236.21 212.597C235.59 212.442 234.894 212.364 234.119 212.209C234.119 211.898 234.042 211.666 234.042 211.355C234.042 209.803 233.964 208.25 233.887 206.698C233.732 202.972 232.881 201.497 229.784 199.324C231.255 199.247 232.493 199.091 233.732 199.014C235.435 199.014 237.216 198.858 238.919 199.014C241.087 199.169 242.403 200.333 242.945 202.429C243.255 203.593 243.332 204.835 243.41 205.999C243.487 209.725 243.41 213.451 243.565 217.176C243.565 219.35 243.797 221.601 243.874 223.774C243.874 224.395 243.874 225.093 243.874 225.714C243.797 226.646 243.487 226.956 242.558 227.034C241.707 227.034 240.855 227.034 240.003 227.034C234.042 227.034 228.081 226.956 222.119 226.956C221.268 226.956 220.416 227.034 219.564 227.112C218.326 227.267 217.087 227.5 216.003 228.509C215.384 225.404 216.622 224.084 220.106 223.852L219.874 223.929ZM220.726 205.301C220.88 204.214 221.113 203.205 221.422 202.118C221.964 200.411 223.126 199.479 224.984 199.479C225.371 199.479 225.758 199.479 226.455 199.479C225.913 199.945 225.603 200.178 225.371 200.411C222.506 202.895 221.345 206.776 222.584 210.191C223.435 212.675 224.751 213.606 227.306 213.606C228.7 213.606 230.093 213.451 231.487 213.373C231.952 213.373 232.339 213.373 232.958 213.373C232.958 215.702 233.113 217.953 232.648 220.126C232.261 221.756 231.564 222.454 229.861 222.454C226.842 222.532 223.822 222.532 220.648 222.61C220.571 221.911 220.338 221.135 220.338 220.436C220.261 215.391 220.261 210.346 220.803 205.378L220.726 205.301ZM233.964 213.528C237.526 212.907 241.01 215.546 241.319 218.962C241.319 219.815 241.319 220.824 241.165 221.678C240.7 223.774 239.616 224.628 237.448 224.783C235.668 224.938 233.887 224.938 232.106 225.016C230.403 225.016 228.622 225.249 226.919 225.249C225.758 225.249 224.597 225.249 223.435 225.016C222.661 224.938 221.887 224.628 221.113 223.696C222.584 223.696 223.822 223.541 224.984 223.541C226.764 223.541 228.545 223.541 230.326 223.464C231.952 223.464 233.113 222.532 233.5 220.902C233.732 219.893 233.887 218.806 233.964 217.72C234.042 216.323 233.964 214.925 233.964 213.606V213.528ZM230.403 201.109C231.642 202.041 232.416 203.438 232.571 204.99C232.803 207.319 232.881 209.725 233.035 212.209C230.868 212.364 229.01 212.442 227.074 212.519C225.371 212.519 224.287 211.666 223.668 210.113C222.429 206.853 223.668 202.817 226.532 200.877C227.693 200.1 229.164 200.178 230.403 201.109ZM266.404 211.976C266.481 207.629 266.636 203.205 266.791 198.858C266.791 198.47 266.791 198.005 266.791 197.306C268.571 199.479 270.817 199.945 273.062 200.256C276.546 200.799 280.03 201.187 283.514 201.42C293.81 202.041 304.107 201.73 314.404 201.575C321.217 201.497 327.953 201.109 334.766 200.954C340.418 200.799 346.069 200.644 351.798 201.187C353.269 201.342 354.663 201.653 356.134 201.963C356.753 202.118 357.373 202.429 357.837 202.817C358.611 203.36 358.611 203.904 357.837 204.447C357.14 204.913 356.366 205.378 355.514 205.611C352.805 206.387 350.095 207.164 347.308 207.629C339.334 209.026 331.282 209.337 323.23 209.337C314.559 209.337 305.888 209.026 297.294 208.871C291.178 208.871 285.062 208.716 279.023 208.871C276.468 208.871 273.836 209.415 271.281 209.803C270.507 209.958 269.733 210.268 269.036 210.734C267.952 211.355 267.952 212.442 269.036 213.14C269.733 213.606 270.584 213.994 271.359 214.227C274.378 215.158 277.552 215.546 280.649 215.779C288.004 216.4 295.359 216.478 302.714 216.4C311.307 216.4 319.901 216.012 328.572 215.857C337.166 215.702 345.76 215.391 354.431 215.857C355.592 215.857 356.753 216.167 357.837 216.478C358.998 216.788 359.153 217.565 358.147 218.341C357.295 218.962 356.366 219.583 355.36 219.971C352.65 221.135 349.863 221.678 346.921 222.066C340.185 222.92 333.45 222.92 326.714 222.765C322.379 222.61 317.966 222.532 313.63 222.377C306.507 222.222 299.462 221.989 292.339 221.911C286.92 221.911 281.423 222.066 276.004 222.843C274.688 222.998 273.449 223.308 272.21 223.619C271.281 223.852 270.275 224.24 270.197 225.404C270.197 226.491 271.126 226.956 272.055 227.189C274.146 227.81 276.313 228.353 278.481 228.742C282.894 229.518 287.307 229.828 291.798 230.139C299.617 230.604 307.436 230.682 315.256 230.527C321.759 230.372 328.263 230.139 334.688 229.906C340.495 229.751 346.301 229.673 352.108 230.139C353.347 230.216 354.508 230.449 355.669 230.604C356.211 230.682 356.831 230.915 357.527 231.148C356.908 232.002 356.211 232.157 355.592 232.39C352.882 233.399 350.095 233.864 347.231 234.175C338.714 235.262 330.121 235.494 321.604 235.572C308.211 235.572 294.817 235.572 281.501 235.417C278.946 235.417 276.313 235.029 273.759 234.641C270.275 234.097 268.029 232.079 267.178 228.664C266.713 226.879 266.326 225.016 266.249 223.153C266.171 219.427 266.249 215.702 266.326 211.976H266.404ZM365.966 151.201C362.405 151.201 358.766 151.201 355.205 151.201C345.372 151.201 335.54 151.201 325.708 151.201C318.817 151.278 311.927 151.666 305.114 151.899C298.223 152.132 291.333 152.365 284.52 152.52C280.726 152.598 276.933 152.52 273.139 151.589C271.668 151.278 270.197 150.735 268.881 150.114C267.333 149.416 266.171 148.174 265.707 146.544C264.855 143.905 263.307 142.042 261.062 140.489C259.436 139.325 258.429 137.773 258.197 135.755C258.197 135.367 258.197 134.978 258.197 134.59C258.429 132.805 259.745 131.874 261.449 132.417C263.616 133.116 265.32 134.435 265.862 136.764C266.094 137.928 266.249 139.092 266.326 140.257C266.404 141.964 266.326 143.749 266.946 145.379C267.333 146.311 267.797 147.32 268.417 148.096C269.268 149.26 270.584 149.804 272.055 149.804C273.836 149.804 274.997 148.95 275.539 147.242C276.004 145.69 276.081 144.06 275.926 142.507C275.771 140.8 275.617 139.015 275.539 137.307C275.539 136.531 275.539 135.677 275.771 134.901C276.159 133.426 277.242 132.572 278.791 132.417C280.107 132.262 281.501 132.495 282.739 132.96C283.823 133.348 284.52 134.125 284.83 135.289C285.294 136.841 285.372 138.316 285.294 139.946C285.294 141.654 285.294 143.361 285.294 144.991C285.294 145.69 285.526 146.466 285.759 147.165C286.456 149.105 287.772 150.192 289.785 150.269C291.875 150.425 293.965 149.338 294.662 147.475C295.127 146.388 295.281 145.224 295.436 144.06C295.591 142.119 295.591 140.179 295.746 138.238C295.746 137.385 295.901 136.608 296.133 135.832C297.14 132.805 301.088 131.719 303.565 133.737C304.34 134.358 304.727 135.211 304.727 136.143C304.727 137.462 304.572 138.782 304.417 140.179C304.185 141.576 303.875 142.973 303.643 144.37C303.488 145.302 303.488 146.311 303.565 147.242C303.72 149.027 304.649 149.959 306.43 149.804C307.901 149.726 309.449 149.493 310.92 149.183C312.933 148.717 313.63 147.708 313.553 145.612C313.553 143.051 313.398 140.489 313.32 137.928C313.32 137.462 313.32 136.997 313.32 136.531C313.553 134.125 314.869 132.65 317.191 132.107C319.204 131.719 321.14 131.719 323.153 132.107C324.392 132.339 324.933 132.883 324.933 134.125C324.933 135.755 324.701 137.307 324.624 138.937C324.469 140.567 324.237 142.119 324.082 143.749C324.082 144.448 324.082 145.224 324.237 145.923C324.624 147.553 325.553 148.717 327.333 149.027C328.495 149.26 329.656 149.416 330.817 149.493C332.521 149.571 333.372 148.872 333.759 147.165C333.837 146.699 333.837 146.233 333.837 145.767C333.837 142.896 333.837 139.946 333.914 137.074C333.914 135.832 334.146 134.668 334.301 133.504C334.534 132.029 335.54 131.253 337.011 131.098C338.327 131.098 339.643 131.098 340.882 131.33C342.585 131.641 343.282 132.495 343.359 134.202C343.359 135.832 343.127 137.385 343.05 139.015C342.972 140.8 342.818 142.663 342.895 144.448C343.05 148.018 345.14 149.959 348.702 150.114C349.708 150.114 350.714 150.114 351.643 149.881C353.424 149.416 354.353 148.251 354.276 146.388C354.276 144.215 353.966 141.964 353.811 139.791C353.656 137.928 353.579 136.065 353.502 134.202C353.502 134.047 353.502 133.892 353.502 133.659C353.502 131.098 354.585 130.244 357.063 130.632C358.921 130.942 360.237 131.951 361.089 133.581C361.786 134.901 362.095 136.22 362.095 137.695C362.095 139.868 362.095 142.119 362.327 144.293C362.327 145.224 362.637 146.156 362.947 147.087C363.644 149.105 364.96 150.425 367.128 150.968C366.74 151.046 366.353 151.201 365.966 151.201ZM231.177 102.844C231.177 105.095 231.177 107.346 231.177 109.597C231.177 109.83 231.177 109.985 231.1 110.296C229.164 110.373 227.384 110.296 225.68 109.442C224.519 108.821 223.9 107.812 223.745 106.493C223.513 103.853 224.287 101.447 225.99 99.4292C226.687 98.5754 227.693 98.1097 228.855 98.4202C229.939 98.6531 230.635 99.274 230.868 100.361C231.022 101.137 231.177 101.991 231.177 102.767V102.844ZM232.184 111.382C235.281 111.538 238.068 111.615 240.932 111.771C241.242 111.771 241.629 111.848 241.939 112.003C242.945 112.392 243.255 112.78 243.177 113.866C243.023 115.574 243.023 117.359 242.636 118.989C241.861 122.56 237.758 124.422 234.506 122.792C233.887 122.482 233.423 121.861 232.958 121.318C232.726 120.93 232.571 120.464 232.493 119.998C231.952 117.281 232.261 114.487 232.184 111.46V111.382ZM186.661 112.081C186.583 114.332 186.506 116.428 186.428 118.523C186.428 119.455 186.274 120.309 186.119 121.24C185.886 122.715 185.19 123.258 183.719 123.336C180.622 123.491 178.996 122.327 177.99 119.3C177.757 118.523 177.525 117.825 177.448 117.049C177.138 115.186 177.912 113.633 179.693 113.012C181.009 112.547 182.48 112.392 183.873 112.159C184.725 112.003 185.577 112.159 186.661 112.159V112.081ZM181.783 111.305C180.777 111.46 179.848 111.693 178.919 112.159C177.06 113.012 176.054 114.798 176.364 116.816C176.596 118.291 177.06 119.765 177.68 121.162C178.686 123.336 180.544 124.345 182.867 124.345C186.041 124.345 186.97 123.569 187.28 120.386C187.512 117.98 187.59 115.574 187.744 113.09C187.744 112.78 187.744 112.469 187.744 112.236C189.603 111.926 194.79 112.236 195.796 112.702C195.796 114.41 195.796 116.117 195.796 117.747C195.796 119.377 196.028 121.007 196.028 122.715C196.028 124.034 195.796 124.422 194.48 124.655C193.861 124.81 193.241 124.888 192.699 124.81C189.061 124.81 185.344 124.655 181.706 124.5C180.854 124.5 180.002 124.267 179.151 124.034C177.06 123.491 175.822 122.171 175.589 120.076C175.357 118.213 175.125 116.272 175.048 114.41C174.893 111.227 174.893 108.045 174.815 104.94C174.815 104.086 174.893 103.31 174.97 102.456C175.125 100.982 175.977 99.8949 177.448 99.6621C178.996 99.4292 180.622 99.274 182.248 99.3516C184.57 99.5069 186.041 101.214 186.428 103.621C186.583 104.63 186.661 105.639 186.661 106.57C186.661 107.967 186.661 109.364 186.661 110.839C184.957 110.994 183.332 110.994 181.783 111.227V111.305ZM245.732 137.928C237.216 137.928 228.777 138.161 220.261 138.316C214.3 138.471 208.338 138.704 202.377 139.015C195.099 139.325 187.744 139.636 180.467 139.946C174.118 140.179 167.847 140.412 161.499 140.645C149.963 141.11 138.428 141.266 126.815 141.11C124.027 141.11 121.318 140.722 118.531 140.489C117.756 140.489 116.905 140.179 116.131 139.868C115.511 139.636 114.892 139.247 114.35 138.782C113.343 137.85 113.266 136.764 114.195 135.832C114.892 135.134 115.744 134.59 116.673 134.202C118.608 133.349 120.776 133.038 122.866 132.883C129.06 132.417 135.253 132.805 141.447 132.883C144.234 132.883 147.021 133.038 149.731 133.038C150.815 133.038 151.899 132.883 152.905 132.65C154.221 132.417 155.15 131.563 155.383 130.166C155.615 128.769 154.996 127.76 153.912 126.906C152.518 125.897 150.97 125.431 149.267 125.276C146.712 125.043 144.079 125.043 141.525 124.888C140.983 124.888 140.363 124.888 139.589 124.888C141.137 124.267 142.608 124.112 144.079 123.957C145.008 123.879 146.015 123.801 146.944 123.724C148.415 123.569 149.421 122.715 149.963 121.395C151.744 117.126 149.267 112.236 144.776 111.227C143.692 110.994 142.531 110.917 141.447 110.684C142.376 110.606 143.305 110.529 144.157 110.451C146.867 110.218 148.028 109.209 148.57 106.493C148.802 105.173 148.879 103.853 148.879 102.456C148.802 100.05 148.26 99.274 146.092 97.1007C146.867 97.1007 147.486 97.0231 148.105 97.0231C153.138 97.0231 158.247 96.9454 163.28 96.8678C168.157 96.7902 172.957 96.7126 177.835 96.4797C181.861 96.3245 185.964 95.9364 189.99 95.6259C191.306 95.6259 192.622 95.6259 193.861 95.7812C195.951 96.014 196.88 97.0231 196.803 99.1964C196.803 100.982 196.648 102.767 196.57 104.552C196.416 106.725 196.183 108.976 196.028 111.227C194.635 111.227 193.241 111.072 191.925 110.994C190.609 110.994 189.293 110.917 187.744 110.839C187.744 110.296 187.744 109.83 187.744 109.364C187.744 107.424 187.744 105.483 187.512 103.543C187.125 100.128 184.957 98.1873 181.551 98.1097C180.312 98.1097 179.151 98.1097 177.912 98.3426C175.357 98.7307 174.118 100.05 173.964 102.534C173.809 104.707 173.809 106.881 173.886 109.054C173.886 112.081 174.119 115.108 174.273 118.135C174.273 119.067 174.506 119.921 174.738 120.852C175.125 122.715 176.364 124.034 178.144 124.655C179.306 125.043 180.467 125.354 181.706 125.431C185.499 125.587 189.215 125.664 193.009 125.742C193.783 125.742 194.557 125.587 195.332 125.431C196.648 125.121 197.19 124.345 197.267 123.025C197.267 122.327 197.19 121.628 197.19 120.93C197.19 118.601 197.112 116.272 197.035 113.944C197.035 113.789 197.112 113.633 197.422 113.401C197.577 113.944 197.887 114.487 197.964 115.031C198.351 117.049 198.661 119.067 199.048 121.085C199.203 121.939 199.358 122.792 199.435 123.646C199.59 125.043 199.203 125.82 197.887 126.285C196.88 126.596 195.874 126.829 194.867 126.829C190.222 126.829 185.499 126.596 180.854 126.44C178.919 126.44 176.983 126.285 175.048 126.363C174.351 126.363 173.654 126.596 173.035 126.829C171.486 127.449 170.712 129.856 172.648 131.098C174.041 132.029 175.589 132.417 177.138 132.572C179.615 132.728 182.093 132.883 184.493 132.805C188.364 132.65 192.235 132.339 196.183 132.107C199.28 131.951 202.377 131.874 205.551 131.874C215.693 131.874 225.835 131.796 235.977 131.719C239.074 131.719 242.171 131.486 245.345 131.253C246.352 131.253 247.436 130.865 248.287 130.399C249.913 129.545 249.913 128.226 248.442 127.217C246.894 126.208 245.113 125.742 243.332 125.276C240.081 124.578 236.752 124.5 233.423 124.655C231.022 124.733 228.7 124.888 226.3 124.966C223.9 125.121 221.577 125.431 219.177 126.208C219.332 125.742 219.332 125.431 219.487 125.121C220.88 121.318 221.577 117.437 221.5 113.401C221.5 109.83 221.345 106.26 221.345 102.767C221.345 101.758 221.5 100.749 221.655 99.8173C221.964 98.1873 222.971 97.1783 224.597 96.8678C225.758 96.635 226.997 96.4021 228.158 96.4021C231.255 96.4021 234.274 96.7126 237.371 96.8678C237.681 96.8678 238.068 96.9454 238.377 97.0231C241.242 97.4888 242.79 99.1188 243.255 101.991C243.719 105.018 243.642 108.045 243.487 111.15C240.39 109.985 237.294 110.451 234.197 110.296C233.655 110.296 233.113 110.296 232.493 110.296C232.493 109.209 232.493 108.278 232.493 107.424C232.493 105.716 232.493 103.931 232.493 102.223C232.493 101.525 232.416 100.749 232.184 100.05C231.487 97.4888 228.777 96.4021 226.532 97.7216C225.913 98.1097 225.293 98.653 224.829 99.274C223.513 101.137 222.816 103.31 222.816 105.639C222.816 108.278 224.287 110.218 226.842 110.839C228.235 111.15 229.629 111.227 231.255 111.46C231.255 111.848 231.255 112.314 231.255 112.78C231.332 115.108 231.255 117.359 231.564 119.688C231.952 122.715 233.81 124.19 236.906 124.19C237.603 124.19 238.377 124.112 239.074 123.957C241.629 123.413 243.255 121.706 243.797 119.144C244.029 117.98 244.184 116.816 244.571 115.729C244.726 116.971 244.881 118.291 245.036 119.532C245.036 120.076 245.036 120.541 245.113 121.085C245.345 123.491 246.274 124.578 248.674 124.966C249.681 125.121 250.765 125.276 251.771 125.354C254.171 125.431 255.797 124.655 256.803 122.249C257.578 120.541 257.733 118.601 257.733 116.738C257.733 113.556 257.578 110.296 257.5 107.113C257.423 102.301 257.345 97.4888 257.191 92.6764C257.191 90.2703 256.804 87.9417 255.952 85.6908C254.791 82.4308 252.7 80.0246 249.526 78.5499C247.281 77.4632 244.958 76.9975 242.558 76.5318C242.403 76.5318 242.248 76.5318 242.094 76.3766C244.339 76.3766 246.584 76.3766 248.829 76.3766C252.003 76.3766 255.178 76.4542 258.274 76.5318C259.204 76.5318 260.21 76.687 261.139 76.7646C261.758 76.8423 262.455 76.9199 262.765 77.7737C262.455 78.0842 262.068 78.4723 261.681 78.7827C258.662 81.1113 257.191 84.1384 257.345 87.9417C257.423 90.736 257.578 93.4526 257.81 96.2469C258.12 100.283 258.507 104.397 258.739 108.433C258.971 113.09 259.049 117.747 259.204 122.327C259.204 122.637 259.204 123.025 259.204 123.336C259.436 125.975 260.829 127.682 263.307 128.459C265.552 129.235 267.952 129.468 270.352 129.545C282.352 130.089 294.43 129.7 306.43 129.545C312.856 129.545 319.359 129.545 325.785 129.39C333.759 129.235 341.734 128.924 349.631 128.769C354.818 128.691 360.005 128.691 365.192 128.769C366.663 128.769 368.211 129.157 369.682 129.468C371.618 129.933 372.624 131.175 372.779 133.116C372.857 134.125 372.857 135.211 372.779 136.22C372.702 139.247 372.547 142.197 372.392 145.147C372.392 145.845 372.315 146.621 372.082 147.32C371.618 148.95 370.379 149.804 368.676 149.804C366.508 149.804 364.728 148.639 363.953 146.621C363.334 145.146 363.179 143.517 363.102 141.887C363.102 140.334 363.102 138.859 363.102 137.307C363.102 135.444 362.637 133.737 361.553 132.107C360.16 129.933 358.069 129.002 355.592 129.157C353.424 129.235 352.34 130.399 352.34 132.572C352.34 133.969 352.34 135.444 352.495 136.841C352.65 139.713 352.96 142.663 353.114 145.535C353.192 147.475 352.418 148.406 350.482 148.639C349.708 148.717 348.934 148.717 348.16 148.639C345.527 148.329 343.979 146.932 343.901 144.293C343.824 142.43 343.901 140.489 344.056 138.549C344.056 137.074 344.289 135.599 344.366 134.125C344.366 133.737 344.366 133.271 344.211 132.805C343.979 131.408 343.205 130.554 341.889 130.089C340.03 129.39 338.095 129.39 336.159 129.778C334.611 130.089 333.605 131.098 333.295 132.65C332.985 134.125 332.83 135.677 332.753 137.152C332.675 139.868 332.753 142.585 332.675 145.379C332.675 145.612 332.675 145.923 332.675 146.156C332.521 147.708 331.979 148.251 330.43 148.096C329.501 148.018 328.572 147.863 327.643 147.63C326.172 147.32 325.398 146.621 325.243 145.069C325.088 143.749 325.243 142.352 325.243 141.033C325.398 139.636 325.63 138.238 325.785 136.764C325.863 135.677 325.94 134.59 325.862 133.504C325.785 131.874 325.011 131.02 323.462 130.709C321.14 130.244 318.817 130.166 316.495 130.709C313.785 131.408 312.236 133.193 312.159 135.988C312.082 138.549 312.159 141.188 312.237 143.827C312.237 144.293 312.237 144.681 312.237 145.147C312.237 146.699 311.927 147.32 310.378 147.708C308.985 148.018 307.591 148.251 306.12 148.329C304.804 148.406 304.262 147.941 304.185 146.621C304.185 145.302 304.34 143.982 304.494 142.585C304.727 141.11 305.114 139.713 305.269 138.238C305.346 137.074 305.269 135.832 305.114 134.59C304.959 133.581 304.34 132.883 303.565 132.262C300.081 129.778 295.281 131.486 294.507 135.677C294.12 137.773 294.198 139.868 293.965 142.042C293.81 143.361 293.81 144.758 293.423 146C292.959 147.786 291.023 148.95 289.165 148.717C287.539 148.484 286.456 147.553 286.146 146.078C285.836 144.526 285.836 142.973 285.759 141.421C285.681 139.558 285.759 137.695 285.604 135.832C285.294 132.883 283.901 131.563 280.959 131.098C280.262 130.942 279.565 130.865 278.868 130.865C275.849 130.865 273.913 132.65 273.913 135.677C273.913 137.695 274.146 139.713 274.223 141.809C274.223 143.128 274.223 144.526 274.068 145.845C273.759 148.174 271.746 149.027 269.733 147.941C268.726 147.397 268.029 146.466 267.642 145.379C267.023 143.905 266.946 142.352 266.868 140.8C266.868 139.636 266.791 138.471 266.636 137.307C266.249 134.202 264.468 132.184 261.604 131.098C258.971 130.089 256.881 131.486 256.649 134.28C256.494 135.832 257.036 137.152 257.81 138.704C253.552 137.618 249.449 137.462 245.345 137.54L245.732 137.928ZM139.666 112.003C142.144 112.003 144.389 111.848 146.557 113.09C149.189 114.642 150.35 118.135 149.189 121.007C148.802 121.861 148.26 122.56 147.331 122.637C144.621 123.025 141.834 123.336 138.97 123.724C139.202 119.843 139.512 115.962 139.744 112.003H139.666ZM138.273 110.917H134.712L138.273 110.839C138.273 110.839 138.273 110.839 138.273 110.917ZM137.112 109.675C134.944 109.83 132.776 110.063 130.686 110.296C129.989 110.296 129.37 110.606 128.673 110.839C128.44 110.917 128.286 111.305 128.286 111.538C128.286 111.693 128.595 112.003 128.75 112.081C129.215 112.236 129.679 112.314 130.144 112.314C132.466 112.314 134.789 112.159 137.112 112.159C137.499 112.159 137.963 112.159 138.505 112.159C138.428 113.633 138.35 115.031 138.195 116.428C138.041 118.756 137.886 121.007 137.731 123.336C137.731 123.879 137.886 124.5 137.963 125.121C135.641 125.199 133.318 125.276 130.995 125.431C129.757 125.509 128.595 125.742 127.434 125.897C126.118 126.13 125.189 126.751 124.802 128.07C124.802 128.148 124.647 128.226 124.492 128.459C124.182 127.682 124.337 126.984 124.724 126.44C125.111 125.897 125.498 125.431 126.04 125.043C127.202 124.112 127.744 122.87 127.744 121.395C127.744 119.3 127.666 117.126 127.589 115.031C127.434 110.917 127.434 106.881 127.821 102.844C127.821 101.991 128.053 101.214 128.286 100.438C128.75 98.653 129.911 97.5664 131.615 97.1783C133.241 96.7902 134.866 96.635 136.492 97.0231C137.886 97.3335 138.737 98.1097 138.97 99.5068C138.97 99.6621 138.97 99.8173 138.97 100.05C139.279 103.233 138.815 106.337 138.815 109.597C138.118 109.597 137.576 109.675 137.034 109.752L137.112 109.675ZM208.029 75.5227H147.331V75.3675C148.415 75.2899 149.499 75.1347 150.66 75.057C159.718 74.3585 168.699 74.1256 177.757 74.2809C182.248 74.3585 186.738 74.5137 191.228 74.6689C196.88 74.9018 202.454 75.1347 208.106 75.3675C208.106 75.3675 208.106 75.4451 208.106 75.5227H208.029ZM142.608 74.7466C136.028 75.2899 129.447 75.9885 122.789 75.8332C121.395 75.8332 120.002 75.678 118.686 75.5227C118.376 75.5227 117.989 75.3675 117.679 75.2899C117.679 75.2123 117.679 75.057 117.679 74.9794C119.692 74.6689 121.705 74.2032 123.64 74.048C128.75 73.6599 133.937 73.3494 139.047 73.1166C150.66 72.6509 162.351 72.8837 173.964 72.9613C176.441 72.9613 178.996 72.9613 181.473 72.9613C181.783 72.9613 182.17 72.9613 182.48 73.1942C181.628 73.1942 180.854 73.1942 180.002 73.1942C174.041 73.1942 168.08 73.039 162.118 73.2718C155.615 73.5047 149.112 74.1256 142.608 74.5913V74.7466ZM117.369 80.568C115.434 82.4308 114.66 84.837 113.963 87.3208C113.963 86.6222 114.04 85.9236 114.118 85.2251C114.273 83.3622 114.195 81.4994 113.731 79.6365C113.111 77.0751 111.563 75.4451 109.008 74.8242C108.621 74.7466 108.234 74.669 107.847 74.5137C106.531 74.1256 106.298 73.6599 106.995 72.418C107.382 71.7971 107.769 71.1761 108.234 70.6328C109.318 69.3909 110.479 68.0714 111.718 66.9071C115.976 63.0262 120.234 59.1453 124.569 55.4196C135.795 45.8725 146.557 35.7821 157.009 25.3812C162.505 19.9479 168.002 14.5923 173.577 9.2366C175.435 7.45138 177.525 5.89901 179.615 4.34664C180.544 3.64807 181.628 3.10474 182.712 2.63903C184.88 1.70761 187.125 1.78523 189.215 2.9495C190.377 3.64807 191.538 4.34664 192.545 5.20044C196.338 8.22756 199.512 11.798 202.609 15.4461C207.022 20.6465 211.28 26.0022 215.771 31.2026C222.739 39.2749 229.939 47.0368 237.913 54.1001C242.636 58.3691 247.823 62.0948 252.932 65.8981C254.326 66.9071 255.72 68.0714 257.113 69.2357C257.655 69.7014 258.12 70.2447 258.507 70.788C259.126 71.7194 258.971 72.3404 257.887 72.7285C257.036 73.039 256.029 73.2718 255.1 73.3494C253.397 73.5047 251.616 73.6599 249.913 73.6599C241.397 73.5047 232.881 73.4271 224.364 73.1942C217.861 73.039 211.28 72.8061 204.777 72.5733C196.028 72.3404 187.203 72.0299 178.454 71.8747C169.396 71.7195 160.26 71.6418 151.202 71.7194C143.692 71.7971 136.183 72.1075 128.595 72.4956C125.266 72.6509 121.86 73.2718 118.531 73.6599C117.834 73.7375 117.215 73.9704 116.518 74.2032C116.053 74.3585 115.511 74.5913 115.511 75.2123C115.511 75.8332 116.131 76.0661 116.673 76.1437C117.989 76.3766 119.305 76.6094 120.621 76.687C121.705 76.7646 122.866 76.687 124.028 76.687C124.028 76.7646 124.028 76.9199 124.105 76.9975C121.627 77.7737 119.15 78.5499 117.215 80.4127L117.369 80.568ZM114.969 117.902C115.202 120.309 115.279 122.715 115.356 125.199C115.356 125.897 115.202 126.673 115.124 127.372C115.047 127.372 114.892 127.372 114.814 127.372C114.66 126.984 114.35 126.596 114.273 126.13C113.808 123.957 113.266 121.861 113.034 119.61C112.492 115.031 112.647 110.451 112.802 105.872C112.956 101.292 113.266 96.7902 113.576 92.2883C113.653 92.2883 113.731 92.2883 113.885 92.2883C113.885 93.9183 113.885 95.4707 113.885 97.1007C114.04 104.009 114.427 110.917 115.047 117.825L114.969 117.902ZM188.054 222.532C187.435 228.276 186.738 234.097 186.119 239.841C186.041 239.841 185.964 239.841 185.886 239.841C185.732 233.709 185.577 227.5 185.499 221.135C186.428 221.678 187.203 222.066 188.054 222.532ZM191.306 218.651C192.08 219.505 192.235 220.048 191.848 220.902C191.461 221.678 190.841 221.911 189.68 221.834C189.68 220.592 190.145 219.505 191.383 218.729L191.306 218.651ZM179.925 222.454C179.925 222.454 179.615 222.066 179.538 221.834C178.996 220.592 178.996 219.35 179.383 218.185C179.538 217.642 179.848 217.254 180.544 217.409C181.319 217.565 181.706 218.108 181.628 218.729C181.473 220.126 180.854 221.601 179.925 222.532V222.454ZM477.529 245.041C471.877 245.041 466.226 244.886 460.497 244.731C452.29 244.498 444.161 244.032 435.954 243.644C430.999 243.411 426.122 242.946 421.244 242.014C418.69 241.549 416.212 240.928 413.812 239.686C411.257 238.366 409.477 236.426 408.702 233.632C408.16 231.691 407.696 229.751 407.464 227.81C407.076 224.084 406.844 220.281 406.612 216.555C406.302 210.656 405.993 204.68 405.683 198.781C405.528 195.443 405.296 192.106 404.986 188.768C404.522 183.8 404.057 178.833 404.831 173.865C405.296 170.993 405.993 168.199 407.231 165.56C407.464 165.094 407.696 164.706 407.928 164.318C407.928 164.862 407.928 165.327 407.773 165.793C407.231 168.199 406.689 170.528 406.225 172.934C405.915 174.797 405.683 176.582 406.07 178.522C406.612 181.394 408.935 183.024 411.799 182.481C413.502 182.17 414.973 181.239 416.212 180.152C418.457 178.134 420.161 175.806 421.399 173.089C422.406 170.761 422.948 168.277 422.715 165.715C421.941 157.022 417.606 150.735 409.631 147.165C406.07 145.535 402.276 144.836 398.328 145.845C393.141 147.165 389.657 150.58 387.412 155.315C385.786 158.73 385.476 162.3 385.786 166.026C386.173 171.226 388.108 175.806 391.825 179.531C392.831 180.541 393.992 181.55 395.076 182.559C396.315 183.723 397.631 184.81 398.792 185.974C400.109 187.293 400.96 188.923 401.193 190.786C401.425 192.571 401.502 194.434 401.502 196.219C401.502 198.703 401.27 201.265 401.193 203.748C401.038 208.949 401.425 214.072 401.812 219.194C402.199 223.929 402.431 228.664 402.586 233.321C402.664 235.339 402.586 237.435 402.431 239.453C402.199 241.626 401.193 242.713 399.025 243.101C397.631 243.411 396.16 243.567 394.767 243.644C390.818 243.877 386.87 244.032 382.999 244.265C377.657 244.498 372.392 244.886 367.05 244.886C359.308 244.886 351.643 244.731 343.901 244.653C336.392 244.653 328.804 244.42 321.295 244.498C308.598 244.653 295.823 244.964 283.126 245.197C274.146 245.352 265.087 245.585 256.107 245.818C247.745 246.05 239.306 246.283 230.945 246.516C223.203 246.671 215.538 246.904 207.874 246.982C198.816 247.06 189.68 247.06 180.622 247.137C169.241 247.137 157.938 247.137 146.557 247.215C138.892 247.215 131.228 247.37 123.563 246.749C122.092 246.594 120.621 246.594 118.918 246.05C119.46 245.818 119.769 245.585 120.079 245.507C121.395 245.197 122.789 244.886 124.182 244.653C127.589 244.11 130.995 244.11 134.402 244.032C137.653 244.032 140.905 243.955 144.079 243.334C146.092 242.946 148.028 242.402 149.808 241.393C150.892 240.695 151.821 239.919 152.286 238.677C153.37 236.038 152.054 233.632 149.267 233.088C148.57 232.933 147.873 232.933 147.176 232.933C143.073 233.088 138.97 233.321 134.866 233.554C132.699 233.632 130.531 233.942 128.363 233.476C127.511 233.321 126.66 232.933 125.886 232.467C125.189 232.079 124.957 231.381 125.111 230.527C125.266 229.751 125.808 229.285 126.505 229.13C127.279 228.974 128.131 228.819 128.905 228.819C133.55 228.509 138.273 228.276 142.918 227.965C144.312 227.888 145.705 227.5 147.099 227.189C148.183 226.956 148.957 226.258 149.344 225.171C149.421 224.861 149.499 224.55 149.576 224.317C149.576 224.007 149.731 223.774 149.808 223.231C149.808 225.171 150.196 226.646 151.899 227.5C152.209 227.655 152.441 228.121 152.518 228.431C152.673 229.13 152.75 229.828 152.828 230.449C152.905 232.234 152.905 234.02 152.983 235.805C152.983 237.357 153.37 238.91 154.067 240.307C154.763 241.781 155.847 243.023 157.396 243.644C159.641 244.653 161.963 243.644 162.738 241.238C163.047 240.384 163.125 239.453 163.202 238.521C163.202 236.969 163.202 235.494 163.047 233.942C162.815 230.061 162.583 226.258 162.428 222.377C162.196 218.108 162.041 213.916 161.963 209.647C161.963 208.095 162.273 206.543 162.66 205.068C163.357 202.196 165.37 200.644 168.157 200.023C170.325 199.557 172.493 199.635 174.583 199.945C175.977 200.178 177.37 200.488 178.686 200.954C180.622 201.653 181.706 203.205 182.093 205.223C182.248 206.077 182.402 206.931 182.402 207.785C182.325 210.268 182.17 212.83 182.015 215.314C182.015 215.857 181.861 216.4 181.783 216.944C181.551 216.866 181.396 216.866 181.241 216.788C179.538 215.857 178.454 216.866 178.067 218.263C177.757 219.583 177.757 220.902 178.299 222.222C178.377 222.532 178.531 222.765 178.764 222.998C179.383 223.774 180.312 223.852 180.931 222.998C181.319 222.532 181.628 221.911 181.861 221.29C182.093 220.592 182.325 219.893 182.557 219.117C183.254 219.738 184.183 219.971 184.183 221.057C184.183 223.464 184.415 225.947 184.415 228.353C184.415 232.622 184.415 236.969 184.57 241.238C184.57 241.859 184.57 242.48 184.725 243.023C184.725 243.334 185.112 243.8 185.344 243.877C185.886 244.032 186.119 243.567 186.273 243.179C186.506 242.402 186.738 241.626 186.815 240.772C187.357 236.271 187.899 231.769 188.364 227.189C188.519 225.792 188.674 224.473 188.906 223.075C189.448 223.075 189.835 223.075 190.222 223.075C192.312 222.92 193.551 220.747 192.622 218.884C192.003 217.642 190.841 217.332 189.912 218.341C189.448 218.884 189.061 219.505 188.674 220.204C188.441 220.669 188.286 221.135 188.054 221.678C187.435 221.29 186.893 220.98 186.351 220.747C185.344 220.281 184.957 219.505 184.957 218.341C184.957 215.546 184.957 212.675 184.957 209.88C184.957 208.328 185.267 206.698 185.654 205.146C186.196 202.895 187.667 201.42 189.835 200.799C190.609 200.566 191.306 200.411 192.08 200.256C194.635 199.867 197.267 200.023 199.822 200.256C201.525 200.411 203.151 200.799 204.7 201.575C206.48 202.429 207.564 203.826 207.874 205.767C208.029 206.62 208.183 207.474 208.183 208.328C208.183 211.433 208.183 214.615 208.029 217.72C207.796 222.765 207.332 227.733 207.1 232.778C207.022 234.951 207.1 237.124 207.1 239.298C207.1 240.617 207.564 241.859 208.261 242.946C208.958 244.032 209.964 244.653 211.358 244.498C213.293 244.343 215.616 242.635 215.926 240.695C216.158 239.531 216.08 238.289 216.08 237.047C216.003 235.417 215.771 233.787 215.616 232.079C218.635 233.399 218.945 233.399 222.506 233.554C226.068 233.709 229.552 233.942 233.113 234.175C236.055 234.33 238.997 234.641 241.939 234.33C245.732 233.864 248.287 232.079 249.371 228.276C249.526 227.733 249.758 227.189 249.836 226.646C250.3 223.929 250.842 221.213 251.074 218.418C251.539 212.985 251.849 207.552 252.158 202.041C252.391 198.082 252.623 194.046 252.855 190.088C253.087 186.207 253.242 182.326 253.474 178.367C253.474 177.591 253.629 176.815 253.707 176.039C254.016 176.349 254.094 176.582 254.171 176.892C255.178 182.093 255.487 187.371 255.642 192.649C255.797 198.082 255.642 203.593 255.178 209.026C254.558 216.711 253.862 224.317 253.242 232.002C253.01 234.408 253.01 236.891 253.707 239.22C254.016 240.307 254.558 241.393 255.178 242.402C256.107 243.722 257.5 244.42 259.204 244.265C261.836 244.032 264.081 241.937 264.623 239.375C265.01 237.512 264.7 235.65 264.468 233.787C263.849 229.595 263.462 225.404 263.384 221.213C263.229 217.409 263.229 213.606 263.075 209.803C262.842 202.196 262.765 194.589 263.849 187.06C264.158 185.12 264.391 183.257 264.7 181.317C265.01 181.55 265.165 181.782 265.165 181.938C265.32 183.257 265.629 184.499 265.629 185.819C265.629 192.494 265.475 199.169 265.32 205.844C265.242 211.51 265.01 217.176 265.01 222.92C265.01 225.326 265.475 227.655 266.249 229.906C267.333 232.778 269.346 234.641 272.288 235.417C274.688 236.038 277.165 236.271 279.643 236.348C284.055 236.503 288.468 236.581 292.881 236.581C306.198 236.581 319.514 236.814 332.908 236.193C338.327 235.96 343.824 235.727 349.166 234.796C351.411 234.408 353.579 233.787 355.747 233.243C356.366 233.088 356.985 232.778 357.527 232.39C358.766 231.536 358.689 230.449 357.295 229.828C356.753 229.595 356.134 229.44 355.592 229.285C352.108 228.664 348.624 228.509 345.14 228.509C337.63 228.586 330.198 228.819 322.688 228.974C315.411 229.052 308.133 229.13 300.856 229.13C293.965 229.13 287.075 228.742 280.262 227.733C277.784 227.344 275.384 226.723 272.907 226.18C272.288 226.025 271.591 225.792 271.049 225.016C271.436 224.783 271.823 224.55 272.21 224.395C272.984 224.162 273.681 223.929 274.455 223.852C278.017 223.464 281.501 222.998 285.062 222.843C294.585 222.454 304.107 222.843 313.63 223.075C320.598 223.308 327.566 223.464 334.534 223.464C339.721 223.464 344.908 223.231 350.018 222.222C352.34 221.756 354.585 221.213 356.676 220.126C357.605 219.66 358.456 219.039 359.153 218.263C360.082 217.332 359.773 216.012 358.611 215.391C357.915 215.003 357.14 214.77 356.444 214.693C354.585 214.46 352.65 214.305 350.714 214.305C340.572 214.382 330.353 214.615 320.211 214.693C311.462 214.77 302.714 214.925 293.965 214.925C288.004 214.925 282.12 214.77 276.236 213.839C274.301 213.528 272.442 213.063 270.584 212.519C270.042 212.364 269.423 212.131 269.191 211.51C270.197 210.656 271.436 210.424 272.597 210.191C275.617 209.57 278.713 209.492 281.733 209.415C287.539 209.415 293.346 209.492 299.152 209.57C307.282 209.647 315.411 209.88 323.54 209.958C331.514 209.958 339.488 209.647 347.308 208.328C350.327 207.785 353.347 207.241 356.211 205.999C357.063 205.689 357.837 205.223 358.534 204.68C359.54 203.904 359.618 202.739 358.534 201.886C357.837 201.342 357.063 200.799 356.211 200.566C354.74 200.178 353.269 199.79 351.798 199.712C348.16 199.557 344.443 199.402 340.805 199.402C334.456 199.402 328.185 199.712 321.837 199.868C316.108 200.023 310.301 200.1 304.572 200.178C295.359 200.333 286.223 200.411 277.088 199.324C274.765 199.014 272.52 198.548 270.197 198.005C269.578 197.849 268.881 197.461 268.339 197.073C267.642 196.608 267.642 196.142 268.339 195.598C268.881 195.21 269.5 194.822 270.12 194.589C271.359 194.279 272.675 193.891 273.913 193.813C278.094 193.58 282.275 193.27 286.456 193.27C294.972 193.27 303.488 193.58 312.004 193.736C316.882 193.813 321.759 194.046 326.637 194.124C333.837 194.279 341.037 194.434 348.16 193.736C350.869 193.503 353.502 193.037 356.056 192.183C356.986 191.873 357.915 191.485 358.766 190.941C360.315 189.855 360.392 188.458 358.766 187.371C357.837 186.75 356.753 186.207 355.747 186.051C353.424 185.663 351.102 185.353 348.779 185.353C338.405 185.353 328.108 185.508 317.733 185.586C306.817 185.663 295.901 185.819 284.985 185.819C281.733 185.819 278.481 185.508 275.307 185.198C273.294 185.042 271.281 184.499 269.423 183.645C268.726 183.335 268.029 182.947 267.72 182.17C268.417 181.239 268.959 180.851 270.429 180.618C272.21 180.385 273.913 180.075 275.694 180.075C286.456 179.997 297.217 179.997 308.056 179.842C319.437 179.687 330.817 179.454 342.198 179.299C343.979 179.299 345.837 179.143 347.618 179.143C351.411 179.143 355.127 179.066 358.921 179.143C360.315 179.143 360.469 179.376 360.702 180.696C360.779 181.239 360.857 181.705 360.857 182.248C360.857 183.49 360.857 184.732 360.857 186.051C360.857 199.091 360.702 212.209 360.702 225.249C360.702 228.431 360.857 231.691 361.089 234.873C361.244 236.426 361.631 237.978 362.173 239.375C362.869 241.238 364.263 242.558 366.199 243.179C369.45 244.343 372.857 242.48 373.553 239.142C373.786 238.133 373.863 237.047 373.863 236.038C373.863 230.294 373.863 224.473 373.786 218.729C373.708 212.286 373.476 205.844 373.244 199.324C373.012 192.804 372.547 186.362 372.315 179.842C372.082 172.701 372.082 165.56 372.702 158.342C372.779 157.022 372.702 155.625 372.47 154.305C372.315 152.986 371.463 151.977 370.147 151.511C369.295 151.201 368.366 151.046 367.515 150.813C367.282 150.813 366.973 150.58 366.74 150.502C367.205 150.502 367.592 150.657 368.057 150.657C370.689 150.657 372.315 149.416 372.857 146.854C373.012 146 373.012 145.146 373.089 144.293C373.089 142.585 373.166 140.8 373.244 139.092C373.244 137.307 373.476 135.522 373.476 133.737C373.476 130.477 372.16 128.847 368.986 128.07C367.437 127.682 365.811 127.449 364.263 127.449C359.773 127.449 355.36 127.449 350.869 127.449C341.579 127.605 332.366 127.915 323.075 128.148C315.333 128.303 307.591 128.303 299.849 128.303C290.559 128.303 281.268 128.303 271.9 128.303C269.036 128.303 266.171 128.07 263.462 127.217C260.907 126.44 259.9 125.121 259.745 122.482C259.668 120.541 259.591 118.679 259.591 116.738C259.591 110.762 259.049 104.785 258.584 98.8083C258.274 94.8497 258.042 90.8136 257.965 86.855C257.887 83.8279 259.204 81.4218 261.526 79.4813C261.913 79.1708 262.378 78.8603 262.687 78.4723C263.694 77.3856 263.539 76.2989 262.223 75.678C261.836 75.4451 261.294 75.3675 260.907 75.2899C259.9 75.1347 258.894 75.057 257.965 75.057C247.9 74.8242 237.913 74.5913 227.848 74.3585C222.429 74.2032 216.932 74.1256 211.513 73.9704C204.235 73.7375 196.88 73.3494 189.603 73.1166C187.59 73.039 185.577 72.9613 183.564 72.9613C184.648 72.7285 185.732 72.7285 186.815 72.7285C194.48 72.9613 202.222 73.1942 209.887 73.4271C216.545 73.6599 223.126 73.8928 229.706 73.9704C236.364 74.1256 243.023 74.2032 249.681 74.2809C251.461 74.2809 253.32 74.2032 255.1 73.9704C256.262 73.8151 257.423 73.5047 258.429 73.1166C259.745 72.5733 260.055 71.3314 259.281 70.0895C258.894 69.4685 258.429 68.8476 257.887 68.3819C256.726 67.3728 255.565 66.4414 254.403 65.51C250.378 62.4829 246.352 59.5334 242.403 56.4286C235.435 50.8401 229.242 44.3978 223.126 37.8778C217.009 31.3579 211.435 24.4498 205.706 17.5418C202.377 13.428 198.893 9.46945 194.945 5.89901C193.319 4.42425 191.538 3.18236 189.757 1.94046C188.286 0.931425 186.506 0.543333 184.648 0.698569C183.099 0.776188 181.628 1.2419 180.39 2.0957C178.377 3.41522 176.364 4.65711 174.583 6.2871C170.093 10.4009 165.68 14.5147 161.344 18.7837C148.725 31.4355 135.873 43.6992 122.324 55.2643C117.989 58.9124 113.885 62.7933 109.782 66.5966C108.543 67.7609 107.46 69.158 106.376 70.4776C105.911 71.0985 105.524 71.7971 105.292 72.4956C104.905 73.6599 105.292 74.4361 106.376 74.9018C106.995 75.1347 107.692 75.3675 108.389 75.5227C110.479 75.9885 111.718 77.308 112.182 79.3261C112.414 80.3351 112.647 81.3441 112.569 82.4308C112.569 84.7593 112.337 87.0103 112.182 89.3388C111.873 93.6079 111.563 97.8769 111.253 102.146C110.866 108.045 110.789 113.944 111.408 119.843C111.64 122.016 112.182 124.112 112.724 126.208C112.879 126.829 113.189 127.449 113.576 127.915C114.118 128.614 114.814 128.536 115.279 127.76C115.434 127.449 115.589 127.061 115.666 126.673C115.744 125.431 115.898 124.267 115.821 123.025C115.511 117.592 114.969 112.159 114.737 106.648C114.505 101.835 114.35 97.0231 114.35 92.2107C114.35 90.3479 114.582 88.485 114.892 86.6222C115.511 82.5084 117.834 79.7918 121.782 78.3946C123.95 77.6185 126.195 77.1527 128.44 76.9199C133.163 76.2989 137.886 76.2213 142.531 76.2213C167.228 76.2213 191.848 76.1437 216.545 76.1437C224.209 76.1437 231.874 76.1437 239.539 76.9975C242.326 77.308 245.036 77.7737 247.59 78.7827C251.074 80.1799 253.552 82.6636 254.481 86.3117C254.945 88.1746 255.333 90.115 255.41 92.0555C255.642 96.3245 255.565 100.594 255.72 104.785C255.797 108.743 255.952 112.702 255.952 116.661C255.952 118.368 255.72 120.076 255.023 121.628C254.481 122.792 253.707 123.724 252.391 123.879C250.61 124.112 248.829 123.879 247.126 123.336C246.274 123.103 245.81 122.56 245.655 121.706C245.5 121.007 245.423 120.231 245.423 119.532C245.19 117.126 245.113 114.72 243.952 112.469C243.719 112.081 243.797 111.538 243.797 111.072C243.797 108.045 243.797 105.095 243.565 102.068C243.255 98.1097 241.397 96.2469 237.526 95.5483C237.294 95.5483 237.061 95.5483 236.906 95.4707C233.81 95.3155 230.79 95.0826 227.693 95.005C226.3 95.005 224.829 95.2378 223.435 95.4707C221.5 95.8588 220.261 97.1007 219.874 99.0411C219.642 100.283 219.487 101.603 219.487 102.922C219.487 106.648 219.564 110.296 219.564 114.021C219.564 115.496 219.409 116.971 219.177 118.446C218.79 121.007 218.016 123.491 217.087 125.975C216.777 126.751 216.622 127.527 216.467 128.381C216.467 128.614 216.777 128.924 216.932 129.157C217.164 129.002 217.474 128.847 217.551 128.614C217.706 127.527 218.48 127.061 219.409 126.829C220.493 126.518 221.577 126.208 222.661 126.13C227.771 125.509 232.881 125.431 237.99 125.587C240.7 125.664 243.332 126.208 245.81 127.217C246.507 127.527 247.203 127.838 247.745 128.691C247.281 129.002 246.971 129.39 246.507 129.545C245.81 129.778 245.036 130.011 244.261 130.089C240.777 130.321 237.294 130.477 233.732 130.554C225.99 130.632 218.326 130.709 210.584 130.709C202.609 130.709 194.635 130.942 186.738 131.486C183.409 131.719 180.08 131.874 176.751 131.486C175.28 131.253 173.809 131.02 172.57 130.166C171.409 129.39 171.486 128.226 172.802 127.682C173.344 127.449 173.886 127.294 174.428 127.294C176.054 127.294 177.602 127.294 179.228 127.294C184.183 127.682 189.061 127.838 194.016 127.76C195.177 127.76 196.416 127.527 197.577 127.139C199.28 126.596 199.977 125.431 199.822 123.646C199.745 122.715 199.59 121.783 199.435 120.774C199.125 118.756 198.738 116.738 198.351 114.72C198.196 113.789 197.964 112.78 197.19 112.159C196.648 111.693 196.57 111.227 196.648 110.606C196.88 108.2 197.112 105.794 197.267 103.388C197.345 101.68 197.422 99.9726 197.345 98.3426C197.345 96.635 196.261 95.3931 194.557 95.005C193.164 94.6945 191.77 94.5393 190.299 94.5393C188.674 94.5393 187.048 94.6945 185.344 94.8497C178.531 95.3931 171.718 95.7035 164.828 95.7812C158.402 95.7812 151.899 95.9364 145.473 96.014C144.157 96.014 142.918 96.1693 141.602 96.3245C141.292 96.3245 140.905 96.635 140.905 96.8678C140.75 97.3335 141.215 97.4112 141.602 97.4888C142.066 97.4888 142.454 97.4888 142.918 97.644C144.931 97.9545 146.557 98.8083 147.021 100.982C147.563 103.155 147.331 105.328 146.634 107.424C146.325 108.355 145.628 108.976 144.699 109.132C143.228 109.287 141.679 109.364 140.208 109.442C139.899 109.442 139.666 109.364 139.357 109.287C139.434 107.579 139.589 105.949 139.589 104.242C139.589 102.534 139.589 100.826 139.434 99.1964C139.202 97.2559 138.041 96.1693 136.183 95.7812C135.099 95.6259 133.937 95.5483 132.853 95.6259C128.518 95.9364 126.582 97.7992 126.273 102.146C126.04 105.794 125.963 109.52 125.963 113.168C125.963 115.884 126.118 118.601 126.195 121.395C126.195 122.482 125.808 123.336 124.957 124.034C124.492 124.422 123.95 124.888 123.563 125.431C122.711 126.596 122.479 127.915 123.253 129.235C123.408 129.545 123.873 129.933 124.182 130.011C124.724 130.089 124.957 129.545 125.111 129.079C125.189 128.847 125.266 128.691 125.344 128.459C125.576 127.527 126.118 127.061 127.047 126.829C128.053 126.596 128.982 126.363 129.989 126.363C135.486 126.208 141.06 126.13 146.634 126.13C148.338 126.13 150.041 126.363 151.589 127.061C152.286 127.372 152.983 127.76 153.525 128.303C154.531 129.235 154.221 130.709 152.983 131.33C152.518 131.563 151.976 131.719 151.512 131.719C150.428 131.796 149.344 131.874 148.26 131.874C140.595 131.796 132.931 131.641 125.266 131.563C122.634 131.563 120.079 131.796 117.524 132.495C116.053 132.883 114.66 133.426 113.498 134.435C111.563 136.143 111.64 138.394 113.808 139.868C114.35 140.257 115.047 140.567 115.666 140.722C116.363 140.955 117.137 141.188 117.911 141.266C121.008 141.498 124.105 141.887 127.202 141.964C131.537 142.042 135.873 141.964 140.208 141.964C147.95 141.809 155.692 141.654 163.434 141.421C170.093 141.188 176.751 140.877 183.409 140.645C189.99 140.412 196.57 140.101 203.151 139.868C210.042 139.636 216.932 139.247 223.745 139.092C230.635 138.937 237.526 138.859 244.416 138.859C247.59 138.859 250.687 139.17 253.862 139.325C254.713 139.325 255.565 139.558 256.339 139.713C255.952 140.101 255.642 140.257 255.255 140.257C253.552 140.567 251.849 140.877 250.145 141.033C243.719 141.421 237.371 141.809 230.945 142.119C224.442 142.43 217.938 142.507 211.513 142.74C203.383 142.973 195.332 143.284 187.203 143.284C175.589 143.284 163.899 143.206 152.286 143.051C143.46 142.973 134.634 142.818 125.808 142.74C120.853 142.74 115.976 142.74 111.021 142.973C109.008 142.973 107.072 143.439 105.137 143.749C104.595 143.827 103.976 144.137 103.434 144.448C102.35 145.069 102.35 146.078 103.279 146.932C103.666 147.242 104.13 147.553 104.595 147.708C105.369 148.018 106.221 148.329 107.072 148.484C110.402 149.26 113.885 149.416 117.292 149.416C125.034 149.416 132.776 149.416 140.518 149.338C148.802 149.338 157.163 149.183 165.447 149.105C172.183 149.027 178.919 148.872 185.732 148.872C197.422 148.795 209.113 148.717 220.803 148.717C229.164 148.717 237.603 148.872 245.965 149.027C249.758 149.027 253.474 149.416 257.268 149.648C258.429 149.648 259.513 149.959 260.597 150.192C260.287 150.502 259.978 150.58 259.591 150.657C258.12 150.813 256.649 151.045 255.178 151.201C247.823 151.666 240.39 152.21 233.035 152.52C226.068 152.831 219.022 152.908 211.977 152.986C198.661 153.141 185.422 152.986 172.106 152.598C167.77 152.443 163.357 152.365 159.022 152.21C153.138 151.977 147.254 151.822 141.37 151.589C136.647 151.434 131.924 151.201 127.202 151.123C121.24 150.968 115.356 150.968 109.472 151.977C104.672 152.831 100.182 154.383 96.1562 157.1C92.9045 159.273 90.2722 162.067 88.3367 165.483C87.098 167.578 87.8722 169.131 90.1948 169.596C90.3496 169.596 90.5045 169.596 90.7367 169.596C92.3626 169.596 93.911 169.829 95.5368 169.752C99.253 169.674 102.969 169.441 106.685 169.286C112.956 168.975 119.227 168.587 125.498 168.354C130.84 168.122 136.26 167.889 141.602 167.733C149.886 167.501 158.092 167.19 166.376 167.035C171.331 166.88 176.364 166.88 181.319 166.802C188.519 166.724 195.796 166.569 202.996 166.569C219.642 166.492 236.365 166.259 253.01 166.957C258.12 167.19 263.229 167.501 268.262 167.811C269.81 167.889 271.359 168.122 272.907 168.354C272.52 168.587 272.055 168.743 271.668 168.82C268.184 169.131 264.7 169.441 261.216 169.596C255.72 169.829 250.223 170.062 244.726 170.217C238.532 170.372 232.339 170.528 226.145 170.683C217.784 170.916 209.345 171.071 200.983 171.304C193.164 171.459 185.344 171.692 177.525 171.847C162.815 172.08 148.183 171.537 133.55 171.071C129.524 170.916 125.498 170.761 121.473 171.226C116.595 171.77 114.118 174.098 113.343 179.066C113.111 180.618 112.956 182.248 112.956 183.878C113.034 189.777 113.266 195.676 113.421 201.575C113.576 207.707 113.808 213.839 113.963 219.893C114.118 225.016 114.195 230.216 114.273 235.339C114.273 236.271 114.118 237.28 113.963 238.133C113.498 239.919 112.414 241.238 110.634 241.859C109.705 242.17 108.776 242.402 107.847 242.558C103.743 243.023 99.5627 243.179 95.382 242.946C92.5948 242.79 89.9625 242.17 87.5625 240.772C83.6915 238.521 82.685 234.097 85.3173 230.372C86.0141 229.363 86.9431 228.431 87.8722 227.577C89.0335 226.491 90.2722 225.559 91.4335 224.55C93.4465 222.843 95.3045 220.902 96.6981 218.651C99.9498 213.373 101.034 207.785 99.0207 201.808C96.9304 195.521 90.1948 188.38 79.4334 189.389C66.8138 190.553 60.3879 201.187 61.4718 210.734C62.0912 216.323 64.8009 220.592 69.7558 223.386C70.7623 223.929 71.9236 224.24 73.0849 224.473C73.7817 224.628 74.5559 224.55 74.8656 223.774C75.1752 222.998 74.6333 222.532 74.0914 222.144C73.2397 221.445 72.3107 220.824 71.3816 220.204C68.5945 218.341 66.7364 215.779 65.4977 212.752C63.9493 208.794 64.0267 204.835 66.1171 201.109C68.9816 196.064 76.0269 191.097 84.0012 192.882C89.8851 194.124 93.8336 197.617 95.3045 203.593C96.0013 206.465 95.6142 209.259 94.7626 212.054C93.6787 215.624 91.8206 218.806 89.1883 221.445C88.2593 222.299 87.3302 223.075 86.0141 223.386C84.7754 223.696 83.7689 223.308 83.227 222.144C82.9947 221.678 82.7624 221.213 82.7624 220.669C82.6076 218.962 82.4528 217.254 82.3753 215.469C82.3753 214.537 82.4528 213.528 82.4528 212.597C82.4528 211.898 82.3753 211.122 82.2979 210.424C82.2979 209.958 82.0657 209.57 81.5237 209.492C80.9818 209.492 80.7495 209.88 80.5947 210.268C80.4398 210.656 80.285 211.122 80.2076 211.51C79.8979 212.985 79.5882 214.46 79.3559 216.012C78.5817 220.747 77.8075 225.482 77.0333 230.294C76.8011 231.924 76.6462 233.554 76.3365 235.184C75.872 237.512 74.4785 239.065 72.3107 239.841C71.8462 239.996 71.3816 240.151 70.9945 240.307C68.3622 241.005 65.73 241.238 63.0202 241.316C54.3492 241.393 45.6781 241.471 37.0844 241.626C36.3102 241.626 22.0648 241.626 0.929077 241.626C0.929077 241.937 1.0065 242.325 1.0065 242.635C25.8584 242.635 43.2006 242.635 44.6716 242.558C50.4781 242.402 56.2847 242.558 62.0912 242.48C63.9493 242.48 65.8074 242.325 67.6655 242.17C69.601 241.937 71.5365 241.549 73.3172 240.772C75.3301 239.841 76.7236 238.366 77.2656 236.271C77.5753 235.029 77.885 233.787 77.9624 232.545C78.5817 225.947 79.9753 219.427 81.1366 212.907C81.1366 212.675 81.2915 212.442 81.4463 212.054C81.4463 213.528 81.4463 214.693 81.4463 215.935C81.4463 217.953 81.4463 220.048 82.0657 221.989C82.9173 224.55 85.0076 225.482 87.4077 224.24C88.4141 223.696 89.4206 222.998 90.1948 222.222C93.2142 219.35 95.0723 215.779 96.1562 211.743C96.853 209.104 97.0852 206.465 96.5433 203.748C95.3045 198.393 92.0529 194.822 87.098 192.882C77.4979 189.156 68.2074 194.822 64.8783 201.73C63.8719 203.826 63.3299 205.999 63.5622 208.25C63.9493 213.295 66.0396 217.487 70.0655 220.669C70.9171 221.368 71.9236 221.989 72.8526 222.61C73.2397 222.843 73.5494 223.153 74.0914 223.619C72.4655 223.619 71.3042 223.231 70.2203 222.532C65.8074 219.971 63.4073 216.09 62.788 211.122C61.7815 203.283 66.1945 194.046 75.9494 191.329C81.214 189.855 86.3238 190.165 91.0464 193.192C97.2401 197.151 100.182 204.059 98.8659 211.122C98.0917 215.314 96.0787 218.962 92.9819 221.911C91.2787 223.541 89.4206 225.016 87.7173 226.568C86.7109 227.5 85.7818 228.431 84.9302 229.44C83.4592 231.225 82.9173 233.399 83.1495 235.65C83.3818 238.521 85.0076 240.462 87.4077 241.781C89.5754 243.101 92.0529 243.722 94.5303 243.955C98.6336 244.343 102.659 244.11 106.685 243.877C108.001 243.8 109.318 243.489 110.634 243.179C113.189 242.48 114.737 240.695 115.202 238.056C115.356 236.969 115.511 235.882 115.511 234.796C115.356 227.577 115.202 220.281 114.969 213.063C114.737 205.068 114.427 197.073 114.195 189.156C114.118 185.974 113.963 182.714 114.427 179.531C115.047 174.952 117.137 172.779 121.782 172.391C124.105 172.158 126.428 172.08 128.75 172.158C136.028 172.313 143.383 172.701 150.66 172.779C159.951 172.934 169.241 173.012 178.609 172.934C185.499 172.934 192.467 172.701 199.358 172.546C207.177 172.313 214.919 172.08 222.739 171.925C228.003 171.77 233.268 171.692 238.61 171.614C240.236 171.614 241.784 171.614 243.41 171.537C248.984 171.304 254.558 171.149 260.133 170.838C264.158 170.605 268.184 170.295 272.133 169.984C273.139 169.907 274.068 169.674 275.075 169.441C275.384 169.363 275.771 168.898 275.771 168.665C275.771 168.432 275.384 168.044 275.075 167.889C274.455 167.656 273.759 167.501 273.062 167.423C269.423 167.113 265.862 166.647 262.223 166.492C254.481 166.103 246.739 165.715 238.997 165.638C224.287 165.56 209.654 165.638 194.945 165.793C187.977 165.793 181.009 165.948 174.041 166.103C164.983 166.259 155.925 166.414 146.944 166.724C138.737 166.957 130.608 167.345 122.402 167.733C114.582 168.044 106.84 168.51 99.0207 168.82C96.5433 168.898 93.9884 168.82 91.5109 168.82C90.969 168.82 90.5045 168.665 89.9625 168.51C89.0335 168.122 88.7238 167.656 89.1883 166.724C89.498 165.948 89.9625 165.25 90.4271 164.629C94.3755 159.04 99.7949 155.78 106.298 153.995C112.105 152.443 118.066 152.21 124.105 152.287C130.144 152.365 136.182 152.675 142.299 152.831C149.886 153.064 157.551 153.374 165.138 153.607C171.564 153.84 177.912 153.995 184.338 154.15C200.906 154.383 217.396 154.305 233.964 153.685C240.158 153.452 246.352 153.064 252.468 152.675C255.41 152.443 258.352 152.055 261.216 151.666C261.681 151.666 262.146 151.434 262.533 151.201C263.152 150.89 263.152 150.192 262.533 149.881C261.991 149.571 261.371 149.416 260.829 149.338C257.887 148.95 254.868 148.484 251.926 148.406C242.481 148.174 233.035 147.863 223.59 147.863C208.725 147.863 193.783 148.018 178.919 148.174C170.944 148.174 162.893 148.329 154.918 148.406C147.563 148.484 140.208 148.562 132.853 148.639C125.421 148.639 118.066 148.872 110.634 148.174C108.853 148.018 107.15 147.553 105.447 147.087C104.827 146.932 104.13 146.621 103.743 145.767C104.363 145.535 104.905 145.147 105.447 145.069C107.305 144.758 109.085 144.37 110.943 144.37C117.679 144.215 124.415 144.137 131.228 144.215C144.699 144.37 158.17 144.603 171.641 144.758C185.035 144.914 198.506 144.603 211.9 144.137C217.319 143.905 222.816 143.827 228.235 143.594C234.506 143.361 240.777 143.128 247.049 142.74C250.145 142.585 253.242 142.275 256.339 141.498C257.191 141.266 257.965 141.033 258.429 140.179C258.971 140.645 259.436 141.11 259.978 141.498C262.068 142.896 263.539 144.681 264.313 147.165C264.933 149.105 266.249 150.502 268.029 151.356C269.5 152.055 270.971 152.598 272.52 152.908C277.088 153.84 281.733 153.995 286.378 153.84C293.578 153.685 300.701 153.219 307.901 152.986C313.553 152.753 319.127 152.52 324.779 152.52C338.017 152.52 351.256 152.52 364.495 152.52C366.121 152.52 367.67 152.753 369.295 153.064C370.689 153.296 371.618 154.228 371.695 155.703C371.773 156.944 371.85 158.186 371.773 159.428C371.618 163.076 371.386 166.724 371.308 170.372C371.153 178.445 371.541 186.517 372.005 194.589C372.315 199.79 372.547 205.068 372.624 210.346C372.779 218.806 372.857 227.267 372.934 235.727C372.934 237.124 372.779 238.521 372.547 239.841C372.315 241.316 371.386 242.325 369.915 242.791C367.669 243.644 365.192 242.791 363.798 240.695C363.024 239.608 362.56 238.366 362.482 237.047C362.25 234.02 361.94 230.993 361.94 227.965C361.94 213.451 361.94 198.858 361.94 184.344C361.94 183.18 361.863 182.015 361.631 180.851C361.398 179.299 360.857 178.833 359.308 178.755C357.682 178.678 356.134 178.6 354.508 178.6C350.869 178.6 347.231 178.833 343.592 178.911C335.772 179.066 328.03 179.299 320.211 179.376C311.849 179.531 303.488 179.609 295.127 179.609C288.856 179.609 282.584 179.609 276.313 179.609C273.991 179.609 271.746 179.609 269.5 180.385C268.726 180.618 267.952 181.006 267.333 181.472C266.326 182.17 266.326 183.18 267.178 184.033C267.72 184.577 268.417 185.042 269.113 185.353C270.584 185.896 272.055 186.362 273.604 186.672C277.862 187.526 282.12 187.526 286.378 187.604C292.804 187.681 299.307 187.604 305.733 187.526C313.166 187.449 320.598 187.293 328.03 187.216C334.146 187.138 340.34 187.06 346.456 187.06C349.011 187.06 351.566 187.293 354.121 187.526C355.515 187.604 356.831 188.069 357.992 188.846C358.998 189.544 358.998 190.243 357.992 190.864C357.295 191.329 356.444 191.64 355.669 191.95C352.263 193.115 348.779 193.503 345.218 193.736C336.856 194.279 328.495 193.891 320.133 193.736C310.378 193.503 300.546 193.192 290.791 193.037C285.139 192.959 279.488 192.959 273.836 193.58C271.281 193.891 268.726 194.201 266.636 196.375V194.9C266.636 192.106 266.636 189.311 266.636 186.595C266.636 185.042 266.326 183.49 266.094 181.938C266.094 181.394 265.862 180.851 265.552 180.385C265.397 180.075 264.933 179.764 264.7 179.842C264.391 179.842 264.081 180.23 263.926 180.541C263.694 180.929 263.694 181.394 263.616 181.782C263.462 182.714 263.307 183.568 263.229 184.499C262.223 191.019 261.758 197.617 261.991 204.214C262.146 209.492 262.223 214.693 262.378 219.971C262.455 224.162 262.765 228.353 263.307 232.545C263.539 234.408 263.771 236.348 263.849 238.211C263.849 240.617 262.687 242.325 260.442 243.256C258.816 243.955 257.191 243.567 256.184 242.17C255.642 241.393 255.1 240.462 254.945 239.531C254.636 237.978 254.403 236.348 254.481 234.796C254.481 232.39 254.713 229.983 254.945 227.5C255.333 222.998 255.797 218.496 256.107 213.994C256.494 209.259 256.803 204.447 256.958 199.712C257.191 193.736 256.881 187.759 256.184 181.782C255.952 179.842 255.565 177.824 255.178 175.883C255.178 175.495 254.945 175.03 254.713 174.719C254.249 174.098 253.629 174.098 253.32 174.874C253.087 175.495 252.932 176.116 252.932 176.737C252.7 179.454 252.545 182.093 252.391 184.81C252.081 190.32 251.771 195.909 251.384 201.42C250.997 207.862 250.532 214.227 250.068 220.592C249.836 223.464 249.294 226.335 248.287 229.13C247.436 231.381 245.887 232.855 243.565 233.243C241.861 233.554 240.003 233.709 238.3 233.709C232.493 233.476 226.61 233.088 220.803 232.778C219.487 232.778 218.093 232.467 217.009 231.613C216.003 230.837 216.003 229.983 217.009 229.363C217.784 228.974 218.713 228.742 219.564 228.664C221.655 228.509 223.822 228.353 225.913 228.431C230.79 228.431 235.668 228.586 240.545 228.664C241.242 228.664 242.016 228.664 242.713 228.586C243.797 228.431 244.416 227.81 244.494 226.646C244.571 226.025 244.571 225.326 244.494 224.705C244.416 222.687 244.261 220.669 244.184 218.574C244.184 214.693 244.184 210.734 244.029 206.853C244.029 205.378 243.874 203.904 243.487 202.507C242.945 200.1 241.319 198.703 238.842 198.47C238.068 198.393 237.294 198.315 236.519 198.315C232.493 198.548 228.39 198.781 224.364 198.936C222.351 199.014 221.035 200.023 220.338 201.886C219.874 203.05 219.564 204.292 219.487 205.534C219.255 208.871 219.1 212.209 219.022 215.546C219.022 218.108 219.022 220.669 219.1 223.308C218.558 223.464 217.938 223.541 217.319 223.774C215.229 224.395 214.3 225.559 214.3 227.733C214.3 229.44 214.532 231.07 214.687 232.778C214.842 234.951 215.151 237.124 215.306 239.22C215.384 241.471 214.3 242.946 212.209 243.644C211.125 244.032 210.119 243.8 209.5 242.791C209.113 242.247 208.803 241.549 208.648 240.928C208.416 239.608 208.183 238.289 208.183 236.969C208.183 234.485 208.416 232.002 208.571 229.595C208.803 225.637 209.113 221.756 209.267 217.797C209.422 214.537 209.422 211.2 209.267 207.94C209.113 203.671 207.409 201.575 203.306 200.333C203.074 200.333 202.841 200.178 202.532 200.1C199.28 199.402 195.951 199.169 192.622 199.557C191.538 199.712 190.454 199.868 189.448 200.178C187.048 200.954 185.422 202.584 184.725 204.99C184.415 206.077 184.106 207.164 184.106 208.328C183.951 211.588 183.951 214.925 183.951 218.185C183.951 218.418 183.951 218.729 183.873 219.039C182.867 218.574 182.635 218.03 182.79 217.021C183.254 213.761 183.486 210.501 183.332 207.164C183.177 203.36 181.551 201.032 178.222 199.945C174.738 198.781 171.177 198.626 167.615 199.324C164.441 199.945 162.351 201.886 161.499 205.068C161.189 206.31 160.802 207.629 160.802 208.871C160.802 212.131 160.802 215.391 160.957 218.651C161.112 222.765 161.422 226.879 161.654 230.993C161.809 233.321 161.963 235.572 161.963 237.901C161.963 239.065 161.809 240.229 161.499 241.316C161.034 242.946 159.409 243.644 157.86 242.946C157.009 242.558 156.157 241.937 155.692 241.238C155.073 240.307 154.531 239.142 154.299 238.056C153.989 236.503 153.912 234.873 153.834 233.243C153.757 232.002 153.834 230.837 153.757 229.595C153.68 228.276 153.292 227.034 151.976 226.335C151.279 225.947 151.047 225.249 150.97 224.473C150.97 223.464 150.815 222.377 150.892 221.368C150.97 218.03 151.202 214.693 151.279 211.355C151.279 208.949 151.279 206.465 150.97 204.059C150.583 200.644 148.647 198.393 145.318 197.306C144.776 197.151 144.234 196.996 143.692 196.84C140.673 196.142 137.576 196.064 134.557 196.297C133.008 196.375 131.46 196.608 129.911 196.996C127.202 197.694 125.498 199.479 124.957 202.274C124.802 203.283 124.647 204.369 124.647 205.378C124.802 209.725 125.034 214.149 125.189 218.496C125.189 220.281 125.266 222.066 125.421 223.852C125.576 225.87 126.505 226.879 128.44 227.112C130.221 227.267 132.002 227.267 133.705 227.189C134.712 227.189 135.795 226.879 136.724 226.568C138.195 226.103 139.047 224.938 139.202 223.386C139.202 222.765 139.279 222.144 139.202 221.601C139.047 219.505 138.892 217.487 138.737 215.391C138.737 215.003 138.737 214.615 138.737 214.072C140.828 214.072 142.763 213.916 144.621 214.072C146.944 214.227 147.95 215.314 148.105 217.642C148.26 219.35 148.26 221.057 148.338 222.687C148.338 223.153 148.338 223.619 148.338 224.084C148.183 225.482 147.796 226.025 146.479 226.335C145.705 226.568 144.854 226.723 144.079 226.801C139.124 227.5 134.17 227.733 129.215 227.81C128.131 227.81 126.969 227.965 125.886 228.276C123.795 228.897 123.176 231.536 124.802 233.088C125.344 233.632 126.118 234.097 126.892 234.252C128.131 234.563 129.447 234.718 130.763 234.796C132.544 234.796 134.324 234.718 136.105 234.563C138.892 234.408 141.757 234.175 144.544 234.097C146.17 234.097 147.796 234.097 149.421 234.33C150.738 234.485 151.202 235.262 151.357 236.581C151.512 237.978 151.047 239.142 149.963 239.919C148.957 240.617 147.796 241.238 146.634 241.626C144.157 242.558 141.602 242.791 138.97 242.868C134.634 243.101 130.299 243.101 125.963 243.411C123.873 243.567 121.782 244.032 119.692 244.498C119.073 244.653 118.376 244.964 117.834 245.352C117.137 245.895 117.215 246.594 117.989 246.982C118.376 247.215 118.918 247.292 119.382 247.37C123.486 248.069 127.666 248.301 131.77 248.301C142.299 248.301 152.828 248.146 163.357 248.146C184.493 248.146 205.706 248.301 226.842 247.603C233.268 247.37 239.616 247.292 246.042 247.06C252.855 246.904 259.745 246.671 266.558 246.516C274.455 246.361 282.43 246.128 290.327 245.973C299.075 245.818 307.901 245.585 316.649 245.507C329.037 245.352 341.424 245.507 353.811 245.818C362.56 245.973 371.308 245.895 380.057 245.43C384.934 245.119 389.812 244.964 394.689 244.653C396.16 244.576 397.709 244.42 399.18 244.11C401.502 243.644 402.896 242.17 403.283 239.763C403.438 238.832 403.515 237.901 403.515 236.892C403.515 234.796 403.515 232.7 403.36 230.682C403.128 226.646 402.896 222.61 402.664 218.574C402.354 213.761 401.889 208.949 402.122 204.137C402.199 200.721 402.276 197.384 402.431 193.968C402.586 189.389 400.805 185.819 397.322 183.024C395.618 181.705 394.07 180.23 392.599 178.755C390.044 176.272 388.341 173.322 387.489 169.829C387.102 168.354 386.87 166.802 386.792 165.25C386.405 160.437 387.489 156.013 390.509 152.21C392.986 149.027 396.083 147.087 400.109 146.544C403.128 146.156 406.07 146.699 408.857 147.941C416.522 151.278 420.857 157.255 421.554 165.483C422.096 171.77 419.077 176.582 414.199 180.308C413.502 180.773 412.651 181.161 411.877 181.317C409.477 181.938 407.696 180.773 407.154 178.367C406.767 176.582 406.999 174.797 407.309 173.089C407.851 170.14 408.625 167.268 409.322 164.318C409.399 163.93 409.554 163.464 409.554 163.076C409.554 162.378 409.012 161.99 408.393 162.378C408.006 162.611 407.541 162.999 407.309 163.464C406.535 165.017 405.683 166.492 405.141 168.122C403.205 174.021 403.051 180.075 403.67 186.129C403.98 189.544 404.289 193.037 404.522 196.53C404.754 200.1 404.831 203.748 405.064 207.319C405.451 213.528 405.76 219.815 406.225 226.025C406.457 228.819 406.844 231.613 407.696 234.33C408.625 237.124 410.328 239.142 412.883 240.617C414.741 241.626 416.677 242.325 418.69 242.791C423.644 243.955 428.677 244.42 433.709 244.809C439.98 245.197 446.329 245.585 452.6 245.818C460.264 246.128 468.006 246.283 475.671 246.361C476.29 246.361 476.91 246.361 477.529 246.361C477.529 245.973 477.374 245.662 477.374 245.274L477.529 245.041Z" stroke="#B39251" stroke-width="0.4" stroke-miterlimit="10"/>
</svg>
