<svg width="100" height="69" viewBox="0 0 100 69" fill="none" xmlns="http://www.w3.org/2000/svg">
<g clip-path="url(#clip0_522_676)">
<mask id="mask0_522_676" style="mask-type:luminance" maskUnits="userSpaceOnUse" x="-9" y="0" width="127" height="69">
<path d="M117.582 0H-8.79126V69H117.582V0Z" fill="white"/>
</mask>
<g mask="url(#mask0_522_676)">
<path d="M60.1079 33.4497C60.0689 33.6714 60.0467 33.8981 59.8575 34.1349C59.7684 33.9283 59.6794 33.7621 59.6237 33.5908C59.39 32.7898 59.1507 31.9888 58.9392 31.1828C58.5886 29.8428 58.2548 28.4978 57.9042 27.1578C57.8541 26.9664 57.7873 26.7749 57.6983 26.5986C57.6593 26.523 57.5424 26.4475 57.4478 26.4324C57.4033 26.4273 57.292 26.5533 57.2753 26.6288C57.2308 26.8303 57.2141 27.0369 57.1974 27.2434C57.1752 27.45 57.1585 27.6515 57.1418 27.8782C56.3126 27.6867 55.5057 27.8127 54.6988 27.8429C53.5079 27.8933 52.3226 27.984 51.1317 28.0343C49.657 28.0948 48.1767 28.1351 46.702 28.1703C46.3013 28.1804 45.9006 28.1351 45.5055 28.0847C44.8433 28.0041 44.3981 27.6716 44.1922 27.0873C44.1366 26.9311 44.0809 26.7699 43.9919 26.6238C43.9474 26.5533 43.8361 26.4777 43.7637 26.4777C43.6858 26.4777 43.5801 26.5633 43.5411 26.6339C43.4521 26.8102 43.3797 27.0016 43.3297 27.193C42.9568 28.5582 42.6007 29.9285 42.2278 31.2987C42.0831 31.8428 41.9106 32.3767 41.7492 32.9158C41.7214 33.0115 41.6713 33.1021 41.6324 33.1979C41.599 33.1979 41.5656 33.1979 41.5322 33.1979C41.4209 32.8503 41.2929 32.5077 41.2039 32.1601C40.8588 30.8 40.5305 29.4297 40.1855 28.0696C39.7848 26.4827 39.2728 24.9261 38.6941 23.3846C38.6663 23.3141 38.6496 23.2436 38.6162 23.1781C38.3157 22.6189 38.5104 22.1958 39.0168 21.8179C39.9017 21.158 40.8254 20.5485 41.8049 20.0094C41.9996 19.9036 42.2167 19.823 42.4337 19.7626C42.7787 19.6719 42.9679 19.7626 43.0458 20.08C43.1126 20.3621 43.1571 20.6542 43.1627 20.9414C43.1738 21.5912 43.1404 22.2461 43.1516 22.901C43.1683 23.6365 43.2072 24.372 43.2629 25.1024C43.274 25.2939 43.363 25.4853 43.4298 25.6717C43.4688 25.7724 43.5578 25.8732 43.6858 25.8329C43.7804 25.8077 43.8917 25.712 43.9084 25.6364C43.9641 25.3946 44.003 25.1427 43.9974 24.8959C43.9863 24.2209 43.9529 23.5509 43.9195 22.8758C43.8416 21.2185 43.7637 19.5661 43.8583 17.9088C43.9919 15.5763 44.3369 13.2691 44.8489 10.9821C45.0158 10.2214 45.3052 9.48589 45.5445 8.74032C45.5612 8.68995 45.5946 8.64964 45.628 8.58919C45.8227 8.60431 46.0175 8.61438 46.2123 8.62949C47.3753 8.73025 48.5328 8.86122 49.7015 8.92167C50.7644 8.97709 51.8273 8.97709 52.8957 8.96198C53.4188 8.95694 53.9419 8.86626 54.4595 8.79574C54.6376 8.77055 54.8156 8.70506 54.9659 8.62446C55.1774 8.50859 55.144 8.30205 54.9102 8.22649C54.7489 8.17611 54.5763 8.14589 54.4094 8.14589C53.686 8.14085 52.9681 8.14589 52.2446 8.15596C51.0538 8.17107 49.8629 8.19626 48.672 8.19626C48.0654 8.19626 47.4588 8.15596 46.8522 8.11566C46.6463 8.10055 46.4404 8.06025 46.2512 8.00483C45.9953 7.92927 45.9173 7.80333 45.9952 7.5716C46.0843 7.29453 46.19 7.01746 46.3403 6.76558C46.7688 6.04521 47.2195 5.33491 47.6759 4.62964C48.4104 3.49618 49.1561 2.36776 49.9074 1.23934C50.0243 1.06302 50.1522 0.886705 50.2969 0.73054C50.564 0.433321 50.7087 0.428284 50.987 0.705352C51.1873 0.901818 51.3765 1.1134 51.549 1.33001C52.9792 3.12844 54.1423 5.06288 55.1495 7.07791C56.0344 8.85619 56.6688 10.6949 57.0527 12.6092C57.1362 13.0072 57.1362 13.0122 57.0527 13.2842C56.9414 13.259 56.8134 13.249 56.7077 13.2087C56.4573 13.1029 56.218 12.987 55.9731 12.8712C55.0215 12.4178 54.0866 11.9392 53.1183 11.516C52.3226 11.1684 51.4711 10.9569 50.564 10.9821C48.889 11.0274 47.4866 11.7679 46.958 13.4404C46.7187 14.2011 46.6463 14.9718 46.8634 15.7426C47.2195 17.002 48.1433 17.7929 49.4845 18.2009C50.4249 18.4881 51.3932 18.5435 52.3615 18.3168C53.1907 18.1254 53.8307 17.6821 54.2369 17.002C54.8546 15.9743 54.9492 14.8912 54.5318 13.788C54.4428 13.5462 54.2758 13.3296 54.12 13.113C54.0532 13.0223 53.9419 12.9518 53.8362 12.8913C53.5357 12.7301 53.3298 12.8107 53.2185 13.118C53.2074 13.1432 53.1962 13.1684 53.1907 13.1784C53.007 12.9115 52.8568 12.6142 52.6286 12.3875C52.406 12.1659 52.1 12.0097 51.8495 11.783C52.1167 11.8687 52.3893 11.9342 52.6453 12.0399C52.9013 12.1508 53.1573 12.2818 53.3855 12.4329C54.2981 13.0324 55.2942 13.4958 56.3237 13.9039C56.4795 13.9643 56.6354 14.0348 56.7967 14.0953C57.1696 14.2263 57.3811 14.4781 57.4868 14.8157C57.6871 15.4454 57.7372 16.0952 57.7706 16.7501C57.8207 17.813 57.9042 18.881 57.9264 19.9439C57.9431 20.7197 57.8986 21.4955 57.8596 22.2713C57.8096 23.3091 57.637 24.3317 57.4478 25.3543C57.4256 25.4652 57.4256 25.5861 57.4534 25.6918C57.4979 25.8581 57.6816 25.8883 57.7873 25.7473C57.8708 25.6364 57.9376 25.5105 57.9709 25.3846C58.1323 24.7599 58.3215 24.1403 58.4217 23.5055C58.5998 22.357 58.7222 21.2033 58.6554 20.0346C58.6499 19.8936 58.6332 19.7475 58.622 19.5712C58.6999 19.6064 58.7612 19.6266 58.8112 19.6568C59.8185 20.3218 60.8257 20.9918 61.8274 21.6618C62.05 21.8079 62.2504 21.9842 62.4674 22.1303C62.6232 22.2361 62.6844 22.367 62.6566 22.5333C62.5731 22.9917 62.5175 23.4552 62.4006 23.9085C62.0389 25.2989 61.6382 26.6792 61.2709 28.0696C60.8035 29.8428 60.4195 31.6312 60.1023 33.4296M59.4568 34.3061C59.351 34.1752 59.2453 34.0341 59.1785 33.883C59.0728 33.6412 58.9949 33.3943 58.9114 33.1475C58.75 32.6488 58.3939 32.3364 57.8151 32.3012C57.2586 32.2659 56.6966 32.2609 56.1401 32.276C55.6671 32.2911 55.322 32.5127 55.1328 32.9158C55.1161 32.951 55.0883 32.9863 55.0327 33.077C55.0104 32.7596 54.9826 32.5027 54.9715 32.2407C54.9325 31.4952 54.7934 30.7597 54.5708 30.0393C54.5374 29.9285 54.504 29.8176 54.4817 29.7068C54.4205 29.3894 54.5207 29.2434 54.8657 29.1527C55.0327 29.1124 55.2052 29.0973 55.3721 29.067C55.6838 29.0066 56.0065 28.9612 56.307 28.8756C57.0639 28.654 57.3978 28.2459 57.4534 27.5306C57.4701 27.3442 57.4868 27.1578 57.5035 26.9764C57.5257 26.9764 57.548 26.9664 57.5703 26.9664C57.6148 27.1124 57.6649 27.2585 57.7038 27.4046C58.1212 29.0267 58.5219 30.6488 58.9504 32.2709C59.0895 32.7949 59.2564 33.3087 59.4345 33.8225C59.5069 34.024 59.6349 34.2104 59.7462 34.417C59.6349 34.4623 59.5347 34.3968 59.4623 34.3112M49.5902 28.3416C51.9274 28.2862 54.2591 28.0696 56.6521 28.0091C56.5408 28.1603 56.4128 28.1703 56.3015 28.2056C55.4779 28.4474 54.632 28.5784 53.7694 28.5683C52.8234 28.5532 51.8718 28.5028 50.9258 28.4676C50.4806 28.4524 50.0409 28.4273 49.5957 28.4071C49.5957 28.387 49.5902 28.3668 49.5846 28.3416M54.2202 29.2937C53.8752 29.0721 53.4745 29.0721 53.0961 29.0217C51.8941 28.8605 50.6809 28.8806 49.4678 28.931C48.9669 28.9512 48.4605 28.9461 47.9597 28.9411C47.8372 28.9411 47.7148 28.9109 47.5868 28.8756C47.8205 28.7497 48.0877 28.7295 48.3436 28.7094C49.2674 28.6338 50.1968 28.6791 51.1205 28.7245C52.2947 28.7799 53.4689 28.8756 54.6487 28.7698C55.2775 28.7144 55.8897 28.5935 56.4851 28.4121C56.5686 28.387 56.6521 28.3618 56.8023 28.3215C56.563 28.5532 56.3126 28.6338 56.0622 28.6943C55.7283 28.7698 55.3888 28.8202 55.0549 28.8706C54.7155 28.9209 54.415 29.0167 54.2202 29.2937ZM52.6954 16.9566C52.1389 17.3848 51.4823 17.4856 50.7922 17.3748C49.618 17.1833 48.672 16.6645 48.0598 15.7174C46.8912 13.9089 48.2824 12.1609 50.0298 11.8284C50.1244 11.8082 50.2246 11.8133 50.3192 11.8032C50.3915 11.9896 50.2802 12.1004 50.1912 12.1961C49.9519 12.448 49.7071 12.6948 49.4511 12.9266C49.0949 13.249 48.7109 13.5462 48.3548 13.8686C47.7816 14.3925 47.7092 14.856 48.1099 15.4907C48.2435 15.7023 48.416 15.9038 48.6052 16.0801C48.9113 16.3723 49.2062 16.4025 49.5957 16.2161C49.7126 16.1607 49.8239 16.0952 49.963 16.0549C49.9018 16.1355 49.8295 16.2111 49.7683 16.2917C49.6013 16.5234 49.6291 16.7098 49.8573 16.8962C50.1689 17.143 50.5251 17.1985 50.9146 17.1027C51.243 17.0221 51.5212 16.8609 51.7716 16.6594C52.2669 16.2665 52.6676 15.803 52.9959 15.2892C53.1907 14.9769 53.2742 14.6343 53.2853 14.2766C53.2853 14.1759 53.2853 14.0751 53.2853 13.929C53.8418 14.9215 53.5635 16.2816 52.6843 16.9566M44.8433 67.7659C48.8167 67.7709 52.79 67.786 56.7689 67.786C58.6833 67.786 60.592 67.7558 62.5063 67.7256C64.2148 67.6954 65.9176 67.6551 67.6205 67.5996C69.3122 67.5493 71.004 67.4737 72.7013 67.4132C74.9551 67.3377 77.2088 67.252 79.4626 67.2017C80.008 67.1865 80.5589 67.2672 81.1043 67.3175C81.3046 67.3377 81.5105 67.3629 81.6719 67.514C81.5161 67.7004 81.2879 67.7608 81.0765 67.8062C80.4977 67.922 79.9134 68.0429 79.3291 68.1135C77.181 68.3704 75.0163 68.4157 72.8515 68.4459C70.9038 68.4762 68.9561 68.4863 67.0084 68.4711C65.0273 68.456 63.0461 68.4057 61.065 68.3553C59.0505 68.3049 57.036 68.2344 55.0215 68.1689C52.4951 68.0883 49.963 68.0026 47.4366 67.922C46.0954 67.8767 44.7598 67.8364 43.4187 67.7608C43.8917 67.7608 44.3703 67.7608 44.8433 67.7608M117.271 67.8465C117.137 67.8465 117.004 67.8465 116.864 67.8465C114.321 67.8767 111.778 67.8969 109.235 67.9069C103.815 67.922 98.4 67.9875 92.9798 67.8918C90.4589 67.8465 87.938 67.8515 85.4282 67.6702C84.7326 67.6198 84.037 67.5392 83.3525 67.4183C82.5233 67.2722 82.3953 67.0707 82.5345 66.315C82.6124 65.907 82.6903 65.499 82.7404 65.0859C82.8628 64.0078 82.3286 63.2673 81.1989 62.9147C81.082 62.8794 80.9596 62.8492 80.8372 62.824C80.6257 62.7736 80.4142 62.7383 80.2028 62.6829C79.4404 62.4814 79.1399 62.1641 79.0675 61.4487C79.023 60.9953 78.9952 60.5369 78.9952 60.0835C78.9952 58.4362 78.9952 56.7889 79.0174 55.1416C79.0397 53.051 79.0731 50.9554 79.1121 48.8648C79.1566 46.5626 79.2289 44.2655 79.2734 41.9683C79.3068 39.9785 79.3513 37.9886 79.1955 36.0038C79.151 35.4043 79.062 34.8099 78.8783 34.2306C78.6335 33.4548 78.1048 32.9611 77.2088 32.8603C76.235 32.7445 75.2556 32.6437 74.2761 32.5833C72.8849 32.5027 71.4881 32.4523 70.0913 32.417C68.9004 32.3868 67.7095 32.3868 66.5186 32.4019C64.8714 32.4271 63.2242 32.4775 61.5714 32.5178C61.3989 32.5178 61.2264 32.5228 61.0595 32.548C60.7311 32.5934 60.7144 32.6185 60.6755 32.9208C60.6644 33.0115 60.6644 33.1072 60.6421 33.1979C60.5809 33.4447 60.5252 33.6915 60.2804 33.9434C60.3193 33.7318 60.3472 33.5958 60.375 33.4497C60.7367 31.3743 61.2097 29.3139 61.7551 27.2686C62.0779 26.0495 62.4229 24.8355 62.7345 23.6164C62.8347 23.2184 62.8569 22.8003 62.907 22.3872C62.9293 22.2058 62.8458 22.0748 62.6789 21.964C62.3672 21.7524 62.0779 21.5157 61.7662 21.3091C60.7812 20.6492 59.7962 19.9943 58.8057 19.3394C58.7333 19.2891 58.661 19.2336 58.5775 19.1984C58.4551 19.148 58.3438 19.1984 58.3271 19.3243C58.3104 19.415 58.3271 19.5107 58.3271 19.6014C58.3438 19.8079 58.3772 20.0145 58.3827 20.221C58.4161 21.3142 58.2993 22.3922 58.149 23.4753C58.1045 23.8027 58.0266 24.1252 57.9598 24.4526C57.9264 24.1856 57.9598 23.9337 57.9932 23.6768C58.188 22.3267 58.2102 20.9716 58.1713 19.6115C58.1435 18.5435 58.0822 17.4806 58.0266 16.4126C57.9988 15.8534 57.9264 15.2993 57.7595 14.7552C57.6259 14.3321 57.3644 14.0147 56.9025 13.8484C56.7967 13.8081 56.6966 13.7628 56.5908 13.7225C55.4834 13.2943 54.4205 12.7956 53.4355 12.1558C53.1406 11.9644 52.8067 11.8183 52.4672 11.6924C52.2168 11.6017 51.9386 11.5715 51.6659 11.5312C51.5435 11.511 51.4043 11.5261 51.3543 11.6621C51.3097 11.7931 51.4043 11.8787 51.5045 11.9493C51.6325 12.0349 51.7661 12.1206 51.9052 12.186C52.4951 12.4581 52.8067 12.9064 52.918 13.4807C53.0293 14.05 53.0794 14.6142 52.7511 15.1481C52.4339 15.662 52.0443 16.1204 51.5435 16.4881C51.3431 16.6342 51.1038 16.7501 50.8645 16.8408C50.7254 16.8912 50.5362 16.9063 50.3971 16.866C50.2357 16.8206 50.0465 16.7249 49.963 16.599C49.8629 16.4529 50.0576 16.3421 50.1634 16.2413C50.4973 15.9139 50.8646 15.6116 51.1762 15.2691C51.6047 14.8006 52.0054 14.3069 52.4116 13.8182C52.5006 13.7074 52.6175 13.5714 52.4895 13.4253C52.4116 13.3346 52.2613 13.385 52.0554 13.5714C51.8106 13.8031 51.5769 14.0449 51.3376 14.2817C50.9146 14.7048 50.5028 15.133 50.0632 15.5461C49.8851 15.7174 49.6681 15.8635 49.4455 15.9894C49.1895 16.1305 49.0003 16.1103 48.8 15.9088C48.6108 15.7174 48.4271 15.5109 48.2991 15.2842C48.0153 14.7955 48.071 14.4731 48.4995 14.0751C48.8334 13.7628 49.2006 13.4807 49.5401 13.1734C49.8072 12.9316 50.0743 12.6898 50.3192 12.4329C50.4361 12.312 50.5362 12.1609 50.5974 12.0097C50.7032 11.7578 50.564 11.5715 50.2635 11.5563C50.1189 11.5463 49.963 11.5664 49.8239 11.6017C47.8651 12.0752 46.5851 13.9996 47.8428 15.8887C48.4995 16.871 49.4956 17.4302 50.731 17.6115C52.2057 17.8282 53.391 17.1128 53.7472 15.8333C53.8863 15.3345 53.8696 14.8257 53.7416 14.327C53.6748 14.0751 53.5914 13.8283 53.5357 13.5714C53.5023 13.4152 53.5023 13.254 53.4856 13.0878C53.7082 13.0475 53.8195 13.1482 53.903 13.254C54.0366 13.4303 54.1757 13.6167 54.2591 13.8182C54.6821 14.8963 54.5819 15.9441 53.9531 16.9315C53.5747 17.5259 52.9959 17.9088 52.2613 18.0649C50.9536 18.337 49.7126 18.1657 48.5718 17.5108C47.8595 17.0977 47.3698 16.5133 47.1694 15.7678C46.8467 14.5839 47.0415 13.4656 47.7816 12.4379C48.0765 12.0299 48.4939 11.7427 48.9836 11.5412C49.8517 11.1836 50.7477 11.1281 51.6659 11.3145C52.4227 11.4707 53.1239 11.7427 53.8028 12.0702C54.5374 12.4278 55.2664 12.8006 56.001 13.1583C56.2514 13.2792 56.5129 13.4001 56.7801 13.4857C57.1585 13.6066 57.3811 13.4606 57.3866 13.0928C57.3866 12.9366 57.3699 12.7805 57.3365 12.6293C57.1251 11.778 56.9526 10.9216 56.6854 10.0904C55.9731 7.88393 54.888 5.81348 53.6414 3.81859C53.0516 2.88159 52.4283 1.96475 51.7104 1.10332C51.5156 0.871592 51.3153 0.6449 51.0927 0.438359C50.7922 0.166328 50.4861 0.176404 50.1968 0.458509C50.0187 0.629788 49.8629 0.831292 49.7237 1.02776C49.3787 1.52648 49.0393 2.03528 48.7109 2.54408C47.9151 3.76821 47.1194 4.99235 46.3458 6.22656C46.1232 6.58423 45.9229 6.96205 45.7727 7.34995C45.5668 7.88393 45.7727 8.19122 46.3848 8.29701C46.7298 8.35746 47.086 8.39273 47.4421 8.40784C48.928 8.46829 50.4194 8.46829 51.9052 8.41792C52.662 8.39273 53.4133 8.38265 54.1701 8.37761C54.3371 8.37761 54.504 8.41288 54.671 8.42799C54.671 8.44814 54.671 8.47333 54.671 8.49348C54.4706 8.53378 54.2758 8.58416 54.0755 8.61438C52.8011 8.7907 51.5156 8.78566 50.2357 8.72017C49.0003 8.65468 47.7705 8.53378 46.5406 8.43807C46.1789 8.40784 45.8172 8.37258 45.4499 8.33731C45.4054 8.41288 45.3553 8.47333 45.3386 8.54385C45.077 9.35995 44.7598 10.166 44.5873 10.9921C44.298 12.3523 44.0865 13.7275 43.8694 15.1028C43.6635 16.4075 43.5522 17.7173 43.5578 19.0372C43.5634 20.4225 43.6302 21.8129 43.6747 23.1982C43.6914 23.8179 43.7136 24.4425 43.7303 25.0621C43.7303 25.178 43.7025 25.2939 43.6914 25.4097C43.6023 25.2989 43.5578 25.1931 43.5467 25.0823C43.5022 24.639 43.441 24.1957 43.4354 23.7524C43.4243 22.9665 43.4688 22.1756 43.4632 21.3897C43.4632 20.9565 43.4298 20.5182 43.3464 20.09C43.2351 19.546 42.8678 19.3697 42.2835 19.551C42.0052 19.6367 41.727 19.7525 41.4821 19.9036C40.6696 20.4074 39.8738 20.9313 39.0836 21.4603C38.8722 21.6013 38.6885 21.7776 38.5104 21.9489C38.2211 22.226 38.1209 22.5534 38.2545 22.9212C38.2878 23.0118 38.3101 23.1025 38.3435 23.1882C39.3118 25.6767 39.9963 28.2308 40.5973 30.805C40.7587 31.4952 40.9479 32.1752 41.1371 32.8603C41.1816 33.0215 41.2595 33.1727 41.3319 33.3238C41.3819 33.4296 41.4765 33.5455 41.6101 33.5102C41.7158 33.485 41.8271 33.3943 41.8828 33.3087C41.9718 33.1576 42.033 32.9863 42.0831 32.815C42.3001 32.0543 42.5116 31.2886 42.7231 30.5279C43.0403 29.3743 43.3575 28.2157 43.6747 27.0621C43.6969 26.9915 43.7359 26.921 43.7748 26.8354C43.8082 26.8757 43.8305 26.8908 43.8361 26.9109C43.875 26.9966 43.9084 27.0873 43.9418 27.1729C44.1978 27.863 44.732 28.261 45.5222 28.3366C46.1232 28.397 46.7298 28.4071 47.3364 28.4222C47.7872 28.4373 48.2435 28.4222 48.6275 28.4222C48.3214 28.4676 47.9485 28.5179 47.5813 28.5834C47.4588 28.6036 47.3364 28.6439 47.2307 28.6993C47.0248 28.8051 47.0248 28.9915 47.2474 29.0721C47.4477 29.1426 47.6703 29.1829 47.8818 29.1829C48.5551 29.193 49.234 29.1879 49.9074 29.1628C51.1317 29.1174 52.3559 29.1426 53.6247 29.3542C53.5246 29.3894 53.4745 29.4146 53.4244 29.4247C52.9013 29.5406 52.8011 29.6464 52.7455 30.14C52.7121 30.4373 52.6898 30.7395 52.6509 31.0367C52.5285 31.9334 52.2725 32.8049 51.9664 33.6613C51.7104 34.3817 51.4433 35.097 51.0426 35.767C50.948 35.9232 50.8367 36.0693 50.7143 36.2003C50.5307 36.3867 50.4027 36.3816 50.2524 36.165C50.1189 35.9736 50.002 35.767 49.9129 35.5555C49.2229 33.9737 48.6831 32.3465 48.4216 30.6539C48.377 30.3617 48.288 30.0645 48.1767 29.7824C48.0431 29.4499 47.7816 29.3995 47.4811 29.6111C47.4087 29.6615 47.3364 29.7169 47.2863 29.7874C47.0693 30.0796 46.8189 30.3617 46.663 30.6791C46.3737 31.2836 46.1344 31.9133 45.8784 32.5329C45.8339 32.6387 45.8005 32.7445 45.756 32.8704C45.6224 32.8603 45.4944 32.8503 45.372 32.8402C44.7098 32.7848 44.0475 32.7243 43.3853 32.684C42.7008 32.6387 42.2167 32.9006 41.9329 33.4699C41.8383 33.6613 41.7437 33.8477 41.6268 34.0291C41.4487 34.3112 41.3096 34.3162 41.1093 34.0391C40.9868 33.8679 40.8867 33.6764 40.7976 33.485C40.5082 32.8654 39.9851 32.5329 39.2617 32.4271C38.644 32.3364 38.0263 32.3566 37.4142 32.3969C35.7113 32.5128 34.0084 32.5631 32.3 32.5581C30.2521 32.5531 28.1987 32.5329 26.1508 32.679C25.3049 32.7394 24.4646 32.8402 23.6632 33.1072C22.7283 33.4195 22.1329 34.0089 21.9715 34.9056C21.8769 35.4346 21.8213 35.9786 21.8268 36.5126C21.8435 37.7871 21.9103 39.0616 21.966 40.3311C22.0105 41.3638 22.0772 42.4016 22.1273 43.4343C22.1941 44.7289 22.3054 46.0186 22.311 47.3132C22.3332 49.9328 22.2943 52.5574 22.2831 55.1769C22.2831 56.9149 22.2887 58.6579 22.4557 60.3959C22.5057 60.945 22.6003 61.489 22.8396 61.9978C23.1401 62.6426 23.6243 62.7383 24.2086 62.2799C24.8374 61.7963 25.0489 61.1868 24.9766 60.4462C24.882 59.5495 24.8208 58.6478 24.7874 57.7511C24.7206 55.7814 24.8152 53.8168 24.932 51.8521C25.0044 50.5574 25.0823 49.2678 25.1157 47.9731C25.1658 46.1193 25.1992 44.2655 25.1992 42.4116C25.1992 40.5578 25.1491 38.6385 25.1268 36.7544C25.1268 36.5479 25.1268 36.3413 25.1602 36.1348C25.2214 35.7217 25.4718 35.4295 25.9115 35.2834C26.0395 35.2381 26.1675 35.1877 26.301 35.1726C26.8686 35.1071 27.4363 35.0114 28.0039 35.0013C29.345 34.9862 30.6862 35.0215 32.0217 35.0265C34.999 35.0366 37.9762 35.0416 40.9534 35.0517C42.1555 35.0517 43.3575 35.0467 44.5595 35.0567C45.5556 35.0668 46.2902 35.4698 46.7187 36.301C46.8133 36.4773 46.9079 36.6587 46.9858 36.84C47.1082 37.1171 47.2195 37.3992 47.3308 37.6864C48.0153 39.4798 48.7443 41.253 49.6625 42.9607C49.8295 43.268 50.0076 43.5703 50.1968 43.8625C50.2858 44.0035 50.4138 44.1345 50.5473 44.2403C50.7922 44.4267 51.0482 44.3914 51.2263 44.1546C51.3209 44.0287 51.3765 43.8776 51.4433 43.7365C51.6269 43.3386 51.7828 42.9204 51.9998 42.5376C52.7177 41.2882 53.3632 40.0037 53.9308 38.6939C54.2536 37.9534 54.5652 37.2078 54.888 36.4622C55.1384 35.8829 55.6226 35.5555 56.2848 35.4295C56.4406 35.3993 56.602 35.364 56.7578 35.359C57.6259 35.3388 58.494 35.3187 59.3677 35.3187C61.1207 35.3237 62.8736 35.3691 64.6266 35.359C66.6745 35.354 68.7279 35.3036 70.7758 35.2885C71.6829 35.2834 72.5788 35.3741 73.4581 35.6109C74.5766 35.9131 75.3335 36.5529 75.6395 37.5755C75.7954 38.0944 75.9345 38.6234 75.9846 39.1573C76.0847 40.2102 76.146 41.2631 76.1682 42.321C76.235 45.1672 76.2628 48.0185 76.3185 50.8698C76.3352 51.8319 76.3797 52.7941 76.4186 53.7563C76.4743 55.1215 76.5633 56.4867 76.5911 57.8569C76.6023 58.4765 76.5466 59.1012 76.4576 59.7158C76.3185 60.6629 75.7286 61.2825 74.6824 61.5041C74.3819 61.5696 74.0814 61.6301 73.7753 61.6704C72.4898 61.8417 71.1987 61.8769 69.9021 61.8769C66.8192 61.8769 63.7418 61.8517 60.6588 61.8215C57.9988 61.7963 55.3443 61.7409 52.6898 61.7006C50.1022 61.6603 47.5145 61.615 44.9268 61.5797C42.9234 61.5495 40.92 61.5092 38.9167 61.4991C35.8838 61.484 32.8454 61.4386 29.8125 61.6099C28.4658 61.6855 27.1191 61.7913 25.7946 62.0532C25.4496 62.1187 25.1046 62.2195 24.7874 62.3555C24.3867 62.5268 24.3811 62.8391 24.7651 63.0305C25.0044 63.1514 25.2659 63.232 25.5331 63.2925C26.3233 63.4839 27.1358 63.5544 27.9427 63.5847C29.3617 63.6401 30.7808 63.6753 32.1998 63.7056C34.6039 63.7559 37.0079 63.7962 39.412 63.8315C41.4265 63.8617 43.4465 63.8869 45.461 63.892C47.7872 63.897 50.1133 63.897 52.4394 63.8768C55.7617 63.8416 59.0839 63.7912 62.4006 63.7358C63.7306 63.7106 65.0551 63.6602 66.3851 63.6149C68.2048 63.5544 70.0245 63.4688 71.8443 63.4335C74.009 63.3882 76.1738 63.3479 78.3385 63.4688C78.8839 63.499 79.4348 63.5544 79.9802 63.6149C80.1471 63.63 80.3363 63.6502 80.5088 63.8114C80.3196 63.8819 80.1805 63.9625 80.0303 63.9826C79.4626 64.0582 78.895 64.1539 78.3274 64.159C77.0586 64.1741 75.7842 64.1438 74.5154 64.1338C72.167 64.1136 69.8186 64.0834 67.4702 64.0783C63.8753 64.0733 60.2748 64.0784 56.6799 64.0935C54.0588 64.1035 51.4322 64.1338 48.8111 64.1539C46.2012 64.1741 43.5856 64.2043 40.9757 64.2093C38.5605 64.2194 36.1398 64.1993 33.7246 64.1993C30.3356 64.1993 26.9465 64.0935 23.5575 64.2295C22.4111 64.2748 21.2648 64.3353 20.1574 64.6073C19.8179 64.6929 19.4784 64.8138 19.1835 64.975C18.6993 65.242 18.5825 65.6702 18.8106 66.1387C18.883 66.2899 18.9832 66.4309 19.0889 66.5669C19.5174 67.0908 20.085 67.4435 20.7695 67.645C20.8641 67.6752 20.9587 67.7004 21.0533 67.7306L21.031 67.8213C20.4968 67.8213 19.957 67.8112 19.4228 67.8213C17.2914 67.8717 15.1656 67.9271 13.0343 67.9825C11.8211 68.0127 -7.2888 67.7004 -8.50195 67.7356V68.048C-7.55035 68.0228 11.298 68.2898 12.2496 68.2596C13.8968 68.2092 15.544 68.1387 17.1913 68.0984C18.4823 68.0631 19.7789 68.053 21.0756 68.0429C23.5241 68.0228 25.9783 67.9926 28.4268 67.9875C31.7045 67.9875 34.9767 67.9976 38.2545 68.0077C39.2061 68.0077 40.1577 68.0228 41.1037 68.0429C43.1293 68.0883 45.1549 68.1387 47.1806 68.189C48.3158 68.2193 49.4455 68.2444 50.5807 68.2797C52.5841 68.3452 54.5819 68.4258 56.5853 68.4963C57.8986 68.5417 59.2175 68.587 60.5364 68.6172C62.6455 68.6676 64.749 68.718 66.8581 68.7432C69.7073 68.7734 72.5621 68.7583 75.4114 68.6525C76.8972 68.5971 78.383 68.5316 79.8577 68.3251C80.353 68.2545 80.8427 68.1336 81.3269 68.0178C81.4883 67.9775 81.6496 67.9019 81.7832 67.8162C82.0726 67.6299 82.0448 67.383 81.722 67.2369C81.6218 67.1916 81.5105 67.1513 81.3992 67.1412C80.9262 67.0858 80.4476 66.9951 79.969 66.9951C78.7559 66.9901 77.5427 67.0052 76.3296 67.0405C74.4653 67.1009 72.6011 67.1966 70.7369 67.2621C68.7891 67.3326 66.847 67.4032 64.8993 67.4435C62.7122 67.4938 60.5252 67.5291 58.3382 67.5341C52.3448 67.5543 46.357 67.5442 40.3636 67.5644C37.2583 67.5744 34.1531 67.6147 31.0535 67.65C28.6383 67.6802 26.2231 67.7306 23.8024 67.7558C22.873 67.7659 21.9493 67.6802 21.0477 67.4586C20.341 67.2823 19.7456 66.9548 19.3059 66.4158C19.1891 66.2647 19.0889 66.0984 19.0165 65.9271C18.8997 65.6652 18.9832 65.4284 19.2224 65.2571C19.3894 65.1362 19.5842 65.0254 19.7845 64.97C20.2408 64.8491 20.7083 64.7332 21.1813 64.6627C22.5169 64.4662 23.8691 64.4259 25.2214 64.4209C27.798 64.4108 30.3745 64.4461 32.9511 64.4461C36.4236 64.4461 39.8905 64.4461 43.363 64.4259C45.8116 64.4159 48.2657 64.3806 50.7143 64.3655C53.4968 64.3453 56.2792 64.3202 59.0672 64.3101C61.449 64.305 63.8308 64.3202 66.2126 64.3252C67.9433 64.3302 69.674 64.3353 71.3991 64.3453C72.3841 64.3504 73.3691 64.3756 74.354 64.3806C75.8176 64.3907 77.2868 64.4058 78.7503 64.3806C79.2456 64.3705 79.7464 64.2547 80.2362 64.164C80.3864 64.1388 80.5367 64.0532 80.6535 63.9625C80.8205 63.8365 80.8038 63.6552 80.6201 63.5444C80.5088 63.4789 80.3753 63.4235 80.2417 63.4033C79.7465 63.3328 79.2456 63.2572 78.7448 63.227C77.0308 63.1313 75.3112 63.091 73.5917 63.1414C71.8164 63.1917 70.0412 63.2371 68.2716 63.2925C66.6689 63.3429 65.0662 63.4184 63.4635 63.4587C61.5269 63.5091 59.5959 63.5544 57.6593 63.5746C54.12 63.6048 50.5807 63.63 47.0415 63.6199C43.2851 63.6048 39.5288 63.5444 35.7725 63.499C34.0529 63.4789 32.339 63.4386 30.6194 63.4184C29.3005 63.4033 27.9816 63.3832 26.6794 63.222C26.1619 63.1565 25.6499 63.0305 25.1435 62.9197C24.9988 62.8895 24.8374 62.8341 24.7484 62.6376C24.932 62.562 25.099 62.4663 25.2771 62.426C25.8113 62.3102 26.3455 62.1943 26.8853 62.1187C28.8609 61.8517 30.8531 61.7711 32.8454 61.7459C36.8521 61.6956 40.8644 61.756 44.8711 61.8366C47.5256 61.887 50.1856 61.9223 52.8401 61.9626C55.3944 62.0029 57.9487 62.0482 60.503 62.0835C62.5397 62.1137 64.5821 62.1338 66.6188 62.1439C67.832 62.1489 69.0451 62.1389 70.2638 62.1086C71.2711 62.0835 72.2783 62.0381 73.28 61.9726C73.9311 61.9273 74.5766 61.8316 75.1888 61.6099C75.9067 61.353 76.3797 60.8946 76.5967 60.2246C76.6579 60.0382 76.708 59.8417 76.7414 59.6503C76.8861 58.8191 76.8861 57.9778 76.8471 57.1365C76.7748 55.5749 76.669 54.0132 76.619 52.4465C76.5522 50.1796 76.5244 47.9077 76.4743 45.6407C76.4353 43.7869 76.3908 41.9331 76.3352 40.0792C76.3129 39.3639 76.2127 38.6536 76.0402 37.9534C75.7341 36.699 75.0051 35.7771 73.5917 35.3892C73.3857 35.3338 73.1743 35.2784 72.9628 35.2381C71.7775 35.0114 70.5755 35.0064 69.3735 35.0215C66.8748 35.0467 64.3817 35.097 61.8831 35.1071C60.4529 35.1122 59.0227 35.0567 57.587 35.0567C57.1195 35.0567 56.6465 35.1122 56.1902 35.1877C55.4556 35.3137 54.9214 35.6915 54.632 36.3262C54.5485 36.5076 54.4706 36.6889 54.3871 36.8753C53.8585 38.0642 53.3354 39.2581 52.7956 40.447C52.2725 41.6056 51.4767 42.6534 51.0704 43.8625C50.9758 44.1496 50.7811 44.1698 50.5807 43.928C50.386 43.6861 50.2023 43.4292 50.0632 43.1622C49.657 42.3864 49.2452 41.6107 48.8946 40.8097C48.3436 39.5352 47.8539 38.2455 47.3141 36.966C47.1361 36.5529 46.9135 36.1549 46.6575 35.7721C46.3291 35.2734 45.8172 34.9862 45.1883 34.8855C44.9212 34.8401 44.643 34.8099 44.3703 34.8049C43.5912 34.7948 42.8121 34.7998 42.033 34.7948C38.2433 34.7797 34.4481 34.7646 30.6583 34.7595C29.4675 34.7595 28.2766 34.7797 27.0857 34.8049C26.6293 34.8149 26.1786 34.9006 25.7501 35.0618C25.2715 35.2431 24.9487 35.5504 24.882 36.024C24.8319 36.3514 24.8152 36.6839 24.8263 37.0113C24.8374 37.8425 24.8875 38.6687 24.8987 39.4949C24.9265 42.6131 24.9265 45.7314 24.7762 48.8497C24.715 50.094 24.6761 51.3332 24.6037 52.5775C24.498 54.3054 24.4368 56.0333 24.4924 57.7662C24.5147 58.4312 24.5703 59.0911 24.6093 59.751C24.6315 60.1541 24.6816 60.5571 24.6761 60.9601C24.6649 61.5545 24.2754 61.9575 23.7467 62.2547C23.5297 62.3756 23.3572 62.3303 23.2181 62.1338C23.1123 61.9877 23.04 61.8215 22.9788 61.6553C22.7673 61.081 22.6894 60.4815 22.6616 59.882C22.6003 58.4211 22.5336 56.9602 22.528 55.5044C22.5224 53.0359 22.567 50.5725 22.5837 48.1041C22.5837 47.5449 22.5725 46.9858 22.5447 46.4266C22.4946 45.4342 22.4334 44.4418 22.3833 43.4494C22.3277 42.3613 22.2609 41.2782 22.2164 40.1901C22.1607 38.8551 22.1162 37.5201 22.0884 36.1852C22.0828 35.8476 22.1218 35.5 22.1719 35.1625C22.3054 34.2306 22.8563 33.6009 23.8525 33.3087C23.9415 33.2835 24.025 33.2583 24.114 33.2382C25.01 33.0014 25.9337 32.9258 26.8631 32.8855C28.0762 32.8352 29.2894 32.8301 30.5025 32.815C31.4541 32.8049 32.4057 32.8251 33.3573 32.8049C34.4202 32.7848 35.4831 32.7344 36.5516 32.6991C37.2862 32.674 38.0152 32.6387 38.7497 32.6337C38.9946 32.6337 39.2506 32.6891 39.4899 32.7445C39.9295 32.8402 40.2467 33.077 40.447 33.4447C40.5416 33.621 40.6251 33.8024 40.7308 33.9737C40.8199 34.1147 40.92 34.2608 41.048 34.3767C41.2595 34.5681 41.5155 34.558 41.7047 34.3464C41.816 34.2306 41.8939 34.0895 41.9718 33.9535C42.0887 33.7621 42.1833 33.5606 42.3057 33.3742C42.4894 33.0921 42.7732 32.951 43.1293 32.951C43.4131 32.951 43.7025 32.9611 43.9863 32.9813C44.5094 33.0215 45.0325 33.077 45.5556 33.1223C45.6892 33.1324 45.8227 33.1223 45.9563 33.1223C45.9897 32.9863 46.0064 32.8704 46.0509 32.7646C46.3514 32.0493 46.6463 31.334 46.9802 30.6287C47.0971 30.3768 47.3141 30.1602 47.4978 29.9385C47.5646 29.8579 47.6814 29.8076 47.7872 29.732C48.032 30.0393 48.0765 30.3617 48.121 30.674C48.377 32.3465 48.8946 33.9535 49.5735 35.5202C49.6848 35.7771 49.8128 36.0391 49.9742 36.2758C50.2524 36.6839 50.6086 36.7091 50.9369 36.3363C51.1317 36.1096 51.3042 35.8577 51.4322 35.5958C52.1334 34.16 52.6509 32.674 52.8957 31.1123C52.9514 30.7647 52.9737 30.4121 53.0182 30.0645C53.0404 29.8882 53.1016 29.7471 53.3242 29.7018C53.6081 29.6514 53.8863 29.5809 54.1645 29.5255C54.1868 29.6464 54.2035 29.7723 54.2313 29.8932C54.2647 30.0242 54.2981 30.1552 54.3371 30.2861C54.6988 31.5506 54.8323 32.8352 54.5986 34.1349C54.5485 34.422 54.4929 34.7091 54.465 34.9963C54.4595 35.0618 54.5151 35.1676 54.5763 35.1928C54.6932 35.2431 54.76 35.1525 54.7989 35.0567C54.8268 34.9862 54.8546 34.9207 54.8713 34.8502C54.9381 34.5882 55.0048 34.3263 55.0772 34.0643C55.1495 33.7822 55.2163 33.5001 55.2998 33.218C55.4222 32.8049 55.7172 32.548 56.2013 32.5379C56.7133 32.5279 57.2308 32.5379 57.7428 32.5682C58.2214 32.5934 58.5052 32.8553 58.6387 33.2684C58.7222 33.5253 58.8057 33.7873 58.9225 34.0341C59.006 34.2104 59.1229 34.3817 59.2676 34.5278C59.4735 34.7394 59.7851 34.7696 60.0467 34.6134C60.1858 34.5278 60.3193 34.417 60.4195 34.2961C60.7089 33.9384 60.887 33.5404 60.9315 33.0921C60.9649 32.7797 60.9704 32.7747 61.321 32.7646C63.3021 32.7294 65.2832 32.6689 67.2643 32.6639C68.8003 32.6588 70.3306 32.6941 71.8665 32.7445C73.1576 32.7898 74.4486 32.8704 75.7397 32.9561C76.2628 32.9913 76.7859 33.0619 77.3035 33.1475C77.9156 33.2482 78.3496 33.5757 78.5222 34.1197C78.6668 34.5631 78.8004 35.0215 78.8449 35.4799C78.934 36.4068 79.0119 37.3388 79.0063 38.2707C78.9896 41.0565 78.9284 43.8423 78.8783 46.6281C78.8505 48.3258 78.806 50.0285 78.7893 51.7262C78.7615 54.7084 78.7392 57.6957 78.7281 60.678C78.7281 61.0709 78.7837 61.4638 78.8561 61.8517C78.9451 62.3102 79.2512 62.6426 79.7353 62.8139C79.9913 62.9046 80.2584 62.96 80.52 63.0356C80.8038 63.1162 81.0932 63.1817 81.3714 63.2723C81.9891 63.4789 82.3119 63.902 82.4287 64.4763C82.5122 64.8743 82.451 65.2572 82.3898 65.6501C82.3286 66.038 82.2618 66.4259 82.2228 66.8188C82.1894 67.1714 82.3898 67.4132 82.7515 67.5341C82.9463 67.5996 83.141 67.6702 83.3414 67.6954C84.0314 67.786 84.7215 67.8918 85.4171 67.9372C86.7304 68.0178 88.0437 68.0782 89.3626 68.1084C91.3437 68.1538 93.3248 68.1941 95.3059 68.1941C100.632 68.1941 105.957 68.1739 111.283 68.1538C113.269 68.1487 115.262 68.1235 117.248 68.0984C117.248 68.0178 117.26 67.9422 117.265 67.8616" fill="#1C1C1C"/>
<path d="M60.1078 33.4499C60.0688 33.6715 60.0466 33.8982 59.8574 34.135C59.7683 33.9284 59.6793 33.7622 59.6236 33.5909C59.3899 32.7899 59.1506 31.989 58.9391 31.1829C58.5886 29.8429 58.2547 28.4979 57.9041 27.1579C57.854 26.9665 57.7872 26.775 57.6982 26.5987C57.6592 26.5232 57.5423 26.4476 57.4477 26.4325C57.4032 26.4274 57.2919 26.5534 57.2752 26.629C57.2307 26.8305 57.214 27.037 57.1973 27.2435C57.1751 27.4501 57.1584 27.6516 57.1417 27.8783C56.3125 27.6868 55.5056 27.8128 54.6987 27.843C53.5078 27.8934 52.3225 27.9841 51.1316 28.0344C49.6569 28.0949 48.1766 28.1352 46.7019 28.1705C46.3012 28.1805 45.9005 28.1352 45.5054 28.0848C44.8432 28.0042 44.398 27.6717 44.1921 27.0874C44.1365 26.9312 44.0808 26.77 43.9918 26.6239C43.9473 26.5534 43.836 26.4778 43.7636 26.4778C43.6857 26.4778 43.58 26.5635 43.541 26.634C43.452 26.8103 43.3796 27.0017 43.3296 27.1932C42.9567 28.5584 42.6006 29.9286 42.2277 31.2988C42.083 31.8429 41.9105 32.3768 41.7491 32.9159C41.7213 33.0116 41.6712 33.1023 41.6323 33.198C41.5989 33.198 41.5655 33.198 41.5321 33.198C41.4208 32.8504 41.2928 32.5078 41.2038 32.1602C40.8587 30.8001 40.5304 29.4299 40.1854 28.0697C39.7847 26.4829 39.2727 24.9262 38.694 23.3847C38.6662 23.3142 38.6495 23.2437 38.6161 23.1782C38.3156 22.619 38.5103 22.1959 39.0168 21.818C39.9016 21.1581 40.8253 20.5486 41.8048 20.0095C41.9995 19.9038 42.2166 19.8232 42.4336 19.7627C42.7786 19.672 42.9678 19.7627 43.0457 20.0801C43.1125 20.3622 43.157 20.6544 43.1626 20.9415C43.1737 21.5914 43.1403 22.2462 43.1515 22.9011C43.1682 23.6366 43.2071 24.3721 43.2628 25.1026C43.2739 25.294 43.3629 25.4854 43.4297 25.6718C43.4687 25.7726 43.5577 25.8733 43.6857 25.833C43.7803 25.8078 43.8916 25.7121 43.9083 25.6365C43.964 25.3947 44.0029 25.1429 43.9973 24.896C43.9862 24.221 43.9528 23.551 43.9194 22.8759C43.8415 21.2186 43.7636 19.5662 43.8582 17.9089C43.9918 15.5765 44.3368 13.2692 44.8488 10.9822C45.0157 10.2215 45.3051 9.486 45.5444 8.74044C45.5611 8.69006 45.5945 8.64976 45.6279 8.58931C45.8226 8.60442 46.0174 8.6145 46.2122 8.62961C47.3752 8.73036 48.5328 8.86134 49.7014 8.92179C50.7643 8.9772 51.8272 8.9772 52.8956 8.96209C53.4187 8.95705 53.9419 8.86638 54.4594 8.79585C54.6375 8.77066 54.8155 8.70517 54.9658 8.62457C55.1773 8.50871 55.1439 8.30216 54.9101 8.2266C54.7488 8.17622 54.5762 8.146 54.4093 8.146C53.6859 8.14096 52.968 8.146 52.2446 8.15607C51.0537 8.17119 49.8628 8.19638 48.6719 8.19638C48.0653 8.19638 47.4587 8.15607 46.8521 8.11577C46.6462 8.10066 46.4403 8.06036 46.2511 8.00495C45.9952 7.92938 45.9172 7.80344 45.9952 7.57171C46.0842 7.29464 46.1899 7.01758 46.3402 6.7657C46.7687 6.04532 47.2194 5.33502 47.6758 4.62975C48.4103 3.49629 49.156 2.36787 49.9073 1.23945C50.0242 1.06313 50.1521 0.886818 50.2968 0.730653C50.5639 0.433435 50.7086 0.428397 50.9869 0.705465C51.1872 0.901931 51.3764 1.11351 51.5489 1.33013C52.9791 3.12855 54.1422 5.06299 55.1494 7.07803C56.0343 8.8563 56.6687 10.695 57.0526 12.6093C57.1361 13.0073 57.1361 13.0123 57.0526 13.2844C56.9413 13.2592 56.8133 13.2491 56.7076 13.2088C56.4572 13.103 56.2179 12.9871 55.973 12.8713C55.0214 12.4179 54.0865 11.9393 53.1182 11.5162C52.3225 11.1686 51.471 10.957 50.5639 10.9822C48.8889 11.0275 47.4865 11.768 46.9579 13.4405C46.7186 14.2012 46.6462 14.9719 46.8633 15.7427C47.2194 17.0021 48.1432 17.793 49.4844 18.201C50.4248 18.4882 51.3931 18.5436 52.3614 18.3169C53.1906 18.1255 53.8306 17.6822 54.2368 17.0021C54.8545 15.9744 54.9491 14.8913 54.5317 13.7881C54.4427 13.5463 54.2757 13.3297 54.1199 13.1131C54.0531 13.0224 53.9418 12.9519 53.8361 12.8914C53.5356 12.7302 53.3297 12.8108 53.2184 13.1181C53.2073 13.1433 53.1961 13.1685 53.1906 13.1786C53.0069 12.9116 52.8567 12.6143 52.6285 12.3877C52.4059 12.166 52.0999 12.0098 51.8494 11.7831C52.1166 11.8688 52.3892 11.9343 52.6452 12.0401C52.9012 12.1509 53.1572 12.2819 53.3854 12.433C54.298 13.0325 55.2941 13.4959 56.3236 13.904C56.4795 13.9644 56.6353 14.035 56.7967 14.0954C57.1695 14.2264 57.381 14.4783 57.4867 14.8158C57.687 15.4455 57.7371 16.0953 57.7705 16.7502C57.8206 17.8132 57.9041 18.8811 57.9263 19.9441C57.943 20.7198 57.8985 21.4956 57.8595 22.2714C57.8095 23.3092 57.637 24.3318 57.4477 25.3544C57.4255 25.4653 57.4255 25.5862 57.4533 25.692C57.4978 25.8582 57.6815 25.8884 57.7872 25.7474C57.8707 25.6365 57.9375 25.5106 57.9708 25.3847C58.1322 24.76 58.3214 24.1404 58.4216 23.5056C58.5997 22.3571 58.7221 21.2035 58.6553 20.0347C58.6498 19.8937 58.6331 19.7476 58.6219 19.5713C58.6999 19.6065 58.7611 19.6267 58.8112 19.6569C59.8184 20.3219 60.8256 20.9919 61.8273 21.6619C62.0499 21.808 62.2503 21.9843 62.4673 22.1304C62.6231 22.2362 62.6843 22.3671 62.6565 22.5334C62.573 22.9918 62.5174 23.4553 62.4005 23.9086C62.0388 25.299 61.6381 26.6793 61.2708 28.0697C60.8034 29.8429 60.4194 31.6313 60.1022 33.4297L60.1078 33.4499ZM59.4622 34.3264C59.3565 34.1954 59.2508 34.0544 59.184 33.9032C59.0783 33.6614 59.0004 33.4146 58.9169 33.1678C58.7555 32.669 58.3993 32.3567 57.8206 32.3214C57.2641 32.2862 56.702 32.2811 56.1456 32.2962C55.6725 32.3114 55.3275 32.533 55.1383 32.936C55.1216 32.9713 55.0938 33.0065 55.0381 33.0972C55.0159 32.7799 54.9881 32.5229 54.9769 32.261C54.938 31.5154 54.7988 30.7799 54.5763 30.0596C54.5429 29.9487 54.5095 29.8379 54.4872 29.7271C54.426 29.4097 54.5262 29.2636 54.8712 29.1729C55.0381 29.1326 55.2106 29.1175 55.3776 29.0873C55.6892 29.0268 56.012 28.9815 56.3125 28.8959C57.0693 28.6742 57.4032 28.2662 57.4589 27.5508C57.4756 27.3644 57.4923 27.178 57.509 26.9967C57.5312 26.9967 57.5535 26.9866 57.5757 26.9866C57.6203 27.1327 57.6703 27.2788 57.7093 27.4249C58.1267 29.047 58.5273 30.6691 58.9558 32.2912C59.095 32.8151 59.2619 33.329 59.44 33.8428C59.5123 34.0443 59.6403 34.2307 59.7516 34.4372C59.6403 34.4826 59.5402 34.4171 59.4678 34.3314L59.4622 34.3264ZM49.5901 28.3568C51.9274 28.3014 54.259 28.0848 56.652 28.0244C56.5407 28.1755 56.4127 28.1856 56.3014 28.2208C55.4778 28.4626 54.6319 28.5936 53.7693 28.5835C52.8233 28.5684 51.8717 28.5181 50.9257 28.4828C50.4805 28.4677 50.0408 28.4425 49.5957 28.4223C49.5957 28.4022 49.5901 28.382 49.5845 28.3568H49.5901ZM54.2257 29.309C53.8806 29.0873 53.48 29.0873 53.1015 29.0369C51.8995 28.8757 50.6864 28.8959 49.4732 28.9462C48.9724 28.9664 48.466 28.9614 47.9651 28.9563C47.8427 28.9563 47.7203 28.9261 47.5923 28.8908C47.826 28.7649 48.0931 28.7447 48.3491 28.7246C49.2729 28.649 50.2022 28.6944 51.126 28.7397C52.3002 28.7951 53.4744 28.8908 54.6542 28.785C55.283 28.7296 55.8951 28.6087 56.4906 28.4274C56.5741 28.4022 56.6575 28.377 56.8078 28.3367C56.5685 28.5684 56.3181 28.649 56.0676 28.7095C55.7338 28.785 55.3943 28.8354 55.0604 28.8858C54.7209 28.9362 54.4204 29.0319 54.2257 29.309ZM52.7009 16.9719C52.1444 17.4001 51.4877 17.5008 50.7977 17.39C49.6235 17.1986 48.6774 16.6797 48.0653 15.7326C46.8967 13.9241 48.2879 12.1761 50.0353 11.8436C50.1299 11.8234 50.2301 11.8285 50.3247 11.8184C50.397 12.0048 50.2857 12.1156 50.1967 12.2113C49.9574 12.4632 49.7125 12.7101 49.4565 12.9418C49.1004 13.2642 48.7164 13.5614 48.3602 13.8838C47.7871 14.4077 47.7147 14.8712 48.1154 15.5059C48.2489 15.7175 48.4215 15.919 48.6107 16.0953C48.9167 16.3875 49.2117 16.4177 49.6012 16.2313C49.7181 16.1759 49.8294 16.1104 49.9685 16.0701C49.9073 16.1507 49.8349 16.2263 49.7737 16.3069C49.6068 16.5386 49.6346 16.725 49.8628 16.9114C50.1744 17.1583 50.5306 17.2137 50.9201 17.118C51.2484 17.0374 51.5267 16.8762 51.7771 16.6747C52.2724 16.2817 52.673 15.8183 53.0014 15.3044C53.1962 14.9921 53.2796 14.6495 53.2908 14.2919C53.2908 14.1911 53.2908 14.0904 53.2908 13.9443C53.8472 14.9367 53.569 16.2968 52.6897 16.9719H52.7009ZM44.8599 67.7811C48.8333 67.7861 52.8066 67.8012 56.7855 67.8012C58.6998 67.8012 60.6086 67.771 62.5229 67.7408C64.2314 67.7106 65.9342 67.6703 67.6371 67.6149C69.3288 67.5645 71.0206 67.4889 72.7179 67.4285C74.9717 67.3529 77.2254 67.2673 79.4792 67.2169C80.0246 67.2018 80.5755 67.2824 81.1209 67.3328C81.3212 67.3529 81.5271 67.3781 81.6885 67.5292C81.5327 67.7156 81.3045 67.7761 81.0931 67.8214C80.5143 67.9373 79.93 68.0582 79.3457 68.1287C77.1976 68.3856 75.0329 68.4309 72.8681 68.4612C70.9204 68.4914 68.9727 68.5015 67.025 68.4864C65.0439 68.4712 63.0627 68.4209 61.0816 68.3705C59.0671 68.3201 57.0526 68.2496 55.0381 68.1841C52.5117 68.1035 49.9796 68.0179 47.4532 67.9373C46.112 67.8919 44.7764 67.8516 43.4353 67.7761C43.9083 67.7761 44.3869 67.7761 44.8599 67.7761V67.7811ZM117.287 67.8667C117.154 67.8667 117.02 67.8667 116.881 67.8667C114.338 67.897 111.795 67.9171 109.252 67.9272C103.831 67.9423 98.4166 68.0078 92.9964 67.9121C90.4755 67.8667 87.9546 67.8718 85.4448 67.6904C84.7492 67.64 84.0536 67.5594 83.3691 67.4385C82.5399 67.2924 82.4119 67.0909 82.5511 66.3353C82.629 65.9273 82.7069 65.5192 82.757 65.1061C82.8794 64.0281 82.3452 63.2876 81.2155 62.9349C81.0986 62.8997 80.9762 62.8694 80.8538 62.8442C80.6423 62.7939 80.4308 62.7586 80.2194 62.7032C79.457 62.5017 79.1565 62.1843 79.0841 61.469C79.0396 61.0156 79.0118 60.5572 79.0118 60.1038C79.0118 58.4565 79.0118 56.8092 79.034 55.1619C79.0563 53.0713 79.0897 50.9757 79.1287 48.8851C79.1732 46.5829 79.2455 44.2857 79.29 41.9886C79.3234 39.9987 79.3679 38.0089 79.2121 36.0241C79.1676 35.4246 79.0786 34.8302 78.8949 34.2508C78.6501 33.475 78.1214 32.9814 77.2255 32.8806C76.2516 32.7647 75.2722 32.664 74.2927 32.6035C72.9015 32.5229 71.5047 32.4726 70.1079 32.4373C68.917 32.4071 67.7261 32.4071 66.5352 32.4222C64.888 32.4474 63.2408 32.4977 61.588 32.5381C61.4155 32.5381 61.243 32.5431 61.0761 32.5683C60.7477 32.6136 60.731 32.6388 60.6921 32.9411C60.681 33.0317 60.681 33.1275 60.6587 33.2181C60.5975 33.465 60.5418 33.7118 60.297 33.9637C60.3359 33.7521 60.3638 33.6161 60.3916 33.47C60.7533 31.3945 61.2263 29.3341 61.7717 27.2889C62.0944 26.0698 62.4395 24.8557 62.7511 23.6366C62.8513 23.2386 62.8735 22.8205 62.9236 22.4074C62.9459 22.2261 62.8624 22.0951 62.6955 21.9843C62.3838 21.7727 62.0944 21.5359 61.7828 21.3294C60.7978 20.6695 59.8128 20.0146 58.8223 19.3597C58.7499 19.3093 58.6776 19.2539 58.5941 19.2186C58.4717 19.1683 58.3604 19.2186 58.3437 19.3446C58.327 19.4353 58.3437 19.531 58.3437 19.6217C58.3604 19.8282 58.3938 20.0347 58.3993 20.2413C58.4327 21.3344 58.3159 22.4125 58.1656 23.4956C58.1211 23.823 58.0432 24.1454 57.9764 24.4729C57.943 24.2059 57.9764 23.954 58.0098 23.6971C58.2046 22.347 58.2268 20.9919 58.1879 19.6317C58.1601 18.5638 58.0988 17.5008 58.0432 16.4328C58.0154 15.8737 57.943 15.3195 57.7761 14.7755C57.6425 14.3523 57.381 14.035 56.9191 13.8687C56.8133 13.8284 56.7132 13.7831 56.6074 13.7428C55.5 13.3146 54.4371 12.8159 53.4521 12.1761C53.1572 11.9846 52.8233 11.8386 52.4838 11.7126C52.2334 11.6219 51.9552 11.5917 51.6825 11.5514C51.5601 11.5313 51.4209 11.5464 51.3709 11.6824C51.3263 11.8134 51.4209 11.899 51.5211 11.9695C51.6491 12.0552 51.7827 12.1408 51.9218 12.2063C52.5117 12.4783 52.8233 12.9267 52.9346 13.501C53.0459 14.0702 53.096 14.6344 52.7677 15.1684C52.4505 15.6822 52.0609 16.1407 51.5601 16.5084C51.3597 16.6545 51.1204 16.7704 50.8811 16.861C50.742 16.9114 50.5528 16.9265 50.4137 16.8862C50.2523 16.8409 50.0631 16.7452 49.9796 16.6192C49.8795 16.4732 50.0742 16.3623 50.18 16.2616C50.5139 15.9341 50.8811 15.6319 51.1928 15.2893C51.6213 14.8208 52.022 14.3271 52.4282 13.8385C52.5172 13.7277 52.6341 13.5916 52.5061 13.4456C52.4282 13.3549 52.2779 13.4053 52.072 13.5916C51.8272 13.8234 51.5935 14.0652 51.3542 14.3019C50.9312 14.7251 50.5194 15.1533 50.0798 15.5664C49.9017 15.7377 49.6847 15.8838 49.4621 16.0097C49.2061 16.1507 49.0169 16.1306 48.8166 15.9291C48.6274 15.7377 48.4437 15.5311 48.3157 15.3044C48.0319 14.8158 48.0876 14.4934 48.5161 14.0954C48.85 13.7831 49.2172 13.501 49.5567 13.1937C49.8238 12.9519 50.0909 12.7101 50.3358 12.4531C50.4526 12.3322 50.5528 12.1811 50.614 12.03C50.7198 11.7781 50.5806 11.5917 50.2801 11.5766C50.1354 11.5665 49.9796 11.5867 49.8405 11.6219C47.8817 12.0955 46.6017 14.0198 47.8594 15.9089C48.5161 16.8913 49.5122 17.4504 50.7476 17.6318C52.2223 17.8484 53.4076 17.1331 53.7638 15.8535C53.9029 15.3548 53.8862 14.846 53.7582 14.3473C53.6914 14.0954 53.608 13.8486 53.5523 13.5916C53.5189 13.4355 53.5189 13.2743 53.5022 13.108C53.7248 13.0677 53.8361 13.1685 53.9196 13.2743C54.0531 13.4506 54.1923 13.637 54.2757 13.8385C54.6987 14.9165 54.5985 15.9644 53.9697 16.9517C53.5913 17.5462 53.0125 17.929 52.2779 18.0852C50.9702 18.3572 49.7292 18.1859 48.5884 17.531C47.8761 17.118 47.3864 16.5336 47.186 15.788C46.8633 14.6042 47.0581 13.4859 47.7982 12.4582C48.0931 12.0501 48.5105 11.763 49.0002 11.5615C49.8683 11.2038 50.7643 11.1484 51.6825 11.3348C52.4393 11.491 53.1405 11.763 53.8194 12.0904C54.554 12.4481 55.283 12.8209 56.0176 13.1786C56.268 13.2995 56.5295 13.4204 56.7967 13.506C57.1751 13.6269 57.3977 13.4808 57.4032 13.1131C57.4032 12.9569 57.3865 12.8007 57.3531 12.6496C57.1417 11.7983 56.9692 10.9419 56.702 10.1107C55.9897 7.90419 54.9046 5.83374 53.658 3.83885C53.0682 2.90186 52.4449 1.98502 51.727 1.12359C51.5322 0.891856 51.3319 0.665164 51.1093 0.458623C50.8088 0.186592 50.5027 0.196667 50.2134 0.478773C50.0353 0.650051 49.8795 0.851555 49.7403 1.04802C49.3953 1.54674 49.0559 2.05554 48.7275 2.56434C47.9317 3.78848 47.136 5.01261 46.3624 6.24682C46.1398 6.60449 45.9395 6.98231 45.7893 7.37021C45.5833 7.90419 45.7893 8.21149 46.4014 8.31728C46.7464 8.37773 47.1026 8.41299 47.4587 8.4281C48.9446 8.48856 50.436 8.48856 51.9218 8.43818C52.6786 8.41299 53.4299 8.40292 54.1867 8.39788C54.3537 8.39788 54.5206 8.43314 54.6875 8.44826C54.6875 8.46841 54.6875 8.49359 54.6875 8.51374C54.4872 8.55404 54.2924 8.60442 54.0921 8.63465C52.8177 8.81096 51.5322 8.80592 50.2523 8.74044C49.0169 8.67495 47.7871 8.55405 46.5572 8.45833C46.1955 8.42811 45.8338 8.39284 45.4665 8.35758C45.422 8.43314 45.3719 8.49359 45.3552 8.56412C45.0936 9.38021 44.7764 10.1862 44.6039 11.0124C44.3145 12.3725 44.1031 13.7478 43.8861 15.1231C43.6802 16.4278 43.5688 17.7376 43.5744 19.0574C43.58 20.4428 43.6468 21.8332 43.6913 23.2185C43.708 23.8381 43.7302 24.4628 43.7469 25.0824C43.7469 25.1983 43.7191 25.3141 43.708 25.43C43.6189 25.3192 43.5744 25.2134 43.5633 25.1026C43.5188 24.6593 43.4576 24.2159 43.452 23.7726C43.4409 22.9868 43.4854 22.1959 43.4798 21.41C43.4798 20.9768 43.4464 20.5385 43.3629 20.1103C43.2517 19.5662 42.8844 19.3899 42.3 19.5713C42.0218 19.6569 41.7436 19.7728 41.4987 19.9239C40.6862 20.4277 39.8904 20.9516 39.1002 21.4805C38.8888 21.6216 38.7051 21.7979 38.527 21.9692C38.2377 22.2462 38.1375 22.5737 38.2711 22.9414C38.3044 23.0321 38.3267 23.1228 38.3601 23.2084C39.3284 25.697 40.0129 28.2511 40.6139 30.8253C40.7753 31.5154 40.9645 32.1955 41.1537 32.8806C41.1982 33.0418 41.2761 33.1929 41.3484 33.3441C41.3985 33.4499 41.4931 33.5657 41.6267 33.5305C41.7324 33.5053 41.8437 33.4146 41.8994 33.329C41.9884 33.1778 42.0496 33.0065 42.0997 32.8353C42.3167 32.0746 42.5282 31.3089 42.7397 30.5482C43.0569 29.3946 43.3741 28.2359 43.6913 27.0823C43.7135 27.0118 43.7525 26.9413 43.7914 26.8556C43.8248 26.8959 43.8471 26.9111 43.8527 26.9312C43.8916 27.0168 43.925 27.1075 43.9584 27.1932C44.2144 27.8833 44.7486 28.2813 45.5388 28.3568C46.1398 28.4173 46.7464 28.4274 47.353 28.4425C47.8037 28.4576 48.2601 28.4425 48.6441 28.4425C48.338 28.4878 47.9651 28.5382 47.5978 28.6037C47.4754 28.6238 47.353 28.6641 47.2473 28.7196C47.0414 28.8253 47.0414 29.0117 47.264 29.0923C47.4643 29.1629 47.6869 29.2032 47.8984 29.2032C48.5717 29.2132 49.2506 29.2082 49.924 29.183C51.1483 29.1377 52.3725 29.1629 53.6413 29.3744C53.5412 29.4097 53.4911 29.4349 53.441 29.445C52.9179 29.5608 52.8177 29.6666 52.7621 30.1603C52.7287 30.4575 52.7064 30.7598 52.6675 31.057C52.5451 31.9537 52.2891 32.8252 51.983 33.6816C51.727 34.402 51.4599 35.1173 51.0592 35.7873C50.9646 35.9435 50.8533 36.0896 50.7309 36.2205C50.5473 36.4069 50.4193 36.4019 50.269 36.1853C50.1354 35.9938 50.0186 35.7873 49.9295 35.5757C49.2395 33.9939 48.6997 32.3668 48.4381 30.6741C48.3936 30.382 48.3046 30.0847 48.1933 29.8026C48.0597 29.4702 47.7982 29.4198 47.4977 29.6314C47.4253 29.6817 47.353 29.7371 47.3029 29.8077C47.0859 30.0999 46.8355 30.382 46.6796 30.6993C46.3903 31.3038 46.151 31.9335 45.895 32.5532C45.8505 32.659 45.8171 32.7647 45.7726 32.8907C45.639 32.8806 45.511 32.8705 45.3886 32.8605C44.7264 32.805 44.0641 32.7446 43.4019 32.7043C42.7174 32.659 42.2333 32.9209 41.9495 33.4902C41.8549 33.6816 41.7603 33.868 41.6434 34.0493C41.4653 34.3314 41.3262 34.3365 41.1259 34.0594C41.0034 33.8881 40.9033 33.6967 40.8142 33.5053C40.5248 32.8856 40.0017 32.5532 39.2783 32.4474C38.6606 32.3567 38.0429 32.3769 37.4307 32.4172C35.7279 32.533 34.025 32.5834 32.3166 32.5784C30.2687 32.5733 28.2153 32.5532 26.1674 32.6993C25.3215 32.7597 24.4812 32.8605 23.6798 33.1275C22.7449 33.4398 22.1495 34.0292 21.9881 34.9259C21.8935 35.4548 21.8379 35.9989 21.8434 36.5329C21.8601 37.8074 21.9269 39.0819 21.9826 40.3514C22.0271 41.3841 22.0938 42.4218 22.1439 43.4545C22.2107 44.7492 22.322 46.0388 22.3276 47.3335C22.3498 49.953 22.3109 52.5776 22.2998 55.1972C22.2998 56.9351 22.3053 58.6782 22.4723 60.4161C22.5223 60.9652 22.617 61.5093 22.8562 62.0181C23.1567 62.6629 23.6409 62.7586 24.2252 62.3002C24.854 61.8166 25.0655 61.207 24.9932 60.4665C24.8986 59.5698 24.8374 58.6681 24.804 57.7714C24.7372 55.8017 24.8318 53.837 24.9487 51.8724C25.021 50.5777 25.0989 49.2881 25.1323 47.9934C25.1824 46.1396 25.2158 44.2857 25.2158 42.4319C25.2158 40.5781 25.1657 38.6587 25.1434 36.7747C25.1434 36.5681 25.1434 36.3616 25.1768 36.155C25.238 35.742 25.4884 35.4498 25.9281 35.3037C26.0561 35.2584 26.1841 35.208 26.3176 35.1929C26.8852 35.1274 27.4529 35.0317 28.0205 35.0216C29.3616 35.0065 30.7028 35.0417 32.0384 35.0468C35.0156 35.0569 37.9928 35.0619 40.97 35.072C42.1721 35.072 43.3741 35.0669 44.5761 35.077C45.5722 35.0871 46.3068 35.4901 46.7353 36.3213C46.8299 36.4976 46.9245 36.679 47.0024 36.8603C47.1248 37.1374 47.2361 37.4195 47.3474 37.7066C48.0319 39.5 48.7609 41.2732 49.6791 42.981C49.8461 43.2883 50.0241 43.5905 50.2134 43.8827C50.3024 44.0238 50.4304 44.1548 50.5639 44.2605C50.8088 44.4469 51.0648 44.4117 51.2429 44.1749C51.3375 44.049 51.3931 43.8978 51.4599 43.7568C51.6435 43.3588 51.7994 42.9407 52.0164 42.5578C52.7343 41.3085 53.3798 40.0239 53.9474 38.7141C54.2702 37.9736 54.5818 37.2281 54.9046 36.4825C55.155 35.9032 55.6391 35.5757 56.3014 35.4498C56.4572 35.4196 56.6186 35.3843 56.7744 35.3793C57.6425 35.3591 58.5106 35.339 59.3843 35.339C61.1373 35.344 62.8902 35.3893 64.6432 35.3793C66.6911 35.3742 68.7445 35.3238 70.7924 35.3087C71.6995 35.3037 72.5954 35.3944 73.4747 35.6311C74.5932 35.9334 75.3501 36.5732 75.6561 37.5958C75.812 38.1147 75.9511 38.6436 76.0012 39.1776C76.1013 40.2305 76.1625 41.2833 76.1848 42.3412C76.2516 45.1875 76.2794 48.0387 76.3351 50.89C76.3518 51.8522 76.3963 52.8144 76.4352 53.7766C76.4909 55.1418 76.5799 56.5069 76.6077 57.8772C76.6189 58.4968 76.5632 59.1215 76.4742 59.7361C76.3351 60.6831 75.7452 61.3027 74.699 61.5244C74.3985 61.5899 74.098 61.6503 73.7919 61.6906C72.5064 61.8619 71.2153 61.8972 69.9187 61.8972C66.8358 61.8972 63.7584 61.872 60.6754 61.8418C58.0154 61.8166 55.3609 61.7612 52.7064 61.7209C50.1188 61.6806 47.5311 61.6352 44.9434 61.6C42.94 61.5697 40.9366 61.5294 38.9333 61.5194C35.9004 61.5042 32.862 61.4589 29.8291 61.6302C28.4824 61.7058 27.1357 61.8115 25.8112 62.0735C25.4662 62.139 25.1212 62.2397 24.804 62.3758C24.4033 62.547 24.3977 62.8594 24.7817 63.0508C25.021 63.1717 25.2825 63.2523 25.5497 63.3127C26.3399 63.5042 27.1524 63.5747 27.9593 63.6049C29.3783 63.6603 30.7974 63.6956 32.2164 63.7258C34.6205 63.7762 37.0245 63.8165 39.4286 63.8518C41.4431 63.882 43.4631 63.9072 45.4776 63.9122C47.8037 63.9173 50.1299 63.9173 52.456 63.8971C55.7783 63.8618 59.1005 63.8115 62.4172 63.7561C63.7472 63.7309 65.0717 63.6805 66.4017 63.6352C68.2214 63.5747 70.0411 63.4891 71.8609 63.4538C74.0256 63.4085 76.1904 63.3682 78.3551 63.4891C78.9005 63.5193 79.4514 63.5747 79.9968 63.6352C80.1637 63.6503 80.3529 63.6704 80.5254 63.8316C80.3362 63.9021 80.1971 63.9827 80.0469 64.0029C79.4792 64.0785 78.9116 64.1742 78.344 64.1792C77.0752 64.1943 75.8008 64.1641 74.532 64.154C72.1836 64.1339 69.8352 64.1036 67.4869 64.0986C63.8919 64.0936 60.2914 64.0986 56.6965 64.1137C54.0754 64.1238 51.4488 64.154 48.8277 64.1742C46.2177 64.1943 43.6022 64.2246 40.9923 64.2296C38.5771 64.2397 36.1564 64.2195 33.7412 64.2195C30.3522 64.2195 26.9631 64.1137 23.5741 64.2497C22.4277 64.2951 21.2814 64.3555 20.174 64.6276C19.8345 64.7132 19.495 64.8341 19.2001 64.9953C18.7159 65.2623 18.5991 65.6905 18.8272 66.159C18.8996 66.3101 18.9998 66.4512 19.1055 66.5872C19.534 67.1111 20.1016 67.4637 20.7861 67.6652C20.8807 67.6955 20.9753 67.7206 21.0699 67.7509L21.0476 67.8415C20.5134 67.8415 19.9736 67.8315 19.4394 67.8415C17.308 67.8919 15.1822 67.9473 13.0509 68.0028C11.8377 68.033 -7.2722 67.7206 -8.48535 67.7559V68.0682C-7.53375 68.043 11.3146 68.31 12.2662 68.2798C13.9134 68.2294 15.5606 68.1589 17.2079 68.1186C18.4989 68.0834 19.7955 68.0733 21.0922 68.0632C23.5407 68.0431 25.9949 68.0128 28.4434 68.0078C31.7212 68.0078 34.9933 68.0179 38.2711 68.0279C39.2227 68.0279 40.1743 68.0431 41.1203 68.0632C43.1459 68.1085 45.1715 68.1589 47.1972 68.2093C48.3324 68.2395 49.4621 68.2647 50.5973 68.3C52.6007 68.3655 54.5985 68.4461 56.6019 68.5166C57.9152 68.5619 59.2341 68.6073 60.553 68.6375C62.6621 68.6879 64.7656 68.7382 66.8747 68.7634C69.7239 68.7937 72.5787 68.7785 75.428 68.6728C76.9138 68.6173 78.3996 68.5518 79.8743 68.3453C80.3696 68.2748 80.8593 68.1539 81.3435 68.038C81.5049 67.9977 81.6662 67.9222 81.7998 67.8365C82.0892 67.6501 82.0614 67.4033 81.7386 67.2572C81.6384 67.2118 81.5271 67.1716 81.4158 67.1615C80.9428 67.1061 80.4642 67.0154 79.9856 67.0154C78.7725 67.0103 77.5593 67.0255 76.3462 67.0607C74.4819 67.1212 72.6177 67.2169 70.7535 67.2824C68.8057 67.3529 66.8636 67.4234 64.9159 67.4637C62.7288 67.5141 60.5418 67.5494 58.3548 67.5544C52.3614 67.5746 46.3736 67.5645 40.3802 67.5846C37.2749 67.5947 34.1697 67.635 31.0701 67.6703C28.6549 67.7005 26.2397 67.7509 23.819 67.7761C22.8896 67.7861 21.9659 67.7005 21.0643 67.4788C20.3576 67.3025 19.7622 66.9751 19.3225 66.4361C19.2057 66.2849 19.1055 66.1187 19.0331 65.9474C18.9163 65.6855 18.9998 65.4487 19.239 65.2774C19.406 65.1565 19.6008 65.0457 19.8011 64.9903C20.2574 64.8694 20.7249 64.7535 21.1979 64.683C22.5335 64.4865 23.8858 64.4462 25.238 64.4412C27.8146 64.4311 30.3911 64.4664 32.9677 64.4664C36.4402 64.4664 39.9071 64.4664 43.3796 64.4462C45.8282 64.4361 48.2823 64.4009 50.7309 64.3858C53.5134 64.3656 56.2958 64.3404 59.0838 64.3303C61.4656 64.3253 63.8474 64.3404 66.2292 64.3455C67.9599 64.3505 69.6906 64.3555 71.4157 64.3656C72.4007 64.3706 73.3857 64.3958 74.3706 64.4009C75.8342 64.4109 77.3034 64.4261 78.7669 64.4009C79.2622 64.3908 79.763 64.2749 80.2528 64.1843C80.403 64.1591 80.5533 64.0734 80.6701 63.9827C80.8371 63.8568 80.8204 63.6755 80.6367 63.5646C80.5254 63.4991 80.3919 63.4437 80.2583 63.4236C79.7631 63.353 79.2622 63.2775 78.7614 63.2473C77.0474 63.1515 75.3278 63.1112 73.6083 63.1616C71.8331 63.212 70.0578 63.2573 68.2882 63.3127C66.6855 63.3631 65.0828 63.4387 63.4801 63.479C61.5435 63.5294 59.6125 63.5747 57.6759 63.5949C54.1366 63.6251 50.5973 63.6503 47.0581 63.6402C43.3017 63.6251 39.5454 63.5646 35.7891 63.5193C34.0695 63.4991 32.3555 63.4588 30.636 63.4387C29.3171 63.4236 27.9982 63.4034 26.696 63.2422C26.1785 63.1767 25.6665 63.0508 25.1601 62.94C25.0154 62.9097 24.854 62.8543 24.765 62.6579C24.9487 62.5823 25.1156 62.4866 25.2937 62.4463C25.8279 62.3304 26.3621 62.2145 26.9019 62.139C28.8775 61.872 30.8697 61.7914 32.862 61.7662C36.8687 61.7158 40.881 61.7763 44.8877 61.8569C47.5422 61.9073 50.2022 61.9425 52.8567 61.9828C55.411 62.0231 57.9653 62.0685 60.5196 62.1037C62.5563 62.1339 64.5987 62.1541 66.6354 62.1642C67.8486 62.1692 69.0617 62.1591 70.2804 62.1289C71.2877 62.1037 72.2949 62.0584 73.2966 61.9929C73.9477 61.9476 74.5932 61.8518 75.2054 61.6302C75.9233 61.3733 76.3963 60.9148 76.6133 60.2448C76.6745 60.0585 76.7246 59.862 76.758 59.6706C76.9027 58.8394 76.9027 57.9981 76.8637 57.1568C76.7914 55.5951 76.6856 54.0335 76.6356 52.4668C76.5688 50.1999 76.541 47.9279 76.4909 45.661C76.4519 43.8072 76.4074 41.9533 76.3518 40.0995C76.3295 39.3841 76.2293 38.6738 76.0568 37.9736C75.7507 36.7193 75.0217 35.7974 73.6083 35.4095C73.4024 35.3541 73.1909 35.2987 72.9794 35.2584C71.7941 35.0317 70.5921 35.0266 69.3901 35.0417C66.8914 35.0669 64.3983 35.1173 61.8997 35.1274C60.4695 35.1324 59.0393 35.077 57.6036 35.077C57.1361 35.077 56.6631 35.1324 56.2068 35.208C55.4722 35.3339 54.938 35.7117 54.6486 36.3465C54.5651 36.5278 54.4872 36.7092 54.4037 36.8956C53.8751 38.0844 53.352 39.2784 52.8122 40.4672C52.2891 41.6259 51.4933 42.6737 51.087 43.8827C50.9924 44.1699 50.7977 44.19 50.5973 43.9482C50.4026 43.7064 50.2189 43.4495 50.0798 43.1825C49.6736 42.4067 49.2618 41.6309 48.9112 40.8299C48.3602 39.5554 47.8705 38.2658 47.3307 36.9863C47.1527 36.5732 46.9301 36.1752 46.6741 35.7923C46.3457 35.2936 45.8338 35.0065 45.2049 34.9057C44.9378 34.8604 44.6596 34.8302 44.3869 34.8251C43.6078 34.815 42.8287 34.8201 42.0496 34.815C38.2599 34.7999 34.4647 34.7848 30.6749 34.7798C29.4841 34.7798 28.2932 34.7999 27.1023 34.8251C26.6459 34.8352 26.1952 34.9208 25.7667 35.082C25.2881 35.2634 24.9653 35.5707 24.8986 36.0442C24.8485 36.3717 24.8318 36.7041 24.8429 37.0316C24.854 37.8628 24.9041 38.689 24.9153 39.5151C24.9431 42.6334 24.9431 45.7517 24.7928 48.87C24.7316 50.1142 24.6927 51.3535 24.6203 52.5978C24.5146 54.3257 24.4534 56.0536 24.509 57.7865C24.5313 58.4515 24.5869 59.1114 24.6259 59.7713C24.6481 60.1743 24.6982 60.5773 24.6927 60.9803C24.6815 61.5748 24.292 61.9778 23.7633 62.275C23.5463 62.3959 23.3738 62.3506 23.2347 62.1541C23.1289 62.008 23.0566 61.8418 22.9954 61.6755C22.7839 61.1012 22.706 60.5018 22.6782 59.9023C22.617 58.4414 22.5502 56.9805 22.5446 55.5246C22.539 53.0562 22.5836 50.5928 22.6003 48.1244C22.6003 47.5652 22.5891 47.006 22.5613 46.4469C22.5112 45.4545 22.45 44.4621 22.3999 43.4696C22.3443 42.3815 22.2775 41.2984 22.233 40.2103C22.1773 38.8754 22.1328 37.5404 22.105 36.2054C22.0994 35.8679 22.1384 35.5203 22.1885 35.1828C22.322 34.2508 22.8729 33.6211 23.8691 33.329C23.9581 33.3038 24.0416 33.2786 24.1306 33.2584C25.0266 33.0217 25.9503 32.9461 26.8797 32.9058C28.0928 32.8554 29.306 32.8504 30.5191 32.8353C31.4707 32.8252 32.4223 32.8453 33.3739 32.8252C34.4368 32.805 35.4997 32.7547 36.5682 32.7194C37.3028 32.6942 38.0318 32.659 38.7663 32.6539C39.0112 32.6539 39.2672 32.7093 39.5065 32.7647C39.9461 32.8605 40.2633 33.0972 40.4636 33.465C40.5582 33.6413 40.6417 33.8226 40.7474 33.9939C40.8365 34.135 40.9366 34.2811 41.0646 34.3969C41.2761 34.5884 41.5321 34.5783 41.7213 34.3667C41.8326 34.2508 41.9105 34.1098 41.9884 33.9738C42.1053 33.7823 42.1999 33.5808 42.3223 33.3944C42.506 33.1123 42.7898 32.9713 43.1459 32.9713C43.4297 32.9713 43.7191 32.9814 44.0029 33.0015C44.526 33.0418 45.0491 33.0972 45.5722 33.1426C45.7058 33.1526 45.8393 33.1426 45.9729 33.1426C46.0063 33.0065 46.023 32.8907 46.0675 32.7849C46.368 32.0696 46.6629 31.3542 46.9968 30.649C47.1137 30.3971 47.3307 30.1805 47.5144 29.9588C47.5812 29.8782 47.698 29.8278 47.8037 29.7523C48.0486 30.0596 48.0931 30.382 48.1376 30.6943C48.3936 32.3668 48.9112 33.9738 49.5901 35.5405C49.7014 35.7974 49.8294 36.0593 49.9908 36.2961C50.269 36.7041 50.6252 36.7293 50.9535 36.3566C51.1483 36.1299 51.3208 35.878 51.4488 35.616C52.1499 34.1803 52.6675 32.6942 52.9123 31.1326C52.968 30.785 52.9902 30.4323 53.0348 30.0847C53.057 29.9084 53.1182 29.7674 53.3408 29.722C53.6246 29.6717 53.9029 29.6011 54.1811 29.5457C54.2034 29.6666 54.2201 29.7926 54.2479 29.9135C54.2813 30.0444 54.3147 30.1754 54.3537 30.3064C54.7154 31.5708 54.8489 32.8554 54.6152 34.1551C54.5651 34.4423 54.5095 34.7294 54.4816 35.0166C54.4761 35.082 54.5317 35.1878 54.5929 35.213C54.7098 35.2634 54.7766 35.1727 54.8155 35.077C54.8434 35.0065 54.8712 34.941 54.8879 34.8705C54.9547 34.6085 55.0214 34.3466 55.0938 34.0846C55.1661 33.8025 55.2329 33.5204 55.3164 33.2383C55.4388 32.8252 55.7338 32.5683 56.2179 32.5582C56.7299 32.5481 57.2474 32.5582 57.7594 32.5884C58.238 32.6136 58.5218 32.8756 58.6553 33.2887C58.7388 33.5456 58.8223 33.8075 58.9391 34.0544C59.0226 34.2307 59.1395 34.402 59.2842 34.5481C59.4901 34.7596 59.8017 34.7899 60.0633 34.6337C60.2024 34.5481 60.3359 34.4372 60.4361 34.3163C60.7255 33.9587 60.9036 33.5607 60.9481 33.1123C60.9815 32.8 60.987 32.795 61.3376 32.7849C63.3187 32.7496 65.2998 32.6892 67.2809 32.6841C68.8169 32.6791 70.3472 32.7144 71.8831 32.7647C73.1742 32.8101 74.4652 32.8907 75.7563 32.9763C76.2794 33.0116 76.8025 33.0821 77.3201 33.1678C77.9322 33.2685 78.3663 33.5959 78.5388 34.14C78.6835 34.5833 78.817 35.0417 78.8615 35.5002C78.9506 36.4271 79.0285 37.359 79.0229 38.291C79.0062 41.0768 78.945 43.8626 78.8949 46.6484C78.8671 48.346 78.8226 50.0487 78.8059 51.7464C78.7781 54.7287 78.7558 57.716 78.7447 60.6982C78.7447 61.0912 78.8003 61.4841 78.8727 61.872C78.9617 62.3304 79.2678 62.6629 79.7519 62.8342C80.0079 62.9249 80.275 62.9803 80.5366 63.0558C80.8204 63.1364 81.1098 63.2019 81.388 63.2926C82.0057 63.4991 82.3285 63.9223 82.4453 64.4966C82.5288 64.8946 82.4676 65.2774 82.4064 65.6703C82.3452 66.0582 82.2784 66.4461 82.2394 66.8391C82.206 67.1917 82.4064 67.4335 82.7681 67.5544C82.9629 67.6199 83.1576 67.6904 83.358 67.7156C84.048 67.8063 84.7381 67.9121 85.4337 67.9574C86.747 68.038 88.0603 68.0985 89.3792 68.1287C91.3603 68.174 93.3414 68.2143 95.3225 68.2143C100.648 68.2143 105.974 68.1942 111.299 68.174C113.286 68.169 115.278 68.1438 117.265 68.1186C117.265 68.038 117.276 67.9625 117.282 67.8818L117.287 67.8667Z" stroke="#1C1C1C" stroke-miterlimit="10"/>
</g>
</g>
<defs>
<clipPath id="clip0_522_676">
<rect width="100" height="69" fill="white"/>
</clipPath>
</defs>
</svg>
