<svg width="133" height="65" viewBox="0 0 133 65" fill="none" xmlns="http://www.w3.org/2000/svg">
<g clip-path="url(#clip0_522_665)">
<mask id="mask0_522_665" style="mask-type:luminance" maskUnits="userSpaceOnUse" x="-58" y="0" width="258" height="65">
<path d="M199.5 0.611084H-57.1899V64.6111H199.5V0.611084Z" fill="white"/>
</mask>
<g mask="url(#mask0_522_665)">
<path d="M48.3476 58.0783C49.3498 58.4687 50.4325 58.6856 51.5384 58.8418C53.4736 59.1194 55.4318 59.2322 57.39 59.3189C59.4289 59.4057 61.4678 59.4404 63.5066 59.423C65.7298 59.4057 67.9645 59.3536 70.1761 59.1888C72.0998 59.05 74.0235 58.8938 75.9472 58.7116C76.9378 58.6162 77.9169 58.4253 78.8961 58.2605C79.5411 58.1477 80.1286 57.9395 80.7045 57.7053C80.981 57.5925 81.292 57.5231 81.5915 57.4537C81.7297 57.4276 81.914 57.4537 82.0638 57.4797C82.49 57.5838 82.5706 57.8527 82.2366 58.0783C82.0177 58.2258 81.7758 58.3473 81.5224 58.4514C80.5548 58.8678 79.4835 59.0847 78.3892 59.2322C76.3849 59.5098 74.3576 59.6399 72.3187 59.718C68.3561 59.8742 64.4051 59.8481 60.4426 59.8048C57.7817 59.7787 55.1208 59.6746 52.4599 59.4924C50.8703 59.3883 49.2691 59.2495 47.7256 58.9112C47.1496 58.781 46.5967 58.6162 46.1129 58.3386C45.5369 58.0176 45.4678 57.766 45.8249 57.2975C46.0668 56.9592 46.3318 56.6295 46.5852 56.2998C46.5852 56.2998 46.6082 56.2998 46.6543 56.2911C46.6658 56.3519 46.6889 56.4126 46.7004 56.4733C46.8962 57.2108 47.4606 57.74 48.3476 58.0783ZM77.5368 1.86901C74.6686 1.99047 71.8119 2.11193 68.9436 2.20736C63.7485 2.38088 58.5535 2.4416 53.3584 2.3722C51.3771 2.34617 49.3958 2.28544 47.4261 2.19001C45.5715 2.10326 43.7169 1.97312 41.8509 1.84299C41.2864 1.80828 40.722 1.73888 40.1576 1.68683C39.2591 1.60875 38.9711 1.83431 39.0748 2.49366C39.0863 2.58909 39.0978 2.68452 39.1208 2.77995C39.0863 2.78863 39.0633 2.7973 39.0287 2.80598C38.9365 2.71055 38.8329 2.62379 38.7638 2.51969C38.5219 2.15531 38.6716 1.82564 39.1785 1.6955C39.6392 1.57404 40.1345 1.48729 40.6183 1.45258C41.9776 1.3745 43.3483 1.29642 44.7191 1.28775C47.4261 1.2704 50.133 1.28775 52.84 1.32245C56.0999 1.36583 59.3598 1.46994 62.6197 1.51331C67.066 1.57404 71.5008 1.60875 75.9472 1.64345C77.5829 1.65212 79.2071 1.60875 80.8428 1.59139C81.1192 1.59139 81.3957 1.59139 81.6721 1.63477C80.3014 1.71285 78.9191 1.79961 77.5483 1.85166M195.78 59.9175C192.266 59.8915 122.588 59.8915 119.074 59.9349C116.206 59.9696 113.338 60.0737 110.47 60.1691C108.408 60.2385 106.346 60.3513 104.284 60.4641C102.072 60.5856 99.8722 60.7331 97.6721 60.8805C95.2531 61.0367 92.8341 61.2189 90.4036 61.375C89.8276 61.4097 89.2401 61.4011 88.6642 61.3924C88.5145 61.3924 88.3647 61.3403 88.2265 61.3143C88.2265 61.2449 88.2265 61.2102 88.2265 61.1755C88.6066 60.1518 88.6181 59.1194 88.4568 58.0783C88.4108 57.766 88.2841 57.4623 88.1573 57.1587C88.0882 56.9852 87.9039 56.829 87.639 56.8811C87.2819 56.9505 87.1552 56.803 87.04 56.6208C86.8557 56.3519 86.5792 56.1437 86.2567 55.9701C85.8881 55.7793 85.4734 55.6925 85.0357 55.6318C83.9184 55.4583 82.8932 55.5711 82.0292 56.1957C81.9716 56.2391 81.891 56.2651 81.8219 56.2998C81.6721 56.0742 81.6721 56.0222 81.7758 55.7966C81.9371 55.467 82.2481 55.2154 82.5706 54.9811C83.2272 54.504 83.6649 53.94 83.9529 53.2894C84.5173 52.0141 84.8514 50.704 84.9551 49.3593C85.0818 47.8237 84.9551 46.2882 84.6901 44.7612C84.5404 43.8677 84.2639 42.9914 83.8147 42.1586C82.9853 40.6143 81.6376 39.3737 79.9097 38.35C78.3662 37.4304 76.7189 36.6235 75.0948 35.7993C73.6895 35.0879 72.2841 34.3765 71.0401 33.509C70.4987 33.1359 70.0149 32.7368 69.6117 32.2684C68.7593 31.288 68.6902 30.2903 69.4965 29.2666C69.8997 28.7547 70.395 28.2949 70.9594 27.8785C71.593 27.41 72.2496 26.9589 72.9177 26.5164C74.5649 25.4146 76.143 24.2694 77.6174 23.0288C79.2992 21.6234 80.7737 20.0965 81.7873 18.3527C83.711 15.082 84.287 11.7158 83.0775 8.21089C82.824 7.48214 82.6167 6.73603 82.6052 5.97258C82.6052 5.26985 82.8125 5.13104 83.7225 5.09634C84.3561 5.07032 85.0011 5.02694 85.6232 4.91415C87.1667 4.63653 88.3071 3.63884 88.2265 2.38088C88.1804 1.70418 87.7887 1.36583 86.9018 1.31377C86.3604 1.27907 85.8305 1.28775 85.2891 1.29642C82.2596 1.33113 79.2301 1.3745 76.2006 1.39186C73.9429 1.40053 71.6851 1.38318 69.4274 1.35715C66.732 1.33113 64.0365 1.29642 61.3411 1.24437C58.3231 1.19232 55.3166 1.09688 52.2986 1.05351C48.9466 1.00145 45.5946 0.96675 42.254 1.09688C41.4362 1.13159 40.6298 1.20967 39.8235 1.29642C39.5125 1.33113 39.2015 1.40921 38.9135 1.50464C38.5334 1.63477 38.3491 1.86901 38.3721 2.19001C38.3721 2.53704 38.614 2.7973 38.9365 3.00552C39.0172 3.06625 39.1784 3.10963 39.2821 3.09228C39.4549 3.06625 39.4434 2.92744 39.4319 2.81466C39.4088 2.64982 39.3743 2.48498 39.3512 2.32882C39.3052 1.9818 39.4434 1.86034 39.8926 1.86034C40.1115 1.86034 40.3303 1.87769 40.5492 1.89504C41.9776 2.00782 43.4059 2.16398 44.8458 2.24207C46.9653 2.35485 49.0848 2.45896 51.2158 2.50233C54.0841 2.55439 56.9523 2.57174 59.8205 2.55439C64.1863 2.53704 68.552 2.42425 72.9177 2.25074C74.9105 2.17266 76.9033 2.07723 78.8961 1.9818C80.1747 1.92107 81.4533 1.81696 82.7319 1.75623C83.6995 1.71285 84.6786 1.6261 85.6577 1.73888C86.0263 1.78226 86.4065 1.83431 86.752 1.93842C87.2128 2.07723 87.3165 2.32015 87.1206 2.65849C86.9363 2.99684 86.6138 3.24844 86.153 3.3699C85.8881 3.4393 85.6232 3.48268 85.3467 3.51738C83.7916 3.68222 82.2135 3.75162 80.647 3.7603C77.963 3.77765 75.2906 3.76897 72.6067 3.74295C70.4526 3.71692 68.2985 3.64751 66.1445 3.57811C63.3914 3.49135 60.6499 3.37857 57.8969 3.28314C55.7543 3.21373 53.6233 3.12698 51.4808 3.0836C48.8775 3.03155 46.2742 3.00552 43.6594 2.99684C42.6687 2.99684 41.6781 3.05757 40.699 3.12698C40.2382 3.16168 39.7774 3.25711 39.3512 3.38725C38.7177 3.58679 38.6601 4.05527 39.213 4.36759C39.3628 4.45435 39.5355 4.51508 39.7198 4.55845C39.9157 4.60183 40.123 4.62786 40.3188 4.63653C41.1021 4.66256 41.8854 4.67991 42.6802 4.70594C43.3253 4.72329 43.9473 4.81872 44.5348 5.04429C44.938 5.20045 45.1914 5.42602 45.2951 5.76436C45.3411 5.92053 45.4102 6.08536 45.4909 6.23285C45.5485 6.33696 45.6521 6.44974 45.8134 6.39768C45.9056 6.37166 46.0092 6.25887 46.0208 6.18079C46.0668 6.00728 46.0553 5.83377 46.0668 5.66026C46.0899 5.41734 46.1705 5.32191 46.4815 5.26118C46.6889 5.22648 46.9192 5.20913 47.1266 5.20913C48.1403 5.24383 49.1654 5.31323 50.1791 5.33058C52.7133 5.39131 55.2475 5.45204 57.7817 5.48674C61.4908 5.53012 65.2115 5.44337 68.9206 5.35661C71.6621 5.29588 74.3921 5.20913 77.1337 5.16575C78.3431 5.1484 79.5526 5.19177 80.7506 5.22648C81.0386 5.22648 81.315 5.30456 81.5915 5.37396C81.7643 5.41734 81.914 5.5041 81.9025 5.66026C81.9025 5.80774 81.7758 5.90317 81.603 5.95523C81.4187 6.00728 81.2229 6.07669 81.0156 6.08536C80.0595 6.13742 79.1034 6.20682 78.1473 6.18947C75.7629 6.16344 73.3669 6.08536 70.9825 6.04198C68.6326 6.00728 66.2942 5.98125 63.9444 5.97258C59.2561 5.9639 54.5679 5.94655 49.8796 6.20682C48.8199 6.26755 47.7601 6.34563 46.7349 6.58855C45.7443 6.82279 44.9956 7.26525 44.4772 7.95062C43.8321 8.8095 43.5326 9.7378 43.452 10.7095C43.3599 11.7766 43.5096 12.835 43.8437 13.8761C45.1107 17.8408 47.7947 21.1549 51.9876 23.7489C53.2317 24.521 54.5679 25.2151 55.8465 25.9525C56.6758 26.421 57.4591 26.9329 58.1042 27.5488C58.5304 27.9566 58.899 28.3904 59.1064 28.8849C59.2561 29.2232 59.3367 29.5616 59.2792 29.9173C59.164 30.6287 58.7262 31.2186 58.0581 31.6871C57.4476 32.1209 56.791 32.5373 56.0999 32.893C54.9365 33.5003 53.727 34.0469 52.552 34.6368C49.4995 36.1984 46.9653 38.1418 45.1107 40.5536C42.9221 43.3992 42.1504 46.4356 42.9912 49.6716C43.3483 51.0511 44.1086 52.3004 45.2951 53.3848C45.6752 53.7318 46.1129 54.0442 46.6428 54.261C46.8616 54.3478 47.1035 54.4085 47.3339 54.4346C47.7256 54.4779 47.9214 54.3391 47.8868 54.0442C47.8638 53.8706 47.7947 53.6971 47.7256 53.5323C47.5643 53.1332 47.3685 52.7428 47.2302 52.3437C46.7465 50.9123 47.1496 49.6456 48.5434 48.5959C49.0503 48.2141 49.6262 47.8584 50.2137 47.5461C51.7457 46.7393 53.416 46.1233 55.1208 45.5507C56.6183 45.0475 58.1503 44.5964 59.6478 44.0932C60.3504 43.859 61.03 43.5727 61.6866 43.2777C62.4123 42.948 62.8846 42.4449 63.0919 41.8289C63.2187 41.4472 63.3569 41.0654 63.403 40.675C63.5527 39.4344 63.6679 38.1851 63.7831 36.9358C63.8983 35.7039 63.8176 34.4806 63.6103 33.2574C63.2532 31.2099 62.2741 29.3707 60.5578 27.7484C58.4613 25.753 56.1921 23.8964 53.6579 22.2133C52.0222 21.1289 50.398 20.0271 48.8083 18.8906C48.0942 18.3787 47.4491 17.8061 46.8386 17.2248C46.5276 16.9299 46.2857 16.5742 46.1014 16.2272C45.6521 15.3596 46.0208 14.466 47.0229 13.9194C47.3685 13.7286 47.7601 13.5551 48.1633 13.4423C49.0387 13.1994 49.9142 12.9564 50.8127 12.7829C54.349 12.0976 57.9429 11.7245 61.5945 11.577C64.2899 11.4729 66.9739 11.4729 69.6578 11.7158C72.3417 11.9501 74.945 12.4533 77.4562 13.2167C78.3201 13.477 79.1725 13.772 79.9328 14.171C80.0134 14.2144 80.0825 14.2751 80.1516 14.3272C79.9673 14.3532 79.8291 14.3359 79.6909 14.3098C78.8961 14.1277 78.1012 13.9455 77.3064 13.772C74.7146 13.2167 72.0538 12.8784 69.3698 12.7049C67.1697 12.566 64.9811 12.5313 62.7809 12.6181C61.0646 12.6788 59.3598 12.7916 57.6435 12.9131C55.3281 13.0779 53.0243 13.3555 50.7666 13.7893C50.0063 13.9368 49.2576 14.119 48.5089 14.3012C48.1633 14.3879 47.8408 14.5181 47.5182 14.6482C47.2994 14.7349 47.092 14.8564 47.1151 15.0733C47.1381 15.2902 47.38 15.3769 47.5989 15.4637C47.7832 15.5244 47.979 15.5852 48.1748 15.6199C48.7623 15.7066 49.3382 15.8107 49.9372 15.8628C52.1489 16.071 54.372 16.1317 56.6067 16.1491C60.2698 16.1751 63.9213 16.0623 67.5613 15.8541C69.0818 15.7673 70.6023 15.6632 72.1344 15.5505C73.8622 15.429 75.5786 15.2902 77.3064 15.1774C78.0782 15.1254 78.85 15.108 79.6217 15.0993C79.8982 15.0993 80.1747 15.1427 80.4396 15.2034C80.9464 15.3162 81.0732 15.4897 80.9349 15.8715C80.8773 16.0363 80.8082 16.2098 80.7045 16.366C79.1495 18.96 77.076 21.2937 74.2539 23.211C72.9638 24.0873 71.5584 24.8854 70.1992 25.7096C69.3929 26.1954 68.575 26.6726 67.8954 27.2625C66.2827 28.6593 65.3958 30.3077 64.9926 32.1209C64.6585 33.6304 64.5779 35.1487 64.5434 36.6756C64.5203 37.9943 64.5549 39.3043 64.8198 40.6143C65.0963 41.9937 65.8911 43.1563 67.3194 44.0498C67.7111 44.2928 68.1143 44.527 68.5405 44.7352C70.7291 45.7936 73.0444 46.6612 75.4058 47.4594C76.6844 47.8845 77.94 48.3356 79.1956 48.8041C79.9558 49.0904 80.6469 49.4461 81.292 49.8712C81.9486 50.305 82.4554 50.8168 82.7664 51.4328C83.1466 52.2136 83.0314 52.9424 82.4439 53.6277C82.0868 54.0355 81.6491 54.3825 81.0962 54.6428C80.1862 55.0852 79.1955 55.4062 78.1473 55.6144C75.4288 56.161 72.6527 56.3605 69.8536 56.456C68.1834 56.5167 66.5016 56.4994 64.8313 56.4907C62.4699 56.482 60.12 56.3692 57.7702 56.1957C55.1784 56.0048 52.6096 55.6491 50.0755 55.1893C49.2691 55.0419 48.4628 54.9117 47.6449 54.7989C47.2072 54.7382 46.7925 54.7989 46.5967 55.1893C46.1359 54.9898 45.6867 55.0419 45.2375 55.146C44.4426 55.3281 43.6478 55.5103 42.8645 55.7099C42.1504 55.8921 41.4707 56.1523 40.8487 56.482C40.2843 56.7943 39.9272 57.2021 39.812 57.7313C39.7083 58.2258 39.6853 58.7116 39.812 59.2061C39.8811 59.4924 39.9963 59.7787 40.123 60.0563C40.1576 60.1258 40.3073 60.1952 40.411 60.2038C40.4801 60.2038 40.5953 60.0997 40.6183 60.0303C40.6644 59.8395 40.6874 59.6399 40.7105 59.4404C40.722 59.2755 40.7105 59.102 40.7105 58.8765C40.9524 58.9979 41.1252 59.076 41.2864 59.1628C42.2655 59.6833 43.2792 60.1431 44.3966 60.4901C46.1014 61.0193 47.8523 61.3924 49.6608 61.6613C52.2641 62.0431 54.9134 62.1992 57.5513 62.2947C60.385 62.3988 63.2302 62.3814 66.0639 62.2426C68.2986 62.1298 70.5332 61.965 72.7564 61.7307C74.9911 61.4878 77.2028 61.1842 79.3914 60.7417C81.9832 60.2125 84.4367 59.4491 86.5792 58.2084C86.6484 58.1651 86.7175 58.1217 86.7981 58.0957C86.9594 58.0436 87.1207 58.0089 87.2704 57.9655C87.328 58.0957 87.4432 58.2258 87.4317 58.3473C87.4086 58.781 87.3625 59.2235 87.2819 59.6573C87.0054 61.0107 86.0379 61.9563 84.2754 62.3814C83.4921 62.5723 82.6973 62.7545 81.891 62.902C80.2438 63.1969 78.5735 63.3618 76.8918 63.4832C75.3136 63.596 73.724 63.6828 72.1459 63.7522C70.8097 63.8129 69.4735 63.8476 68.1258 63.8476C66.0639 63.8476 63.9904 63.8649 61.9285 63.8042C59.7975 63.7348 57.655 63.5787 55.5239 63.4312C53.3468 63.275 51.1928 63.0147 49.0618 62.6677C46.781 62.3033 44.5578 61.7741 42.3462 61.2276C40.9293 60.8805 39.4895 60.6116 37.992 60.6029C36.0568 60.6029 34.1216 60.6029 32.1864 60.681C30.6313 60.7417 -14.4311 60.8198 -56.4986 60.9066C-56.4986 60.9846 -56.5216 61.0627 -56.5447 61.1321C-14.5924 61.0541 30.3894 60.9846 31.8178 60.9152C33.6839 60.8198 35.5384 60.7677 37.4045 60.8025C38.7638 60.8198 40.1115 60.9239 41.4131 61.2449C42.2195 61.4445 43.0258 61.6266 43.8206 61.8175C46.3433 62.4248 48.9005 62.928 51.5268 63.2403C53.6809 63.5006 55.8465 63.7001 58.0236 63.8302C60.1661 63.9604 62.3202 64.0558 64.4742 64.0732C68.6211 64.1165 72.7679 64.0038 76.9033 63.6914C78.6426 63.5613 80.3705 63.3791 82.0753 63.0928C83.1581 62.9106 84.2178 62.6937 85.22 62.312C86.1761 61.9476 86.8327 61.3924 87.2128 60.6376C87.5353 60.013 87.662 59.371 87.7081 58.7116C87.7196 58.4947 87.7312 58.2692 87.6736 58.0523C87.5929 57.7313 87.2819 57.6185 86.8903 57.7747C86.5908 57.8961 86.3258 58.0436 86.0494 58.1911C84.7708 58.9025 83.3654 59.4577 81.868 59.8828C79.2416 60.6376 76.5116 61.0627 73.7471 61.375C71.9731 61.5746 70.1992 61.7307 68.4137 61.8609C66.7896 61.9737 65.1654 62.0604 63.5297 62.0951C60.5578 62.1559 57.5859 62.1125 54.6255 61.9129C52.5981 61.7828 50.5708 61.6006 48.5895 61.2449C45.9516 60.7764 43.4174 60.1084 41.2288 58.8504C41.1252 58.7897 41.01 58.7377 40.8948 58.6943C40.6068 58.5988 40.4455 58.6596 40.3995 58.8851C40.3764 59.024 40.3764 59.1714 40.3764 59.3103C40.3764 59.4491 40.3649 59.5879 40.3534 59.718C40.2497 59.6833 40.2152 59.6399 40.2036 59.5879C40.0193 59.05 39.9733 58.5121 40.0424 57.9569C40.123 57.2888 40.5607 56.803 41.321 56.482C41.7933 56.2825 42.2655 56.0829 42.7724 55.9441C43.6133 55.7099 44.4887 55.519 45.3526 55.3195C45.5254 55.2761 45.7213 55.2587 45.9056 55.2501C46.3548 55.2327 46.5391 55.3975 46.4124 55.7185C46.3087 55.9875 46.1475 56.2478 45.9747 56.508C45.8134 56.7509 45.6061 56.9765 45.4333 57.2194C45.1453 57.6619 45.2259 57.9829 45.7213 58.3039C45.894 58.4167 46.0783 58.5294 46.2972 58.5988C46.804 58.7724 47.3109 58.9459 47.8292 59.0587C49.4765 59.4144 51.1698 59.5445 52.8746 59.6312C55.0977 59.7527 57.3209 59.8568 59.5441 59.8915C64.5088 59.9696 69.4735 60.0216 74.4382 59.718C75.9702 59.6226 77.5138 59.4924 79.0228 59.2495C79.9904 59.0934 80.9349 58.8591 81.7873 58.4687C82.0292 58.3559 82.2827 58.2258 82.4785 58.0696C82.8586 57.766 82.7664 57.4016 82.2827 57.2021C82.0177 57.0893 81.7182 57.0546 81.4418 57.1153C81.1192 57.1847 80.8082 57.2715 80.5202 57.3929C79.9443 57.6272 79.3453 57.8354 78.7118 57.9482C77.8939 58.087 77.0645 58.2345 76.2352 58.3386C74.035 58.6162 71.8234 58.7984 69.6002 58.8851C67.4231 58.9806 65.2345 59.05 63.0574 59.0847C60.4541 59.1194 57.8393 59.05 55.2475 58.8765C53.7846 58.781 52.3217 58.6596 50.8818 58.408C49.9833 58.2518 49.1078 58.0523 48.3015 57.7053C47.7947 57.4884 47.403 57.1847 47.1727 56.777C46.9307 56.3432 46.8732 55.8834 46.8962 55.4236C46.9192 55.0505 47.069 54.9551 47.5528 54.9898C47.9905 55.0245 48.4167 55.0939 48.8429 55.1633C50.6514 55.4496 52.4484 55.788 54.2684 56.0309C57.5167 56.4647 60.7997 56.6035 64.0941 56.6815C66.5361 56.7423 68.9897 56.7336 71.4317 56.5861C73.2863 56.4733 75.1409 56.3172 76.9724 56.0395C78.3316 55.84 79.6448 55.519 80.8658 55.0071C81.7182 54.6428 82.4324 54.1656 82.8932 53.5063C83.2963 52.9337 83.423 52.3264 83.2272 51.6931C83.0314 51.0597 82.6167 50.5132 82.0292 50.036C81.4994 49.6022 80.8889 49.2552 80.2323 48.9429C78.9652 48.3356 77.5944 47.8758 76.2121 47.4247C73.701 46.6092 71.2359 45.7069 68.9206 44.5964C68.3792 44.3361 67.8608 44.0498 67.377 43.7289C66.2712 43.0088 65.5801 42.0978 65.269 41.0307C64.9926 40.1285 64.912 39.2089 64.8889 38.2892C64.8659 37.3176 64.9119 36.3372 64.935 35.3656C64.9695 34.203 65.0963 33.0405 65.3842 31.904C65.9372 29.6744 67.2273 27.757 69.6348 26.3342C70.5908 25.7703 71.5354 25.2064 72.4799 24.6425C74.611 23.3845 76.5116 21.9617 78.0667 20.2787C79.184 19.0641 80.1977 17.8148 80.981 16.4614C81.0962 16.2532 81.2114 16.0363 81.269 15.8107C81.3842 15.3683 81.1883 15.1253 80.6354 14.9692C80.5548 14.9432 80.4742 14.9171 80.382 14.9171C79.8752 14.8911 79.3683 14.8304 78.8615 14.8477C77.652 14.8998 76.454 14.9865 75.2445 15.0733C72.2957 15.2642 69.3583 15.4897 66.4094 15.6459C64.025 15.776 61.6405 15.8281 59.2561 15.8801C57.9199 15.9148 56.5722 15.8801 55.236 15.8628C53.3468 15.8454 51.4577 15.7587 49.5801 15.5591C49.0503 15.4984 48.5204 15.3943 48.002 15.2902C47.7832 15.2468 47.5528 15.1861 47.4261 14.9692C47.5758 14.8824 47.7025 14.7783 47.8638 14.7263C48.1978 14.6048 48.5549 14.4834 48.912 14.3966C50.398 14.0149 51.93 13.7459 53.4851 13.5377C56.5031 13.13 59.5441 12.9131 62.5966 12.7916C65.0271 12.6962 67.4577 12.7482 69.8882 12.9131C72.9292 13.13 75.9011 13.5637 78.8039 14.2925C79.2071 14.3966 79.6102 14.466 80.0249 14.5441C80.1516 14.5701 80.2899 14.5701 80.4166 14.5528C80.6469 14.5267 80.7276 14.3792 80.5894 14.2404C80.4857 14.1363 80.359 14.0409 80.2092 13.9715C79.5872 13.7025 78.9882 13.4163 78.3431 13.1994C74.346 11.8546 70.1301 11.2994 65.7759 11.2474C62.6888 11.2126 59.6017 11.3515 56.5491 11.6811C54.3375 11.9154 52.1489 12.219 50.0063 12.6875C49.0387 12.8957 48.0827 13.13 47.2187 13.529C45.7328 14.2231 45.272 15.3943 46.0438 16.5742C46.2972 16.9646 46.6197 17.3376 46.9999 17.6673C47.668 18.2486 48.3591 18.8125 49.0963 19.3417C50.5477 20.3567 52.0222 21.3544 53.5081 22.3435C56.1805 24.1046 58.5765 26.0566 60.7075 28.1995C61.9285 29.4228 62.7233 30.7762 63.1265 32.277C63.4375 33.4569 63.6103 34.6368 63.5642 35.834C63.5182 36.9966 63.449 38.1591 63.3338 39.313C63.2647 40.0417 63.1035 40.7705 62.9422 41.4905C62.7694 42.2453 62.1935 42.8092 61.3065 43.191C61.03 43.3124 60.7536 43.4339 60.4656 43.538C59.8897 43.7462 59.3022 43.9457 58.7147 44.1279C56.6759 44.7699 54.6255 45.3946 52.6672 46.1754C51.4923 46.6439 50.3404 47.1297 49.3037 47.7543C49.0042 47.9365 48.7277 48.1274 48.4628 48.3269C46.9308 49.4721 46.4585 50.8342 46.9999 52.3958C47.1496 52.8209 47.357 53.2286 47.5297 53.6451C47.5989 53.8099 47.714 53.9747 47.5873 54.1916C47.4376 54.1743 47.2648 54.1743 47.1381 54.1309C46.8847 54.0442 46.6428 53.9487 46.4239 53.8273C45.894 53.541 45.4909 53.1679 45.1223 52.7775C43.8437 51.3981 43.2216 49.8538 43.0488 48.1968C42.853 46.2795 43.1871 44.4142 44.1316 42.6184C45.3642 40.2933 47.2648 38.3239 49.6838 36.6235C51.1698 35.5824 52.84 34.7236 54.5448 33.8994C55.5355 33.4222 56.5031 32.9104 57.4591 32.3898C58.0466 32.0688 58.5535 31.6697 58.9566 31.2013C59.6938 30.3597 59.8205 29.4748 59.3022 28.5378C59.0372 28.0694 58.6802 27.6443 58.2424 27.2539C57.6319 26.6899 56.9062 26.2128 56.1345 25.779C55.1093 25.1977 54.0725 24.6338 53.0474 24.0526C49.0618 21.7969 46.3087 18.8645 44.7076 15.3249C43.9819 13.7199 43.5557 12.0629 43.7861 10.3451C43.8897 9.54693 44.1662 8.80083 44.673 8.08943C45.1568 7.40406 45.8825 6.9269 46.8732 6.73603C47.6334 6.58855 48.4052 6.46709 49.1885 6.42371C51.4808 6.31093 53.7846 6.18079 56.0769 6.16344C63.0689 6.09404 70.061 6.14609 77.053 6.32828C78.274 6.36298 79.495 6.31093 80.7161 6.27623C81.0386 6.26755 81.3727 6.18079 81.6837 6.10271C81.9947 6.01596 82.1905 5.85112 82.179 5.58218C82.179 5.32191 81.9601 5.1831 81.6721 5.09634C81.4533 5.03561 81.2229 4.98356 81.004 4.96621C80.2668 4.92283 79.5181 4.8621 78.7809 4.87078C76.7881 4.88813 74.7953 4.93151 72.8025 4.97488C69.9918 5.03561 67.1812 5.12237 64.3706 5.15707C61.6175 5.19177 58.8645 5.19177 56.1114 5.1831C53.3929 5.1831 50.6744 5.09634 47.9559 4.93151C47.4491 4.90548 46.9423 4.93151 46.4354 4.97488C45.9747 5.01826 45.7673 5.23515 45.7328 5.58218C45.7328 5.67761 45.7213 5.78172 45.7097 5.87715C45.6061 5.80774 45.5715 5.73834 45.5485 5.66026C45.4563 5.2178 45.0992 4.93151 44.5694 4.75799C44.362 4.68859 44.1432 4.61918 43.9243 4.56713C43.3714 4.42832 42.8069 4.437 42.2425 4.41964C41.4938 4.39362 40.7335 4.36759 39.9848 4.30686C39.7659 4.28951 39.5355 4.20275 39.3512 4.10732C39.0287 3.92513 39.0633 3.65619 39.4319 3.53473C39.7314 3.43062 40.0654 3.36989 40.3879 3.31784C41.4362 3.17036 42.5074 3.16168 43.5672 3.153C45.3757 3.153 47.1842 3.153 48.9811 3.18771C51.0085 3.22241 53.0243 3.27446 55.0517 3.33519C56.5837 3.37857 58.1042 3.44798 59.6362 3.50003C61.2489 3.56076 62.8616 3.60414 64.4857 3.65619C66.0984 3.70824 67.7111 3.77765 69.3237 3.82103C71.0401 3.86441 72.7564 3.90778 74.4727 3.92513C77.7326 3.95116 80.9925 3.97719 84.2524 3.7603C84.8399 3.7256 85.4389 3.66487 86.0148 3.56076C86.6944 3.4393 87.1667 3.10963 87.4086 2.60644C87.6044 2.19869 87.4317 1.87769 86.9133 1.67815C86.7405 1.60875 86.5447 1.56537 86.3719 1.50464C86.5217 1.45258 86.6599 1.45258 86.7866 1.45258C87.5468 1.47861 87.8924 1.7302 87.9385 2.31147C87.9385 2.38088 87.9385 2.4416 87.9385 2.51101C87.8348 3.55208 87.0515 4.23746 85.7499 4.58448C85.2546 4.71462 84.6901 4.73197 84.1602 4.78402C83.8377 4.81872 83.5152 4.81005 83.2042 4.8274C82.801 4.8621 82.5246 5.01826 82.4209 5.31323C82.3633 5.49542 82.3287 5.67761 82.3287 5.8598C82.3287 6.70133 82.5937 7.50816 82.8356 8.32367C83.0083 8.88759 83.2157 9.4515 83.2963 10.0328C83.5728 11.8286 83.4 13.6071 82.8241 15.3509C81.9486 17.997 80.2668 20.322 77.8824 22.3695C76.12 23.8877 74.1848 25.2585 72.2035 26.6032C71.4663 27.0977 70.7636 27.6356 70.084 28.1735C69.5426 28.6073 69.1394 29.1191 68.8515 29.6744C68.5289 30.3164 68.552 30.9583 68.886 31.6003C69.151 32.1035 69.5311 32.5633 70.0379 32.9537C70.6254 33.3962 71.2013 33.8473 71.8579 34.2204C73.1135 34.9318 74.4036 35.6085 75.7053 36.2765C77.2373 37.0573 78.7693 37.8294 80.1977 38.723C82.3287 40.0591 83.6419 41.7595 84.1948 43.7983C84.4597 44.7873 84.5519 45.7936 84.6556 46.8C84.8284 48.4831 84.6556 50.1488 84.1718 51.7972C83.8147 53.0031 83.3078 54.1396 82.0177 54.9898C81.7297 55.1807 81.5454 55.4409 81.4533 55.7185C81.4187 55.84 81.3842 55.9788 81.4187 56.109C81.4878 56.4126 81.7873 56.4994 82.1214 56.3085C82.2135 56.2564 82.2942 56.187 82.3863 56.135C82.7549 55.9181 83.1466 55.7185 83.6304 55.6838C84.3215 55.6318 85.0011 55.6838 85.6462 55.8747C86.1185 56.0135 86.5101 56.2304 86.752 56.5774C86.8212 56.6729 86.8903 56.777 86.9939 56.8464C87.1091 56.9158 87.2589 56.9852 87.4086 56.9939C87.8348 57.0199 87.8924 57.0372 88.0076 57.3409C88.0537 57.445 88.0882 57.5491 88.1113 57.6619C88.3186 58.7463 88.3532 59.8221 87.9731 60.8892C87.95 60.9413 87.9385 60.9933 87.927 61.054C87.8924 61.2883 87.9961 61.4097 88.2956 61.4618C88.526 61.4965 88.7563 61.5225 88.9867 61.5139C90.3805 61.4531 91.7743 61.4011 93.1681 61.3143C95.4259 61.1668 97.6836 60.9673 99.9528 60.8285C102.879 60.6463 105.816 60.4901 108.753 60.3426C110.262 60.2646 111.771 60.2125 113.292 60.1605C114.766 60.1084 116.229 60.0737 117.704 60.0477C119.017 60.0217 120.33 60.0043 121.632 60.0043C124.868 60.0043 193.821 60.039 197.496 60.039C197.968 60.039 198.429 60.039 198.901 60.0477C198.901 59.9783 198.901 59.9089 198.901 59.8395C197.853 59.8134 196.805 59.7874 195.757 59.7787" fill="#1D1D1B"/>
<path d="M48.3474 58.0783C49.3495 58.4687 50.4323 58.6856 51.5382 58.8418C53.4734 59.1194 55.4316 59.2322 57.3898 59.3189C59.4287 59.4057 61.4676 59.4404 63.5064 59.423C65.7296 59.4057 67.9643 59.3536 70.1759 59.1888C72.0996 59.05 74.0233 58.8938 75.947 58.7116C76.9376 58.6162 77.9167 58.4253 78.8958 58.2605C79.5409 58.1477 80.1284 57.9395 80.7043 57.7052C80.9808 57.5925 81.2918 57.5231 81.5913 57.4537C81.7295 57.4276 81.9138 57.4537 82.0636 57.4797C82.4898 57.5838 82.5704 57.8527 82.2364 58.0783C82.0175 58.2258 81.7756 58.3472 81.5222 58.4514C80.5546 58.8678 79.4833 59.0847 78.389 59.2322C76.3847 59.5098 74.3574 59.6399 72.3185 59.718C68.3559 59.8742 64.4049 59.8481 60.4424 59.8048C57.7815 59.7787 55.1206 59.6746 52.4597 59.4924C50.8701 59.3883 49.2689 59.2495 47.7254 58.9112C47.1494 58.781 46.5965 58.6162 46.1127 58.3386C45.5367 58.0176 45.4676 57.766 45.8247 57.2975C46.0666 56.9591 46.3316 56.6295 46.585 56.2998C46.585 56.2998 46.608 56.2998 46.6541 56.2911C46.6656 56.3519 46.6887 56.4126 46.7002 56.4733C46.896 57.2107 47.4604 57.74 48.3474 58.0783ZM77.5366 1.869C74.6684 1.99046 71.8116 2.11191 68.9434 2.20735C63.7483 2.38086 58.5532 2.44159 53.3582 2.37218C51.3769 2.34616 49.3956 2.28543 47.4259 2.18999C45.5713 2.10324 43.7167 1.9731 41.8507 1.84297C41.2862 1.80827 40.7218 1.73886 40.1574 1.68681C39.2589 1.60873 38.9709 1.83429 39.0746 2.49364C39.0861 2.58907 39.0976 2.6845 39.1206 2.77994C39.0861 2.78861 39.063 2.79729 39.0285 2.80596C38.9363 2.71053 38.8327 2.62378 38.7636 2.51967C38.5217 2.15529 38.6714 1.82562 39.1782 1.69548C39.639 1.57403 40.1343 1.48727 40.6181 1.45257C41.9774 1.37449 43.3481 1.29641 44.7189 1.28773C47.4259 1.27038 50.1328 1.28773 52.8398 1.32243C56.0997 1.36581 59.3596 1.46992 62.6195 1.5133C67.0658 1.57403 71.5006 1.60873 75.947 1.64343C77.5827 1.65211 79.2069 1.60873 80.8426 1.59138C81.119 1.59138 81.3955 1.59138 81.6719 1.63476C80.3012 1.71284 78.9189 1.79959 77.5481 1.85165L77.5366 1.869ZM195.768 59.9349C192.255 59.9089 122.576 59.9089 119.063 59.9522C116.194 59.9869 113.326 60.091 110.458 60.1865C108.396 60.2559 106.334 60.3687 104.272 60.4814C102.061 60.6029 99.8605 60.7504 97.6603 60.8979C95.2413 61.054 92.8223 61.2362 90.3918 61.3924C89.8159 61.4271 89.2284 61.4184 88.6525 61.4097C88.5027 61.4097 88.353 61.3577 88.2147 61.3317C88.2147 61.2622 88.2147 61.2276 88.2147 61.1928C88.5949 60.1691 88.6064 59.1367 88.4451 58.0957C88.399 57.7833 88.2723 57.4797 88.1456 57.176C88.0765 57.0025 87.8922 56.8464 87.6273 56.8984C87.2702 56.9678 87.1435 56.8203 87.0283 56.6382C86.844 56.3692 86.5675 56.161 86.245 55.9875C85.8764 55.7966 85.4617 55.7099 85.024 55.6491C83.9066 55.4756 82.8814 55.5884 82.0175 56.213C81.9599 56.2564 81.8793 56.2824 81.8102 56.3172C81.6604 56.0916 81.6604 56.0395 81.7641 55.814C81.9254 55.4843 82.2364 55.2327 82.5589 54.9985C83.2155 54.5213 83.6532 53.9574 83.9412 53.3067C84.5056 52.0314 84.8397 50.7214 84.9433 49.3767C85.07 47.8411 84.9433 46.3055 84.6784 44.7786C84.5287 43.885 84.2522 43.0088 83.803 42.1759C82.9736 40.6316 81.6259 39.391 79.898 38.3673C78.3545 37.4477 76.7072 36.6409 75.0831 35.8167C73.6777 35.1053 72.2724 34.3939 71.0284 33.5263C70.487 33.1533 70.0032 32.7542 69.6 32.2857C68.7476 31.3054 68.6785 30.3077 69.4848 29.2839C69.888 28.7721 70.3833 28.3123 70.9477 27.8958C71.5813 27.4274 72.2379 26.9762 72.906 26.5338C74.5532 25.432 76.1313 24.2868 77.6057 23.0462C79.2875 21.6407 80.7619 20.1138 81.7756 18.37C83.6993 15.0993 84.2752 11.7332 83.0657 8.22822C82.8123 7.49947 82.605 6.75337 82.5935 5.98991C82.5935 5.28719 82.8008 5.14838 83.7108 5.11368C84.3443 5.08765 84.9894 5.04427 85.6114 4.93149C87.155 4.65387 88.2954 3.65617 88.2147 2.39821C88.1687 1.72151 87.777 1.38316 86.8901 1.33111C86.3487 1.29641 85.8188 1.30508 85.2774 1.31376C82.2479 1.34846 79.2184 1.39184 76.1889 1.40919C73.9311 1.41786 71.6734 1.40051 69.4157 1.37449C66.7202 1.34846 64.0248 1.31376 61.3293 1.2617C58.3113 1.20965 55.3049 1.11422 52.2869 1.07084C48.9349 1.01879 45.5828 0.984084 42.2423 1.11422C41.4245 1.14892 40.6181 1.227 39.8118 1.31376C39.5008 1.34846 39.1898 1.42654 38.9018 1.52197C38.5217 1.65211 38.3373 1.88635 38.3604 2.20735C38.3604 2.55437 38.6023 2.81464 38.9248 3.02285C39.0055 3.08358 39.1667 3.12696 39.2704 3.10961C39.4432 3.08358 39.4317 2.94477 39.4201 2.83199C39.3971 2.66715 39.3625 2.50232 39.3395 2.34616C39.2934 1.99913 39.4317 1.87767 39.8809 1.87767C40.0998 1.87767 40.3186 1.89502 40.5375 1.91237C41.9658 2.02516 43.3942 2.18132 44.8341 2.2594C46.9536 2.37218 49.0731 2.47629 51.2041 2.51967C54.0723 2.57172 56.9406 2.58907 59.8088 2.57172C64.1745 2.55437 68.5402 2.44159 72.906 2.26808C74.8987 2.18999 76.8915 2.09456 78.8843 1.99913C80.1629 1.9384 81.4416 1.83429 82.7202 1.77357C83.6878 1.73019 84.6669 1.64343 85.646 1.75621C86.0146 1.79959 86.3947 1.85165 86.7403 1.95575C87.2011 2.09456 87.3047 2.33748 87.1089 2.67583C86.9246 3.01418 86.6021 3.26577 86.1413 3.38723C85.8764 3.45663 85.6114 3.50001 85.335 3.53471C83.7799 3.69955 82.2018 3.76896 80.6352 3.77763C77.9513 3.79498 75.2789 3.78631 72.5949 3.76028C70.4409 3.73425 68.2868 3.66485 66.1328 3.59544C63.3797 3.50869 60.6382 3.3959 57.8851 3.30047C55.7426 3.23107 53.6116 3.14431 51.469 3.10093C48.8657 3.04888 46.2624 3.02285 43.6476 3.01418C42.657 3.01418 41.6664 3.07491 40.6872 3.14431C40.2265 3.17901 39.7657 3.27445 39.3395 3.40458C38.706 3.60412 38.6484 4.0726 39.2013 4.38492C39.351 4.47168 39.5238 4.53241 39.7081 4.57579C39.9039 4.61917 40.1113 4.64519 40.3071 4.65387C41.0904 4.6799 41.8737 4.69725 42.6685 4.72327C43.3136 4.74063 43.9356 4.83606 44.5231 5.06162C44.9262 5.21778 45.1797 5.44335 45.2833 5.7817C45.3294 5.93786 45.3985 6.1027 45.4791 6.25018C45.5367 6.35429 45.6404 6.46707 45.8017 6.41502C45.8938 6.38899 45.9975 6.27621 46.009 6.19813C46.0551 6.02462 46.0436 5.8511 46.0551 5.67759C46.0781 5.43467 46.1588 5.33924 46.4698 5.27851C46.6771 5.24381 46.9075 5.22646 47.1149 5.22646C48.1285 5.26116 49.1537 5.33057 50.1674 5.34792C52.7016 5.40865 55.2358 5.46938 57.77 5.50408C61.4791 5.54746 65.1997 5.4607 68.9089 5.37394C71.6504 5.31322 74.3804 5.22646 77.1219 5.18308C78.3314 5.16573 79.5409 5.20911 80.7389 5.24381C81.0269 5.24381 81.3033 5.32189 81.5798 5.3913C81.7526 5.43467 81.9023 5.52143 81.8908 5.67759C81.8908 5.82508 81.7641 5.92051 81.5913 5.97256C81.407 6.02462 81.2112 6.09402 81.0038 6.1027C80.0478 6.15475 79.0917 6.22416 78.1356 6.2068C75.7512 6.18078 73.3552 6.1027 70.9708 6.05932C68.6209 6.02462 66.2825 5.99859 63.9326 5.98991C59.2444 5.98124 54.5561 5.96389 49.8679 6.22416C48.8082 6.28488 47.7484 6.36296 46.7232 6.60588C45.7326 6.84012 44.9838 7.28258 44.4655 7.96795C43.8204 8.82684 43.5209 9.75513 43.4403 10.7268C43.3481 11.7939 43.4979 12.8523 43.8319 13.8934C45.099 17.8582 47.783 21.1722 51.9759 23.7662C53.2199 24.5384 54.5561 25.2324 55.8348 25.9699C56.6641 26.4383 57.4474 26.9502 58.0925 27.5662C58.5187 27.9739 58.8873 28.4077 59.0946 28.9022C59.2444 29.2406 59.325 29.5789 59.2674 29.9346C59.1522 30.646 58.7145 31.236 58.0464 31.7044C57.4359 32.1382 56.7793 32.5546 56.0882 32.9103C54.9247 33.5176 53.7153 34.0642 52.5403 34.6541C49.4878 36.2158 46.9536 38.1591 45.099 40.5709C42.9104 43.4165 42.1386 46.453 42.9795 49.689C43.3366 51.0684 44.0969 52.3177 45.2833 53.4021C45.6635 53.7492 46.1012 54.0615 46.631 54.2784C46.8499 54.3651 47.0918 54.4259 47.3222 54.4519C47.7138 54.4953 47.9097 54.3565 47.8751 54.0615C47.8521 53.888 47.783 53.7145 47.7138 53.5496C47.5526 53.1506 47.3568 52.7602 47.2185 52.3611C46.7347 50.9296 47.1379 49.663 48.5317 48.6132C49.0385 48.2315 49.6145 47.8758 50.202 47.5635C51.734 46.7566 53.4042 46.1407 55.1091 45.5681C56.6065 45.0649 58.1386 44.6137 59.636 44.1106C60.3387 43.8763 61.0183 43.59 61.6749 43.2951C62.4006 42.9654 62.8729 42.4622 63.0802 41.8462C63.2069 41.4645 63.3452 41.0828 63.3912 40.6924C63.541 39.4518 63.6562 38.2025 63.7714 36.9532C63.8866 35.7212 63.8059 34.498 63.5986 33.2747C63.2415 31.2273 62.2624 29.388 60.546 27.7657C58.4496 25.7703 56.1803 23.9137 53.6461 22.2307C52.0104 21.1462 50.3863 20.0444 48.7966 18.9079C48.0825 18.396 47.4374 17.8235 46.8269 17.2422C46.5159 16.9472 46.274 16.5915 46.0897 16.2445C45.6404 15.3769 46.009 14.4833 47.0112 13.9368C47.3568 13.7459 47.7484 13.5724 48.1516 13.4596C49.027 13.2167 49.9025 12.9738 50.8009 12.8003C54.3373 12.1149 57.9312 11.7418 61.5828 11.5944C64.2782 11.4903 66.9621 11.4903 69.6461 11.7332C72.33 11.9674 74.9333 12.4706 77.4444 13.2341C78.3084 13.4943 79.1608 13.7893 79.921 14.1884C80.0017 14.2317 80.0708 14.2925 80.1399 14.3445C79.9556 14.3706 79.8174 14.3532 79.6791 14.3272C78.8843 14.145 78.0895 13.9628 77.2947 13.7893C74.7029 13.2341 72.042 12.8957 69.3581 12.7222C67.158 12.5834 64.9693 12.5487 62.7692 12.6354C61.0529 12.6962 59.3481 12.8089 57.6317 12.9304C55.3164 13.0952 53.0126 13.3729 50.7549 13.8066C49.9946 13.9541 49.2459 14.1363 48.4971 14.3185C48.1516 14.4053 47.829 14.5354 47.5065 14.6655C47.2876 14.7523 47.0803 14.8737 47.1033 15.0906C47.1264 15.3075 47.3683 15.3943 47.5871 15.481C47.7714 15.5418 47.9673 15.6025 48.1631 15.6372C48.7506 15.724 49.3265 15.8281 49.9255 15.8801C52.1371 16.0883 54.3603 16.1491 56.595 16.1664C60.2581 16.1924 63.9096 16.0797 67.5496 15.8714C69.0701 15.7847 70.5906 15.6806 72.1227 15.5678C73.8505 15.4463 75.5669 15.3075 77.2947 15.1947C78.0665 15.1427 78.8383 15.1253 79.61 15.1167C79.8865 15.1167 80.1629 15.16 80.4279 15.2208C80.9347 15.3335 81.0614 15.5071 80.9232 15.8888C80.8656 16.0536 80.7965 16.2271 80.6928 16.3833C79.1377 18.9773 77.0643 21.311 74.2422 23.2284C72.952 24.1046 71.5467 24.9028 70.1875 25.7269C69.3811 26.2128 68.5633 26.6899 67.8837 27.2799C66.271 28.6766 65.384 30.325 64.9809 32.1382C64.6468 33.6478 64.5662 35.166 64.5316 36.6929C64.5086 38.0116 64.5431 39.3216 64.8081 40.6316C65.0845 42.0111 65.8794 43.1736 67.3077 44.0672C67.6994 44.3101 68.1025 44.5443 68.5287 44.7526C70.7173 45.811 73.0327 46.6785 75.3941 47.4767C76.6727 47.9018 77.9283 48.3529 79.1838 48.8214C79.9441 49.1077 80.6352 49.4634 81.2803 49.8885C81.9369 50.3223 82.4437 50.8342 82.7547 51.4501C83.1348 52.2309 83.0197 52.9597 82.4322 53.6451C82.0751 54.0528 81.6374 54.3998 81.0845 54.6601C80.1745 55.1026 79.1838 55.4236 78.1356 55.6318C75.4171 56.1783 72.641 56.3779 69.8419 56.4733C68.1716 56.534 66.4899 56.5167 64.8196 56.508C62.4582 56.4993 60.1083 56.3866 57.7584 56.213C55.1667 56.0222 52.5979 55.6665 50.0637 55.2067C49.2574 55.0592 48.4511 54.9291 47.6332 54.8163C47.1955 54.7555 46.7808 54.8163 46.585 55.2067C46.1242 55.0071 45.675 55.0592 45.2257 55.1633C44.4309 55.3455 43.6361 55.5277 42.8528 55.7272C42.1386 55.9094 41.459 56.1697 40.837 56.4993C40.2725 56.8117 39.9155 57.2194 39.8003 57.7486C39.6966 58.2431 39.6736 58.729 39.8003 59.2235C39.8694 59.5098 39.9846 59.7961 40.1113 60.0737C40.1458 60.1431 40.2956 60.2125 40.3993 60.2212C40.4684 60.2212 40.5836 60.1171 40.6066 60.0477C40.6527 59.8568 40.6757 59.6573 40.6988 59.4577C40.7103 59.2929 40.6988 59.1194 40.6988 58.8938C40.9407 59.0153 41.1134 59.0933 41.2747 59.1801C42.2538 59.7006 43.2675 60.1604 44.3848 60.5075C46.0897 61.0367 47.8406 61.4097 49.649 61.6787C52.2523 62.0604 54.9017 62.2166 57.5396 62.312C60.3733 62.4161 63.2185 62.3988 66.0521 62.2599C68.2868 62.1472 70.5215 61.9823 72.7447 61.7481C74.9794 61.5052 77.191 61.2015 79.3796 60.7591C81.9714 60.2299 84.425 59.4664 86.5675 58.2258C86.6366 58.1824 86.7057 58.139 86.7864 58.113C86.9476 58.0609 87.1089 58.0262 87.2587 57.9829C87.3163 58.113 87.4315 58.2431 87.4199 58.3646C87.3969 58.7984 87.3508 59.2408 87.2702 59.6746C86.9937 61.028 86.0261 61.9737 84.2637 62.3988C83.4804 62.5896 82.6856 62.7718 81.8793 62.9193C80.2321 63.2143 78.5618 63.3791 76.88 63.5006C75.3019 63.6133 73.7123 63.7001 72.1342 63.7695C70.798 63.8302 69.4618 63.8649 68.114 63.8649C66.0521 63.8649 63.9787 63.8823 61.9168 63.8216C59.7858 63.7522 57.6432 63.596 55.5122 63.4485C53.3351 63.2923 51.1811 63.0321 49.0501 62.6851C46.7693 62.3207 44.5461 61.7915 42.3345 61.2449C40.9176 60.8979 39.4777 60.6289 37.9803 60.6203C36.0451 60.6203 34.1099 60.6203 32.1747 60.6983C30.6196 60.7591 -14.4428 60.8371 -56.5103 60.9239C-56.5103 61.002 -56.5334 61.0801 -56.5564 61.1495C-14.6041 61.0714 30.3777 61.002 31.8061 60.9326C33.6721 60.8371 35.5267 60.7851 37.3928 60.8198C38.752 60.8371 40.0998 60.9413 41.4014 61.2623C42.2077 61.4618 43.0141 61.644 43.8089 61.8348C46.3316 62.4421 48.8888 62.9453 51.5151 63.2576C53.6692 63.5179 55.8348 63.7174 58.0119 63.8476C60.1544 63.9777 62.3085 64.0731 64.4625 64.0905C68.6094 64.1339 72.7562 64.0211 76.8915 63.7088C78.6309 63.5786 80.3588 63.3965 82.0636 63.1102C83.1464 62.928 84.2061 62.7111 85.2083 62.3294C86.1644 61.965 86.8209 61.4097 87.2011 60.655C87.5236 60.0303 87.6503 59.3883 87.6964 58.729C87.7079 58.5121 87.7194 58.2865 87.6618 58.0696C87.5812 57.7486 87.2702 57.6358 86.8785 57.792C86.579 57.9135 86.3141 58.0609 86.0376 58.2084C84.759 58.9198 83.3537 59.4751 81.8562 59.9002C79.2299 60.655 76.4999 61.0801 73.7353 61.3924C71.9614 61.5919 70.1875 61.7481 68.402 61.8782C66.7778 61.991 65.1537 62.0778 63.5179 62.1125C60.546 62.1732 57.5741 62.1298 54.6137 61.9303C52.5864 61.8001 50.559 61.618 48.5778 61.2623C45.9399 60.7938 43.4057 60.1257 41.2171 58.8678C41.1134 58.8071 40.9982 58.755 40.8831 58.7116C40.5951 58.6162 40.4338 58.6769 40.3877 58.9025C40.3647 59.0413 40.3647 59.1888 40.3647 59.3276C40.3647 59.4664 40.3532 59.6052 40.3417 59.7353C40.238 59.7006 40.2034 59.6573 40.1919 59.6052C40.0076 59.0673 39.9615 58.5294 40.0307 57.9742C40.1113 57.3062 40.549 56.8203 41.3093 56.4993C41.7815 56.2998 42.2538 56.1003 42.7607 55.9615C43.6015 55.7272 44.477 55.5363 45.3409 55.3368C45.5137 55.2934 45.7095 55.2761 45.8938 55.2674C46.3431 55.2501 46.5274 55.4149 46.4007 55.7359C46.297 56.0048 46.1357 56.2651 45.963 56.5254C45.8017 56.7683 45.5943 56.9938 45.4216 57.2368C45.1336 57.6792 45.2142 58.0002 45.7095 58.3212C45.8823 58.434 46.0666 58.5468 46.2855 58.6162C46.7923 58.7897 47.2992 58.9632 47.8175 59.076C49.4647 59.4317 51.158 59.5618 52.8628 59.6486C55.086 59.77 57.3092 59.8742 59.5324 59.9089C64.4971 59.9869 69.4618 60.039 74.4265 59.7353C75.9585 59.6399 77.502 59.5098 79.011 59.2669C79.9786 59.1107 80.9232 58.8765 81.7756 58.4861C82.0175 58.3733 82.2709 58.2431 82.4667 58.087C82.8469 57.7833 82.7547 57.419 82.2709 57.2194C82.006 57.1066 81.7065 57.0719 81.43 57.1327C81.1075 57.2021 80.7965 57.2888 80.5085 57.4103C79.9326 57.6445 79.3336 57.8527 78.7 57.9655C77.8822 58.1043 77.0528 58.2518 76.2234 58.3559C74.0233 58.6335 71.8116 58.8157 69.5885 58.9025C67.4114 58.9979 65.2228 59.0673 63.0457 59.102C60.4424 59.1367 57.8275 59.0673 55.2358 58.8938C53.7728 58.7984 52.3099 58.6769 50.8701 58.4253C49.9716 58.2692 49.0961 58.0696 48.2898 57.7226C47.783 57.5057 47.3913 57.2021 47.1609 56.7943C46.919 56.3605 46.8614 55.9007 46.8845 55.4409C46.9075 55.0679 47.0573 54.9724 47.5411 55.0071C47.9788 55.0418 48.405 55.1112 48.8312 55.1806C50.6397 55.4669 52.4366 55.8053 54.2566 56.0482C57.505 56.482 60.7879 56.6208 64.0824 56.6989C66.5244 56.7596 68.978 56.7509 71.42 56.6034C73.2746 56.4907 75.1291 56.3345 76.9607 56.0569C78.3199 55.8573 79.6331 55.5363 80.8541 55.0245C81.7065 54.6601 82.4207 54.183 82.8814 53.5236C83.2846 52.951 83.4113 52.3437 83.2155 51.7104C83.0197 51.0771 82.605 50.5305 82.0175 50.0534C81.4876 49.6196 80.8771 49.2726 80.2205 48.9602C78.9534 48.3529 77.5827 47.8931 76.2004 47.442C73.6893 46.6265 71.2242 45.7242 68.9089 44.6137C68.3675 44.3535 67.8491 44.0672 67.3653 43.7462C66.2595 43.0261 65.5683 42.1152 65.2573 41.0481C64.9809 40.1458 64.9002 39.2262 64.8772 38.3066C64.8542 37.3349 64.9002 36.3546 64.9233 35.3829C64.9578 34.2204 65.0845 33.0578 65.3725 31.9213C65.9254 29.6917 67.2156 27.7744 69.623 26.3516C70.5791 25.7877 71.5237 25.2237 72.4682 24.6598C74.5992 23.4019 76.4999 21.9791 78.055 20.296C79.1723 19.0814 80.186 17.8321 80.9693 16.4787C81.0845 16.2705 81.1997 16.0536 81.2573 15.8281C81.3724 15.3856 81.1766 15.1427 80.6237 14.9865C80.5431 14.9605 80.4624 14.9345 80.3703 14.9345C79.8634 14.9084 79.3566 14.8477 78.8498 14.8651C77.6403 14.9171 76.4423 15.0039 75.2328 15.0906C72.2839 15.2815 69.3466 15.5071 66.3977 15.6632C64.0133 15.7934 61.6288 15.8454 59.2444 15.8975C57.9082 15.9322 56.5605 15.8975 55.2242 15.8801C53.3351 15.8628 51.446 15.776 49.5684 15.5765C49.0385 15.5157 48.5087 15.4116 47.9903 15.3075C47.7714 15.2641 47.5411 15.2034 47.4143 14.9865C47.5641 14.8998 47.6908 14.7957 47.8521 14.7436C48.1861 14.6222 48.5432 14.5007 48.9003 14.4139C50.3863 14.0322 51.9183 13.7633 53.4734 13.555C56.4913 13.1473 59.5324 12.9304 62.5849 12.8089C65.0154 12.7135 67.4459 12.7656 69.8764 12.9304C72.9175 13.1473 75.8894 13.5811 78.7922 14.3098C79.1953 14.4139 79.5985 14.4833 80.0132 14.5614C80.1399 14.5874 80.2781 14.5874 80.4048 14.5701C80.6352 14.5441 80.7159 14.3966 80.5776 14.2578C80.474 14.1537 80.3472 14.0582 80.1975 13.9888C79.5755 13.7199 78.9765 13.4336 78.3314 13.2167C74.3343 11.872 70.1183 11.3167 65.7642 11.2647C62.6771 11.23 59.59 11.3688 56.5374 11.6985C54.3258 11.9327 52.1372 12.2364 49.9946 12.7048C49.027 12.9131 48.0709 13.1473 47.207 13.5464C45.721 14.2404 45.2603 15.4116 46.0321 16.5915C46.2855 16.9819 46.608 17.355 46.9881 17.6846C47.6562 18.2659 48.3474 18.8298 49.0846 19.359C50.536 20.3741 52.0104 21.3718 53.4964 22.3608C56.1688 24.1219 58.5648 26.074 60.6958 28.2168C61.9168 29.4401 62.7116 30.7935 63.1148 32.2944C63.4258 33.4743 63.5986 34.6541 63.5525 35.8514C63.5064 37.0139 63.4373 38.1764 63.3221 39.3303C63.253 40.0591 63.0917 40.7878 62.9305 41.5079C62.7577 42.2627 62.1817 42.8266 61.2948 43.2083C61.0183 43.3298 60.7419 43.4512 60.4539 43.5553C59.8779 43.7635 59.2905 43.9631 58.703 44.1453C56.6641 44.7873 54.6137 45.4119 52.6555 46.1927C51.4806 46.6612 50.3287 47.147 49.292 47.7717C48.9925 47.9539 48.716 48.1447 48.4511 48.3443C46.919 49.4894 46.4468 50.8515 46.9881 52.4131C47.1379 52.8382 47.3452 53.246 47.518 53.6624C47.5871 53.8273 47.7023 53.9921 47.5756 54.209C47.4259 54.1916 47.2531 54.1916 47.1264 54.1482C46.8729 54.0615 46.6311 53.9661 46.4122 53.8446C45.8823 53.5583 45.4791 53.1853 45.1105 52.7949C43.8319 51.4154 43.2099 49.8712 43.0371 48.2141C42.8413 46.2968 43.1753 44.4316 44.1199 42.6357C45.3524 40.3106 47.2531 38.3413 49.6721 36.6409C51.158 35.5998 52.8283 34.7409 54.5331 33.9167C55.5237 33.4396 56.4913 32.9277 57.4474 32.4072C58.0349 32.0862 58.5417 31.6871 58.9449 31.2186C59.6821 30.3771 59.8088 29.4922 59.2905 28.5552C59.0255 28.0867 58.6684 27.6616 58.2307 27.2712C57.6202 26.7073 56.8945 26.2301 56.1227 25.7963C55.0975 25.2151 54.0608 24.6512 53.0356 24.0699C49.0501 21.8142 46.297 18.8819 44.6959 15.3422C43.9702 13.7372 43.544 12.0802 43.7743 10.3624C43.878 9.56427 44.1545 8.81816 44.6613 8.10676C45.1451 7.42139 45.8708 6.94423 46.8614 6.75337C47.6217 6.60588 48.3935 6.48442 49.1768 6.44105C51.469 6.32826 53.7728 6.19813 56.0651 6.18078C63.0572 6.11137 70.0492 6.16343 77.0413 6.34561C78.2623 6.38032 79.4833 6.32826 80.7043 6.29356C81.0269 6.28488 81.3609 6.19813 81.6719 6.12005C81.983 6.03329 82.1788 5.86846 82.1673 5.59951C82.1673 5.33924 81.9484 5.20043 81.6604 5.11368C81.4416 5.05295 81.2112 5.00089 80.9923 4.98354C80.2551 4.94016 79.5064 4.87943 78.7691 4.88811C76.7763 4.90546 74.7836 4.94884 72.7908 4.99222C69.9801 5.05295 67.1695 5.1397 64.3588 5.17441C61.6058 5.20911 58.8527 5.20911 56.0997 5.20043C53.3812 5.20043 50.6627 5.11368 47.9442 4.94884C47.4374 4.92281 46.9305 4.94884 46.4237 4.99222C45.9629 5.0356 45.7556 5.25249 45.721 5.59951C45.721 5.69494 45.7095 5.79905 45.698 5.89448C45.5943 5.82508 45.5598 5.75567 45.5367 5.67759C45.4446 5.23514 45.0875 4.94884 44.5576 4.77533C44.3503 4.70592 44.1314 4.63652 43.9126 4.58446C43.3596 4.44565 42.7952 4.45433 42.2308 4.43698C41.482 4.41095 40.7218 4.38493 39.9731 4.3242C39.7542 4.30684 39.5238 4.22009 39.3395 4.12466C39.017 3.94247 39.0515 3.67352 39.4201 3.55207C39.7196 3.44796 40.0537 3.38723 40.3762 3.33518C41.4244 3.18769 42.4957 3.17901 43.5555 3.17034C45.364 3.17034 47.1725 3.17034 48.9694 3.20504C50.9968 3.23974 53.0126 3.2918 55.0399 3.35253C56.572 3.3959 58.0925 3.46531 59.6245 3.51736C61.2372 3.57809 62.8498 3.62147 64.474 3.67352C66.0867 3.72558 67.6994 3.79498 69.312 3.83836C71.0284 3.88174 72.7447 3.92512 74.461 3.94247C77.7209 3.9685 80.9808 3.99452 84.2407 3.77763C84.8281 3.74293 85.4271 3.6822 86.0031 3.57809C86.6827 3.45663 87.155 3.12696 87.3969 2.62378C87.5927 2.21602 87.4199 1.89502 86.9016 1.69548C86.7288 1.62608 86.533 1.5827 86.3602 1.52197C86.5099 1.46992 86.6482 1.46992 86.7749 1.46992C87.5351 1.49595 87.8807 1.74754 87.9268 2.3288C87.9268 2.39821 87.9268 2.45894 87.9268 2.52834C87.8231 3.56942 87.0398 4.25479 85.7382 4.60182C85.2428 4.73195 84.6784 4.7493 84.1485 4.80135C83.826 4.83606 83.5035 4.82738 83.1925 4.84473C82.7893 4.87944 82.5128 5.0356 82.4092 5.33057C82.3516 5.51275 82.317 5.69494 82.317 5.87713C82.317 6.71867 82.5819 7.5255 82.8238 8.341C82.9966 8.90492 83.204 9.46883 83.2846 10.0501C83.5611 11.846 83.3883 13.6245 82.8123 15.3683C81.9369 18.0143 80.2551 20.3394 77.8707 22.3868C76.1082 23.9051 74.173 25.2758 72.1918 26.6205C71.4546 27.115 70.7519 27.6529 70.0723 28.1908C69.5309 28.6246 69.1277 29.1365 68.8397 29.6917C68.5172 30.3337 68.5402 30.9757 68.8743 31.6177C69.1392 32.1209 69.5194 32.5807 70.0262 32.9711C70.6137 33.4135 71.1896 33.8647 71.8462 34.2377C73.1018 34.9491 74.3919 35.6258 75.6936 36.2938C77.2256 37.0746 78.7576 37.8468 80.186 38.7404C82.317 40.0764 83.6302 41.7768 84.1831 43.8156C84.448 44.8046 84.5402 45.811 84.6438 46.8174C84.8166 48.5004 84.6438 50.1661 84.16 51.8145C83.803 53.0204 83.2961 54.1569 82.006 55.0071C81.718 55.198 81.5337 55.4583 81.4416 55.7359C81.407 55.8573 81.3724 55.9962 81.407 56.1263C81.4761 56.4299 81.7756 56.5167 82.1097 56.3258C82.2018 56.2738 82.2824 56.2044 82.3746 56.1523C82.7432 55.9354 83.1348 55.7359 83.6186 55.7012C84.3098 55.6491 84.9894 55.7012 85.6345 55.892C86.1068 56.0309 86.4984 56.2477 86.7403 56.5948C86.8094 56.6902 86.8785 56.7943 86.9822 56.8637C87.0974 56.9331 87.2471 57.0025 87.3969 57.0112C87.8231 57.0372 87.8807 57.0546 87.9959 57.3582C88.042 57.4623 88.0765 57.5664 88.0995 57.6792C88.3069 58.7637 88.3415 59.8395 87.9613 60.9066C87.9383 60.9586 87.9268 61.0107 87.9152 61.0714C87.8807 61.3056 87.9844 61.4271 88.2839 61.4791C88.5142 61.5138 88.7446 61.5399 88.975 61.5312C90.3688 61.4705 91.7626 61.4184 93.1564 61.3317C95.4141 61.1842 97.6719 60.9846 99.9411 60.8458C102.867 60.6636 105.804 60.5075 108.742 60.36C110.251 60.2819 111.76 60.2299 113.28 60.1778C114.755 60.1257 116.218 60.091 117.692 60.065C119.005 60.039 120.318 60.0216 121.62 60.0216C124.857 60.0216 193.81 60.0563 197.484 60.0563C197.957 60.0563 198.417 60.0563 198.89 60.065C198.89 59.9956 198.89 59.9262 198.89 59.8568C197.841 59.8308 196.793 59.8047 195.745 59.7961L195.768 59.9349Z" stroke="#1C1C1C" stroke-width="0.8" stroke-miterlimit="10"/>
</g>
</g>
<defs>
<clipPath id="clip0_522_665">
<rect width="133" height="64" fill="white" transform="translate(0 0.611084)"/>
</clipPath>
</defs>
</svg>
