<svg width="100" height="66" viewBox="0 0 100 66" fill="none" xmlns="http://www.w3.org/2000/svg">
<g clip-path="url(#clip0_522_687)">
<mask id="mask0_522_687" style="mask-type:luminance" maskUnits="userSpaceOnUse" x="-44" y="0" width="201" height="66">
<path d="M156.566 0.611084H-43.4343V65.6111H156.566V0.611084Z" fill="white"/>
</mask>
<g mask="url(#mask0_522_687)">
<path d="M52.702 6.52409C45.0801 6.52409 38.8752 12.6636 38.8752 20.2051C38.8752 20.2312 38.9016 23.1834 39.685 24.8206C41.7797 29.2445 45.0713 31.9789 50.6865 33.9558C53.943 35.1053 57.8948 34.5654 60.7728 33.8687C60.6144 33.0675 60.7992 32.1531 61.5737 31.4216C64.9446 28.243 66.7488 24.1587 66.5376 20.2225C66.5376 12.6636 60.3327 6.52409 52.7196 6.52409M52.7196 1.51672C42.3077 1.51672 33.8321 9.90298 33.8321 20.2051C33.8497 26.4142 35.8652 32.7801 36.7277 35.2185C39.1657 42.0982 44.4024 53.2973 47.3157 59.3584C48.3366 61.4919 49.8856 62.9288 51.9979 63.7039C53.767 62.9898 54.5855 61.6313 56.0201 59.2626C59.7783 53.0447 66.52 41.7586 69.5037 36.0806C69.7501 35.6104 69.9437 34.9572 69.4772 34.4957C69.09 34.1125 68.7027 34.1125 67.8842 34.4957C66.5728 35.114 65.4023 35.5843 64.3109 35.95C62.8851 36.4203 61.6793 35.7062 61.116 34.7831C61.028 34.6437 60.9576 34.4957 60.896 34.3389C57.9564 35.0617 53.8902 35.6104 50.5193 34.426C44.7721 32.4057 41.4012 29.6015 39.2449 25.047C38.4264 23.3053 38.3912 20.3531 38.3912 20.2312C38.3912 12.4284 44.8073 6.07125 52.702 6.07125C60.5968 6.07125 67.0041 12.4197 67.0041 20.2225C67.2329 24.2894 65.3671 28.5043 61.8994 31.7787C61.2393 32.4057 61.1072 33.1372 61.2305 33.7642C68.5003 31.857 71.3519 25.5173 71.5984 20.2138C71.5984 9.9204 63.1227 1.54285 52.7108 1.54285M-42.9766 65.1756V64.7054C-42.7917 64.7054 40.4859 64.4354 47.0956 64.3657C48.9263 64.3483 50.2553 64.2177 51.2938 63.939C49.3399 63.0943 47.8789 61.64 46.8844 59.5674C43.9712 53.4976 38.7168 42.2811 36.2789 35.384C35.4075 32.9195 33.3656 26.4926 33.348 20.2138C33.348 9.65043 42.0349 1.05518 52.7108 1.05518C63.3868 1.05518 72.0736 9.65043 72.0736 20.2138C71.8184 25.6914 68.87 32.2315 61.3625 34.2083C61.4065 34.3215 61.4681 34.426 61.5209 34.5305C61.9522 35.2359 62.8939 35.9065 64.1525 35.4972C65.2262 35.1401 66.3792 34.6699 67.673 34.069C68.5267 33.6684 69.178 33.5465 69.8117 34.1648C70.331 34.6786 70.375 35.4449 69.9173 36.2983C66.9249 41.9937 60.1743 53.2886 56.4162 59.5064C55.0608 61.7619 54.1542 63.1291 52.6316 63.9129C53.6966 64.2177 54.8847 64.3657 56.2137 64.3657H156.117V64.836H56.2137C54.6119 64.836 53.2037 64.627 51.9715 64.2003C50.8098 64.627 49.2959 64.8099 47.0956 64.836C40.4859 64.9057 -42.7917 65.1669 -42.9854 65.1756" fill="#1C1C1C"/>
<path d="M52.702 6.52409C45.0801 6.52409 38.8752 12.6636 38.8752 20.2051C38.8752 20.2312 38.9016 23.1834 39.685 24.8206C41.7797 29.2445 45.0713 31.9789 50.6865 33.9558C53.943 35.1053 57.8948 34.5654 60.7728 33.8687C60.6144 33.0675 60.7992 32.1531 61.5737 31.4216C64.9446 28.243 66.7489 24.1587 66.5376 20.2225C66.5376 12.6636 60.3327 6.52409 52.7196 6.52409H52.702ZM52.702 1.51672C42.2901 1.51672 33.8145 9.90298 33.8145 20.2051C33.8321 26.4142 35.8476 32.7801 36.7101 35.2185C39.1481 42.0982 44.3848 53.2973 47.298 59.3584C48.319 61.4919 49.868 62.9288 51.9803 63.7039C53.7494 62.9898 54.5679 61.6313 56.0025 59.2626C59.7606 53.0447 66.5024 41.7586 69.486 36.0806C69.7325 35.6104 69.9261 34.9572 69.4596 34.4957C69.0724 34.1125 68.6851 34.1125 67.8666 34.4957C66.5552 35.114 65.3847 35.5843 64.2933 35.95C62.8675 36.4203 61.6617 35.7062 61.0984 34.7831C61.0104 34.6437 60.94 34.4957 60.8784 34.3389C57.9388 35.0617 53.8726 35.6104 50.5017 34.426C44.7545 32.4057 41.3836 29.6015 39.2273 25.047C38.4088 23.3053 38.3736 20.3531 38.3736 20.2312C38.3736 12.4284 44.7897 6.07125 52.6844 6.07125C60.5792 6.07125 66.9865 12.4197 66.9865 20.2225C67.2153 24.2894 65.3495 28.5043 61.8818 31.7787C61.2217 32.4057 61.0896 33.1372 61.2129 33.7642C68.4827 31.857 71.3343 25.5173 71.5807 20.2138C71.5807 9.9204 63.1051 1.54285 52.6932 1.54285L52.702 1.51672ZM-42.9766 65.1756V64.7054C-42.7917 64.7054 40.4859 64.4354 47.0956 64.3657C48.9263 64.3483 50.2553 64.2177 51.2938 63.939C49.3399 63.0943 47.8789 61.64 46.8844 59.5674C43.9712 53.4976 38.7168 42.2811 36.2789 35.384C35.4075 32.9195 33.3656 26.4926 33.348 20.2138C33.348 9.65043 42.0349 1.05518 52.7108 1.05518C63.3868 1.05518 72.0736 9.65043 72.0736 20.2138C71.8184 25.6914 68.87 32.2315 61.3625 34.2083C61.4065 34.3215 61.4681 34.426 61.5209 34.5305C61.9522 35.2359 62.8939 35.9065 64.1525 35.4972C65.2262 35.1401 66.3792 34.6699 67.673 34.069C68.5267 33.6684 69.178 33.5465 69.8117 34.1648C70.331 34.6786 70.375 35.4449 69.9173 36.2983C66.9249 41.9937 60.1743 53.2886 56.4162 59.5064C55.0608 61.7619 54.1542 63.1291 52.6316 63.9129C53.6966 64.2177 54.8847 64.3657 56.2137 64.3657H156.117V64.836H56.2137C54.6119 64.836 53.2037 64.627 51.9715 64.2003C50.8098 64.627 49.2959 64.8099 47.0956 64.836C40.4859 64.9057 -42.7917 65.1669 -42.9854 65.1756H-42.9766Z" stroke="#1C1C1C" stroke-miterlimit="10"/>
</g>
</g>
<defs>
<clipPath id="clip0_522_687">
<rect width="100" height="65" fill="white" transform="translate(0 0.611084)"/>
</clipPath>
</defs>
</svg>
