<svg width="14" height="14" viewBox="0 0 14 14" fill="none" xmlns="http://www.w3.org/2000/svg">
<path fill-rule="evenodd" clip-rule="evenodd" d="M12.8334 6.20982H13.4167C13.6619 6.20982 13.8809 6.05657 13.9648 5.82623C14.0487 5.5959 13.9797 5.33768 13.792 5.17995L8.11413 0.407691C7.46739 -0.135897 6.53266 -0.135897 5.88592 0.407691L0.208037 5.17995C0.0203744 5.33768 -0.0486484 5.5959 0.0352904 5.82623C0.119229 6.05657 0.338218 6.20982 0.58336 6.20982H1.16669V12.2182C1.16669 13.1874 1.9355 14 2.91669 14H11.0834C12.0646 14 12.8334 13.1874 12.8334 12.2182V6.20982ZM8.75003 9.91667V12.8333H5.25003V9.91667C5.25003 8.95014 6.0335 8.16667 7.00003 8.16667C7.96655 8.16667 8.75003 8.95014 8.75003 9.91667Z" fill="#407A6B"/>
</svg>
