<svg width="10" height="14" viewBox="0 0 10 14" fill="none" xmlns="http://www.w3.org/2000/svg">
<path d="M5 14C3.7381 14 2.70833 13.8046 1.91071 13.4137C1.1131 13.0229 0.714286 12.5183 0.714286 11.9C0.714286 11.62 0.800595 11.3604 0.973214 11.1213C1.14583 10.8821 1.3869 10.675 1.69643 10.5L2.82143 11.5325C2.71429 11.5792 2.59821 11.6317 2.47321 11.69C2.34821 11.7483 2.25 11.8183 2.17857 11.9C2.33333 12.0867 2.69048 12.25 3.25 12.39C3.80952 12.53 4.39286 12.6 5 12.6C5.60714 12.6 6.19345 12.53 6.75893 12.39C7.32441 12.25 7.68452 12.0867 7.83929 11.9C7.75595 11.8067 7.64881 11.7308 7.51786 11.6725C7.38691 11.6142 7.26191 11.5617 7.14286 11.515L8.25 10.465C8.58333 10.6517 8.83929 10.8646 9.01786 11.1038C9.19643 11.3429 9.28571 11.6083 9.28571 11.9C9.28571 12.5183 8.8869 13.0229 8.08929 13.4137C7.29167 13.8046 6.2619 14 5 14ZM5 11.9C3.32143 10.6867 2.06845 9.50833 1.24107 8.365C0.413691 7.22167 0 6.10167 0 5.005C0 4.17667 0.151786 3.45042 0.455357 2.82625C0.758929 2.20208 1.14881 1.68 1.625 1.26C2.10119 0.84 2.6369 0.525 3.23214 0.315C3.82738 0.105 4.41667 0 5 0C5.58333 0 6.17262 0.105 6.76786 0.315C7.3631 0.525 7.89881 0.84 8.375 1.26C8.85119 1.68 9.24107 2.20208 9.54464 2.82625C9.84821 3.45042 10 4.17667 10 5.005C10 6.10167 9.58631 7.22167 8.75893 8.365C7.93155 9.50833 6.67857 10.6867 5 11.9ZM5 6.3C5.39286 6.3 5.72917 6.16292 6.00893 5.88875C6.28869 5.61458 6.42857 5.285 6.42857 4.9C6.42857 4.515 6.28869 4.18542 6.00893 3.91125C5.72917 3.63708 5.39286 3.5 5 3.5C4.60714 3.5 4.27083 3.63708 3.99107 3.91125C3.71131 4.18542 3.57143 4.515 3.57143 4.9C3.57143 5.285 3.71131 5.61458 3.99107 5.88875C4.27083 6.16292 4.60714 6.3 5 6.3Z" fill="#407A6B"/>
</svg>
