<svg width="411" height="442" viewBox="0 0 411 442" fill="none" xmlns="http://www.w3.org/2000/svg">
<g clip-path="url(#clip0_983_395)">
<mask id="mask0_983_395" style="mask-type:luminance" maskUnits="userSpaceOnUse" x="-31" y="-317" width="1642" height="759">
<path d="M1518.48 -316.205L-31 91.9575L60.9576 441.049L1610.43 32.8864L1518.48 -316.205Z" fill="white"/>
</mask>
<g mask="url(#mask0_983_395)">
<mask id="path-2-inside-1_983_395" fill="white">
<path d="M193.393 239.709C122.291 262.382 83.9727 279.156 34.0367 310.31C38.2959 308.864 206.858 269.332 355.799 290.779C366.878 264.664 371.849 235.798 369.532 206.393C328.18 208.657 242.11 224.185 193.437 239.697"/>
</mask>
<path d="M34.0367 310.31L33.5074 309.462L34.3583 311.257L34.0367 310.31ZM355.799 290.779L355.656 291.768L356.419 291.878L356.719 291.169L355.799 290.779ZM369.532 206.393L370.529 206.314L370.452 205.341L369.477 205.394L369.532 206.393ZM193.393 239.709L193.089 238.756C121.931 261.447 83.532 278.252 33.5074 309.462L34.0367 310.31L34.566 311.159C84.4134 280.06 122.651 263.317 193.697 240.662L193.393 239.709ZM34.0367 310.31L34.3583 311.257C34.8259 311.098 37.8591 310.336 43.193 309.152C48.4907 307.977 55.9966 306.4 65.3515 304.614C84.0615 301.044 110.163 296.641 140.782 292.952C202.031 285.574 281.309 281.063 355.656 291.768L355.799 290.779L355.941 289.789C281.348 279.048 201.874 283.579 140.542 290.967C109.871 294.661 83.7242 299.072 64.9766 302.65C55.6027 304.439 48.0773 306.02 42.7598 307.2C37.4784 308.371 34.3123 309.161 33.7151 309.363L34.0367 310.31ZM355.799 290.779L356.719 291.169C367.86 264.91 372.859 235.883 370.529 206.314L369.532 206.393L368.535 206.472C370.839 235.713 365.895 264.419 354.878 290.388L355.799 290.779ZM369.532 206.393L369.477 205.394C328.038 207.663 241.884 223.208 193.133 238.745L193.437 239.697L193.74 240.65C242.337 225.163 328.323 209.651 369.587 207.391L369.532 206.393Z" fill="#005A45" mask="url(#path-2-inside-1_983_395)"/>
<path d="M193.696 307.454C196.035 307.348 198.405 307.188 200.785 306.886C199.828 306.952 198.871 307.019 197.958 307.074C196.501 307.179 195.098 307.317 193.696 307.454Z" fill="#005A45"/>
<mask id="path-5-inside-2_983_395" fill="white">
<path d="M367.815 191.953C366.882 186.122 365.678 180.315 364.146 174.502C338.711 78.12 239.981 20.5757 143.565 45.9737C47.1485 71.3717 -10.419 170.088 14.9731 266.482C17.6585 276.676 21.2095 286.457 25.4616 295.729C46.4733 283.189 70.2646 270.984 96.1777 259.611C94.4046 255.346 92.7822 250.949 91.5709 246.351C77.3208 192.254 109.637 136.839 163.746 122.585C217.856 108.332 273.278 140.635 287.528 194.732C288.145 197.074 288.577 199.419 289.009 201.764C316.333 196.979 342.816 193.76 367.783 192.008"/>
</mask>
<path d="M364.146 174.502L365.113 174.248L365.113 174.247L364.146 174.502ZM25.4616 295.729L24.5526 296.146L25.0172 297.159L25.9741 296.588L25.4616 295.729ZM96.1777 259.611L96.5796 260.527L97.4776 260.133L97.1011 259.227L96.1777 259.611ZM289.009 201.764L288.026 201.945L288.205 202.92L289.182 202.749L289.009 201.764ZM367.815 191.953L368.803 191.795C367.865 185.933 366.654 180.095 365.113 174.248L364.146 174.502L363.179 174.757C364.702 180.536 365.9 186.31 366.828 192.111L367.815 191.953ZM364.146 174.502L365.113 174.247C339.537 77.331 240.261 19.468 143.31 45.0066L143.565 45.9737L143.82 46.9407C239.702 21.6833 337.885 78.9089 363.18 174.758L364.146 174.502ZM143.565 45.9737L143.31 45.0066C46.36 70.5453 -11.5267 169.808 14.0061 266.736L14.9731 266.482L15.9401 266.227C-9.31122 170.367 47.9371 72.198 143.82 46.9407L143.565 45.9737ZM14.9731 266.482L14.0061 266.736C16.7067 276.988 20.2775 286.824 24.5526 296.146L25.4616 295.729L26.3706 295.312C22.1416 286.091 18.6104 276.364 15.9401 266.227L14.9731 266.482ZM25.4616 295.729L25.9741 296.588C46.9466 284.071 70.7005 271.884 96.5796 260.527L96.1777 259.611L95.7759 258.696C69.8286 270.083 46 282.307 24.9491 294.87L25.4616 295.729ZM96.1777 259.611L97.1011 259.227C95.338 254.986 93.7336 250.635 92.5379 246.096L91.5709 246.351L90.6039 246.605C91.8309 251.263 93.4713 255.706 95.2543 259.995L96.1777 259.611ZM91.5709 246.351L92.5379 246.096C78.4285 192.533 110.425 137.665 164.001 123.552L163.746 122.585L163.491 121.618C108.848 136.013 76.213 191.974 90.6039 246.605L91.5709 246.351ZM163.746 122.585L164.001 123.552C217.576 109.44 272.452 141.424 286.561 194.986L287.528 194.732L288.495 194.477C274.104 139.846 218.135 107.224 163.491 121.618L163.746 122.585ZM287.528 194.732L286.561 194.986C287.167 197.287 287.593 199.595 288.026 201.945L289.009 201.764L289.993 201.583C289.562 199.244 289.123 196.862 288.495 194.477L287.528 194.732ZM289.009 201.764L289.182 202.749C316.473 197.97 342.922 194.755 367.853 193.006L367.783 192.008L367.713 191.011C342.711 192.765 316.193 195.988 288.837 200.779L289.009 201.764Z" fill="#005A45" mask="url(#path-5-inside-2_983_395)"/>
<mask id="path-7-inside-3_983_395" fill="white">
<path d="M338.742 322.04C301.952 328.762 262.874 337.896 225.532 350.099C186.012 363.014 153.803 376.556 126.78 389.705C160.47 402.217 198.15 404.863 235.51 395.022C279.336 383.478 315.08 356.758 338.687 322.008"/>
</mask>
<path d="M225.532 350.099L225.222 349.148L225.222 349.148L225.532 350.099ZM126.78 389.705L126.342 388.806L124.24 389.829L126.432 390.642L126.78 389.705ZM338.742 322.04L338.562 321.056C301.74 327.784 262.617 336.928 225.222 349.148L225.532 350.099L225.843 351.049C263.131 338.864 302.164 329.74 338.921 323.024L338.742 322.04ZM225.532 350.099L225.222 349.148C185.657 362.078 153.405 375.637 126.342 388.806L126.78 389.705L127.217 390.604C154.2 377.474 186.368 363.95 225.843 351.049L225.532 350.099ZM126.78 389.705L126.432 390.642C160.307 403.224 198.198 405.885 235.765 395.989L235.51 395.022L235.255 394.055C198.101 403.842 160.632 401.21 127.128 388.767L126.78 389.705ZM235.51 395.022L235.765 395.989C279.833 384.381 315.777 357.511 339.514 322.57L338.687 322.008L337.86 321.446C314.383 356.004 278.838 382.574 235.255 394.055L235.51 395.022Z" fill="#005A45" mask="url(#path-7-inside-3_983_395)"/>
<mask id="path-9-inside-4_983_395" fill="white">
<path d="M44.055 327.388C60.8185 350.158 82.5873 368.501 107.365 381.18C138.542 364.246 191.385 343.599 227.927 331.885C268.361 318.915 300.8 309.767 338.887 304.094C235.125 292.273 130.973 304.863 44.0436 327.344"/>
</mask>
<path d="M107.365 381.18L106.91 382.07L107.379 382.31L107.843 382.059L107.365 381.18ZM227.927 331.885L228.232 332.838L228.233 332.838L227.927 331.885ZM338.887 304.094L339.034 305.084L339 303.101L338.887 304.094ZM44.055 327.388L43.2497 327.981C60.1062 350.877 81.9954 369.321 106.91 382.07L107.365 381.18L107.821 380.29C83.1793 367.68 61.5307 349.438 44.8603 326.795L44.055 327.388ZM107.365 381.18L107.843 382.059C138.943 365.166 191.721 344.541 228.232 332.838L227.927 331.885L227.622 330.933C191.049 342.656 138.141 363.325 106.888 380.301L107.365 381.18ZM227.927 331.885L228.233 332.838C268.648 319.873 301.027 310.744 339.034 305.084L338.887 304.094L338.74 303.105C300.573 308.789 268.074 317.957 227.622 330.933L227.927 331.885ZM338.887 304.094L339 303.101C235.092 291.262 130.814 303.871 43.7932 326.376L44.0436 327.344L44.294 328.313C131.132 305.855 235.159 293.283 338.774 305.088L338.887 304.094Z" fill="#005A45" mask="url(#path-9-inside-4_983_395)"/>
</g>
</g>
<defs>
<clipPath id="clip0_983_395">
<rect width="361" height="361" fill="white" transform="translate(-31 91.9575) rotate(-14.7576)"/>
</clipPath>
</defs>
</svg>
