<svg width="594" height="596" viewBox="0 0 594 596" fill="none" xmlns="http://www.w3.org/2000/svg">
<path d="M289.541 43.7483L287.743 42.8496L286.395 43.7483L285.646 45.6955L283.998 45.9951L282.649 45.2462L279.503 44.7968L277.106 44.3475H274.11L273.361 43.7483L272.312 45.0964L270.664 47.1934C270.664 47.1934 271.263 48.8411 271.863 48.8411C272.462 48.8411 273.211 50.3389 273.66 50.9381C274.11 51.5372 273.81 53.4845 273.81 53.4845L271.263 53.6342L268.567 53.3347L267.069 52.2862L261.975 53.1849L260.177 54.3832L258.829 53.4845L257.331 52.436L254.934 52.1364L252.536 52.5857L251.188 54.6827L250.439 55.881L247.892 57.0793L246.544 57.6785L245.196 58.5772L236.207 58.727L236.057 62.0223L234.708 64.4189L232.761 65.9167L230.364 66.5159L228.716 66.6657L228.266 81.6443L228.716 85.6886L229.315 88.5345L230.514 91.8298C230.514 91.8298 232.461 95.1251 233.06 95.1251C233.66 95.1251 236.057 96.4732 236.057 96.4732C236.057 96.4732 237.405 100.667 238.004 101.266C238.604 101.865 239.802 105.311 239.802 105.311C239.802 105.311 241.3 107.258 241.9 107.707C242.499 108.157 243.997 107.857 245.345 108.157C246.694 108.456 251.338 108.007 251.937 108.456C252.536 108.905 254.784 110.104 254.784 110.104L258.229 112.65L235.607 177.658L233.959 179.305C233.959 179.305 233.959 181.552 234.559 181.702C235.158 181.852 237.855 184.847 237.855 184.847L240.252 187.543C240.252 187.543 241.45 189.94 241.75 190.539C242.049 191.138 243.847 193.385 243.847 193.385C243.847 193.385 245.645 195.632 246.244 196.231C246.844 196.83 248.491 198.777 248.941 199.526C249.39 200.275 249.84 200.874 249.99 201.923C250.139 202.971 248.791 206.417 248.791 206.417C248.791 206.417 248.641 207.765 248.641 208.663C248.641 209.562 249.091 211.659 249.091 211.659L260.627 224.091L352.463 231.581L361.602 230.532L363.55 229.484L364.748 225.14L365.048 220.946L368.344 218.25C368.344 218.25 372.089 215.404 372.539 214.805C372.988 214.205 374.486 211.959 374.486 211.959C374.486 211.959 375.685 210.011 376.434 208.813C377.183 207.615 377.333 206.417 377.483 205.817C377.632 205.218 377.932 203.421 377.932 202.372C377.932 201.324 377.632 200.425 377.333 199.077C377.033 197.729 376.734 196.381 376.734 196.381L375.985 194.583L377.932 187.094L380.179 184.847L382.726 184.248L385.423 182.9L387.221 179.155L389.168 176.759L391.715 173.913C391.715 173.913 392.464 170.168 392.464 169.569C392.464 168.97 392.314 165.525 392.314 165.525L390.517 163.578L387.97 162.379L386.172 162.229L385.423 161.63L386.322 156.987L389.917 153.991L393.962 151.295L398.607 147.55L401.603 144.105L407.146 139.762L409.543 137.664L414.337 131.373L416.285 128.977L417.483 122.836C417.483 122.836 418.382 119.84 418.682 119.241C418.982 118.642 418.682 115.945 418.682 115.945L420.63 112.201L421.978 109.055L421.828 104.711L423.776 101.117V99.0196C423.776 99.0196 421.678 97.6715 421.079 97.5217C420.48 97.3719 417.783 95.8741 417.783 95.8741L414.487 95.7243C414.487 95.7243 413.738 94.3762 412.09 94.3762C410.442 94.3762 407.446 94.3762 407.446 94.3762L404.15 94.0766L400.255 92.5787L398.457 92.2792L395.61 93.6273L394.112 95.1251L392.165 96.0238C392.165 96.0238 390.217 97.0723 390.367 97.9711C390.517 98.8698 389.168 101.117 389.168 101.117L387.071 101.716L387.67 105.61L388.719 108.606L384.973 112.201L382.427 114.448H377.932L376.734 113.998L374.786 114.448L373.288 117.593L370.591 119.99L371.19 115.796L373.138 111.003L372.539 110.254L370.891 111.003L368.194 112.201H365.348L363.55 110.403C363.55 110.403 365.348 108.906 366.246 108.906C367.145 108.906 369.992 107.857 369.992 107.857C369.992 107.857 373.288 106.209 374.337 105.91C375.385 105.61 378.531 104.861 378.531 104.861L381.678 103.813L383.625 99.9183C383.625 99.9183 383.775 98.72 385.273 97.3719C386.771 96.0238 387.82 95.5745 387.82 94.0766C387.82 92.5787 387.82 90.9311 387.37 90.0324C386.921 89.1336 385.872 87.0367 385.872 87.0367C385.872 87.0367 384.524 85.6886 383.925 85.6886C383.325 85.6886 381.378 85.6886 380.629 85.6886C379.88 85.6886 377.333 84.9397 377.333 84.9397C377.333 84.9397 375.835 83.7413 374.786 83.8911C373.737 84.0409 372.389 83.7413 371.939 84.4903C371.49 85.2392 369.393 85.6886 369.393 85.6886C369.393 85.6886 366.846 86.8868 366.097 86.4375C365.348 85.9881 363.849 85.6886 363.849 85.6886L360.703 85.0894L358.606 83.5915L355.16 84.4903L352.314 87.3362L350.216 91.2307L349.617 95.7243L349.767 99.3191L351.265 101.866L354.261 106.209L358.007 106.808L361.003 107.707L363.25 109.804L360.703 110.853L358.306 113.249C358.306 113.249 356.958 115.646 356.359 114.298C355.759 112.95 353.962 110.403 353.962 110.403C353.962 110.403 352.613 108.756 352.014 108.007C351.415 107.258 349.917 106.509 349.917 105.161C349.917 103.813 349.917 102.764 349.917 102.764L347.22 100.218L345.572 99.9183L341.077 101.266C341.077 101.266 340.179 101.716 339.28 102.914C338.381 104.112 335.085 106.659 335.085 106.659C335.085 106.659 332.987 106.958 332.388 106.659C331.789 106.359 330.441 104.412 330.441 104.412C330.441 104.412 328.793 103.663 329.991 103.064C331.19 102.465 332.688 102.165 332.688 102.165C332.688 102.165 333.287 102.315 333.287 100.817C333.287 99.3192 333.287 98.8698 333.287 98.8698L330.89 97.9711C330.89 97.9711 329.991 97.6715 329.392 97.3719C328.793 97.0724 327.294 95.874 326.995 94.526C326.695 93.1779 326.246 90.4817 326.246 90.4817C326.246 90.4817 326.246 90.1822 325.497 88.0852C324.748 85.9881 323.699 84.1907 323.699 84.1907L321.452 83.1422L319.055 82.2435C319.055 82.2435 317.407 82.0937 317.407 80.1465C317.407 78.1992 317.257 76.5516 317.257 76.5516C317.257 76.5516 316.208 73.5558 316.208 72.6571C316.208 71.7584 315.908 70.2605 315.908 70.2605L314.111 68.0137C314.111 68.0137 313.811 68.9125 313.212 66.9653C312.613 65.018 312.013 63.8197 312.013 63.8197C312.013 63.8197 310.815 62.3219 309.616 61.4231C308.418 60.5244 306.47 59.7755 306.47 59.7755L305.272 59.3261L301.976 56.0308C301.976 56.0308 300.028 54.8325 299.279 54.8325C298.53 54.8325 295.234 53.784 294.635 53.4845C294.035 53.1849 291.039 52.8853 291.039 52.2862C291.039 51.687 289.691 49.59 289.691 49.59V47.1934L291.039 45.0964L289.541 43.7483Z" fill="white" stroke="#D9D9D9" stroke-width="1.5"/>
<path d="M290.09 44.5791L289.042 46.9757L289.191 49.3723C289.191 49.3723 289.491 51.1697 290.24 51.4693C290.989 51.7689 293.086 52.5178 293.086 52.5178L297.281 54.1655L300.278 55.6633L303.424 57.311C303.424 57.311 304.622 58.0599 305.371 58.9586C306.12 59.8574 308.218 60.9059 308.817 61.3552C309.416 61.8046 310.465 63.3024 310.465 63.3024L313.911 68.545L316.158 72.739C316.158 72.739 316.308 75.2854 316.458 76.3339C316.608 77.3824 317.506 80.0785 317.506 80.0785C317.506 80.0785 319.005 81.4266 319.604 81.876C320.203 82.3253 322.45 83.973 322.45 83.973L326.346 90.264L326.945 94.1585L329.941 97.6036L333.237 98.5023H336.084C336.084 98.5023 336.383 95.0572 337.132 94.0087C337.881 92.9602 342.076 86.6691 342.076 86.6691C342.076 86.6691 345.672 83.6734 346.121 83.5236C346.571 83.3739 347.919 80.6777 349.118 79.6292C350.316 78.5807 351.964 75.1356 351.964 75.1356L359.005 68.9943C359.005 68.9943 361.552 65.3995 362.151 64.9501C362.751 64.5007 366.646 61.6548 366.646 61.6548C366.646 61.6548 367.095 58.5093 366.346 57.7603C365.597 57.0114 363.05 54.0157 363.05 54.0157C363.05 54.0157 361.402 52.2182 360.653 52.2182C359.904 52.2182 357.657 52.8174 356.458 52.0684C355.26 51.3195 353.462 49.9714 353.462 49.9714C353.462 49.9714 351.515 47.5749 351.365 46.9757C351.215 46.3766 349.567 42.9315 349.567 42.9315L348.968 39.037L348.219 35.4421C348.219 35.4421 347.17 33.0456 347.17 31.8473C347.17 30.649 347.47 26.9043 347.47 26.9043C347.47 26.9043 346.72 24.9571 346.421 23.4592C346.121 21.9614 346.421 21.512 345.971 20.3137C345.522 19.1154 344.623 17.9171 343.874 17.318C343.125 16.7188 342.526 15.9699 341.926 15.3707C341.327 14.7716 339.679 12.0754 339.679 12.0754C339.679 12.0754 338.63 12.9741 338.63 13.5733C338.63 14.1724 338.031 18.5163 338.031 18.5163L338.181 20.4635L335.484 24.0584L333.387 25.8558L330.091 28.4022L329.492 32.4464L327.394 36.0413L325.597 38.4379C325.597 38.4379 325.297 36.3409 324.847 39.037C324.398 41.7332 322.75 43.231 322.75 43.8302C322.75 44.4293 321.252 48.4736 321.252 48.4736L319.005 49.3723L316.158 48.0242C316.158 48.0242 314.66 47.2753 313.911 46.6761C313.162 46.077 311.664 45.6276 311.664 45.6276C311.664 45.6276 310.165 45.7774 310.165 46.3766C310.165 46.9757 308.218 48.4736 308.218 48.4736L305.371 50.1212C305.371 50.1212 304.173 50.8702 303.124 50.1212C302.075 49.3723 299.978 47.2753 299.978 47.2753C299.978 47.2753 297.881 45.4778 296.832 44.7289C295.783 43.98 293.686 44.1297 293.686 44.1297H292.188L290.09 44.5791Z" fill="#FAFAFA" stroke="#D9D9D9" stroke-width="1.5"/>
<path d="M363.207 226.84L363.416 221.627L365.501 218.917L369.046 215.998L371.966 213.287L375.928 206.824C375.928 206.824 375.302 205.781 376.137 204.113C376.971 202.445 376.971 202.654 376.971 200.986C376.971 199.318 376.345 197.65 376.345 197.65L374.885 194.314L375.928 190.144L376.554 185.974L378.639 184.097L383.435 183.263C383.435 183.263 383.853 182.429 384.687 180.97C385.521 179.51 386.981 177.634 386.981 177.634L389.066 175.34C389.066 175.34 390.109 174.715 390.526 173.464C390.943 172.213 391.151 169.502 391.151 169.502L391.569 166.166V163.873L389.483 163.456L387.189 161.579L386.981 160.12L390.109 158.452L393.862 159.077L398.867 161.996L401.996 162.83L401.578 185.557L399.702 187.642C399.702 187.642 397.199 188.893 398.242 189.101C399.285 189.31 400.119 190.978 400.119 190.978L400.744 193.271L399.076 194.522L399.493 196.816L403.664 199.943L409.503 202.654L412.005 202.237L414.299 201.194H416.385V203.279L415.968 205.364L413.674 207.658L410.754 212.036L409.086 216.623L408.252 218.291C408.252 218.291 410.963 219.125 411.38 219.751C411.797 220.376 413.048 222.67 413.048 222.67L414.299 223.504L415.551 225.797L414.299 227.674L414.925 230.176L417.636 233.929L420.556 235.597L423.892 238.933L423.058 241.018L418.887 246.647L415.551 252.485L416.593 254.779C416.593 254.779 417.428 256.655 418.679 257.072C419.93 257.489 419.721 256.447 420.139 257.489C420.556 258.532 420.556 261.659 420.556 261.659C420.556 261.659 419.304 264.161 419.304 265.204C419.304 266.246 419.096 267.706 420.139 268.123C421.181 268.54 421.598 270.416 421.598 270.416L420.556 272.293L419.93 276.254L416.385 276.463L413.257 277.714L411.171 278.548L409.294 280.007L406.375 281.467L403.455 283.135L400.953 282.092L399.076 280.633L397.199 279.173L396.991 283.343H393.028L390.317 281.467L388.023 281.258L385.938 282.092L383.644 280.007L381.559 277.714L379.89 275.629L379.265 275.42L378.222 276.463H376.345L375.511 275.42L374.885 276.254L373.217 280.633L371.34 282.092L361.33 275.629L359.245 273.752L359.036 271.459L357.785 269.374L356.325 271.25L354.865 274.795L352.989 275.003L351.946 266.246L352.154 255.196L351.737 250.4L354.24 248.107L355.491 243.937L356.117 237.682L358.202 232.886L359.87 231.01L361.956 229.342L363.207 226.84Z" fill="white" stroke="#D9D9D9" stroke-width="1.5"/>
<path d="M95.2139 244.843L95.3545 243.578L96.4792 242.172L97.7444 241.047L98.7285 239.923H101.118L102.665 239.361L103.368 239.08H106.179L107.726 238.236C107.726 238.236 108.007 236.55 108.007 236.128C108.007 235.706 109.975 233.879 109.975 233.879L110.819 232.474L109.835 231.068L62.1767 208.72L56.9751 205.206L54.7258 204.924L48.8213 203.941L43.0574 202.816L37.8558 201.692C37.8558 201.692 32.373 200.708 31.6701 200.427C30.9671 200.146 26.7496 199.021 26.7496 199.021L18.8769 196.069L14.3783 193.68L11.426 193.118L7.77083 191.009L5.09974 189.182L3.27215 191.009L2.14748 192.415L1.58514 194.523L2.0069 197.475L4.25624 200.567V203.8C4.25624 203.8 4.25624 205.908 4.81857 206.471C5.38091 207.033 7.34908 209.141 7.34908 209.141C7.34908 209.141 9.03609 211.109 9.59842 211.531C10.1608 211.952 12.4101 213.92 12.4101 213.92L14.2377 215.326L17.4711 217.434L17.3305 218.84L15.2218 220.105L12.9724 221.932L14.0971 222.916L16.2059 222.494L18.5958 222.916L19.861 223.197L25.3438 223.478L26.8902 225.165V226.851V232.474L31.6701 232.192L33.6382 232.755L34.3412 233.317C34.3412 233.317 35.1847 233.176 35.747 233.457C36.3093 233.739 37.5746 233.739 38.5587 233.739C39.5428 233.739 41.2298 233.036 41.2298 233.036L43.0574 231.63L45.0255 231.068L46.2908 229.662L47.556 227.695L49.5242 225.305L51.4924 224.181L53.32 223.759L54.4446 224.883L54.0229 227.414L54.1635 231.068L52.6171 234.02L52.3359 236.831L52.4765 239.642L51.4924 241.469L49.946 244.561C49.946 244.561 51.9141 246.108 52.4765 246.108C53.0388 246.108 54.3041 246.81 54.8664 247.373C55.4287 247.935 57.1157 250.043 57.1157 250.043L59.6462 250.746L60.3492 248.778L63.0202 248.075L64.9884 247.794L68.3624 247.513L70.0494 246.81L71.7364 246.67L73.8452 246.81L74.5481 248.216L76.0945 249.621L78.4845 250.043C78.4845 250.043 80.1715 250.184 81.015 250.184C81.8585 250.184 83.5455 249.481 83.5455 249.481L84.9513 247.935L86.2166 246.529L87.0601 245.124L87.9036 243.296L88.8877 242.875L89.5906 242.453V242.875L89.7312 243.015L89.1688 242.031L89.45 242.172" fill="#FAFAFA"/>
<path d="M95.2139 244.843L95.3545 243.578L96.4792 242.172L97.7444 241.047L98.7285 239.923H101.118L102.665 239.361L103.368 239.08H106.179L107.726 238.236C107.726 238.236 108.007 236.55 108.007 236.128C108.007 235.706 109.975 233.879 109.975 233.879L110.819 232.474L109.835 231.068L62.1767 208.72L56.9751 205.206L54.7258 204.924L48.8213 203.941L43.0574 202.816L37.8558 201.692C37.8558 201.692 32.373 200.708 31.6701 200.427C30.9671 200.146 26.7496 199.021 26.7496 199.021L18.8769 196.069L14.3783 193.68L11.426 193.118L7.77083 191.009L5.09974 189.182L3.27215 191.009L2.14748 192.415L1.58514 194.523L2.0069 197.475L4.25624 200.567V203.8C4.25624 203.8 4.25624 205.908 4.81857 206.471C5.38091 207.033 7.34908 209.141 7.34908 209.141C7.34908 209.141 9.03609 211.109 9.59842 211.531C10.1608 211.952 12.4101 213.92 12.4101 213.92L14.2377 215.326L17.4711 217.434L17.3305 218.84L15.2218 220.105L12.9724 221.932L14.0971 222.916L16.2059 222.494L18.5958 222.916L19.861 223.197L25.3438 223.478L26.8902 225.165V226.851V232.474L31.6701 232.192L33.6382 232.755L34.3412 233.317C34.3412 233.317 35.1847 233.176 35.747 233.457C36.3093 233.739 37.5746 233.739 38.5587 233.739C39.5428 233.739 41.2298 233.036 41.2298 233.036L43.0574 231.63L45.0255 231.068L46.2908 229.662L47.556 227.695L49.5242 225.305L51.4924 224.181L53.32 223.759L54.4446 224.883L54.0229 227.414L54.1635 231.068L52.6171 234.02L52.3359 236.831L52.4765 239.642L51.4924 241.469L49.946 244.561C49.946 244.561 51.9141 246.108 52.4765 246.108C53.0388 246.108 54.3041 246.81 54.8664 247.373C55.4287 247.935 57.1157 250.043 57.1157 250.043L59.6462 250.746L60.3492 248.778L63.0202 248.075L64.9884 247.794L68.3624 247.513L70.0494 246.81L71.7364 246.67L73.8452 246.81L74.5481 248.216L76.0945 249.621L78.4845 250.043C78.4845 250.043 80.1715 250.184 81.015 250.184C81.8585 250.184 83.5455 249.481 83.5455 249.481L84.9513 247.935L86.2166 246.529L87.0601 245.124L87.9036 243.296L88.8877 242.875L89.5906 242.453V242.875L89.7312 243.015L89.1688 242.031L89.45 242.172" stroke="#D9D9D9" stroke-width="1.5"/>
<path d="M92.6831 245.405L91.699 244.561L90.9961 243.718L89.1685 242.594" fill="white"/>
<path d="M92.6831 245.405L91.699 244.561L90.9961 243.718L89.1685 242.594" stroke="#D9D9D9" stroke-width="1.5"/>
<path d="M165.242 47.4236L168.113 51.0492L169.322 56.0343L174.912 64.494L175.366 67.0621L175.517 70.2345L175.668 76.2771L175.366 81.5644L175.517 85.9453L176.575 89.873L176.726 92.1389L180.352 96.822L184.431 100.448L186.547 99.6922L187.907 97.5773L188.813 95.3113L190.173 92.4411L193.044 89.2687L194.404 88.5134L197.123 88.9666L199.843 89.873L201.656 92.5921L205.283 93.6496L207.851 92.1389L208.002 88.5134L208.153 87.0027L210.269 85.9453L212.384 83.6793L212.837 81.2623L213.442 78.8452L215.859 77.4856L218.126 77.3346H220.392H222.205L223.565 78.8452L226.889 79.2984L228.853 78.5431L228.702 82.4707L229.609 85.7942L230.062 89.2687L231.875 92.7432L233.991 94.2538L236.408 95.9156L237.163 98.1816L238.221 99.6922L239.883 102.714L240.79 104.828L241.847 106.792L253.633 107.094L256.504 109.209L259.223 111.929L236.106 176.736L234.595 179.002L235.804 182.627L237.768 184.44L240.79 187.159L241.999 190.483L240.79 191.842L240.336 196.223L238.826 202.568V207.402L236.71 212.991L232.026 213.898L228.551 212.991L226.436 215.559L191.08 214.955L186.698 213.596L185.036 212.689L182.769 211.934L181.107 211.481L179.294 210.574L176.726 209.215L174.761 207.553L172.797 205.589L170.833 203.625L169.624 201.964L168.415 201.208L161.465 201.661L160.71 202.115L158.896 203.625L157.234 205.74L156.479 207.704L151.644 207.553V209.517L150.435 212.085L149.831 213.596L142.729 217.825L141.067 218.43L139.707 218.279L137.139 219.638L135.93 221.451L135.326 222.962L133.21 224.472L131.397 224.774L129.886 226.285L126.562 226.436L126.109 226.738L122.18 223.717L116.892 222.962L115.381 224.17L114.021 226.285L112.51 228.098L110.848 230.062L110.093 230.968L60.0805 207.855L56.7564 205.74L52.6769 205.136L47.6907 204.078L43.1579 202.87L36.6608 202.115L32.2791 200.604L26.8397 199.244L23.0623 197.885L18.2273 195.77L14.4499 194.259L8.7083 191.993L6.59298 190.634L5.08203 188.972L5.23313 187.612L5.53531 185.497L6.29079 184.138L9.01049 183.08L11.1258 182.627L12.6368 182.023L13.0901 179.304V174.016L12.939 169.938C12.939 169.938 12.4857 167.521 13.3922 167.067C14.2988 166.614 15.6587 164.499 15.6587 164.499L16.7163 161.025L18.5295 159.665L20.6448 157.701L23.2134 155.738L26.5375 154.076L31.5236 151.659C31.5236 151.659 33.0346 150.45 34.2433 150.45C35.4521 150.45 38.1718 149.846 38.1718 149.846L40.8915 148.335H43.1579C43.1579 148.335 44.6688 147.58 45.2732 147.429C45.8776 147.278 46.9353 146.674 46.9353 146.674L48.5973 145.465L58.7206 145.767C58.7206 145.767 59.325 143.048 59.7783 142.293C60.2316 141.537 60.9871 138.214 60.9871 138.214L62.6491 134.286L64.3112 129.15L64.9155 124.769L67.7863 117.971L68.6929 113.741L69.5995 111.475C69.5995 111.475 68.9951 93.4985 68.9951 92.8943C68.9951 92.29 67.7863 89.1177 67.7863 89.1177L65.5199 87.3049L62.0447 86.3985L60.3827 83.9814L60.9871 80.3558L59.6272 78.6941L59.4761 76.7303V73.1047L62.498 72.8026L64.9155 71.5941L67.3331 70.5366L69.1462 69.7813L71.4126 70.5366L72.4703 71.8962L74.1323 71.443L74.8878 70.3855L74.4345 65.4004C74.4345 65.4004 73.679 64.3429 72.9236 64.3429C72.1681 64.3429 69.7506 64.3429 69.1462 64.3429C68.5418 64.3429 62.8002 64.494 62.8002 64.494L63.1024 54.8258L85.9177 55.4301L86.9754 53.1641L88.3352 51.6534L89.2418 51.8045L90.4505 53.1641L90.7527 54.8258L91.6593 55.5811L92.717 55.4301L93.4724 54.5236L94.2279 53.4662L94.8323 52.4087L96.7965 50.596L97.7031 48.9342L98.7607 48.0278L99.9695 48.7832L100.423 50.747L101.027 53.1641L101.178 54.5236L103.143 54.9769L103.747 55.8833L104.351 57.696L104.502 59.962L104.351 61.9259L103.143 63.7387L103.596 64.9472L104.653 65.4004L106.769 64.9472L107.978 63.1344L110.093 63.2855L111.453 65.4004L111.755 67.2132L112.813 69.4791L128.98 69.6302L130.34 67.8174H133.664L135.175 66.911L138.196 64.7961L141.218 62.228L143.183 60.5663L145.298 58.7535L146.809 57.8471L149.377 56.4875L149.982 55.1279L150.435 53.013L151.946 51.2002L154.061 50.1428L155.572 48.9342L159.501 49.5385H161.918L163.883 48.9342L165.242 47.4236Z" fill="#FAFAFA" stroke="#D9D9D9" stroke-width="1.5"/>
<path d="M139.91 15.2176L140.773 16.5982L140.946 17.6336V18.4965V19.7045L141.809 20.3948L142.326 21.2576L143.017 22.1205H144.225H145.433L146.469 22.6382L146.814 23.5011L147.505 24.3639L148.713 24.7091L149.058 25.917V26.9525L148.885 28.1605L148.54 30.5765L148.022 31.0942L147.677 31.9571L147.505 33.6828L147.677 35.4085L147.332 35.9262L146.296 37.1342L145.951 38.3422L146.124 40.0679L146.296 42.1388L147.159 43.8645L148.368 45.2451L150.094 45.7628L151.302 46.4531L153.718 46.6256L155.444 46.2805H157.17L158.724 45.2451L159.759 44.8999L161.486 45.0725L162.866 45.5902L163.902 47.4885L164.938 48.8691L166.146 49.5593L167.182 50.9399L167.527 53.3559L168.217 55.4268L169.253 57.6702L170.461 58.7056L171.842 60.4314L172.187 61.8119L172.877 62.8474L173.74 64.5731L175.121 65.6085L175.294 86.4897L175.984 87.18L176.157 88.388L176.33 90.6314L176.675 92.012L177.883 93.22L178.573 95.4634L179.782 95.9811L180.99 97.5343L182.198 99.26L183.579 100.123L184.615 100.641L186.168 100.123L187.204 99.26L188.067 97.3617L188.239 95.2908L189.448 93.5651L189.965 92.012L191.174 90.8039L192.037 89.9411L193.59 88.9057H194.971L196.697 89.0782L197.905 89.7685H199.631L200.322 91.3217L201.53 92.1845L201.875 93.22L203.083 93.7377L203.946 94.0828L205.845 93.5651L207.398 92.8748L208.261 91.1491V89.4234L208.089 88.0428V86.8348L209.642 86.3171L211.023 85.2817L211.886 84.4188L212.404 83.2108L212.922 81.6577L212.749 79.932L213.44 79.0691L214.13 78.0337L215.856 77.5159L218.618 77.3434L221.897 77.5159L222.415 78.0337L223.796 78.8965H225.004L227.421 79.0691L229.147 78.8965L228.974 65.4359L225.867 62.3296L224.141 60.4314L222.242 58.3605L220.862 57.3251L219.308 55.0816L217.927 54.2188L216.719 49.9045L216.374 47.6611L214.993 46.1079L213.612 44.7274L212.577 43.8645L212.749 39.5502L213.612 36.0988L214.303 33.5102L213.957 30.7491L214.82 28.6782L216.029 27.4702L217.064 26.4348L217.927 24.7091L219.136 23.5011L219.481 21.9479L218.618 20.9125L217.41 19.7045L216.201 18.1513L215.856 15.045L215.683 12.9742L213.094 12.629L210.505 12.8016V11.0759L211.886 9.8679L212.922 8.65989L213.785 6.7616L214.13 5.55361L212.749 3.48276L211.541 1.92961L208.779 1.58447H206.19H204.292L203.083 2.44733L201.53 3.31019L202.048 5.38104L203.083 6.7616L203.429 8.83247L202.911 10.0405L201.875 11.2485H200.322L199.459 13.1468L198.078 12.629H195.489L194.28 11.2485L193.417 10.9033L191.519 11.5936L189.448 12.9742L188.412 14.1822L187.204 15.2176L186.341 16.253L185.823 17.8062L180.645 17.6336L176.157 17.1159L173.913 18.1513L172.705 19.5319L172.187 21.2576L171.324 23.1559L170.116 24.7091L168.908 26.0896H167.527L165.973 25.0542L164.592 23.5011L163.384 22.4656L160.105 22.9833L158.551 22.2931L157.516 21.0851L156.307 21.2576L154.581 22.9833L151.82 22.2931L150.784 20.9125L149.576 19.1867L148.195 18.4965L144.398 18.669L143.017 17.1159L141.809 15.2176L140.255 14.0096L139.91 15.2176Z" fill="#FAFAFA" stroke="#D9D9D9" stroke-width="1.5"/>
<path d="M190.936 215.479L187.883 213.88L183.231 212.572L181.05 211.409L177.27 210.101L174.799 208.211L172.909 206.322L170.292 204.141L168.693 202.397L167.239 200.798L162.296 201.525L160.842 201.67L158.952 203.124L157.353 205.014L156.335 206.467L155.899 208.066L153.282 207.485L151.538 207.63L150.666 209.956L149.502 212.863L147.613 215.479L143.687 217.078L140.925 218.967L139.18 218.241L137.291 219.113L135.546 220.566L134.964 222.747L132.784 224.345L130.748 225.072L128.713 226.526L125.805 226.09L123.043 225.654L121.444 224.055L118.973 223.037H116.501L114.611 224.345L113.157 226.09L110.686 229.287L109.668 231.177C109.668 231.177 109.959 232.776 110.686 232.776C111.413 232.776 112.576 233.212 113.157 233.067C113.739 232.921 114.757 231.758 114.757 231.758C114.757 231.758 115.193 230.45 115.774 230.45C116.356 230.45 118.1 229.578 118.827 229.578C119.554 229.578 120.426 229.287 121.008 229.287C121.589 229.287 121.735 228.561 124.206 229.142C126.678 229.724 126.096 229.433 127.114 229.433C128.132 229.433 128.858 229.433 129.44 229.433C130.021 229.433 131.475 229.723 131.475 229.723L131.621 232.631C131.621 232.631 131.039 234.811 131.039 235.392C131.039 235.974 130.167 238.299 130.312 238.881C130.458 239.462 130.603 241.933 130.603 242.805C130.603 243.677 130.603 245.712 130.603 245.712L130.312 249.201C130.312 249.201 130.748 250.364 131.33 251.526C131.911 252.689 132.202 253.707 132.929 254.143C133.656 254.579 133.801 257.777 133.801 257.777C133.801 257.777 134.238 258.939 134.383 259.521C134.528 260.102 135.11 261.556 135.691 261.992C136.273 262.428 137.581 263.881 137.581 263.881L139.326 264.899C139.326 264.899 139.326 266.498 140.198 267.224C141.07 267.951 141.507 268.678 141.507 268.678C141.507 268.678 141.652 269.114 142.233 269.405C142.815 269.695 142.67 269.986 143.687 270.277C144.705 270.568 144.996 270.568 145.723 270.713C146.449 270.858 147.322 270.858 147.613 271.44C147.903 272.021 149.066 272.021 149.066 272.021L151.102 270.713L152.41 269.841C152.41 269.841 153.428 269.695 154.009 269.695C154.591 269.695 152.701 268.387 154.882 269.841C157.062 271.294 158.225 273.039 158.225 273.039L159.824 273.62C159.824 273.62 161.424 273.039 162.151 272.748C162.877 272.457 163.75 272.021 163.75 272.021L164.331 272.893L166.076 274.347C166.076 274.347 166.367 275.364 166.948 275.51C167.53 275.655 169.856 277.544 169.856 277.544C169.856 277.544 170.583 278.271 171.164 278.562C171.746 278.853 173.49 280.451 173.49 280.451C173.49 280.451 174.653 280.742 175.671 280.888C176.689 281.033 178.869 280.888 178.869 280.888C178.869 280.888 180.178 280.742 180.469 281.469C180.759 282.196 180.759 282.632 181.05 283.213C181.341 283.795 182.795 284.376 182.795 284.376L183.958 284.667C183.958 284.667 185.993 285.393 186.429 286.12C186.865 286.847 187.592 287.428 187.592 287.428C187.592 287.428 188.028 287.719 188.61 287.428C189.191 287.138 190.064 285.975 190.645 285.975C191.227 285.975 192.971 285.539 192.971 285.539L195.007 286.266L196.897 286.702C196.897 286.702 197.042 286.992 197.769 287.428C198.496 287.864 201.258 287.864 201.258 287.864L203.875 285.684L206.346 282.777L208.236 278.998L208.527 276.672L210.562 274.637C210.562 274.637 210.417 273.184 211.144 273.184C211.871 273.184 213.325 270.568 213.615 269.986C213.906 269.405 215.069 269.405 215.069 267.66C215.069 265.916 214.488 263.881 214.488 263.881L213.325 262.137L212.452 258.939L212.016 257.05L213.615 255.16C213.615 255.16 214.633 253.561 214.488 252.98C214.342 252.398 213.906 250.945 213.906 250.945C213.906 250.945 213.325 249.782 212.307 249.491C211.289 249.201 209.399 249.055 209.399 249.055L206.201 249.201C206.201 249.201 204.892 248.329 204.166 248.183C203.439 248.038 200.531 247.456 200.531 247.456L197.187 247.311C197.187 247.311 196.46 246.294 195.879 245.858C195.297 245.422 194.28 244.985 193.553 244.259C192.826 243.532 191.081 242.078 191.081 242.078C191.081 242.078 189.628 240.625 189.918 240.044C190.209 239.462 189.191 236.846 189.191 236.846L189.628 233.793L191.227 230.886L191.663 227.252L192.244 224.927V222.456L191.227 220.13L190.645 218.095L190.936 216.787V215.479Z" fill="#FAFAFA" stroke="#D9D9D9" stroke-width="1.5"/>
<path d="M549.099 215.741L548.119 216.098L546.782 217.078L544.554 219.929L543.841 221.266L542.682 223.316L541.345 221.712L539.83 217.88L540.008 216.721L537.513 216.543L536.176 215.296L534.839 215.207L533.502 215.385L527.619 211.82L525.035 210.84L523.074 210.751L521.291 212.444L518.706 213.603L514.785 215.563L513.27 216.989L511.309 220.019L508.546 222.425L504.802 223.583L502.396 221.89C502.396 221.89 500.524 220.642 500.346 220.286C500.168 219.929 498.563 218.593 498.296 218.236C498.029 217.88 496.603 216.365 496.603 216.365L495.087 214.85C495.087 214.85 494.285 213.603 494.463 213.246C494.642 212.89 494.196 211.909 494.82 211.553C495.444 211.197 497.494 209.949 497.494 209.949L498.742 209.503C498.742 209.503 499.722 208.078 499.989 207.721C500.257 207.365 501.505 206.028 501.683 205.672C501.861 205.315 502.663 203.711 502.842 203.355C503.02 202.998 503.555 201.929 503.555 201.929L503.465 198.097L502.396 194.355C502.396 194.355 502.307 192.483 502.842 192.216C503.376 191.949 504.713 191.681 504.713 191.681L507.744 192.216L515.32 192.751H518.974L521.559 193.374L524.054 196.671L525.837 199.612C525.837 199.612 527.085 199.701 527.798 199.523C528.511 199.345 530.115 198.275 530.739 197.919C531.363 197.563 532.165 196.939 532.7 196.85C533.234 196.761 534.037 197.473 534.037 197.473C534.037 197.473 535.908 197.83 536.354 197.83C536.8 197.83 537.513 197.384 537.958 197.563C538.404 197.741 538.939 198.097 539.563 198.275C540.186 198.454 541.702 198.632 541.702 198.632L544.108 198.721C544.108 198.721 545.98 198.899 546.425 198.543C546.871 198.186 547.852 197.206 548.297 196.85C548.743 196.493 549.634 195.513 550.08 195.157C550.525 194.8 551.506 193.374 551.506 193.374L552.486 192.929L557.032 192.572L559.438 192.751L559.973 193.909L559.527 195.067L557.923 197.206C557.923 197.206 556.319 199.167 556.319 199.612C556.319 200.058 556.764 201.483 556.764 201.483L558.101 202.285L559.438 201.84L565.41 201.216L568.173 199.79L572.897 198.543L575.036 198.008L577.799 197.652L580.473 195.959L583.236 194.265L586.355 191.057L588.583 189.275L590.901 187.493L591.346 188.028L592.416 190.879L592.238 195.424L591.168 201.394V206.563L591.079 209.147L589.653 211.82L588.762 214.226L586.979 216.276L585.286 217.167C585.286 217.167 584.038 217.078 583.949 217.523C583.86 217.969 581.364 218.415 581.364 218.415L580.384 218.326L578.512 216.9C578.512 216.9 577.71 215.919 577.264 216.098C576.818 216.276 575.838 216.187 575.214 216.9C574.59 217.613 573.075 217.702 572.362 218.147C571.649 218.593 569.866 218.949 569.777 219.484C569.688 220.019 568.44 220.91 568.084 221.534C567.727 222.157 566.569 222.603 565.945 223.316C565.321 224.029 563.003 224.118 563.003 224.118H560.419L557.745 222.959L555.517 221.177C555.517 221.177 555.249 221.266 554.893 220.553C554.536 219.84 553.645 218.86 553.645 218.86L552.13 218.236L550.971 217.078L550.347 216.365L549.099 215.741Z" fill="#FAFAFA" stroke="#D9D9D9" stroke-width="1.5"/>
<path d="M470.665 162.973L472.521 158.023L473.346 157.198L474.171 153.898L472.521 150.392L472.109 147.092L472.521 145.03L473.965 142.555L476.234 139.874L477.059 136.78C477.059 136.78 477.059 135.336 477.884 134.718C478.71 134.099 480.979 132.861 480.979 132.861L484.279 131.83L486.342 129.974C486.342 129.974 486.548 128.736 487.373 127.293C488.198 125.849 487.58 125.024 488.405 125.024C489.23 125.024 491.499 126.055 491.499 126.055L494.181 127.087L494.593 129.768C494.593 129.768 493.355 131.624 493.355 132.243C493.355 132.861 491.705 134.099 491.705 134.924C491.705 135.749 491.705 138.224 491.705 138.224C491.705 138.224 492.737 140.08 493.974 141.523C495.212 142.967 496.45 145.03 496.45 145.03L497.687 149.361C497.687 149.361 497.069 151.011 497.687 152.66C498.306 154.31 497.275 156.785 497.894 158.023C498.513 159.26 498.513 161.941 498.513 162.766C498.513 163.591 498.306 163.798 498.719 165.241C499.131 166.685 498.719 168.129 499.338 169.572C499.956 171.016 500.575 172.666 500.988 173.697C501.4 174.728 501.813 175.76 502.019 177.822C502.226 179.884 502.432 180.916 502.844 181.741C503.257 182.566 503.463 182.566 504.288 182.978C505.114 183.39 506.145 183.39 506.764 184.422C507.383 185.453 507.589 187.309 507.589 187.309L506.764 189.578L505.114 191.021C505.114 191.021 503.67 193.084 503.67 193.909C503.67 194.734 504.701 199.065 504.701 199.065L505.32 202.571C505.32 202.571 505.32 203.396 504.495 204.633C503.67 205.871 502.226 208.139 502.226 208.139L499.75 211.646C499.75 211.646 497.894 211.646 497.481 212.47C497.069 213.295 495.831 214.12 495.831 214.12L492.324 214.533L490.055 216.595L487.992 218.864L485.723 221.958L482.629 224.433H479.535L478.297 226.701L476.44 227.939L474.171 228.764L468.808 225.876L466.333 224.433H463.238L460.35 224.639L459.113 228.145V232.27L458.907 236.188L456.844 240.313L453.956 242.994L450.243 243.407L447.767 243.819L444.673 246.088L440.547 247.944L436.009 246.5L433.534 244.232L430.852 241.757L427.964 239.694H424.664L425.489 239.488C425.489 239.488 426.108 238.869 426.933 237.838C427.758 236.807 427.139 235.363 428.171 234.332C429.202 233.301 429.408 232.476 429.821 231.651C430.233 230.826 430.027 229.795 430.027 229.795C430.027 229.795 428.583 228.764 428.583 227.114C428.583 225.464 427.345 224.639 427.345 222.989C427.345 221.339 427.139 219.07 427.139 219.07L427.345 215.977L428.583 213.502L431.884 207.108L433.328 199.684L435.184 196.796L439.104 195.146L442.61 194.115L447.148 192.465L450.655 189.578C450.655 189.578 453.337 186.897 454.162 186.278C454.987 185.659 456.431 184.422 457.669 184.422C458.907 184.422 461.176 184.422 461.176 184.422L463.238 186.69C463.238 186.69 463.857 186.278 464.889 185.865C465.92 185.453 465.508 184.628 467.158 184.628C468.808 184.628 470.458 183.803 470.458 183.803C470.458 183.803 472.521 183.39 473.14 182.566C473.759 181.741 472.521 180.916 472.315 179.266C472.109 177.616 471.283 177.203 471.283 176.172C471.283 175.141 470.046 172.46 470.046 172.46L469.221 169.985L467.983 165.86L470.665 162.973Z" fill="white" stroke="#D9D9D9" stroke-width="1.5"/>
<path d="M564.03 242.705L565.455 241.707L566.596 240.71L567.951 239.712C567.951 239.712 568.236 238.928 567.879 238.571C567.523 238.215 566.382 237.217 566.382 237.217L565.313 236.362L564.457 235.578L562.746 233.938L560.893 232.584L559.467 231.23L557.685 229.804C557.685 229.804 556.259 228.735 555.974 228.521C555.689 228.307 554.548 227.666 554.049 227.31C553.55 226.953 552.338 226.526 551.982 226.454C551.625 226.383 549.7 225.528 549.7 225.528L548.132 225.171L546.635 224.957L545.565 224.672L544.924 225.029L544.354 226.24C544.354 226.24 544.14 227.523 544.282 227.809C544.425 228.094 544.14 230.303 544.14 230.303L544.567 231.158C544.567 231.158 544.567 232.014 545.209 232.299C545.851 232.584 546.706 233.796 546.706 233.796L547.633 234.58L548.274 236.077C548.274 236.077 548.203 236.789 548.061 237.431C547.918 238.072 547.276 239.284 547.276 239.284L546.564 241.066L545.922 242.349C545.922 242.349 544.639 242.705 544.353 242.777C544.068 242.848 543.569 242.206 542.643 243.204C541.716 244.202 541.145 244.558 541.145 244.558L540.789 245.841C540.789 245.841 540.433 247.267 540.504 247.837C540.575 248.407 540.789 250.474 540.789 250.474L541.573 251.258L543.142 252.684C543.142 252.684 544.14 253.967 544.282 254.323C544.425 254.68 544.354 255.107 544.995 255.678C545.637 256.248 547.063 256.248 547.063 256.248L549.486 257.388" fill="black"/>
<path d="M564.03 242.705L565.455 241.707L566.596 240.71L567.951 239.712C567.951 239.712 568.236 238.928 567.879 238.571C567.523 238.215 566.382 237.217 566.382 237.217L565.313 236.362L564.457 235.578L562.746 233.938L560.893 232.584L559.467 231.23L557.685 229.804C557.685 229.804 556.259 228.735 555.974 228.521C555.689 228.307 554.548 227.666 554.049 227.31C553.55 226.953 552.338 226.526 551.982 226.454C551.625 226.383 549.7 225.528 549.7 225.528L548.132 225.171L546.635 224.957L545.565 224.672L544.924 225.029L544.354 226.24C544.354 226.24 544.14 227.523 544.282 227.809C544.425 228.094 544.14 230.303 544.14 230.303L544.567 231.158C544.567 231.158 544.567 232.014 545.209 232.299C545.851 232.584 546.706 233.796 546.706 233.796L547.633 234.58L548.274 236.077C548.274 236.077 548.203 236.789 548.061 237.431C547.918 238.072 547.276 239.284 547.276 239.284L546.564 241.066L545.922 242.349C545.922 242.349 544.639 242.705 544.353 242.777C544.068 242.848 543.569 242.206 542.643 243.204C541.716 244.202 541.145 244.558 541.145 244.558L540.789 245.841C540.789 245.841 540.433 247.267 540.504 247.837C540.575 248.407 540.789 250.474 540.789 250.474L541.573 251.258L543.142 252.684C543.142 252.684 544.14 253.967 544.282 254.323C544.425 254.68 544.354 255.107 544.995 255.678C545.637 256.248 547.063 256.248 547.063 256.248L549.486 257.388" stroke="white" stroke-width="1.5"/>
<path d="M547.49 256.675L549.7 257.459L552.195 257.816C552.195 257.816 553.122 257.673 553.692 257.103C554.262 256.533 555.046 255.107 555.189 254.751C555.332 254.395 556.33 252.185 556.472 251.686C556.615 251.187 557.185 249.191 557.185 249.191L558.397 247.837L559.752 246.768L561.605 245.129L562.603 243.632L564.029 242.563L564.457 242.278L565.027 241.921L566.881 240.424C566.881 240.424 567.879 240.139 567.807 239.498C567.736 238.856 567.665 238.286 567.308 238.001C566.952 237.716 565.383 236.362 565.027 236.219C564.671 236.076 562.033 234.508 562.033 234.508C562.033 234.508 561.177 233.511 560.678 233.012C560.179 232.513 558.611 231.23 558.611 231.23L556.472 229.804L553.549 227.808L550.912 226.811C550.912 226.811 548.773 226.027 547.917 225.955C547.062 225.884 545.351 225.456 545.351 225.456C545.351 225.456 544.496 226.312 544.638 226.811C544.781 227.309 545.137 229.234 545.137 229.234L545.28 231.016C545.28 231.016 545.494 232.798 546.135 233.012C546.777 233.225 547.276 234.009 547.561 234.223C547.846 234.437 547.917 236.504 547.917 236.504L547.561 238.928L546.705 240.282L545.494 242.278L544.068 242.919L540.717 244.273L540.361 246.34C540.361 246.34 540.218 248.692 540.289 249.049C540.361 249.405 540.004 249.833 541.145 250.831C542.285 251.829 543.355 253.539 543.783 254.109C544.21 254.68 544.923 255.036 545.494 255.392C546.064 255.749 547.49 256.675 547.49 256.675Z" fill="#FAFAFA" stroke="#D9D9D9" stroke-width="1.5"/>
<path d="M543.708 222.271L544.778 219.687L547.006 216.835L549.056 215.944L551.997 217.014L555.651 219.152C555.651 219.152 554.671 219.42 556.008 220.311C557.345 221.202 558.414 222.093 558.414 222.093C558.414 222.093 560.464 222.717 560.821 222.806C561.177 222.895 562.158 222.895 562.782 222.984C563.406 223.073 565.812 222.182 565.812 222.182C565.812 222.182 567.595 221.202 567.951 221.113C568.308 221.024 569.377 219.687 569.377 219.687L571.071 218.439L573.299 217.103L575.705 216.39L577.221 216.033C577.221 216.033 578.825 216.39 579.181 216.746C579.538 217.103 581.677 217.548 581.677 217.548C581.677 217.548 582.479 217.103 583.014 217.103C583.549 217.103 585.331 216.301 585.331 216.301C585.331 216.301 586.936 215.231 587.292 215.231C587.649 215.231 588.807 214.073 588.807 214.073L589.075 214.964L586.312 215.588L586.846 217.103L587.025 218.796L584.797 221.469L582.747 223.608L580.697 224.945L579.538 225.836L578.201 228.242C578.201 228.242 576.508 230.291 576.597 230.737C576.686 231.182 576.597 232.163 576.508 232.519C576.419 232.876 575.082 234.301 575.082 234.301L573.655 236.618L572.229 237.242L570.447 239.024L568.04 239.202C568.04 239.202 566.169 237.064 565.723 236.886C565.277 236.707 562.96 235.371 562.96 235.371L560.821 233.232L558.86 231.45L556.275 229.311L553.423 227.707L550.839 226.727L547.986 225.836L545.58 225.39L544.689 224.588L543.708 222.271Z" fill="#FAFAFA" stroke="#D9D9D9" stroke-width="1.5"/>
<path d="M537.024 199.013L538.717 198.657L539.965 199.102C539.965 199.102 540.678 199.726 541.124 199.726C541.57 199.726 544.243 199.815 544.243 199.815L546.293 199.726C546.293 199.726 547.006 199.37 547.987 198.924C548.967 198.479 549.68 197.409 549.68 197.409L550.304 196.518L551.552 195.003L552.443 193.667C552.443 193.667 555.028 193.399 555.563 193.399C556.097 193.399 559.484 193.667 559.484 193.667L559.573 194.558C559.573 194.558 558.682 195.36 558.504 195.805C558.326 196.251 556.543 198.657 556.543 198.657C556.543 198.657 555.919 200.083 556.097 200.528C556.276 200.974 556.276 201.241 556.543 201.865C556.81 202.489 556.9 202.934 557.256 203.201C557.613 203.469 558.147 203.38 558.95 203.291C559.752 203.201 559.128 202.934 560.554 202.756C561.98 202.578 561.445 202.399 562.871 202.489C564.297 202.578 565.367 202.043 565.723 202.043C566.08 202.043 567.239 201.597 567.773 201.33C568.308 201.063 568.308 200.439 569.288 200.439C570.269 200.439 570.625 199.993 571.962 199.904C573.299 199.815 573.299 199.37 574.28 199.37C575.26 199.37 575.617 199.102 576.508 199.102C577.399 199.102 577.756 198.657 578.38 198.568C579.003 198.479 579.895 197.855 580.608 197.409C581.321 196.964 581.945 196.162 582.301 195.894C582.658 195.627 583.816 194.736 584.173 194.469C584.529 194.201 586.045 192.865 586.045 192.865L586.847 191.795L588.095 190.726C588.095 190.726 588.719 189.656 589.075 189.478C589.432 189.3 590.323 188.498 590.323 188.498L592.105 187.785C592.105 187.785 591.392 186.181 591.036 185.468C590.679 184.755 589.966 183.686 589.966 182.617C589.966 181.547 589.699 180.745 589.699 180.745C589.699 180.745 589.788 180.032 588.986 179.23C588.184 178.428 587.292 177.359 587.292 177.359L586.847 176.824L581.41 176.914L579.984 177.716L578.29 179.141L577.221 179.854L575.617 180.3L574.191 179.23L572.051 177.626L571.517 176.468L569.912 176.735L568.575 177.626L567.417 178.518C567.417 178.518 567.595 180.211 567.595 180.567C567.595 180.924 567.06 184.31 567.06 184.31L565.723 185.379L563.406 185.557L561.534 183.953C561.534 183.953 560.999 183.151 560.554 183.151C560.108 183.151 556.365 182.706 556.365 182.706C556.365 182.706 554.582 182.706 554.226 182.438C553.869 182.171 553.513 181.28 553.513 181.28L556.9 176.914L557.434 175.131C557.434 175.131 558.326 173.973 557.791 173.973C557.256 173.973 557.256 173.616 556.454 173.616C555.652 173.616 555.384 173.527 554.85 173.527C554.315 173.527 553.334 173.527 553.334 173.527L550.928 174.597C550.928 174.597 549.324 175.577 548.789 175.577C548.254 175.577 546.472 177.092 546.472 177.092L544.6 178.072L542.639 178.963L541.124 178.696L539.43 178.161L538.361 177.003L537.024 176.735L536.578 177.092L535.063 179.587L534.885 182.795L534.439 184.844L533.726 186.538L533.013 188.32C533.013 188.32 533.013 190.815 533.459 190.993C533.904 191.171 534.439 193.221 534.439 193.221L534.528 194.647L533.815 196.073L532.657 197.053L532.568 197.142L533.102 197.766L534.528 198.478L536.044 198.924L537.024 199.013Z" fill="white" stroke="#D9D9D9" stroke-width="1.5"/>
<path d="M424.092 99.5378L422.451 101.178L421.045 103.99V107.037L420.107 109.614L418.935 112.895L417.529 115.473V118.519L416.357 122.503L415.888 125.783L415.185 128.361L413.076 131.173L410.498 133.985L408.388 137.5L406.513 138.437L404.169 140.546L401.357 142.421L399.013 144.999L396.435 148.045L394.091 149.685L391.278 151.091L389.169 153.669L386.591 155.544L384.95 158.122L384.481 159.762L384.716 161.871H387.06L389.169 160.699L391.747 159.528L394.794 159.762C394.794 159.762 398.544 162.105 399.482 162.34C400.419 162.574 401.357 163.746 401.357 163.746L400.888 185.539L398.779 188.116L397.607 189.522L399.716 191.397L398.779 194.443L399.013 197.49L402.763 200.302L406.513 202.177L410.498 203.582L413.31 203.114L415.888 202.177V203.817L414.482 205.926L409.795 210.378L407.919 217.408L411.201 219.752C411.201 219.752 412.138 219.986 413.076 221.626C414.013 223.267 414.248 224.438 414.248 224.438L414.482 226.079L415.185 232.171L417.998 234.983L421.982 236.858C421.982 236.858 422.451 238.498 423.857 238.967C425.264 239.436 426.435 238.498 426.435 238.498L428.311 233.577L429.951 229.828L428.076 225.141L427.139 218.58V214.596C427.139 214.596 430.42 210.613 430.889 209.441C431.357 208.269 432.529 201.474 432.529 201.474L434.17 197.255L437.451 195.381L442.373 193.037L446.123 192.803L449.17 191.163L451.983 188.351L454.092 186.242L455.967 184.836L458.78 184.133L460.655 185.07L462.061 186.242L464.874 185.304L466.046 184.601L468.39 184.133L471.671 183.195L473.312 180.618L467.686 165.62L470.733 162.105L472.14 158.825L474.015 155.544L474.483 152.029L472.374 147.811L472.14 144.764L473.312 142.187L475.421 140.078L477.53 135.86L479.405 132.813L483.859 130.47L485.968 129.064L487.14 125.549C487.14 125.549 488.312 124.143 487.374 124.143C486.437 124.143 483.624 124.143 483.624 124.143C483.624 124.143 481.749 123.44 480.812 124.377C479.874 125.315 477.765 125.549 477.765 125.549L475.421 122.737C475.421 122.737 471.905 120.862 470.733 120.159C469.561 119.456 468.39 118.285 467.218 118.285C466.046 118.285 463.468 118.519 462.53 118.753C461.593 118.988 458.311 120.628 458.311 120.628L455.733 121.565L452.452 122.737L450.342 124.612L448.702 126.955L447.061 128.83L444.952 131.876C444.952 131.876 443.545 130.939 444.014 130.001C444.483 129.064 445.655 123.909 445.655 123.909L446.358 120.862L445.889 117.816L444.014 116.41L445.889 113.598L446.827 111.489L443.78 109.146L438.389 105.631C438.389 105.631 438.623 104.459 436.983 105.631C435.342 106.802 434.404 107.037 434.404 107.037L433.233 104.928L430.42 102.116L428.076 100.475L426.201 99.5378H424.092Z" fill="white" stroke="#D9D9D9" stroke-width="1.5"/>
<path d="M556.238 155.356L552.731 156.181L550.874 157.83L548.811 158.862L547.161 159.687L546.336 162.368L544.892 164.636L543.448 168.967L541.385 171.442L539.941 174.33L537.672 176.598L539.529 178.867L542.623 179.692L546.13 178.042L550.049 175.567L552.318 174.536L554.587 173.917L556.856 174.536L556.444 176.392L554.587 178.455L552.731 180.929L553.556 182.992C553.556 182.992 554.381 183.198 555.206 183.404C556.031 183.611 558.094 183.611 558.094 183.611L560.776 183.817L563.045 186.086L564.695 186.91L567.583 185.261C567.583 185.261 567.996 185.054 568.202 183.404C568.408 181.754 567.996 178.867 567.996 178.867L569.233 177.836L571.296 177.63L571.915 179.073L575.009 181.136L577.691 180.723L579.341 179.486C579.341 179.486 582.435 177.423 583.467 177.63C584.498 177.836 585.736 177.63 585.736 177.63L588.417 177.836L588.005 174.742L586.973 169.792L585.53 164.843L583.673 162.162C583.673 162.162 582.229 160.305 580.785 160.305C579.341 160.305 576.659 159.068 576.659 159.068H571.915L568.202 157.418H566.552L561.807 155.768C560.652 154.877 561.605 154.277 558.34 153.096C557.54 152.953 556.964 155.547 556.278 155.364" fill="#FAFAFA"/>
<path d="M556.238 155.356L552.731 156.181L550.874 157.83L548.811 158.862L547.161 159.687L546.336 162.368L544.892 164.636L543.448 168.967L541.385 171.442L539.941 174.33L537.672 176.598L539.529 178.867L542.623 179.692L546.13 178.042L550.049 175.567L552.318 174.536L554.587 173.917L556.856 174.536L556.444 176.392L554.587 178.455L552.731 180.929L553.556 182.992C553.556 182.992 554.381 183.198 555.206 183.404C556.031 183.611 558.094 183.611 558.094 183.611L560.776 183.817L563.045 186.086L564.695 186.91L567.583 185.261C567.583 185.261 567.996 185.054 568.202 183.404C568.408 181.754 567.996 178.867 567.996 178.867L569.233 177.836L571.296 177.63L571.915 179.073L575.009 181.136L577.691 180.723L579.341 179.486C579.341 179.486 582.435 177.423 583.467 177.63C584.498 177.836 585.736 177.63 585.736 177.63L588.417 177.836L588.005 174.742L586.973 169.792L585.53 164.843L583.673 162.162C583.673 162.162 582.229 160.305 580.785 160.305C579.341 160.305 576.659 159.068 576.659 159.068H571.915L568.202 157.418H566.552L561.807 155.768C560.652 154.877 561.605 154.277 558.34 153.096C557.54 152.953 556.964 155.547 556.278 155.364" stroke="#D9D9D9" stroke-width="1.5"/>
<path d="M494.148 126.482L492.91 129.369L491.054 131.431L490.435 134.938L490.847 137.619L492.085 140.3L493.529 142.981L495.385 146.9L496.417 152.881V157.212L496.829 161.336C496.829 161.336 496.829 163.605 497.036 164.43C497.242 165.255 497.655 167.524 497.655 167.524L499.099 173.505L500.13 177.63L501.161 180.311L503.43 183.198L505.081 184.435L505.493 186.292L504.462 189.798L503.018 192.066L502.812 192.479L503.018 192.891H504.049L503.637 193.098L503.843 193.51H504.049L504.668 193.098L503.43 192.685L504.874 192.891L510.238 193.304C510.238 193.304 515.188 193.51 516.014 193.51C516.839 193.51 520.345 193.51 520.345 193.51L522.408 194.335L523.646 197.222L525.915 200.935C525.915 200.935 526.946 200.935 527.978 200.935C529.009 200.935 530.866 198.872 530.866 198.872C530.866 198.872 532.31 197.222 533.341 197.016C534.373 196.81 534.785 195.573 534.785 195.573L536.023 194.129L534.579 191.86L533.754 188.767C533.754 188.767 533.96 186.704 534.785 185.673C535.61 184.642 535.404 180.104 535.404 180.104L537.261 177.011L540.974 173.917L542.624 171.236L544.274 167.936L547.987 159.687L552.525 156.799L555.826 155.974L556.651 155.149L553.35 151.231L549.431 148.549C549.431 148.549 546.956 146.9 546.131 146.487C545.306 146.075 540.561 143.6 540.561 143.6L538.498 141.125C538.498 141.125 537.054 138.856 535.817 138.237C534.579 137.619 528.803 134.113 528.803 134.113L525.296 131.431L519.933 127.925L515.188 126.688L510.031 123.801L506.937 124.007L505.081 126.069L501.574 126.275L497.242 126.069L494.148 126.482Z" fill="white" stroke="#D9D9D9" stroke-width="1.5"/>
<path d="M433.706 243.215L431.437 240.74L428.136 238.884H424.836L422.36 239.915L421.123 243.421L417.203 248.164L415.347 251.671L415.553 253.114L417.41 256.414L418.854 257.652L420.298 259.095L419.266 260.539L418.854 265.282L419.266 267.139L420.71 269.201V271.47L419.885 274.976L419.266 277.863L420.091 290.856V293.744L422.979 296.631L423.598 301.581L424.217 306.118L424.423 308.593L427.724 310.243L433.5 308.593L438.038 305.293L443.195 300.756L446.083 298.487C446.083 298.487 448.146 298.075 449.177 298.075C450.208 298.075 452.89 297.662 452.89 297.662L454.54 297.044L455.778 296.012L457.222 295.187L458.872 296.012L457.428 297.662L456.603 299.312L457.635 304.262L460.935 305.293L463.617 303.85L466.505 302.612L470.218 304.262L473.518 306.737L475.994 309.831L477.85 311.687L482.182 311.481L486.101 313.13L490.64 316.43L494.765 320.968C494.765 320.968 494.765 322.205 495.59 322.205C496.415 322.205 501.366 321.38 501.366 321.38H504.46L507.555 321.793L512.299 324.267L514.981 326.742L514.568 328.805L511.474 330.661L509.824 333.961L508.999 337.467L506.317 342.004L503.842 344.685L508.38 350.254L509.617 351.904L513.124 355.616L517.044 358.504L519.106 359.122L520.757 356.441L522.613 351.079L523.851 344.273L525.501 338.704L527.564 333.136L528.389 329.011L529.627 323.649L530.658 319.936L531.896 317.255L529.833 314.78L530.246 295.394L529.214 294.569V292.506L527.77 290.031C527.77 290.031 526.12 289 526.945 289C527.77 289 528.802 287.969 528.802 287.969C528.802 287.969 530.246 287.763 529.42 286.319C528.595 284.875 527.976 283.638 527.976 283.638L530.039 282.4L531.277 280.338L533.34 278.482C533.34 278.482 534.165 276.832 533.34 276.626C532.515 276.419 531.277 276.007 531.277 276.007L531.071 274.976L532.721 273.532L533.134 272.088L535.196 271.263L537.259 271.47L537.878 273.12L538.909 275.182L540.353 276.419L542.622 273.738L544.479 270.851L546.542 268.995L547.367 266.726L548.811 264.045L550.049 260.745L552.111 258.889L552.73 257.652L548.605 257.239L545.098 254.764L543.654 252.702L541.179 249.814L541.385 247.133V244.452L543.86 243.627L546.336 243.008L547.78 240.533C547.78 240.533 547.986 238.677 548.605 237.852C549.223 237.027 549.223 234.965 549.223 234.965L547.161 233.521L545.304 231.046V227.54V224.24L542.829 221.972L540.972 218.672C540.972 218.672 541.591 216.197 539.941 216.403C538.291 216.609 535.609 214.341 535.609 214.341L533.752 214.96L531.483 213.103L527.77 211.041L525.501 210.01L523.645 210.216L521.582 211.866L518.075 213.722L513.537 216.197L511.887 218.672L509.617 221.353L508.173 222.384L505.079 223.209L502.604 221.147C502.604 221.147 501.16 220.528 500.747 219.703C500.335 218.878 498.685 217.022 498.685 217.022L496.622 214.96L495.178 213.31L493.94 212.897L488.577 215.578L484.864 220.528L482.595 222.59L480.944 222.178L478.263 223.415L476.819 225.478L475.375 227.128L473.312 226.509C473.312 226.509 472.281 226.303 471.455 225.89C470.63 225.478 468.98 224.24 468.98 224.24L467.742 223.415L465.68 223.622L462.998 223.209L461.554 222.59L459.285 223.828L458.047 225.89L457.841 233.521L456.603 237.44L455.572 239.502L452.478 241.771H448.558L446.495 242.802L445.464 243.421L442.989 245.69L440.101 246.721L436.594 245.69L434.944 243.833L433.706 243.215Z" fill="white" stroke="#D9D9D9" stroke-width="1.5"/>
<path d="M364.413 276.78L361.593 275.088L360.465 274.186L360.013 272.832V270.125L358.434 268.434H357.532L356.065 270.689L355.162 272.945L354.147 275.088L352.681 275.765L352.568 278.698L352.793 281.405L352.455 284.112L351.665 285.578L350.311 287.721L350.199 289.3L349.86 291.669L348.845 293.022L347.604 294.263C347.604 294.263 347.491 295.955 347.717 296.632C347.942 297.308 347.83 299.113 347.83 299.677C347.83 300.241 347.491 302.158 347.491 302.158C347.491 302.158 346.476 303.399 346.476 303.85C346.476 304.301 345.009 305.768 345.009 305.768L342.979 306.783L341.061 308.475L340.271 309.49L338.692 312.761L337.789 316.821L335.871 319.077L334.405 320.431L332.261 320.769L326.057 328.552L325.831 330.243L323.8 332.95L322.334 334.417L319.288 337.688L318.047 339.38L317.031 341.861L317.37 344.568L317.596 348.741L316.693 351.11L315.001 353.817L313.873 355.509L322.221 362.276L325.267 364.194C325.267 364.194 328.651 364.532 329.554 364.983C330.456 365.434 333.615 366.224 333.615 366.224C333.615 366.224 336.435 367.239 337.451 367.916C338.466 368.593 341.174 370.172 341.625 370.397C342.076 370.623 344.896 372.766 345.348 373.217C345.799 373.668 349.07 375.022 349.07 375.022L349.635 374.571L350.311 372.766L353.019 370.961L355.952 369.269L357.419 367.803L358.208 366.224L359.224 364.532L360.577 363.291H361.706L364.413 362.84L366.895 362.276L368.813 361.712L370.505 360.923L371.972 361.374L373.213 362.163C373.213 362.163 374.341 363.179 374.792 363.179C375.243 363.179 375.807 363.066 375.807 363.066L377.838 359.795L379.756 358.441L383.591 357.652L387.427 358.216L388.668 359.344C388.668 359.344 390.699 359.682 391.714 359.908C392.729 360.133 394.76 360.133 394.76 360.133L395.775 360.02L397.355 361.036L400.513 359.795L403.221 357.652L405.703 354.494L406.154 352.463L406.493 350.208L407.169 348.628L406.718 346.711L405.477 344.794L405.252 343.214L407.169 341.635L407.621 337.913C407.621 337.913 407.169 335.77 406.38 335.206C405.59 334.642 403.559 332.048 403.559 332.048L401.754 328.326L400.739 326.972L400.884 327.253L406.267 327.311L407.734 324.265L409.539 323.138L411.795 321.22C411.795 321.22 412.02 319.303 411.682 318.626C411.344 317.949 410.215 314.453 410.215 314.453L410.892 311.858L413.938 309.715L414.728 307.685L415.743 305.204L415.969 303.737L419.579 306.219L422.625 307.911L424.768 308.475L424.204 297.985L422.061 294.94L420.481 292.684V276.103H416.082L414.051 276.329L412.02 277.57L409.426 278.81L406.831 280.728C406.831 280.728 405.477 281.405 405.026 281.63C404.575 281.856 402.77 282.533 402.77 282.533L401.078 280.953C401.078 280.953 400.288 279.713 399.498 279.487C398.708 279.262 398.144 279.487 398.144 279.487C398.144 279.487 397.242 280.389 397.242 280.841C397.242 281.292 397.016 282.307 397.016 282.307L396.001 283.66L393.97 283.097L392.052 281.63C392.052 281.63 390.247 280.277 389.796 280.277C389.345 280.277 388.555 280.389 388.555 280.389L387.766 280.953L386.637 281.517L384.945 280.277C384.945 280.277 383.93 279.374 383.817 278.923C383.704 278.472 382.463 276.103 382.463 276.103C382.463 276.103 381.786 274.637 381.11 274.637C380.433 274.637 379.643 274.637 379.643 274.637L378.289 276.103L377.612 275.201L376.597 274.976L375.018 275.427L373.777 277.119L372.987 279.036L371.746 281.066L369.941 279.826L367.798 278.923L366.218 278.021L364.413 276.78Z" fill="white" stroke="#D9D9D9" stroke-width="1.5"/>
<path d="M386.973 327.335H404.928L406.825 326.702L406.951 324.427L407.836 323.795L407.71 322.278L407.33 320.382L407.204 318.233L405.181 316.842C405.181 316.842 402.146 315.578 401.64 315.578C401.135 315.578 396.709 315.704 396.709 315.704L392.79 315.831L392.537 317.348L388.491 316.968L386.721 316.589L386.594 318.991L384.824 320.255L385.203 322.784V324.68L386.468 324.806L386.847 325.818L386.973 327.335Z" fill="white" stroke="#D9D9D9" stroke-width="1.5"/>
<path d="M314.5 354.959L310.9 353.16L309.46 351.36L308.56 350.281V347.761V344.522V341.823V340.203L306.76 340.563L305.321 341.463L304.601 343.263L303.881 345.242L302.981 347.041L301.901 347.401L299.741 347.941L296.861 347.401L294.701 346.142L292.722 344.342L291.462 345.602L290.202 347.401L286.962 347.761L282.642 346.862L280.663 345.422L279.043 343.622L276.523 342.903L273.283 342.543L271.483 341.643L269.863 340.563L268.963 341.463L265.004 342.903L261.944 343.263L260.324 343.622L258.344 345.782L256.364 346.862L254.025 348.841L250.785 349.021L246.465 349.561L245.385 352.08L247.725 354.419L247.545 358.918L246.285 362.877V366.116L247.185 367.556L247.365 370.615L245.925 373.494L242.506 376.733L240.706 379.433C240.706 379.433 241.246 380.872 241.606 381.592C241.966 382.312 242.686 383.572 243.405 384.111C244.125 384.651 244.845 385.371 244.845 385.371L243.765 388.25L241.786 388.97V391.849L242.326 395.088L242.506 397.788V401.207C242.506 401.207 242.326 402.646 243.405 403.366C244.485 404.086 244.845 404.806 244.845 404.806V407.685L244.665 410.744L243.405 413.443L242.326 415.423L241.966 417.582L244.665 418.302L246.465 416.503L248.445 416.683L250.065 418.122L255.105 419.022L258.884 419.202L261.404 419.022L264.104 417.942L267.884 417.582L270.043 417.942C270.043 417.942 275.263 420.641 276.163 421.181C277.063 421.721 277.963 424.061 277.963 424.061L278.143 428.739V434.318C278.143 434.318 278.863 436.657 279.043 437.377C279.223 438.097 281.382 441.516 281.742 442.236C282.102 442.955 283.902 445.115 283.902 445.115L285.342 446.194L287.862 443.315L290.382 441.516L292.542 440.616L293.981 442.236L295.601 445.655V448.354L296.501 451.233C296.501 451.233 296.321 451.953 297.401 451.593C298.481 451.233 299.021 450.153 299.021 450.153L299.381 447.454C299.381 447.454 298.661 445.655 299.561 444.935C300.461 444.215 301.541 442.236 301.541 442.236L304.781 438.097L306.401 435.217L308.56 432.158L310 428.559L311.8 426.4C311.8 426.4 315.94 424.061 316.66 423.881C317.38 423.701 320.079 421.001 320.079 421.001L324.939 419.022L328.179 415.963L330.159 411.644L333.398 406.785L334.838 404.266L336.278 401.207L338.618 398.148L338.978 394.189L340.058 392.029L343.118 390.05L346.537 388.25L347.977 387.171V383.032L349.057 379.253C349.057 379.253 348.877 377.813 349.057 376.733C349.237 375.654 350.497 375.294 349.237 374.574C347.977 373.854 344.558 371.515 344.558 371.515C344.558 371.515 341.678 369.175 340.958 368.816C340.238 368.456 337.718 367.016 337.718 367.016L334.838 365.397C334.838 365.397 333.578 365.037 332.318 365.037C331.059 365.037 326.739 363.957 326.739 363.957L324.039 363.237L322.779 361.798L319.539 359.278L316.66 356.939L314.5 354.959Z" fill="white" stroke="#D9D9D9" stroke-width="1.5"/>
<path d="M191.559 214.75L226.357 215.565L228.804 212.576L233.154 212.847H236.144L238.319 209.314L239.134 203.334L239.95 199.257L240.222 193.821L241.581 190.831L242.397 191.103L245.387 193.277L247.834 197.354L249.737 200.344L249.465 204.693L248.921 209.586L250.824 212.304L260.611 222.361L266.32 223.176L287.253 225.079L309.818 226.981L333.197 228.612L352.228 230.787H360.111L356.577 238.669L355.49 244.92L354.674 248.182L352.771 251.172L353.043 260.413V269.655L353.315 276.722L353.587 282.158L351.14 287.05L350.325 292.486C350.325 292.486 347.878 294.117 348.422 296.02C348.965 297.923 348.15 302.815 348.15 302.815L345.975 306.348L342.169 308.523C342.169 308.523 339.994 310.154 339.994 311.513C339.994 312.872 338.635 315.862 338.635 315.862L336.46 320.211L332.11 321.57L329.663 324.559L328.032 326.734L324.77 332.985L322.051 335.975L319.333 338.15C319.333 338.15 317.702 339.509 317.702 340.868C317.702 342.227 317.973 345.76 317.973 345.76L318.245 349.837L314.983 354.458L314.167 355.274L310.905 353.371L308.73 350.109L308.458 346.304V340.324L304.924 341.955L303.293 346.576L298.943 348.207L295.137 346.848L292.962 344.401L289.156 347.391L286.982 348.207L282.088 346.848L280.457 345.217L278.554 343.586L276.107 343.314L272.029 342.499L270.67 341.14L269.583 340.868L267.136 343.042L263.33 343.314H260.611L258.98 346.032L255.718 347.663L254.087 349.022L251.912 349.294L247.562 349.566L245.659 348.478L244.3 344.673L241.853 343.314L238.591 340.324L236.144 337.878V332.442L237.775 329.452L238.319 327.006L237.775 325.919L236.144 326.19L233.969 327.549L231.522 328.637L218.473 328.908L216.57 327.278H214.939L213.308 328.908L208.686 328.093L207.599 325.919L207.327 319.939L205.696 316.677L202.705 313.415L204.608 310.426L205.424 305.261L207.599 301.728L206.511 295.476L204.337 290.584L202.162 287.594L205.696 284.332L207.871 282.158L208.686 279.44L208.958 276.178L211.133 274.275L213.036 271.829L215.211 267.752L215.755 265.849L214.939 263.675L214.124 260.957L213.036 258.511L212.764 256.88L213.852 254.977L214.939 253.618V251.716L214.395 250.357L212.492 248.726H210.046H206.783L204.608 248.182C204.608 248.182 201.89 247.91 200.802 247.91C199.715 247.91 197.268 247.095 197.268 247.095L194.55 245.464L191.287 242.746L189.656 240.572L189.384 236.223L190.472 233.233L192.375 228.34L193.19 224.807L192.375 221.545L191.287 219.371V216.109L191.559 214.75Z" fill="white" stroke="#D9D9D9" stroke-width="1.5"/>
<path d="M354.603 369.304L352.833 369.937L350.177 371.833L349.545 372.844V374.488L349.04 376.257L348.66 378.027L348.407 380.303L348.281 382.325L349.04 382.831L350.936 382.705L353.465 381.314L356.373 380.303L357.764 381.187L361.051 382.705L363.327 383.463L365.73 383.589L367.12 383.463L368.132 382.578C368.132 382.578 368.385 382.325 369.143 382.452C369.902 382.578 371.419 382.578 371.419 382.578L373.063 383.084L374.327 384.095L374.201 385.106L374.454 387.508C374.454 387.508 373.695 389.657 374.201 389.784C374.707 389.91 374.707 390.163 375.845 390.289C376.983 390.416 377.615 390.289 378.374 390.037C379.132 389.784 379.132 389.025 379.638 389.025C380.144 389.025 381.408 388.393 382.167 388.393C382.925 388.393 383.178 387.255 383.178 387.255L384.443 386.371L386.592 386.75L391.523 386.623H393.167L394.305 385.359L396.581 383.21L398.73 382.705L400.627 382.831L402.397 383.589L404.167 386.75L404.041 389.278L404.42 391.048L405.179 393.45L405.558 395.472C405.558 395.472 404.799 396.863 404.799 397.369C404.799 397.874 404.673 398.886 404.673 398.886L407.834 404.321L409.731 405.965C409.731 405.965 411.248 406.597 411.88 406.597C412.512 406.597 414.156 406.597 414.156 406.597L415.041 407.988L413.65 410.642L412.133 413.171C412.133 413.171 412.386 415.32 412.639 415.825C412.892 416.331 413.65 418.606 413.65 418.606L414.156 421.261L415.42 424.042C415.42 424.042 417.317 426.318 417.57 426.823C417.823 427.329 420.478 429.984 420.478 429.984L424.018 430.237L426.926 428.973L429.582 427.329L431.605 426.191L436.03 424.548L439.317 423.663L441.467 422.399L442.858 422.272L443.996 420.503L446.145 420.123L449.306 419.618L452.72 418.986L454.743 417.469L457.272 417.216L461.065 416.837C461.065 416.837 468.525 415.193 469.031 415.193C469.537 415.193 473.962 413.55 473.962 413.55L477.249 411.148L479.272 407.482L480.41 403.057L480.537 398.886L483.319 398.127L483.951 396.231L487.744 389.784L492.675 387.003L495.583 382.199L497.227 377.774L498.491 374.74L500.388 370.442L501.905 365.386L504.181 360.835L506.71 358.433L508.607 355.904L509.871 353.25L510.882 352.744L509.239 350.469L507.469 348.446L506.078 346.929C506.078 346.929 504.434 345.286 505.193 344.021C505.951 342.757 507.216 341.24 507.721 340.482C508.227 339.723 509.492 336.563 509.492 336.563L511.009 332.265L512.779 330.621L515.814 328.093C515.814 328.093 516.319 326.703 515.687 326.07C515.055 325.438 513.664 324.174 513.664 324.174L511.767 323.416L508.354 321.393C508.354 321.393 506.963 320.887 506.457 320.761C505.951 320.635 503.928 320.635 503.928 320.635L495.204 320.887L493.181 317.601L489.641 314.946C489.641 314.946 487.997 313.808 487.365 313.303C486.732 312.797 484.583 311.406 484.583 311.406L481.296 310.901L478.008 311.027L475.606 308.499L474.088 306.476L472.445 304.58L470.042 303.569C470.042 303.569 468.146 302.052 467.64 302.052C467.134 302.052 466.376 301.799 465.617 302.178C464.858 302.557 464.353 301.925 463.594 302.81C462.835 303.695 461.95 303.316 461.444 303.948C460.939 304.58 459.295 304.706 459.295 304.706C459.295 304.706 457.904 303.695 458.031 303.189C458.157 302.684 458.031 301.167 458.031 301.167L457.778 298.133L459.548 297.121L459.295 295.604L458.536 294.846L456.008 294.719L454.743 295.352L454.111 296.616L451.835 296.995L449.433 297.121H447.789L446.651 298.133L444.754 298.386C444.754 298.386 443.237 298.638 442.731 299.65C442.226 300.661 440.582 302.052 440.582 302.052L437.927 304.201L435.777 305.97L434.133 307.108L431.225 308.372L429.708 309.004L426.674 309.889L424.018 308.372L420.478 307.487L418.076 305.212L415.926 303.569C415.926 303.569 415.041 306.729 415.041 307.235C415.041 307.74 414.535 309.384 414.535 309.384L412.512 310.774L410.995 311.28C410.995 311.28 409.225 312.67 409.604 313.176C409.984 313.682 410.995 317.221 410.995 317.221L411.754 319.497C411.754 319.497 412.259 319.623 411.88 320.255C411.501 320.887 409.983 322.657 409.983 322.657L408.213 324.174L406.696 324.048L406.443 327.208L401.765 327.714C401.765 327.714 402.018 331.001 402.524 331.253C403.029 331.506 404.42 333.782 404.42 333.782C404.42 333.782 406.443 336.057 406.696 336.816C406.949 337.574 407.202 340.103 407.202 340.103C407.202 340.103 406.822 340.735 406.57 341.24C406.317 341.746 404.294 343.516 404.294 343.516L405.052 345.665L406.443 347.94L406.696 348.32L405.558 350.848L405.305 353.882L403.409 356.41L401.133 358.433L399.615 359.697L396.96 360.203C396.96 360.203 396.454 358.559 395.316 358.938C394.179 359.318 391.523 359.444 391.523 359.444L388.489 358.433C388.489 358.433 388.868 356.916 387.224 357.042C385.581 357.169 382.04 357.421 382.04 357.421L378.626 358.306C378.626 358.306 377.994 358.054 376.983 359.57C375.971 361.087 375.339 362.478 375.339 362.478L373.442 361.846C373.442 361.846 372.557 360.329 371.925 360.329C371.293 360.329 369.649 359.95 369.396 360.708C369.143 361.467 365.477 362.225 364.465 362.478C363.454 362.731 360.672 362.478 360.672 362.478C360.672 362.478 359.028 363.363 359.028 364.121C359.028 364.88 357.258 366.144 357.258 366.144C357.258 366.144 357.637 367.029 357.132 367.661C356.626 368.293 355.614 368.546 355.614 368.546L354.603 369.304Z" fill="white" stroke="#D9D9D9" stroke-width="1.5"/>
<path d="M483.736 398.646L485.682 400.67L488.017 402.382C488.017 402.382 489.107 402.615 489.963 402.693C490.819 402.771 490.975 402.693 492.143 402.771C493.31 402.849 494.167 402.226 494.945 402.304C495.724 402.382 497.28 403.082 497.28 403.082L498.526 404.094L499.46 404.95L500.161 403.549C500.161 403.549 498.837 401.837 499.771 400.981C500.705 400.125 501.328 399.113 501.951 398.802C502.574 398.491 503.43 397.557 503.819 397.323C504.208 397.09 505.687 395.3 505.687 395.3C505.687 395.3 506.154 393.977 506.855 393.354C507.556 392.731 508.412 391.564 508.645 391.175C508.879 390.786 508.723 389.696 509.112 388.84C509.502 387.984 509.735 386.583 509.735 386.583C509.735 386.583 510.202 384.793 510.28 384.171C510.358 383.548 510.28 382.692 510.747 382.069C511.214 381.447 512.46 379.501 512.46 379.501C512.46 379.501 513.939 377.944 514.406 377.4C514.873 376.855 513.004 377.789 515.418 375.843C517.831 373.897 517.441 374.131 517.831 373.82C518.22 373.508 517.909 372.886 518.531 371.718C519.154 370.551 519.232 370.317 518.998 369.695C518.765 369.072 518.064 368.839 517.519 367.593C516.974 366.348 516.741 366.348 516.585 365.414C516.429 364.48 517.052 362.457 517.286 361.834C517.519 361.212 518.687 359.032 518.687 359.032L518.609 358.254L516.974 357.398L514.172 355.452C514.172 355.452 512.615 353.74 512.148 353.662C511.681 353.584 510.202 353.584 510.202 353.584C510.202 353.584 508.801 354.207 508.879 354.752C508.957 355.297 507.789 357.009 507.789 357.009L506.31 358.721L504.753 360.511L503.041 362.69L500.628 368.372L499.771 371.485L498.915 373.975L497.28 376.933L496.268 379.501L495.801 381.291L494.556 383.003L493.155 385.805C493.155 385.805 491.676 387.517 491.442 387.828C491.209 388.14 488.796 389.385 488.796 389.385C488.796 389.385 486.46 390.941 486.382 391.642C486.305 392.342 485.526 393.51 485.215 394.366C484.903 395.222 483.891 396.389 483.891 396.389C483.891 396.389 483.035 396.934 483.191 397.401C483.347 397.868 483.969 398.958 483.969 398.958L483.736 398.646Z" fill="white" stroke="#D9D9D9" stroke-width="1.5"/>
<path d="M442.81 421.713L445.626 423.455L448.173 424.796L449.111 426.136L448.173 427.476L447.771 429.219L448.843 428.817L453.938 429.219L454.608 430.023C454.608 430.023 454.742 431.095 455.546 431.095C456.351 431.095 455.948 430.693 457.557 430.827C459.166 430.961 458.764 430.157 459.568 430.291C460.372 430.425 460.641 430.425 461.847 430.425C463.054 430.425 463.992 429.353 463.992 429.353L466.003 428.817V426.672L467.076 423.991L468.684 423.455C468.684 423.455 469.221 423.991 469.355 424.93C469.489 425.868 469.086 427.074 469.086 427.074L469.489 428.549C469.489 428.549 469.757 428.817 470.829 428.951C471.902 429.085 482.493 428.683 482.493 428.683L482.761 424.662C482.761 424.662 483.699 423.187 484.638 423.187C485.576 423.187 486.38 421.445 486.38 421.445C486.38 421.445 486.917 420.641 490.402 420.104C493.888 419.568 494.558 417.156 494.558 417.156L496.837 415.011L497.91 413.403L496.569 410.856C496.569 410.856 497.374 409.65 497.508 409.114C497.642 408.577 499.116 405.092 499.116 405.092C499.116 405.092 497.105 402.412 496.301 402.412C495.497 402.412 492.949 402.546 492.011 402.546C491.073 402.546 488.794 402.68 487.989 402.144C487.185 401.608 485.174 400.267 485.174 400.267C485.174 400.267 483.833 398.659 483.297 398.659C482.761 398.659 480.616 398.659 480.616 398.659L479.945 405.226L478.471 408.577L477.666 410.99L474.583 412.732L470.829 414.475C470.829 414.475 468.014 415.413 467.478 415.413C466.942 415.413 463.992 415.681 463.992 415.681L458.898 416.754L454.876 416.619L453.133 418.496L447.905 419.702L444.017 420.104L442.81 421.713Z" fill="white" stroke="#D9D9D9" stroke-width="1.5"/>
<path d="M348.564 384.049L347.76 386.73L346.419 388.204L343.604 389.812L341.057 390.617L339.85 391.957C339.85 391.957 338.51 393.833 338.644 394.504C338.778 395.174 338.376 396.916 338.376 396.916L336.633 399.329L335.426 402.144L334.086 404.69C334.086 404.69 332.611 407.103 332.477 407.639C332.343 408.175 331.539 408.577 331.405 409.248C331.271 409.918 329.662 411.794 329.662 411.794L328.455 414.073L327.517 415.681L325.774 417.022L324.031 418.63L321.886 420.105C321.886 420.105 319.741 420.239 319.741 421.177C319.741 422.115 319.071 422.383 319.071 422.383L318.535 423.455L321.886 423.992C321.886 423.992 323.897 424.662 324.567 424.662C325.238 424.662 327.785 423.187 328.321 423.187C328.857 423.187 331.002 422.115 331.673 422.383C332.343 422.651 336.901 424.394 336.901 424.394C336.901 424.394 341.459 425.734 342.8 426.002C344.14 426.27 344.811 426.27 347.224 427.208C349.637 428.147 351.782 428.683 351.782 428.683L354.463 429.487C354.463 429.487 357.547 428.281 358.083 428.683C358.619 429.085 360.898 428.683 361.568 429.085C362.239 429.487 364.518 429.219 364.92 429.889C365.322 430.559 368.942 431.766 368.942 431.766L370.685 433.91L370.282 436.457C370.282 436.457 370.014 438.199 370.282 438.736C370.551 439.272 371.221 440.478 371.489 441.014C371.757 441.55 371.623 443.293 372.025 443.963C372.427 444.633 372.293 444.499 373.098 446.107C373.902 447.716 375.109 448.654 375.243 449.19C375.377 449.726 375.377 452.407 375.377 452.943C375.377 453.479 375.109 454.954 375.109 454.954L376.315 456.696C376.315 456.696 376.583 456.83 377.79 457.098C378.996 457.366 379.399 456.294 379.935 456.294C380.471 456.294 381.678 455.356 381.678 455.356L384.627 455.624L385.431 457.634L385.163 461.387L387.71 462.192L389.855 461.79L392.939 462.996L394.816 461.253L396.693 459.377C396.693 459.377 397.497 457.5 398.167 457.366C398.838 457.232 400.58 455.624 401.519 455.624C402.457 455.624 404.066 454.552 404.066 454.552C404.066 454.552 405.675 452.809 406.479 452.809C407.283 452.809 408.49 451.603 408.49 451.603L410.501 450.665C410.501 450.665 412.512 448.788 413.584 448.386C414.657 447.984 414.255 447.716 415.997 447.046C417.74 446.375 417.874 445.303 418.411 445.035C418.947 444.767 419.215 443.561 420.153 443.293C421.092 443.025 423.103 441.55 423.103 441.55C423.103 441.55 424.443 440.076 425.114 440.076C425.784 440.076 427.125 440.076 427.125 440.076L429.001 440.344C429.001 440.344 429.94 442.354 430.61 442.354C431.28 442.354 432.487 441.55 432.487 441.55L433.157 440.076L434.498 438.601L435.302 438.065L439.324 435.519L443.078 434.982L445.491 433.508L444.955 432.302L443.882 431.095L444.687 429.889L446.429 429.085C446.429 429.085 447.368 428.549 447.904 428.415C448.44 428.281 449.379 427.476 449.379 427.476L449.647 425.734C449.647 425.734 447.77 424.528 447.234 424.394C446.698 424.26 444.016 423.187 444.016 423.187L442.944 422.115H440.397C440.397 422.115 439.056 423.321 438.52 423.723C437.984 424.126 435.168 424.26 435.168 424.26L433.023 425.332L430.878 425.868C430.878 425.868 430.208 425.6 429.806 426.136C429.404 426.672 427.527 427.745 427.527 427.745C427.527 427.745 428.465 427.208 426.991 428.415C425.516 429.621 422.432 430.023 422.432 430.023L420.556 429.487L419.081 427.745L417.74 425.332L416.802 423.723L415.595 421.981L414.255 419.836L413.718 417.826L413.316 415.547L412.512 413.805C412.512 413.805 412.512 412.867 413.182 412.196C413.853 411.526 414.657 410.186 414.657 410.186L415.997 407.907L414.255 406.299L411.708 406.031L409.563 405.227L408.49 403.886L406.881 401.742L405.004 397.855L406.345 395.576L405.943 392.627L404.736 390.349L405.004 388.07C405.004 388.07 405.004 386.864 404.602 386.059C404.2 385.255 403.664 384.451 403.664 384.451L401.653 382.038C401.653 382.038 400.983 382.038 399.508 382.172C398.033 382.306 397.229 381.77 396.424 382.44C395.62 383.111 394.816 383.781 394.816 383.781L393.475 385.791L392.537 386.327H390.258L386.504 386.193L383.957 385.657C383.957 385.657 382.482 386.059 382.75 386.596C383.018 387.132 382.08 388.472 382.08 388.472L379.265 388.204L378.192 389.678L375.109 389.812L374.706 387.266C374.706 387.266 375.109 385.791 375.377 385.255C375.645 384.719 375.377 383.379 375.377 383.379L373.634 382.843C373.634 382.843 373.232 382.172 372.293 382.038C371.355 381.904 369.88 381.904 369.88 381.904L368.137 382.172L367.869 383.513L366.395 383.647H364.384L360.764 382.44C360.764 382.44 358.887 381.904 358.351 381.636C357.815 381.368 356.608 380.296 356.608 380.296L355.268 380.564L354.463 381.636L353.793 381.904L351.648 382.709L350.709 382.843L348.699 383.245L348.564 384.049Z" fill="white" stroke="#D9D9D9" stroke-width="1.5"/>
<path d="M306.922 491.629L309.585 491.472H311.308L312.874 491.942L314.597 492.882C314.597 492.882 316.164 493.038 317.104 493.038C318.044 493.038 319.297 493.038 320.08 493.038C320.863 493.038 323.996 493.038 323.996 493.038L325.876 493.195L327.443 493.821L329.949 494.605L331.515 494.448L334.648 494.918L337.781 496.954L340.131 497.424L341.698 497.894L343.891 499.303L346.71 502.279L350.313 505.098L352.036 507.447L353.29 509.953L355.796 511.519L358.616 513.242H362.062L365.038 513.869C365.038 513.869 364.725 515.122 364.725 515.748C364.725 516.375 363.159 519.037 363.159 519.037L361.749 522.326L361.122 525.302C361.122 525.302 361.592 526.398 362.219 526.398C362.845 526.398 363.942 526.085 363.942 526.085L365.352 526.555L366.448 527.338L366.761 528.591L359.869 538.145L355.639 545.819L350.47 553.493L345.457 558.662L343.891 561.168L341.071 562.577L337.625 563.047L334.805 565.709C334.805 565.709 332.455 569.312 332.299 569.938C332.142 570.565 330.576 572.287 330.576 573.384C330.576 574.48 329.949 576.203 329.949 576.829C329.949 577.456 328.382 581.528 328.382 581.528L321.333 587.323C321.333 587.323 319.453 588.732 318.827 589.359C318.2 589.985 314.597 592.491 314.597 592.491L312.718 594.371L310.994 591.552C310.994 591.552 309.898 589.046 309.898 588.263C309.898 587.479 309.741 585.913 310.838 585.287C311.934 584.66 314.911 580.275 314.911 580.275L314.284 576.829L310.681 573.697C310.681 573.697 307.705 571.818 307.078 570.721C306.452 569.625 303.789 566.806 303.789 566.806L299.559 563.047L296.113 560.541L292.98 558.035L288.907 556.782L285.931 555.216L283.581 552.084C283.581 552.084 281.858 549.734 281.074 549.578C280.291 549.421 278.725 549.265 278.725 549.265L277.158 550.831L275.905 552.24L273.869 554.12C273.869 554.12 272.302 554.589 272.145 553.963C271.989 553.337 271.519 549.578 271.519 549.578L271.049 547.385L269.326 545.662C269.326 545.662 267.759 543.939 267.133 543.783C266.506 543.626 265.566 542.843 265.566 542.843L263.843 541.12L261.963 539.084C261.963 539.084 261.023 538.301 260.24 538.458C259.457 538.614 258.047 538.771 258.047 538.771L255.854 541.434L254.131 543L251.624 544.096L248.961 541.903L248.805 540.024L252.408 535.639L256.95 531.88L260.083 527.651L261.963 525.302L266.036 522.483C266.036 522.483 266.193 521.856 266.976 520.133C267.759 518.411 268.386 517.001 268.386 517.001L270.109 515.122L273.399 512.772C273.399 512.772 276.688 511.519 277.785 511.519C278.881 511.519 280.291 509.64 280.291 509.64L282.014 506.351L284.364 504.628L287.497 503.845L290.787 502.905L292.04 501.182L293.606 498.833L297.209 497.11L300.029 495.388L302.065 493.508L304.728 492.412L306.922 491.629Z" fill="white" stroke="#D9D9D9" stroke-width="1.5"/>
<path d="M383.859 475.698L381.987 475.797L379.031 476.092L376.37 477.57L373.217 477.176L370.95 478.654L367.994 477.57L366.023 475.994L363.264 475.008L361.687 474.319H360.111H358.337L356.76 474.91L354.987 475.994L351.439 477.472L349.764 478.457L347.497 479.442L345.231 481.018L343.161 481.905L342.275 483.087L339.91 484.171L337.052 484.467H334.687L333.209 483.679L331.238 482.89L329.76 482.102L327.986 481.905L327.099 481.708L325.621 480.92L324.734 480.329L323.946 479.836L321.679 479.541L320.497 479.639L318.427 479.836L315.274 479.935L313.007 479.245L310.642 478.949L308.376 478.654H307.588L306.996 479.442L306.011 480.23L306.405 491.856C306.405 491.856 311.726 491.363 312.219 491.758C312.712 492.152 313.599 493.235 313.993 493.235C314.387 493.235 314.091 493.235 315.373 493.235C316.654 493.235 319.314 493.235 319.314 493.235L321.975 493.334L324.635 493.432C324.635 493.432 325.917 494.516 326.705 494.516C327.493 494.516 329.366 494.615 329.366 494.615C329.366 494.615 330.548 494.319 331.731 494.418C332.913 494.516 333.701 494.418 334.194 494.91C334.687 495.403 335.771 496.487 336.165 496.684C336.559 496.881 338.136 497.767 338.136 497.767C338.136 497.767 340.895 498.162 341.289 498.26C341.683 498.359 343.161 499.147 343.26 499.541C343.359 499.935 345.428 501.314 345.428 501.708C345.428 502.103 347.005 502.792 347.596 503.088C348.187 503.383 348.877 503.876 349.468 504.664C350.059 505.452 351.932 506.733 351.932 507.127C351.932 507.521 352.424 509.295 352.424 509.295L354.001 510.97C354.001 510.97 355.775 511.462 356.268 511.856C356.76 512.25 358.633 513.334 358.633 513.334L359.618 513.236L363.461 513.334L364.742 514.122L364.939 515.502L364.25 517.374L363.067 518.753L361.885 520.723C361.885 520.723 360.998 522.103 360.998 522.497C360.998 522.891 360.678 524.621 360.777 525.015C360.875 525.409 360.549 525.287 360.746 526.075C360.943 526.863 362.574 525.65 363.56 526.044C364.545 526.438 365.74 527.046 366.824 527.243C367.908 527.44 368.138 525.889 368.138 525.889L369.078 524.172C369.078 524.172 369.965 522.004 370.458 521.709C370.95 521.413 371.542 520.132 371.542 520.132L374.399 518.753L376.075 517.275L378.637 515.403C378.637 515.403 380.115 513.63 381.1 513.433C382.086 513.236 383.268 512.053 383.268 512.053C383.268 512.053 383.465 509.295 383.662 508.507C383.859 507.718 383.859 500.526 383.859 500.526L383.564 498.457L382.283 496.979C382.283 496.979 383.071 491.758 382.677 490.871C382.283 489.984 382.086 484.762 382.086 484.762L382.184 482.496L382.086 481.117C382.086 481.117 381.1 480.723 381.002 480.132C380.903 479.541 380.903 478.358 380.903 478.358L382.086 477.964L383.268 478.26L384.451 478.654C384.451 478.654 384.943 479.147 385.338 478.654C385.732 478.161 386.224 477.176 385.929 476.782C385.633 476.388 384.845 475.6 384.845 475.6L383.859 475.698Z" fill="#FAFAFA" stroke="#D9D9D9" stroke-width="1.5"/>
<path d="M298.036 451.613L299.294 449.797L299.573 447.701V445.325L300.831 443.788C300.831 443.788 302.508 441.133 303.067 440.714C303.626 440.295 305.583 437.361 305.583 437.361L307.539 434.426L308.937 431.492L310.195 428.418L311.452 426.881L313.689 425.064L317.322 424.086L320.537 423.947C320.537 423.947 323.751 424.366 324.59 424.226C325.428 424.086 328.084 423.527 328.084 423.527L329.9 422.27H331.018C331.018 422.27 334.652 423.248 335.211 423.108C335.77 422.968 337.727 424.366 337.727 424.366L340.382 424.785L344.016 425.903L348.488 426.601L350.724 427.859L352.82 428.977L355.476 428.558C355.476 428.558 358.83 428.418 359.529 428.558C360.228 428.697 363.582 428.837 363.582 428.837L367.076 430.234L369.591 431.352C369.591 431.352 370.709 432.61 370.989 433.588C371.268 434.566 371.268 435.544 371.268 435.544C371.268 435.544 370.849 436.522 370.849 437.5C370.849 438.478 370.57 439.596 370.989 440.155C371.408 440.714 373.225 443.229 373.644 444.207C374.063 445.185 374.343 446.164 374.902 447.002C375.461 447.84 376.3 448.679 376.3 449.377C376.3 450.076 376.3 451.613 376.02 452.172C375.741 452.731 375.321 453.15 375.321 453.15L375.461 456.084L377.138 456.783C377.138 456.783 378.955 457.342 379.514 456.643C380.073 455.945 380.353 455.106 380.353 455.106L383.148 455.386L385.244 456.084L385.384 458.18V460.556L387.62 461.813L390.555 461.674C390.555 461.674 391.952 462.232 391.952 462.791C391.952 463.35 390.974 466.424 390.974 466.424L389.157 466.564L386.642 465.167L384.965 466.145L383.148 467.123L383.567 468.241L385.524 469.219L386.781 470.616L385.803 472.014L384.545 473.83L383.707 475.926H382.03L380.632 475.786L378.955 476.345L377.557 476.625L375.461 476.764L374.063 476.904L372.945 478.022L371.268 478.581L367.495 477.603L366.237 476.485L365.259 475.926L363.442 474.668L361.066 474.249L358.131 474.389L356.734 475.227L354.078 476.764L352.122 477.603L348.628 479.559L346.811 480.397L344.435 481.934L343.177 483.332L340.801 484.589L337.727 484.869H334.233L332.416 483.891L329.062 482.773L326.826 482.493L324.17 480.956L323.332 480.397L317.602 480.677L314.667 480.397L312.431 479.419L310.754 478.86H308.238L307.26 477.603L305.862 476.066C305.862 476.066 305.163 475.507 305.443 474.808C305.722 474.11 305.583 471.315 305.583 471.315L304.185 469.638L302.648 468.52L301.53 468.381L299.992 469.638L298.176 469.359L295.939 469.079L293.703 468.101C293.703 468.101 294.123 466.564 294.402 466.005C294.682 465.446 294.961 462.791 294.961 462.791L296.638 458.599L297.477 457.342L298.176 454.827L298.315 453.29L298.036 451.613Z" fill="white" stroke="#D9D9D9" stroke-width="1.5"/>
</svg>
