<svg width="248" height="442" viewBox="0 0 248 442" fill="none" xmlns="http://www.w3.org/2000/svg">
<g clip-path="url(#clip0_522_742)">
<mask id="mask0_522_742" style="mask-type:luminance" maskUnits="userSpaceOnUse" x="0" y="-317" width="1642" height="759">
<path d="M1549.48 -316.205L0 91.9575L91.9576 441.049L1641.43 32.8864L1549.48 -316.205Z" fill="white"/>
</mask>
<g mask="url(#mask0_522_742)">
<mask id="path-2-inside-1_522_742" fill="white">
<path d="M224.393 239.709C153.291 262.382 114.973 279.156 65.0368 310.31C69.296 308.864 237.858 269.332 386.799 290.779C397.878 264.664 402.849 235.798 400.532 206.393C359.18 208.657 273.11 224.185 224.437 239.697"/>
</mask>
<path d="M65.0368 310.31L64.5075 309.462L65.3584 311.257L65.0368 310.31ZM386.799 290.779L386.656 291.768L387.419 291.878L387.719 291.169L386.799 290.779ZM400.532 206.393L401.529 206.314L401.452 205.341L400.477 205.394L400.532 206.393ZM224.393 239.709L224.09 238.756C152.931 261.447 114.532 278.252 64.5075 309.462L65.0368 310.31L65.5661 311.159C115.413 280.06 153.651 263.317 224.697 240.662L224.393 239.709ZM65.0368 310.31L65.3584 311.257C65.826 311.098 68.8592 310.336 74.1931 309.152C79.4908 307.977 86.9967 306.4 96.3516 304.614C115.062 301.044 141.163 296.641 171.782 292.952C233.031 285.574 312.309 281.063 386.656 291.768L386.799 290.779L386.941 289.789C312.348 279.048 232.874 283.579 171.543 290.967C140.871 294.661 114.724 299.072 95.9767 302.65C86.6028 304.439 79.0774 306.02 73.7599 307.2C68.4785 308.371 65.3124 309.161 64.7152 309.363L65.0368 310.31ZM386.799 290.779L387.719 291.169C398.86 264.91 403.859 235.883 401.529 206.314L400.532 206.393L399.535 206.472C401.839 235.713 396.896 264.419 385.878 290.388L386.799 290.779ZM400.532 206.393L400.477 205.394C359.038 207.663 272.884 223.208 224.133 238.745L224.437 239.697L224.74 240.65C273.337 225.163 359.323 209.651 400.587 207.391L400.532 206.393Z" fill="#005A45" mask="url(#path-2-inside-1_522_742)"/>
<path d="M224.696 307.454C227.035 307.348 229.405 307.188 231.785 306.886C230.828 306.952 229.871 307.019 228.958 307.074C227.501 307.179 226.098 307.317 224.696 307.454Z" fill="#005A45"/>
<mask id="path-5-inside-2_522_742" fill="white">
<path d="M398.815 191.953C397.882 186.122 396.678 180.315 395.146 174.502C369.711 78.12 270.981 20.5757 174.565 45.9737C78.1485 71.3717 20.581 170.088 45.9731 266.482C48.6585 276.676 52.2095 286.457 56.4616 295.729C77.4733 283.189 101.265 270.984 127.178 259.611C125.405 255.346 123.782 250.949 122.571 246.351C108.321 192.254 140.637 136.839 194.746 122.585C248.856 108.332 304.278 140.635 318.528 194.732C319.145 197.074 319.577 199.419 320.009 201.764C347.333 196.979 373.816 193.76 398.783 192.008"/>
</mask>
<path d="M395.146 174.502L396.113 174.248L396.113 174.247L395.146 174.502ZM56.4616 295.729L55.5526 296.146L56.0172 297.159L56.9741 296.588L56.4616 295.729ZM127.178 259.611L127.58 260.527L128.478 260.133L128.101 259.227L127.178 259.611ZM320.009 201.764L319.026 201.945L319.206 202.92L320.182 202.749L320.009 201.764ZM398.815 191.953L399.803 191.795C398.865 185.933 397.654 180.095 396.113 174.248L395.146 174.502L394.179 174.757C395.702 180.536 396.9 186.31 397.828 192.111L398.815 191.953ZM395.146 174.502L396.113 174.247C370.537 77.331 271.261 19.468 174.31 45.0066L174.565 45.9737L174.82 46.9407C270.702 21.6833 368.885 78.9089 394.18 174.758L395.146 174.502ZM174.565 45.9737L174.31 45.0066C77.3599 70.5453 19.4733 169.808 45.0061 266.736L45.9731 266.482L46.9401 266.227C21.6888 170.367 78.9371 72.198 174.82 46.9407L174.565 45.9737ZM45.9731 266.482L45.0061 266.736C47.7067 276.988 51.2775 286.824 55.5526 296.146L56.4616 295.729L57.3706 295.312C53.1416 286.091 49.6104 276.364 46.9401 266.227L45.9731 266.482ZM56.4616 295.729L56.9741 296.588C77.9466 284.071 101.7 271.884 127.58 260.527L127.178 259.611L126.776 258.696C100.829 270.083 77 282.307 55.9491 294.87L56.4616 295.729ZM127.178 259.611L128.101 259.227C126.338 254.986 124.734 250.635 123.538 246.096L122.571 246.351L121.604 246.605C122.831 251.263 124.471 255.706 126.254 259.995L127.178 259.611ZM122.571 246.351L123.538 246.096C109.429 192.533 141.425 137.665 195.001 123.552L194.746 122.585L194.491 121.618C139.848 136.013 107.213 191.974 121.604 246.605L122.571 246.351ZM194.746 122.585L195.001 123.552C248.576 109.44 303.452 141.424 317.561 194.986L318.528 194.732L319.495 194.477C305.104 139.846 249.135 107.224 194.491 121.618L194.746 122.585ZM318.528 194.732L317.561 194.986C318.167 197.287 318.593 199.595 319.026 201.945L320.009 201.764L320.993 201.583C320.562 199.244 320.123 196.862 319.495 194.477L318.528 194.732ZM320.009 201.764L320.182 202.749C347.473 197.97 373.922 194.755 398.853 193.006L398.783 192.008L398.713 191.011C373.711 192.765 347.193 195.988 319.837 200.779L320.009 201.764Z" fill="#005A45" mask="url(#path-5-inside-2_522_742)"/>
<mask id="path-7-inside-3_522_742" fill="white">
<path d="M369.742 322.04C332.952 328.762 293.874 337.896 256.532 350.099C217.012 363.014 184.803 376.556 157.78 389.705C191.469 402.217 229.15 404.863 266.51 395.022C310.336 383.477 346.08 356.758 369.687 322.008"/>
</mask>
<path d="M256.532 350.099L256.222 349.148L256.222 349.148L256.532 350.099ZM157.78 389.705L157.342 388.806L155.24 389.829L157.432 390.642L157.78 389.705ZM369.742 322.04L369.562 321.056C332.74 327.784 293.616 336.928 256.222 349.148L256.532 350.099L256.843 351.049C294.131 338.864 333.164 329.74 369.921 323.024L369.742 322.04ZM256.532 350.099L256.222 349.148C216.657 362.078 184.405 375.637 157.342 388.806L157.78 389.705L158.217 390.604C185.2 377.474 217.368 363.95 256.843 351.049L256.532 350.099ZM157.78 389.705L157.432 390.642C191.307 403.224 229.198 405.885 266.765 395.989L266.51 395.022L266.255 394.055C229.101 403.842 191.632 401.21 158.128 388.767L157.78 389.705ZM266.51 395.022L266.765 395.989C310.833 384.381 346.777 357.511 370.514 322.57L369.687 322.008L368.86 321.446C345.383 356.004 309.838 382.574 266.255 394.055L266.51 395.022Z" fill="#005A45" mask="url(#path-7-inside-3_522_742)"/>
<mask id="path-9-inside-4_522_742" fill="white">
<path d="M75.0551 327.388C91.8186 350.158 113.587 368.501 138.365 381.18C169.542 364.246 222.385 343.599 258.927 331.885C299.361 318.915 331.8 309.767 369.887 304.095C266.126 292.273 161.973 304.863 75.0437 327.344"/>
</mask>
<path d="M138.365 381.18L137.91 382.07L138.379 382.31L138.843 382.059L138.365 381.18ZM258.927 331.885L259.233 332.838L259.233 332.838L258.927 331.885ZM369.887 304.095L370.034 305.084L370 303.101L369.887 304.095ZM75.0551 327.388L74.2498 327.981C91.1063 350.877 112.995 369.321 137.91 382.07L138.365 381.18L138.821 380.29C114.179 367.68 92.5308 349.438 75.8604 326.795L75.0551 327.388ZM138.365 381.18L138.843 382.059C169.943 365.166 222.721 344.541 259.233 332.838L258.927 331.885L258.622 330.933C222.049 342.656 169.141 363.325 137.888 380.301L138.365 381.18ZM258.927 331.885L259.233 332.838C299.648 319.873 332.027 310.744 370.034 305.084L369.887 304.095L369.74 303.105C331.573 308.789 299.074 317.957 258.622 330.933L258.927 331.885ZM369.887 304.095L370 303.101C266.092 291.262 161.814 303.871 74.7933 326.376L75.0437 327.344L75.2941 328.313C162.133 305.855 266.159 293.283 369.774 305.088L369.887 304.095Z" fill="#005A45" mask="url(#path-9-inside-4_522_742)"/>
</g>
</g>
<defs>
<clipPath id="clip0_522_742">
<rect width="361" height="361" fill="white" transform="translate(0 91.9575) rotate(-14.7576)"/>
</clipPath>
</defs>
</svg>
