<svg width="380" height="272" viewBox="0 0 380 272" fill="none" xmlns="http://www.w3.org/2000/svg">
<path d="M377.753 162.401C377.753 162.401 378.05 161.977 378.22 161.807C377.287 159.895 375.634 159.173 373.388 159.385C374.829 160.405 376.312 161.424 377.753 162.444M189.724 119.369C189.724 119.369 189.343 119.157 189.173 119.029C188.495 119.751 187.69 120.431 187.181 121.281C186.969 121.62 187.266 122.343 187.351 122.895C187.859 122.682 188.58 122.598 188.792 122.258C189.258 121.366 189.428 120.346 189.724 119.412M77.5259 95.6227C82.4852 95.3678 87.4444 94.858 92.4037 94.9005C97.2782 94.9005 102.195 95.2828 107.027 95.8775C111.859 96.5147 116.607 97.6192 121.396 98.5538C107.239 90.3551 92.319 93.3287 77.5259 95.6651M212.529 46.3458C202.78 56.9658 196.761 68.6478 195.828 82.6238C198.414 76.6765 200.321 70.432 202.949 64.5272C205.662 58.4951 209.095 52.7602 212.529 46.3882M60.4439 100.041C71.295 99.3184 82.8666 97.8741 94.3959 97.8741C106.01 97.8741 117.624 99.3184 128.899 102.08C119.701 95.0704 71.083 93.881 60.4439 99.9981M268.31 107.305C273.354 107.645 278.059 107.687 282.679 108.367C306.67 111.723 328.542 120.346 347.743 135.384C353.254 139.717 358.849 143.965 364.401 148.255C363.85 147.193 363.088 146.386 362.282 145.579C342.021 126.038 318.03 113.677 290.563 107.942C283.273 106.413 276.024 105.775 268.31 107.262M133.434 116.226C129.408 115.376 125.678 116.268 122.117 117.755C117.666 119.581 113.385 121.96 108.935 123.744C96.3881 128.8 85.3251 135.979 75.6608 145.452C70.8287 150.21 65.7847 154.712 60.9101 159.428C54.8064 165.332 48.7451 171.322 42.6837 177.269C42.5989 177.354 42.5989 177.567 42.387 178.161C44.2096 176.632 45.778 175.443 47.1767 174.126C55.6965 166.012 64.1316 157.856 72.6514 149.785C78.3736 144.39 84.0959 138.867 91.0049 135.002C97.5749 131.348 104.357 128.077 111.012 124.552C116.734 121.536 122.668 119.157 128.941 117.67C130.467 117.33 131.908 116.735 133.392 116.268M6.44277 121.281C9.79135 123.787 12.8432 125.826 15.556 128.205C18.0144 130.371 21.3206 129.862 22.8042 126.888C24.2029 124.042 25.6865 121.196 27.6363 118.732C32.1717 112.955 38.5298 109.726 45.1845 107.007C46.3714 106.54 47.4311 105.775 48.5755 105.138C44.8031 105.775 41.1578 106.667 37.6396 107.899C29.5013 110.703 21.363 113.549 13.3095 116.735C10.8086 117.712 8.68928 119.751 6.40038 121.281M184.468 69.8372C181.417 75.3597 178.831 80.8396 175.482 85.7673C173.109 89.2506 172.812 92.3942 174.465 96.0475C175.016 97.2369 175.482 98.5113 176.161 99.6158C178.195 102.802 179.424 106.285 179.975 110.023C180.442 113.167 182.01 115.801 184.596 118.18C185.104 116.778 185.655 115.673 185.91 114.484C186.588 111.383 187.054 108.239 187.817 105.138C189.258 99.1485 190.954 93.2438 192.268 87.2541C192.649 85.4699 192.776 83.1335 191.971 81.6467C189.724 77.4837 186.927 73.618 184.468 69.8797M216.683 71.8338C216.132 73.2356 215.623 74.6375 214.987 75.9544C214.563 76.8889 214.097 77.9934 213.292 78.5032C210.07 80.4997 207.485 83.4734 203.246 83.8557C199.304 84.1955 196.634 86.7443 195.574 90.7374C194.048 96.4298 192.437 102.08 190.954 107.772C190.191 110.703 189.936 113.719 190.53 116.863C197.227 113.719 203.712 110.618 210.24 107.602C214.012 105.86 217.318 103.821 219.819 100.126C223.21 95.1129 223.507 95.7076 220.285 89.9303C220.158 89.6754 220.031 89.463 219.862 89.2082C216.343 83.8982 214.521 78.2908 216.64 71.8338M190.445 122.767C193.327 121.153 196.167 119.921 198.626 118.137C203.882 114.314 209.392 110.958 215.496 109.004C219.734 107.645 222.532 105.308 224.227 101.23C224.736 99.9981 226.347 98.7237 227.703 98.3839C238.936 95.6227 249.49 91.2897 259.324 85.1726C265.597 81.2644 272.337 79.0979 279.797 79.905C280.645 79.99 281.535 80.0325 282.425 80.1174C282.552 79.9475 282.679 79.7351 282.764 79.5652C282.128 79.0554 281.577 78.3757 280.857 78.1209C280.051 77.8235 279.076 77.9085 278.229 77.7385C271.404 76.2517 264.58 75.6995 257.713 77.7385C250.126 79.9475 242.369 81.7741 236.35 87.2966C232.493 90.8224 228.932 94.7306 225.245 98.4688C224.694 99.0211 223.973 99.4459 223.337 99.9556C223.21 99.7857 223.041 99.6158 222.913 99.4883C224.863 95.1554 228.127 91.757 231.476 88.571C234.867 85.3425 238.47 82.2839 242.327 79.6926C246.311 76.9739 251.101 75.9969 255.848 75.3597C260.511 74.7225 265.173 74.1702 269.836 73.8728C274.499 73.5755 278.822 75.3172 283.018 77.2713C283.188 76.9739 283.357 76.6765 283.527 76.3367C282.51 75.3172 281.45 74.3401 280.433 73.3206C278.949 71.7488 277.381 70.2196 276.024 68.5628C274.244 66.3539 272.803 63.9325 270.98 61.8085C269.2 59.7695 267.717 57.7729 267.25 55.0117C266.615 51.231 265.64 50.3389 261.74 50.3389C258.095 50.3389 254.449 50.6362 250.762 50.7637C237.876 51.231 227.915 56.9658 220.667 67.5433C216.216 74.0003 215.665 80.5422 219.862 87.339C221.006 89.2082 222.235 91.1198 223.041 93.1588C223.507 94.3058 223.761 96.1324 223.168 97.067C220.413 101.315 217.869 105.69 212.698 107.814C206.51 110.363 200.618 113.592 194.429 116.226C191.589 117.415 190.021 119.029 190.445 122.895M236.605 31.2653C236.732 31.0529 236.901 30.8405 237.071 30.6281C236.308 30.0759 235.46 29.5661 234.739 28.9714C224.779 20.3055 213.122 16.992 200.152 17.8416C194.048 18.2239 189.216 21.0276 186.715 26.8049C185.189 30.3308 184.129 34.069 183.07 37.8073C182.731 39.0817 182.815 40.5685 183.07 41.8853C184.765 49.999 185.825 58.1127 184.553 66.3964C184.426 67.3734 184.808 68.6053 185.316 69.4549C187.012 72.1312 188.834 74.7649 190.784 77.2713C193.751 81.1794 194.26 85.3 192.734 89.9728C191.166 94.7731 190.064 99.7008 188.834 104.586C187.647 109.259 186.545 113.974 185.443 118.647C185.274 119.369 185.443 120.176 185.443 121.493C186.333 120.516 186.715 119.879 187.266 119.539C189.216 118.265 189.301 116.438 189.343 114.314C189.428 111.383 189.894 108.409 190.572 105.521C191.632 100.933 193.073 96.4723 194.217 91.8844C195.701 85.9797 198.287 83.3459 204.348 82.4963C208.205 81.9441 210.409 78.9705 213.334 77.0164C213.716 76.7615 213.843 76.0818 214.097 75.5721C216.004 71.324 217.869 67.076 219.777 62.8705C221.048 60.1093 222.871 57.8154 225.499 56.2011C228.042 54.6718 229.653 52.3779 230.501 49.5742C231.094 47.5777 231.645 45.5811 232.323 43.627C233.765 39.4215 235.757 38.0197 240.123 37.8497C242.284 37.7648 244.404 37.6373 246.523 37.4674C247.159 37.4249 247.752 37.2125 248.346 37.0426C248.388 36.8302 248.43 36.5753 248.473 36.3629C246.693 35.3859 244.955 34.2814 243.132 33.4743C241.098 32.5822 238.978 31.5202 236.901 33.6442C236.477 34.069 235.63 34.154 234.951 34.2814C232.874 34.7487 230.755 35.216 228.678 35.5983C222.278 36.7028 217.573 40.2286 214.267 45.7935C212.486 48.8521 210.706 51.8682 208.968 54.9692C204.814 62.4032 200.745 69.8797 198.965 78.3757C198.668 79.7776 198.032 81.1369 197.354 82.4113C196.973 83.091 196.125 83.5583 195.489 84.1105C195.192 83.3459 194.684 82.5813 194.599 81.7741C194.472 80.8396 194.684 79.8625 194.811 78.8855C195.871 71.9612 198.032 65.3344 201.678 59.4296C205.238 53.6948 209.307 48.2149 213.673 43.0748C218.166 37.7648 224.058 34.1964 230.967 32.6672C232.832 32.2424 234.697 31.7326 236.52 31.2653M6.6547 114.866C7.3329 114.696 7.67199 114.611 7.9687 114.526C16.0646 111.553 24.1182 108.452 32.2989 105.69C43.2771 101.952 54.5097 99.106 65.9118 96.8971C75.9575 94.943 85.9185 92.6915 96.1762 92.2667C104.696 91.8844 113.004 92.5641 120.718 96.8121C123.134 98.129 125.635 99.4034 128.263 100.126C131.951 101.145 135.766 101.697 139.623 102.419C138.139 99.5308 136.571 96.5997 135.13 93.6261C130.934 84.9602 123.304 79.9475 115.505 75.1048C114.53 74.5101 113.343 74.1702 112.198 73.8728C99.6943 70.4744 87.0206 69.8372 74.1773 71.5364C67.7345 72.386 61.2492 73.0657 54.8064 73.1932C50.7372 73.2781 47.1767 74.0852 44.0825 76.719C42.7685 77.8235 41.3697 78.8855 40.1405 80.0749C36.0289 83.8982 31.4087 86.7868 25.9832 88.401C18.7774 90.5675 13.6062 95.2403 10.2152 101.91C8.22302 105.86 6.78186 110.023 6.61232 114.909M172.558 124.042C172.6 123.829 172.642 123.617 172.727 123.362C170.735 122.767 168.785 121.875 166.751 121.705C157.171 120.728 148.439 117.542 140.767 111.765C138.139 109.769 135.257 108.452 132.248 107.22C120.973 102.547 109.104 100.89 97.0239 100.423C82.7395 99.8707 68.7941 102.08 54.9336 105.053C49.2113 106.285 44.2944 108.749 40.3524 113.124C38.6145 115.036 36.7919 116.82 34.9693 118.562C31.6631 121.705 28.4417 124.934 24.9235 127.823C23.6095 128.927 22.677 129.947 22.4651 131.646C22.3379 132.665 22.0412 133.685 22.0412 134.747C22.0412 137.635 21.0239 140.099 19.498 142.521C16.4885 147.236 14.6659 152.206 15.6408 158.026C16.5309 163.378 18.184 168.179 22.8042 171.28C25.6017 173.149 27.7635 175.4 29.4166 178.289C29.8828 179.139 30.4762 179.903 31.0696 180.668C32.5108 182.452 33.7824 182.707 35.7746 181.517C37.3005 180.583 38.7841 179.521 40.0557 178.289C43.7434 174.678 47.2615 170.812 50.9916 167.244C58.7484 159.853 66.7596 152.716 74.474 145.282C84.223 135.851 95.2013 128.332 107.79 123.235C112.58 121.281 117.2 118.902 121.948 116.82C128.645 113.889 135.766 115.163 142.717 114.909C143.438 114.909 144.285 115.164 144.879 115.546C145.599 116.056 146.066 116.863 146.617 117.542C145.811 117.967 144.921 118.817 144.201 118.732C142.251 118.477 140.386 117.712 138.436 117.288C137.292 117.033 135.935 116.565 134.876 116.905C125.042 119.709 115.547 123.32 106.349 127.95C95.4132 133.472 84.986 139.462 76.0423 148.001C64.1316 159.343 51.9241 170.388 39.9285 181.645C38.7417 182.749 37.7668 184.194 37.0886 185.638C36.7919 186.318 37.2158 188.017 37.7668 188.229C40.8611 189.546 42.8109 191.968 44.8454 194.474C45.4813 195.281 46.7529 195.876 47.8125 195.961C54.1706 196.428 59.3418 194.346 62.097 188.272C64.1739 183.726 67.2682 181.135 72.3546 180.158C77.4411 179.181 80.7897 175.613 81.9765 170.388C82.3156 168.943 82.2308 167.372 82.2732 165.842C82.5699 154.585 86.9782 145.919 97.7869 141.331C100.754 140.099 102.916 137.933 104.866 135.427C110.842 127.653 118.387 122.513 128.517 122.428C132.841 122.428 137.164 123.107 141.446 123.532C143.607 123.744 145.727 123.957 147.295 123.065C146.829 121.833 146.278 120.856 146.151 119.836C146.151 119.539 147.549 118.647 147.804 118.774C148.99 119.539 149.965 120.601 151.025 121.578C150.898 121.748 150.771 121.96 150.686 122.13C152.678 122.215 154.713 122.173 156.663 122.47C160.053 122.937 163.529 123.277 166.793 124.254C168.912 124.891 170.65 124.637 172.558 124.169M193.497 123.617C193.2 123.787 192.861 123.914 192.564 124.084C190.869 124.891 189.258 125.741 187.478 124.169C187.054 123.787 186.249 123.744 185.613 123.702C184.892 123.617 183.621 123.957 183.536 123.702C183.239 122.98 183.07 121.918 183.409 121.238C184.045 119.836 183.621 118.944 182.815 117.84C181.756 116.395 180.399 114.909 180.06 113.294C178.789 107.05 176.076 101.442 173.363 95.7501C171.668 92.1818 172.091 88.7834 174.677 85.4699C178.195 80.9245 180.823 75.7845 182.561 70.2196C182.858 69.285 183.197 68.0531 182.858 67.246C179.34 58.8349 179.848 50.2114 181.247 41.503C181.417 40.4835 181.289 39.2516 180.908 38.2745C178.746 33.0495 176.627 27.7395 174.168 22.6419C168.531 10.8324 159.036 4.46038 145.981 3.52582C145.303 3.48334 144.582 3.3559 143.989 3.01606C141.318 1.52925 138.648 1.86909 136.02 3.10102C133.943 4.07806 131.993 4.12054 129.789 3.44086C128.941 3.18598 127.415 3.3559 126.949 3.90814C126.101 4.97014 127.161 5.81974 128.051 6.58438C135.893 13.4662 142.971 21.0701 148.058 30.2458C150.94 35.4284 154.162 40.2711 157.934 44.8165C163.36 51.3584 168.234 58.2827 170.099 66.7787C171.244 72.0037 171.795 77.3987 172.43 82.7087C172.642 84.4504 172.515 86.3195 172.219 88.0612C172.134 88.6559 171.201 89.1232 170.65 89.6754C170.184 89.1232 169.591 88.6559 169.294 88.0612C169.04 87.5514 168.955 86.8293 168.997 86.2346C169.124 83.2185 169.379 80.1599 169.421 77.1438C169.421 75.8269 169.548 74.2976 168.997 73.1507C164.928 64.6122 160.816 56.0737 156.451 47.6202C154.416 43.712 152.339 39.6764 149.499 36.3629C144.667 30.6706 139.241 25.488 134.07 20.1355C130.467 16.3548 127.034 12.4891 125.805 7.1791C125.466 5.77726 123.007 4.80022 122.159 5.86222C120.337 8.11367 118.133 7.3915 115.886 7.22158C113.979 7.05166 111.944 7.51894 111.563 9.60047C111.181 11.767 111.224 14.1034 111.69 16.2698C112.071 17.9266 113.597 18.8611 115.335 18.3938C115.038 16.3973 114.572 14.4857 114.53 12.6166C114.53 11.9794 115.42 10.8324 115.971 10.7899C116.607 10.7474 117.709 11.597 117.878 12.2342C118.217 13.721 118.472 15.4202 118.133 16.8646C117.751 18.4788 118.175 19.1585 119.531 19.7107C120.888 20.263 122.159 20.9002 123.516 21.4524C131.654 24.9358 138.012 30.2458 141.488 38.6144C141.742 39.1666 142.039 39.7613 142.505 40.1437C147.041 44.3492 150.093 49.6592 153.144 54.8842C153.95 56.2436 154.246 57.9853 154.331 59.5995C154.458 61.5111 154.331 63.3378 156.366 64.3998C156.832 64.6547 157.256 65.3344 157.425 65.8866C158.188 68.9452 159.121 72.0037 159.46 75.1473C159.672 77.0164 160.308 78.3333 161.367 79.7351C164.038 83.261 166.92 86.6594 168.997 90.525C171.498 95.1979 173.321 100.253 175.27 105.181C176.33 107.814 176.966 110.576 177.898 113.252C178.28 114.314 178.873 115.333 179.509 116.31C180.06 117.16 180.95 117.84 181.417 118.774C181.798 119.581 181.756 120.601 181.925 121.536C181.12 121.026 180.145 120.643 179.552 119.964C178.873 119.199 178.577 118.137 178.026 117.288C177.347 116.268 176.796 115.079 175.864 114.356C168.616 108.622 163.402 101.23 159.206 93.1163C158.146 91.0348 157.298 88.401 157.553 86.1921C158.146 81.2219 158.188 76.3367 157.341 71.409C157.002 69.5399 156.62 67.9681 155.179 66.6937C153.017 64.7396 152 62.3183 152.127 59.3022C152.254 56.0737 151.195 53.27 148.821 50.8486C147.041 49.022 145.176 47.1104 144.031 44.8589C141.785 40.441 138.182 37.5949 134.325 34.8761C133.011 33.9416 131.908 32.7946 130.594 31.9025C128.051 30.1184 125.635 28.0793 122.838 26.8049C118.896 25.0207 114.742 23.6189 110.588 22.387C101.22 19.5833 91.4712 18.7337 81.7646 17.7566C75.7456 17.1619 69.6843 16.6946 63.8772 18.6912C58.5789 20.5179 53.45 22.7693 48.2364 24.8508C48.0669 24.8933 48.0245 25.1907 47.6854 25.7004C49.2537 26.3801 50.6949 27.1023 52.2208 27.612C59.5114 30.1184 66.9715 32.3273 74.1349 35.1735C81.6374 38.1471 88.928 41.7154 96.2609 45.0713C105.374 49.2344 114.572 53.1001 123.134 58.4951C133.35 64.952 142.293 72.9808 151.279 80.9245C153.483 82.8786 154.967 85.6823 156.663 88.1886C157.002 88.6984 156.663 89.7179 156.663 90.4826C155.9 90.2702 155.094 90.1852 154.416 89.8454C153.695 89.463 153.06 88.8683 152.551 88.1886C150.262 85.0876 148.1 81.9016 145.811 78.7581C145.133 77.8235 144.37 76.8465 143.438 76.2942C139.072 73.618 134.579 71.1541 130.255 68.4354C120.591 62.2758 111.012 55.8613 100.457 51.231C90.0724 46.6431 79.73 42.0128 69.3452 37.5524C62.3513 34.5363 55.315 31.7751 48.2364 28.9289C46.88 28.3767 45.3965 28.2067 44.3792 27.9519C43.6586 29.821 43.1924 31.3503 42.4718 32.7096C41.0306 35.4708 41.2425 38.0197 43.0652 40.4835C45.6508 44.0943 48.9994 46.4732 53.4076 47.1104C57.3072 47.6626 60.9525 48.8521 64.0892 51.3159C67.141 53.7373 70.532 54.0771 74.2621 53.6098C81.0016 52.7178 87.1901 53.4399 92.2342 59.0473C95.7947 63.0829 100.754 64.1449 105.925 62.3607C109.401 61.1713 112.495 61.5961 115.293 63.7626C120.04 67.3734 124.703 71.0267 129.365 74.7225C134.282 78.6306 138.902 82.9211 145.048 85.0026C146.617 85.5549 147.973 87.1691 149.033 88.6134C151.237 91.5446 152.381 95.4103 156.366 96.7271C156.663 96.8121 156.832 97.1944 157.086 97.4493C158.316 98.8936 159.375 100.55 160.774 101.74C166.539 106.583 171.795 111.808 175.737 118.265C176.372 119.327 177.559 120.006 178.534 120.898C179.297 121.578 180.103 122.215 180.781 122.98C180.993 123.235 180.781 123.872 180.781 124.297C180.357 124.297 179.806 124.382 179.509 124.212C178.916 123.872 178.365 123.405 177.983 122.852C176.924 121.408 175.482 120.898 173.829 120.474C172.049 120.049 170.354 119.242 168.7 118.434C163.148 115.801 157.849 112.53 152.085 110.576C147.973 109.174 143.904 108.282 140.81 104.119C140.979 106.837 139.581 106.667 138.224 106.328C136.698 105.945 135.215 105.351 133.562 104.798C135.935 107.56 138.902 108.622 141.997 109.684C148.99 112.062 155.9 114.654 162.809 117.33C166.878 118.902 170.438 121.833 175.143 121.663C175.779 121.663 176.5 122.64 177.178 123.15C176.627 123.702 176.033 124.297 175.398 124.934C175.906 126.888 175.482 127.398 173.278 127.185C172.473 127.1 171.583 127.015 170.862 126.718C169.336 126.123 168.107 126.293 166.878 127.398C165.182 128.885 163.148 129.479 160.901 129.224C159.036 129.012 157.171 128.927 155.349 128.545C146.913 126.803 139.75 128.927 133.901 135.299C132.926 136.361 131.993 137.466 131.018 138.57C128.348 141.501 125.296 143.88 121.481 145.324C119.574 146.047 117.878 147.576 116.352 149.02C113.809 151.442 111.436 154.033 109.062 156.624C108.045 157.729 107.027 158.96 106.434 160.32C102.916 168.901 99.2704 177.439 96.1338 186.148C93.6329 193.157 92.4037 200.548 93.8449 208.025C94.8622 213.123 95.0741 218.135 94.3111 223.275C94.0144 225.357 94.0992 227.948 95.0741 229.732C97.5749 234.448 98.6346 239.418 99.2704 244.6C99.9062 250.293 102.746 254.583 108.172 256.92C114.021 259.426 119.828 261.932 125.678 264.439C126.229 264.651 126.822 264.778 127.246 264.906C131.103 256.367 133.731 247.701 134.876 238.526C135.893 230.285 137.885 222.213 139.284 214.015C141.064 203.437 142.124 192.732 144.413 182.282C147.549 168.179 151.618 154.245 157.214 140.864C158.316 138.273 160.308 136.021 161.961 133.642C162.724 132.538 163.699 131.518 164.631 130.541C165.521 129.649 166.454 128.672 167.598 128.12C168.065 127.908 169.04 128.757 169.803 129.097C169.463 129.734 169.251 130.626 168.7 131.009C167.768 131.646 166.539 131.943 165.521 132.538C164.843 132.92 164.123 133.515 163.826 134.237C160.774 142.011 157.341 149.7 154.84 157.686C149.202 175.528 145.472 193.837 143.014 212.4C141.403 224.592 138.945 236.699 136.698 248.763C135.808 253.564 134.197 258.236 133.18 263.037C132.799 264.863 133.095 266.817 133.095 268.729C133.35 268.729 133.562 268.814 133.816 268.814C134.409 267.285 135.13 265.798 135.639 264.269C136.359 262.06 137.631 260.445 139.877 259.808C143.734 258.704 146.108 256.112 147.549 252.502C149.414 247.829 152.381 244.006 156.196 240.735C160.35 237.209 162.893 232.706 163.911 227.311C164.928 222.086 165.945 216.861 167.132 211.678C168.404 206.241 169.082 200.464 172.303 195.791C175.906 190.566 176.457 184.831 176.033 178.926C175.525 171.874 174.55 164.865 173.872 157.856C173.321 151.866 172.473 145.877 173.872 139.887C174.126 138.867 173.363 137.551 172.854 136.489C172.515 135.766 171.752 135.257 171.286 134.577C169.294 131.858 170.354 128.97 173.617 128.247C174.635 127.992 175.652 127.992 176.712 127.823C179.763 127.27 183.112 127.823 185.782 125.529C186.122 125.231 187.139 125.401 187.732 125.656C191.801 127.44 192.013 127.908 190.699 132.198C190.445 133.005 190.233 133.812 190.106 134.619C188.877 141.841 189.597 148.978 191.632 155.987C195.023 167.669 201.72 177.312 210.325 185.723C213.504 188.866 215.835 192.35 217.064 196.725C219.183 204.329 223.761 210.149 230.289 214.439C239.444 220.429 247.286 227.906 254.238 236.317C256.442 238.993 258.476 241.797 260.596 244.515C266.064 251.61 273.185 255.348 282.171 255.475C286.197 255.56 290.224 255.475 294.802 255.475C293.869 253.351 293.361 251.737 292.513 250.25C289.673 245.238 286.664 240.352 283.866 235.34C275.558 220.727 267.25 206.113 257.84 192.137C244.785 172.724 230.967 154.033 213.97 137.848C210.452 134.492 207.145 131.731 202.017 132.325C201.169 132.41 200.194 132.283 199.346 131.986C198.329 131.646 197.142 131.221 196.506 130.456C195.913 129.734 195.531 128.332 195.828 127.525C196.04 126.93 197.651 126.293 198.371 126.463C200.915 127.185 203.585 127.908 205.789 129.267C208.12 130.711 210.325 132.24 212.91 133.345C218.505 135.809 222.532 140.354 226.262 144.942C236.011 157.091 245.675 169.283 255.085 181.687C267.335 197.787 277.72 215.119 287.766 232.706C291.538 239.29 295.268 245.917 299.083 252.544C299.549 253.351 300.185 254.073 300.736 254.838C301.202 253.096 301.118 251.44 301.245 249.825C301.372 247.914 301.669 246.045 303.534 244.94C305.017 244.048 305.653 242.816 305.738 241.032C305.865 238.653 306.755 238.058 308.917 238.441C313.24 239.12 315.063 237.761 315.233 233.428C315.36 230.03 315.317 226.631 315.233 223.233C314.936 213.972 313.622 204.966 309.765 196.343C307.857 192.095 306.374 187.55 305.483 182.962C304.169 176.292 301.965 170.09 297.345 165.078C293.191 160.575 288.444 156.582 284.12 152.206C281.153 149.233 278.271 146.131 275.77 142.776C273.905 140.354 271.913 138.358 269.2 136.913C267.208 135.851 265.216 134.577 263.732 132.963C260.935 129.904 257.671 127.78 253.771 126.506C252.076 125.953 250.38 125.316 248.685 124.722C239.275 121.366 229.568 119.836 219.565 120.474C216.683 120.643 213.758 121.196 211.13 122.937C214.224 124.764 214.86 125.614 214.182 127.058C213.504 128.502 212.232 129.012 210.748 128.715C208.799 128.375 207.993 126.803 208.248 123.277C206.043 123.447 203.797 123.362 201.762 123.872C199.643 124.382 197.693 125.614 195.616 126.293C194.768 126.591 193.709 126.293 192.734 126.293C192.946 125.401 193.2 124.509 193.412 123.66C199.092 122.64 204.814 121.62 210.494 120.643C214.309 119.964 218.124 118.774 221.896 118.817C228.169 118.902 234.019 118.35 239.614 115.036C243.344 112.827 247.625 112.36 251.779 114.186C257.501 116.693 263.139 116.523 268.903 114.314C273.269 112.657 277.805 111.595 282.51 112.445C285.138 112.912 287.639 114.186 290.267 114.526C294.209 115.036 297.557 116.523 300.609 118.944C302.771 120.643 305.144 121.323 307.772 120.686C311.036 119.879 313.495 121.026 315.36 123.617C317.564 126.676 320.319 127.992 324.261 127.695C330.789 127.228 335.705 129.819 337.994 136.361C338.164 136.871 338.461 137.381 338.715 137.848C340.241 141.119 342.742 143.285 346.175 144.262C348.337 144.9 350.626 145.282 352.872 145.622C358.51 146.471 363.639 147.958 365.376 154.373C365.504 154.84 365.8 155.35 366.139 155.562C367.199 156.284 368.344 156.879 369.446 157.516C369.658 157.219 369.912 156.921 370.124 156.624C367.411 153.65 364.953 150.337 361.858 147.746C356.602 143.285 351.007 139.165 345.497 135.044C342.403 132.708 339.308 130.371 336.002 128.375C314.47 115.461 291.284 108.154 265.979 108.494C262.884 108.494 259.79 108.961 256.781 109.556C253.051 110.278 249.405 111.383 245.718 112.19C244.997 112.317 244.149 111.765 243.386 111.553C243.937 110.958 244.404 110.023 245.124 109.769C247.668 108.961 250.296 108.154 252.924 107.814C256.611 107.305 260.384 107.432 264.029 106.88C270.684 105.86 277.338 104.798 284.036 105.903C305.017 109.344 324.685 116.31 342.36 128.375C352.66 135.427 362.409 143.115 370.209 153.056C371.48 154.67 373.218 155.987 374.744 157.431C374.956 157.304 375.168 157.176 375.38 157.049C374.066 152.504 373.345 147.661 371.353 143.413C368.64 137.635 365.122 132.198 361.604 126.846C360.036 124.467 357.662 122.598 355.458 120.728C354.652 120.049 352.83 119.327 352.364 119.709C349.947 121.79 347.786 120.558 345.666 119.539C345.031 119.242 344.692 118.265 344.225 117.585C344.988 117.16 345.709 116.438 346.472 116.438C347.871 116.438 349.269 116.863 350.668 117.118C350.795 116.948 350.922 116.82 351.092 116.65C349.439 115.291 347.871 113.847 346.175 112.615C342.233 109.726 337.57 107.517 334.391 103.991C330.153 99.3184 325.193 96.6422 319.386 94.943C311.079 92.5216 302.686 92.0968 294.166 93.1163C288.995 93.7535 284.163 92.9464 279.797 89.8029C278.441 88.8258 276.703 88.3161 275.05 87.9338C271.489 87.1266 268.056 88.0612 264.707 89.2931C258.519 91.5871 253.602 95.92 248.303 99.7007C245.591 101.612 243.556 104.119 242.284 107.22C239.317 114.526 233.553 117.245 226.093 117.627C219.819 117.967 213.546 118.35 207.357 119.284C202.61 120.006 197.439 119.836 193.624 123.66M199.431 119.454C201.932 119.029 204.39 118.434 206.891 118.18C213.504 117.542 220.074 116.99 226.686 116.523C231.645 116.141 236.053 114.739 239.105 110.491C239.826 109.471 240.419 108.367 240.928 107.22C242.581 103.524 244.997 100.508 248.346 98.2139C251.779 95.8775 255.043 93.2863 258.561 91.0773C263.605 87.9338 269.031 85.9797 275.092 86.9142C276.872 87.2116 278.78 87.8488 280.221 88.9108C284.248 91.7995 288.656 92.6915 293.403 92.0968C302.304 90.9923 311.036 91.4171 319.683 93.9659C325.575 95.6651 330.704 98.2564 334.858 103.099C337.486 106.158 341.301 108.239 344.734 110.491C347.701 112.445 350.88 114.017 352.236 117.627C352.364 117.967 352.787 118.265 353.169 118.392C358.51 120.728 361.943 124.976 364.783 129.819C367.326 134.11 370.251 138.188 372.158 142.733C374.066 147.278 374.829 152.291 376.143 157.049C376.355 157.814 376.948 158.493 377.372 159.173C377.372 159.215 377.499 159.258 377.541 159.3C378.093 160.447 379.364 162.146 379.025 162.699C378.093 164.058 376.694 162.826 375.634 162.231C374.913 161.807 374.235 161.297 373.684 160.702C372.243 159.215 370.675 158.238 368.513 157.983C366.436 157.771 364.953 156.327 364.359 154.33C362.918 149.402 359.315 147.533 354.652 146.896C352.406 146.599 350.159 146.174 347.913 145.707C342.911 144.645 339.266 141.883 337.316 137.041C337.019 136.276 336.638 135.511 336.299 134.789C334.519 131.009 331.424 128.63 327.355 128.757C321.506 128.97 316.674 127.823 313.156 122.682C312.52 121.748 310.358 121.281 309.086 121.536C305.568 122.215 302.516 121.578 299.761 119.369C297.006 117.118 293.912 115.716 290.309 115.503C289.546 115.461 288.783 115.248 288.105 114.951C281.747 112.062 275.431 112.955 269.158 115.206C265.089 116.65 260.935 117.67 256.569 116.608C254.916 116.183 253.22 115.673 251.652 115.079C248.176 113.719 244.743 113.889 241.352 115.376C238.13 116.778 234.951 118.265 231.815 119.751C234.697 120.261 237.707 120.474 240.589 121.323C246.226 122.98 251.864 124.679 257.289 126.888C259.79 127.908 261.867 130.116 264.114 131.816C266.021 133.26 267.801 134.959 269.921 136.064C272.888 137.635 274.965 139.929 277.042 142.521C280.051 146.344 283.612 149.785 287.045 153.268C290.012 156.284 293.234 159.003 296.201 162.019C301.923 167.796 305.272 174.763 306.67 182.792C307.349 186.615 308.451 190.523 310.104 194.049C314.173 202.8 316.123 211.976 316.419 221.576C316.547 225.399 316.589 229.18 316.504 233.003C316.419 238.313 314.3 240.14 309.129 239.418C307.476 239.205 306.925 240.012 306.925 241.372C306.967 243.326 305.95 244.473 304.593 245.705C303.618 246.597 302.94 248.041 302.601 249.358C302.22 250.802 302.474 252.374 302.347 253.903C302.262 254.753 301.965 255.56 301.753 256.367C301.033 255.815 300.1 255.39 299.634 254.668C297.557 251.567 295.48 248.466 293.573 245.238C285.392 231.262 277.635 217.031 269.073 203.31C259.451 187.847 248.346 173.404 236.816 159.3C231.264 152.504 225.541 145.834 219.734 139.25C218.251 137.551 216.216 136.361 214.394 135.002C213.843 134.577 213.122 134.364 212.444 134.067C212.317 134.237 212.19 134.407 212.062 134.577C215.241 137.678 218.463 140.821 221.642 143.923C231.645 153.778 240.377 164.653 248.388 176.165C256.611 187.974 264.538 199.996 272.167 212.188C277.466 220.599 282.086 229.477 286.96 238.186C290.012 243.666 292.852 249.273 295.862 254.796C296.158 255.348 296.794 255.73 297.303 256.112C298.193 256.792 299.253 257.259 299.931 258.067C300.397 258.619 300.312 259.681 300.439 260.488C299.549 260.488 298.49 260.828 297.811 260.488C296.921 259.978 296.116 259.001 295.777 258.067C295.268 256.665 294.505 256.282 293.149 256.325C289.758 256.41 286.367 256.41 282.976 256.41C273.057 256.41 265.258 252.204 259.451 244.261C251.058 232.748 241.394 222.596 229.399 214.779C222.913 210.531 218.463 204.584 216.386 197.108C215.199 192.775 212.91 189.334 209.774 186.318C203.755 180.498 198.71 173.913 194.98 166.437C189.936 156.369 187.478 145.792 189.385 134.492C189.724 132.538 190.403 130.626 190.954 128.63C189.979 127.992 189.004 127.313 187.987 126.761C187.563 126.506 186.757 126.293 186.461 126.506C183.494 128.8 179.891 128.29 176.542 128.842C175.737 128.97 174.889 129.054 174.084 129.224C171.498 129.904 170.82 131.986 172.473 134.152C173.151 135.044 174.084 135.766 174.55 136.701C175.016 137.635 175.482 138.867 175.228 139.844C173.575 147.066 174.931 154.203 175.567 161.339C176.161 167.541 176.924 173.744 177.263 179.946C177.602 185.723 176.5 191.118 173.49 196.428C170.905 201.016 169.802 206.496 168.404 211.678C167.047 216.903 166.072 222.213 165.098 227.523C164.123 232.748 161.834 237.251 157.849 240.735C153.738 244.345 150.389 248.466 148.312 253.606C146.956 257.005 144.582 259.341 140.979 260.445C138.69 261.125 137.292 262.654 136.613 264.991C136.232 266.435 135.554 267.879 134.748 269.154C133.943 270.471 132.629 270.258 132.502 268.772C132.29 266.393 132.078 263.844 132.714 261.635C137.758 243.156 140.598 224.295 143.311 205.391C146.151 185.341 150.728 165.672 157.849 146.641C159.248 142.903 160.944 139.292 162.512 135.596C162.3 135.469 162.088 135.342 161.876 135.214C161.113 136.319 160.096 137.338 159.587 138.57C157.637 143.243 155.645 147.873 154.077 152.673C149.753 166.055 145.515 179.478 143.226 193.369C141.785 201.95 141.064 210.659 139.665 219.282C138.055 229.18 136.359 239.078 134.24 248.891C133.222 253.564 131.188 258.067 129.535 262.612C128.899 264.311 128.602 265.628 130.594 266.775C131.23 267.157 131.357 268.772 131.315 269.834C131.315 270.343 130.34 271.15 129.789 271.193C129.238 271.193 128.645 270.428 128.136 269.918C127.924 269.706 127.797 269.281 127.797 268.941C127.966 266.18 126.017 265.543 123.94 264.693C118.429 262.442 113.004 260.063 107.578 257.642C101.941 255.135 99.0585 250.505 98.4651 244.473C97.9564 239.588 97.0663 234.915 94.5231 230.624C92.9971 228.033 93.1667 225.144 93.6329 222.298C94.3111 218.22 94.4383 214.227 93.4634 210.149C91.3017 201.271 92.9124 192.605 95.9218 184.236C98.8889 175.953 102.449 167.924 105.798 159.81C106.307 158.578 107.154 157.346 108.045 156.369C110.673 153.481 113.385 150.592 116.183 147.873C117.497 146.599 118.98 145.154 120.634 144.602C125.169 143.115 128.518 140.184 131.527 136.658C135.469 132.028 140.004 127.992 146.278 127.398C150.262 127.015 154.374 127.695 158.4 128.035C161.664 128.332 164.886 128.715 167.641 125.359C165.437 124.806 163.529 124.127 161.537 123.914C157.892 123.49 154.246 123.32 150.601 123.065C150.135 123.065 149.584 123.065 149.202 123.277C145.811 125.274 142.293 124.467 138.69 124.127C134.325 123.702 129.874 123.32 125.508 123.66C117.454 124.339 111.308 128.8 106.434 135.002C103.679 138.528 100.457 141.204 96.4305 143.115C87.2325 147.406 83.7144 155.307 83.2481 164.993C83.1633 166.649 83.3329 168.349 83.0362 169.963C81.9765 175.783 78.416 179.903 72.8209 181.05C67.6921 182.112 64.7674 184.746 62.648 189.249C59.5538 195.791 53.7467 197.575 47.0496 196.98C45.9051 196.895 44.5911 195.961 43.8705 195.026C42.0055 192.647 40.1405 190.438 37.2158 189.291C35.6475 188.697 35.4355 187.082 35.9865 185.765C36.7495 183.981 37.894 182.367 38.8265 180.838C37.7668 181.475 36.6224 182.282 35.3084 182.919C33.4857 183.811 31.5783 183.599 30.5186 181.815C27.6787 177.142 23.8638 173.489 19.6675 170.048C16.1918 167.202 15.3864 162.826 14.5387 158.536C13.3942 152.673 14.9626 147.406 18.184 142.776C20.8544 138.91 20.812 134.619 21.5326 129.904C17.5906 132.325 15.556 129.777 13.1399 127.568C11.4021 125.953 9.19793 124.764 7.12096 123.575C5.12877 122.428 4.83206 121.705 6.6547 120.261C9.07077 118.392 11.614 116.438 14.4115 115.206C25.6441 110.278 37.4277 106.965 49.2113 103.651C52.136 102.844 54.8912 101.442 57.7735 100.295C57.6887 100.041 57.6039 99.8282 57.5192 99.5733C53.1109 100.72 48.6603 101.655 44.3792 103.099C32.4684 107.092 20.6 111.298 8.73167 115.418C7.24812 115.928 6.44277 116.905 5.89174 118.392C5.29832 119.964 4.23864 121.408 3.26374 122.852C2.96703 123.277 2.11929 123.702 1.78019 123.532C1.35632 123.362 1.01722 122.598 0.974836 122.045C0.678127 119.751 1.86496 118.137 3.68761 117.075C5.12877 116.226 5.46786 115.121 5.6798 113.592C7.58722 100.975 13.4366 91.3322 26.3647 87.3815C31.6631 85.7673 35.9865 82.6238 40.0133 78.9705C43.6162 75.742 47.3039 72.556 52.5599 72.2586C58.0702 72.0037 63.5805 71.6639 69.0908 71.2816C73.9653 70.9417 78.8399 70.3895 83.7568 69.9647C93.972 69.0726 103.848 70.8568 113.682 73.4056C114.275 73.5755 114.869 73.7879 115.42 74.0853C123.94 79.0129 131.866 84.5778 136.359 93.8385C137.631 96.4723 138.945 99.0635 140.428 101.57C142.929 105.818 146.574 108.069 151.491 109.514C157.256 111.17 162.597 114.314 168.065 116.948C170.396 118.052 172.473 119.836 175.652 119.666C174.507 117.925 173.66 116.141 172.388 114.781C168.361 110.533 164.123 106.455 160.011 102.292C158.824 101.103 157.765 99.7432 156.62 98.4688C156.323 98.129 156.069 97.5767 155.688 97.4493C152.89 96.4723 151.364 94.2208 150.177 91.7995C148.439 88.2311 145.769 86.2346 142.081 84.7053C138.394 83.176 135.172 80.4573 131.951 77.9934C126.652 73.9578 121.566 69.7523 116.352 65.5892C113.216 63.1254 109.952 62.1908 105.925 63.5927C100.5 65.5043 95.3708 63.975 91.6831 59.8544C87.063 54.7143 81.4255 53.9072 75.2794 54.7143C70.7015 55.3091 66.6748 54.7143 62.9871 51.8257C60.2743 49.6592 56.9681 48.8096 53.5772 48.2998C48.9146 47.5777 45.2269 45.1563 42.5142 41.2906C40.4796 38.402 40.2676 35.5133 41.8784 32.3273C42.5989 30.9255 42.8533 29.3537 43.5314 27.2722C44.252 27.3571 45.6932 27.1872 46.9648 27.6545C52.0512 29.4387 57.1377 31.2228 62.097 33.3468C75.4913 39.1241 88.8432 45.0289 102.153 50.9336C113.343 55.9038 123.304 62.913 133.604 69.37C136.274 71.0692 139.114 72.556 142.124 73.7879C139.75 71.8763 137.419 69.9222 135.003 68.0956C125.338 60.7465 115.123 54.3745 103.891 49.5742C91.4288 44.2642 79.1366 38.5294 66.6748 33.3044C61.7155 31.2228 56.4171 30.0759 51.2883 28.4192C50.1014 28.0368 48.957 27.5271 47.9397 26.8474C46.6681 25.9553 46.7529 24.6809 48.1516 24.1287C54.001 21.8347 59.8505 19.3709 65.827 17.5018C71.2526 15.845 76.9324 16.5247 82.4851 17.0345C93.421 18.054 104.314 19.3709 114.869 22.7268C121.524 24.8508 127.797 27.5271 132.926 32.5397C134.791 34.3664 137.037 35.7257 139.114 37.34C139.241 37.255 139.411 37.1276 139.538 37.0426C139.241 36.4054 138.987 35.7682 138.648 35.1735C135.639 30.0334 131.23 26.4651 125.974 23.8738C123.262 22.5144 120.506 21.1975 117.751 19.9656C117.158 19.7107 116.437 19.7107 115.759 19.7532C113.216 19.8807 111.393 18.8186 110.715 16.3973C110.291 14.8255 110.122 13.1263 110.249 11.5121C110.545 7.81631 112.961 5.94718 116.649 6.45694C118.429 6.71182 119.998 7.05166 121.608 5.39494C122.329 4.6303 124.152 4.92766 125.593 4.71526C126.822 1.99653 127.288 1.74165 130.467 2.80366C132.205 3.3559 133.816 3.31342 135.469 2.54877C138.478 1.18941 141.53 0.72213 144.625 2.42133C145.048 2.63373 145.557 2.76117 146.023 2.80366C160.52 3.7807 170.311 11.3422 176.161 24.426C177.814 28.0793 179.34 31.8176 180.908 35.4708C181.205 36.1505 181.501 36.8302 181.968 37.9347C182.773 35.3434 183.366 33.1344 184.087 31.0104C187.563 20.8577 192.903 17.1194 203.585 17.077C215.75 16.992 226.601 20.6453 235.714 28.844C237.664 30.5856 239.529 31.9025 242.157 32.4972C244.234 32.9645 246.226 34.1964 248.091 35.3434C248.854 35.8107 249.193 36.9152 249.744 37.7223C248.897 38.1046 248.091 38.7418 247.244 38.8693C244.997 39.1241 242.708 39.1666 240.419 39.2941C236.393 39.464 234.867 40.526 233.51 44.3067C233.214 45.1563 232.917 46.0059 232.705 46.898C231.603 51.8257 229.314 55.7763 224.906 58.6225C221.176 61.0014 220.201 65.4618 218.632 69.4549C219.014 68.9027 219.353 68.308 219.734 67.7557C220.158 67.1185 220.582 66.4813 221.048 65.8866C228.339 55.9463 238.173 50.6362 250.465 50.0415C254.28 49.8716 258.052 49.5742 261.867 49.5742C266.275 49.5742 267.717 50.7637 268.48 55.0542C268.903 57.4755 270.175 59.3022 271.743 61.1713C273.778 63.5927 275.431 66.3114 277.338 68.7752C278.356 70.0921 279.627 71.2816 280.814 72.471C281.916 73.5755 283.188 74.595 284.12 75.7845C284.459 76.2093 284.502 77.3562 284.205 77.8235C283.146 79.5227 283.866 80.4997 285.18 81.6042C286.791 82.9636 288.317 84.4504 289.673 86.0646C290.521 87.0417 290.775 88.3586 289.419 89.3356C288.02 90.3976 286.028 90.2277 285.222 88.7834C284.46 87.3815 283.824 85.7248 283.654 84.153C283.4 82.029 282.255 81.4768 280.39 81.2644C272.422 80.3298 265.428 82.9636 258.815 87.1266C249.66 92.8615 239.699 96.8121 229.229 99.3609C227.067 99.8707 225.626 100.848 224.821 102.929C223.38 106.667 220.667 108.791 216.767 110.023C210.494 112.02 204.814 115.291 199.558 119.284C199.601 119.454 199.643 119.666 199.685 119.836M369.869 154.33C370.505 155.774 370.929 157.474 373.472 157.601C372.031 156.284 370.971 155.307 369.869 154.33ZM165.903 130.329C166.03 130.584 166.2 130.796 166.327 131.051C167.217 130.541 168.065 130.074 168.955 129.564C168.743 129.267 168.573 128.97 168.404 128.672C167.556 129.224 166.751 129.777 165.903 130.329ZM296.964 257.047C296.964 257.047 296.667 257.387 296.497 257.599C296.921 258.959 297.599 259.978 300.016 259.723C298.702 258.576 297.854 257.812 296.964 257.047ZM198.244 124.169C195.814 124.226 194.288 124.821 193.666 125.953C195.447 125.274 196.845 124.722 198.244 124.169ZM129.492 270.386C131.103 268.134 130.891 267.54 128.348 266.902C128.729 268.092 129.069 269.111 129.492 270.386ZM2.37361 122.682C3.47567 120.728 4.28103 119.284 5.08638 117.84C2.33122 118.944 1.78019 119.836 2.37361 122.682ZM244.955 110.491C245.04 110.788 245.124 111.085 245.251 111.425C248.346 110.618 251.44 109.811 254.534 109.046C254.492 108.791 254.407 108.579 254.365 108.367L244.955 110.533V110.491ZM116.268 17.2044C118.09 14.8255 117.751 12.7015 115.293 11.3422C115.674 13.6361 115.971 15.4202 116.268 17.2044ZM145.345 117.16C143.311 115.631 141.064 115.291 138.267 115.886C140.725 117.033 142.802 118.265 145.345 117.16ZM345.115 117.755C347.743 119.921 349.566 120.261 351.177 118.774C349.312 117.925 347.574 116.735 345.115 117.755ZM211.299 128.63C212.274 127.44 212.825 126.761 213.376 126.123C212.529 125.486 211.723 124.679 210.748 124.254C210.494 124.127 209.222 125.274 209.307 125.486C209.689 126.421 210.367 127.228 211.299 128.63ZM139.411 105.775C139.581 105.393 139.75 105.011 139.92 104.671C137.8 102.08 134.494 102.674 131.739 101.825C131.654 102.037 131.569 102.25 131.485 102.419C134.113 103.524 136.783 104.671 139.411 105.775ZM170.269 88.2311C172.007 86.1496 171.795 80.7971 170.269 78.0784V88.2311ZM284.841 81.9441C284.544 82.114 284.248 82.3264 283.951 82.4963C284.502 84.238 284.883 86.0646 285.689 87.6364C285.943 88.1462 287.384 88.0612 288.317 88.2311C288.359 87.4665 288.741 86.447 288.401 85.9797C287.384 84.5354 286.07 83.261 284.841 81.9441ZM147.931 79.1829C149.457 83.4733 153.568 88.3586 156.239 89.1232C154.628 84.8752 151.703 82.029 147.931 79.1829ZM206.552 131.561C206.552 131.561 206.637 131.178 206.679 131.009C204.602 129.182 202.229 127.78 199.431 127.483C198.499 127.398 197.524 127.865 196.591 128.077C197.312 128.97 198.032 129.904 198.795 130.754C198.922 130.881 199.177 130.924 199.389 130.966C201.762 131.178 204.136 131.391 206.552 131.561ZM183.494 65.2494C184.553 57.8154 183.875 50.5513 182.137 43.3297C180.781 50.7637 180.484 58.1127 183.494 65.2494ZM156.832 45.5386C161.24 54.2895 165.649 63.0404 170.057 71.8338C168.785 61.4687 163.614 53.1001 156.832 45.5386ZM231.094 90.2277C244.319 78.2483 260.087 73.2781 278.271 76.3367C269.666 73.1507 261.104 75.2747 252.542 76.804C243.429 78.4607 236.52 83.7282 231.094 90.2277ZM42.1751 109.981C42.1751 109.981 41.9631 109.726 41.836 109.599C33.9096 113.337 27.2548 118.434 23.8215 126.846C24.0334 127.058 24.2029 127.27 24.4149 127.483L42.1751 110.023V109.981ZM166.793 120.389C158.697 116.056 150.22 112.785 141.276 110.618C148.779 116.48 157.256 119.836 166.793 120.389ZM147.846 32.4972C144.879 25.3181 130.934 8.75087 126.864 7.68887C131.145 18.5638 141.276 24.0437 147.846 32.4972ZM176.839 113.039C172.473 101.23 169.463 88.6984 159.63 79.2678C158.316 84.7902 157.892 89.7604 161.113 94.4332C162.3 96.1324 163.233 98.0015 164.335 99.7432C167.556 104.968 171.625 109.429 176.839 113.039ZM107.197 99.9556C107.663 100.083 108.129 100.211 108.596 100.295C116.352 101.273 123.94 102.717 131.188 105.818C132.078 106.2 133.011 106.498 133.901 106.837C133.985 106.583 134.113 106.328 134.197 106.073C131.4 104.841 128.687 103.099 125.762 102.547C119.616 101.357 113.385 100.805 107.197 99.9981C103.933 99.6158 100.627 99.0211 97.363 98.8511C85.3675 98.2989 73.4991 99.8282 61.6731 101.485C57.9854 101.995 54.2554 102.802 50.9916 104.926C51.6274 104.926 52.1784 104.756 52.7718 104.628C64.5978 101.655 76.5934 99.7007 88.7584 99.4459C94.9046 99.3184 101.051 99.7857 107.197 99.9556Z" stroke="#BC9D5A" stroke-width="0.46" stroke-miterlimit="10"/>
</svg>
