<svg width="77" height="76" viewBox="0 0 77 76" fill="none" xmlns="http://www.w3.org/2000/svg">
<path fill-rule="evenodd" clip-rule="evenodd" d="M58.5155 62.9502C58.2258 64.225 57.9638 67.0103 56.0344 66.3246C56.0419 66.2772 55.9337 66.2629 55.9337 66.2057C55.9337 66.0855 55.737 66.0531 55.828 65.9036C55.8716 65.8318 55.7741 65.747 55.8131 65.6426C55.8654 65.4307 55.7982 65.4153 55.785 65.2908C55.6835 64.9253 55.8645 64.477 55.9748 64.1168C28.4394 86.647 -11.4572 44.4076 13.7386 19.1268C-4.69155 47.2706 25.9947 81.1159 55.2782 63.7278L54.7598 63.6494C54.6889 63.6778 54.6979 63.5719 54.6714 63.5659C54.6178 63.5514 54.3095 63.4591 54.243 63.3918C54.1803 63.3284 54.0563 63.4846 54.0432 63.367C54.0324 63.2709 53.9096 63.3136 53.8443 63.2869C53.8128 63.2743 53.6637 63.042 53.8195 62.9748C53.7946 62.9013 53.828 62.9035 53.8344 62.8246C53.8383 62.7751 53.7195 62.7385 53.9517 62.5811C54.7985 61.6527 56.1861 62.085 57.2328 61.9339C57.8408 61.8392 58.5485 62.2104 58.5155 62.9502ZM70.9695 38.0637C71.429 12.8905 41.324 -3.83952 21.0307 11.8867C21.162 11.5018 21.3198 11.0235 21.208 10.635C21.2181 10.5984 21.1281 10.5354 21.1924 10.3609C21.2302 10.2583 21.1342 10.1715 21.1767 10.0999C21.2684 9.94582 21.0711 9.92104 21.0711 9.79777C21.0711 9.73955 20.9609 9.72435 20.9703 9.67966L20.858 9.57235C19.0779 9.33645 18.8564 11.3194 18.5825 12.5669C18.03 14.6558 20.4213 13.9455 21.6235 14.0068C22.143 14.1013 22.6601 13.7735 23.0542 13.423C23.2845 13.2637 23.1678 13.2308 23.1716 13.1787C23.1775 13.0957 23.2108 13.1036 23.1856 13.0285C23.3406 12.9627 23.1956 12.7309 23.1608 12.7165C23.0947 12.6891 22.9732 12.7333 22.9626 12.6364C22.9498 12.519 22.8262 12.6768 22.7628 12.6116C22.6967 12.5436 22.395 12.4559 22.3344 12.4382C22.3078 12.4307 22.3122 12.3223 22.2451 12.353L21.7267 12.2763C51.0101 -5.1075 81.6957 28.7272 63.2672 56.8766C68.6506 52.8005 70.9225 44.567 70.9695 38.0637ZM59.0878 40.2715C58.753 36.9132 59.8249 31.965 57.8388 28.9925C54.5628 24.386 47.6586 26.5869 46.0626 31.5348C45.8352 32.3322 45.7465 32.0088 45.43 32.3965C45.3961 32.3445 45.378 32.2916 45.3037 32.2594C45.2619 32.2416 45.3066 32.1699 45.226 32.1133L45.1228 32.2058C44.5528 32.3607 44.6606 32.4289 44.2634 32.6788C43.7784 32.9842 43.879 33.0757 43.7671 33.1775C43.5726 33.4222 43.5753 33.4079 43.5037 33.6531C42.1772 35.7153 43.5382 38.4326 45.8965 38.4559C50.3981 38.0103 49.7625 32.7998 45.9658 31.8401C46.0055 31.7862 46.1137 31.7756 46.1978 31.7542C46.136 31.6823 46.1401 31.7636 46.2175 31.6031C45.844 31.3459 47.0576 31.3711 47.214 31.3711C51.1796 31.5163 52.04 37.2782 49.0833 39.3914C50.6526 39.9736 52.0238 41.2039 52.8763 42.6328C53.9748 42.4503 55.1908 42.2268 56.3102 42.0963C57.6199 42.0776 58.9325 41.7843 59.0878 40.2715ZM52.0121 53.1646C52.1174 47.4123 52.7056 39.9903 44.6981 40.5787C44.0691 40.6456 42.9212 40.9237 42.4271 41.3934C42.3119 41.4857 42.3166 41.373 42.1968 41.4472C41.7788 41.7058 42.0591 41.5308 41.8095 41.7354C43.749 43.7375 43.5865 47.1186 41.3678 48.8812C44.019 49.9314 45.8966 52.5403 46.3282 55.2833C48.0014 54.6337 51.7128 55.7641 52.0121 53.1646ZM34.3656 49.3494C34.5506 49.2469 34.7404 49.1521 34.9295 49.0578C32.4238 47.2775 32.2593 43.3118 34.5795 41.3109C30.8871 39.2406 25.5025 41.6223 25.0815 45.9724C25.1009 48.3763 24.907 50.8963 24.898 53.3066C25.2256 55.964 29.3338 54.5713 30.9681 55.3823C30.9543 52.9495 32.2024 50.5391 34.3656 49.3494ZM23.2433 42.1539L24.0731 42.3504C24.8307 41.0453 26.0836 39.8923 27.4475 39.2575C24.3113 36.7668 26.0491 30.3532 30.4125 31.1372C30.8523 31.2702 30.6998 31.3983 31.0399 31.6383C30.8036 31.7774 30.9411 31.7789 30.8286 31.7885C30.7024 31.7993 30.7486 31.8993 30.5933 31.9413C30.2855 32.0244 30.2865 32.1814 30.1961 32.2055C27.9047 32.9898 27.2438 36.5183 29.2879 37.8767C33.503 40.3835 36.2173 33.9933 31.9374 32.212L31.7764 32.3961C31.724 32.3599 31.714 32.2684 31.6889 32.1855C31.626 32.274 31.6118 32.1719 31.5387 32.1723C31.4968 32.1726 31.4527 32.4464 31.3472 32.0551L31.04 31.8396C31.0782 31.7865 31.1874 31.7745 31.2712 31.7537C31.2235 31.6981 31.2131 31.7381 31.2638 31.6621L31.2332 31.5588C31.1615 31.5324 31.185 31.4993 31.2109 31.487C30.1362 28.3558 27.1161 25.6824 23.6852 26.3855C20.4292 26.014 17.8338 29.7967 18.1575 32.8229C18.3196 35.3544 18.148 38.0676 18.2994 40.5832C18.8207 42.2837 21.7621 41.5834 23.2433 42.1539ZM32.1792 31.196C32.1759 31.2538 32.1759 31.3132 32.1776 31.3728C36.2241 31.3795 37.1612 37.3083 34.1236 39.4169C34.6381 39.7491 35.1831 40.2067 35.5264 40.7206C36.4184 40.4695 37.5546 40.156 38.1998 41.0394C37.9612 41.182 38.0996 41.1782 37.9876 41.1912C37.8443 41.208 37.9122 41.297 37.7473 41.344C37.4175 41.4379 37.4403 41.582 37.3436 41.6091C36.7627 41.771 36.8896 41.8198 36.4684 42.0871C35.9799 42.3972 36.0784 42.4858 35.9622 42.595C35.7006 42.8657 35.7782 42.9818 35.5816 43.248C34.5681 45.1572 35.4901 47.4077 37.4692 47.8847C42.3926 48.4464 42.5225 42.2572 38.1997 41.2408C38.2392 41.1893 38.3731 41.17 38.4366 41.1557C38.3684 41.0962 38.3878 41.1443 38.4547 41.0053C37.9689 40.752 39.9192 40.5141 41.2421 41.3017C41.7156 40.683 42.2952 40.1393 42.9445 39.7067C39.4249 37.6542 40.3374 31.0355 44.7907 31.0655C42.6493 24.9879 34.0604 24.8747 32.1792 31.196ZM61.0594 31.9928C60.9115 29.055 59.0226 26.1692 56.3235 24.9765C59.3 22.3188 57.8712 16.9763 53.8285 16.5955C53.4412 16.7164 53.2721 16.6071 53.1688 16.7119C53.0794 16.8027 52.9795 16.7443 52.9532 16.7838C52.9078 16.8541 52.8426 16.8664 52.7757 16.8937C53.6838 17.9491 54.5137 18.1891 55.2799 19.5086C56.3702 21.2228 55.2761 23.8623 53.2431 24.1925C48.4892 24.6362 48.5563 18.5568 52.3895 17.1605C52.819 16.9928 52.5406 17.0205 52.5041 16.9548C52.558 16.8176 52.5912 16.8524 52.5058 16.8045C52.5776 16.7823 52.7284 16.7507 52.7757 16.6939C48.4247 15.673 45.9921 22.1491 49.2701 24.9766C47.6877 25.6888 46.5364 27.2056 45.7975 28.6937C45.0473 26.9855 43.5634 25.5576 41.8642 24.8544C43.9865 23.0008 43.9304 19.1967 41.5505 17.587C40.3234 16.7996 38.2561 17.0121 38.754 17.2791C38.6885 17.4212 38.6655 17.3598 38.735 17.4292C38.6572 17.447 38.5414 17.4633 38.5021 17.5144C42.7656 18.5619 42.6163 24.5749 37.7845 24.0478C35.8172 23.5396 34.9464 21.3828 35.9312 19.4966C36.1217 19.2421 36.048 19.1184 36.3035 18.8526C36.4178 18.7442 36.326 18.6519 36.8005 18.3522C37.2526 18.0667 37.0805 18.0457 37.6592 17.8807C37.7551 17.8533 37.7341 17.7085 38.0554 17.6165C38.2194 17.5695 38.1617 17.4727 38.2916 17.4637C38.4021 17.4561 38.2713 17.4467 38.5021 17.3134C38.3612 17.2283 38.3716 17.1669 38.3222 17.1284C38.0794 16.9393 38.2656 16.9539 37.9498 16.837C39.3552 13.24 43.3215 9.64288 44.4722 15.7233C42.7893 13.5029 39.1861 14.179 38.8101 17.0146C39.1918 16.8892 39.341 16.9997 39.6184 16.8445C42.1533 14.9671 43.4561 17.9431 44.3584 19.8979C44.8301 20.9778 46.3526 20.7596 46.5381 19.6542C46.9061 17.1578 46.8547 14.1302 45.2122 12.0956C41.8667 8.08442 37.1019 12.6168 37.2323 16.7357C33.0713 16.8045 31.9902 22.8605 35.127 25.1168C33.3866 25.938 32.1229 27.3846 31.3727 29.1285C30.7055 27.3665 29.375 25.8918 27.6582 25.087C31.2441 22.3841 28.6494 15.385 24.2292 16.8933C25.2795 18.1216 26.0135 18.1038 26.9093 19.8507C27.9188 22.0342 25.8601 24.8298 23.4365 24.1712C20.2938 23.3939 20.4125 19.6249 22.6267 17.8874C23.1591 17.2772 24.3912 17.1187 23.9576 16.9542C24.0086 16.8112 24.0483 16.8597 23.9592 16.8039C24.0319 16.7811 24.1822 16.7496 24.2292 16.6932C19.7973 15.7332 17.4751 22.0927 20.7302 24.9811C14.4095 27.8283 16.2299 34.4272 16.0083 40.0177C16.3336 44.6573 20.3274 43.5181 23.5621 43.3995C22.9507 44.837 22.825 46.383 22.9635 47.9306C23.0726 51.9579 22.0764 57.5939 28.1411 56.3314C28.1411 56.3315 30.2406 55.8982 30.2406 55.8982C31.128 55.7282 30.6941 55.7041 30.6609 55.6472C30.7328 55.5036 30.7691 55.5542 30.6725 55.4961L30.9664 55.4111C30.9885 55.6086 30.9777 56.4353 31.1514 55.8536C31.2969 55.988 31.2346 56.014 31.3001 55.8825C31.3104 55.9898 31.3229 56.2582 31.3744 56.3374C33.7663 45.9786 46.1984 49.4043 44.3163 59.6948C44.3788 60.9938 44.3199 61.8401 42.8028 61.6843C39.6251 61.5795 35.3763 61.9026 32.2975 61.6509C31.4848 61.3183 31.7535 59.662 31.6393 58.9392C31.6824 57.7814 31.4933 58.1813 31.4463 57.2963C31.4278 56.9479 31.3173 57.0509 31.3135 56.772C31.3107 56.5749 31.2846 56.7541 31.1747 56.3377C27.5764 64.5222 32.962 64.0761 39.309 63.9482C46.7007 64.2325 46.7314 63.2644 46.4069 56.2304C50.6492 57.5429 54.7775 57.1397 54.2472 51.5646C54.1554 49.1489 54.3912 45.2382 53.2936 43.367C54.2693 43.5026 56.0363 43.4542 57.0873 43.5957C59.1611 43.9204 61.0761 41.7831 60.8927 39.7384C60.9174 37.1394 61.0343 34.5805 61.0594 31.9928Z" fill="#005A45"/>
</svg>
