<svg width="77" height="76" viewBox="0 0 77 76" fill="none" xmlns="http://www.w3.org/2000/svg">
<path d="M41.7424 40.4588L53.8018 28.7123C54.0253 28.4888 54.1147 28.1535 54.0141 27.8517C53.9135 27.55 53.6565 27.3264 53.3324 27.2817L36.6683 24.8564L29.2135 9.75701C29.0683 9.46642 28.7777 9.2876 28.4647 9.2876C28.1518 9.2876 27.85 9.46642 27.7159 9.75701L20.2612 24.8564L3.59707 27.2817C3.31766 27.3264 3.09413 27.4941 2.97119 27.74C2.96001 27.7511 2.94884 27.74 2.93766 27.7511C2.09943 28.3547 4.18943 30.4558 4.60296 31.0258C5.39649 32.1211 6.45825 33.0488 7.4306 34.01C9.53178 36.1 11.633 38.19 13.7341 40.28C14.9077 41.4535 14.3712 40.3247 13.2647 48.2041C12.8512 51.2105 12.5382 54.2282 12.3147 57.257C12.2477 58.1735 13.1641 58.8552 14.0135 58.5311C18.9983 56.62 23.8041 54.217 28.3194 51.3782C33.3488 54.0047 38.3335 56.3182 43.5641 58.4305C44.0783 58.6317 44.6147 58.1847 44.4918 57.6482L44.4806 57.5811C44.76 57.0894 44.6594 57.8717 41.7424 40.4588ZM20.943 26.4547C21.2224 26.41 21.4571 26.2423 21.58 25.9964L28.4759 12.0258L35.3718 25.9964C35.4947 26.2423 35.7294 26.4211 36.0088 26.4547L51.4324 28.69L40.2783 39.5647C40.0771 39.7547 39.9877 40.0341 40.0324 40.3023L42.67 55.6588L28.8783 48.4053C28.6324 48.2711 28.3418 48.2711 28.0959 48.4053L14.3041 55.6588L16.9418 40.3023C16.9865 40.0341 16.8971 39.7547 16.6959 39.5647L5.51943 28.69L20.943 26.4547Z" fill="#005A45"/>
<path d="M65.9505 51.9818L71.7623 46.3154C72.2652 45.8348 71.9858 44.9854 71.2929 44.8848L63.257 43.7224L59.6693 36.4465C59.3899 35.8765 58.4511 35.8765 58.1605 36.4465L54.5729 43.7224L46.537 44.8848C46.2241 44.9295 45.9558 45.153 45.8552 45.4548C45.8217 45.5665 45.8105 45.6783 45.8217 45.7901C45.4529 47.0865 47.1405 47.4107 51.0635 52.2501C50.6723 54.5413 50.3482 56.8101 49.957 59.1013C49.8676 59.6601 49.7782 60.286 50.1023 60.7554C50.404 61.2024 50.9964 61.3701 51.5329 61.3254C52.0693 61.2695 52.5611 61.0236 53.0417 60.7889C54.9864 59.8277 56.9311 58.8665 58.8758 57.9054C60.8541 58.9113 62.8211 59.6601 64.7993 60.666C65.1682 60.856 65.5482 61.046 65.9505 61.0907C66.2188 61.1242 66.4982 61.0571 66.7329 60.9342C67.1241 60.8113 67.3699 60.4089 67.3029 59.9954L65.9505 51.9818ZM55.2546 45.3207C55.5341 45.276 55.7688 45.1083 55.8917 44.8624L58.9317 38.7154L61.9717 44.8624C62.0946 45.1083 62.3293 45.2871 62.6088 45.3207L69.3929 46.3042L64.4864 51.0877C64.2852 51.2777 64.1958 51.5571 64.2405 51.8254L65.4029 58.5871C59.1217 55.3236 59.3229 55.3012 58.9429 55.3012C58.5629 55.3012 58.7752 55.3236 52.4829 58.5871L53.6452 51.8254C53.6899 51.5571 53.6005 51.2777 53.3993 51.0877L48.4817 46.3042L55.2546 45.3207Z" fill="#005A45"/>
<path d="M40.4571 13.3223L38.1101 19.6146C37.9089 20.1623 38.3113 20.7435 38.8924 20.7435C39.2277 20.7435 39.5518 20.5311 39.6748 20.1958L42.0218 13.9035C42.1895 13.4676 41.966 12.987 41.5301 12.8305C41.1054 12.6741 40.6248 12.8976 40.4571 13.3223Z" fill="#005A45"/>
<path d="M15.4553 15.7253C15.2318 15.3229 14.7288 15.1665 14.3153 15.4012C13.9129 15.6247 13.7677 16.1388 13.9912 16.5412C14.7288 17.8823 15.6677 19.0894 16.7741 20.1288C17.1094 20.4418 17.6459 20.4306 17.9588 20.0953C18.2718 19.76 18.2606 19.2235 17.9253 18.9106C16.9418 17.9829 16.1147 16.91 15.4553 15.7253Z" fill="#005A45"/>
<path d="M10.7165 42.3029L5.82117 44.5382C5.00529 44.907 5.27353 46.1364 6.16764 46.1364C6.50294 46.1364 6.33529 46.1141 11.4094 43.8229C11.8341 43.6329 12.0129 43.13 11.8229 42.7164C11.6329 42.3029 11.1412 42.1129 10.7165 42.3029Z" fill="#005A45"/>
<path d="M28.3082 56.6536C27.85 56.7095 27.5147 57.123 27.5705 57.5812L28.297 64.0077C28.3417 64.4324 28.7105 64.7565 29.1241 64.7565C29.627 64.7565 30.0182 64.3206 29.9623 63.8289L29.2358 57.4024C29.18 56.933 28.7776 56.62 28.3082 56.6536Z" fill="#005A45"/>
<path d="M67.5713 36.4911L65.4813 39.4305C65.213 39.8105 65.3025 40.3358 65.6825 40.604C66.0625 40.8722 66.5877 40.7828 66.856 40.4028L68.946 37.4634C69.2142 37.0834 69.1248 36.5581 68.7448 36.2899C68.3648 36.0216 67.8395 36.1111 67.5713 36.4911Z" fill="#005A45"/>
<path d="M50.7283 38.6259C50.326 38.4024 49.8119 38.5477 49.5883 38.9501C49.3648 39.3524 49.5101 39.8665 49.9125 40.0901L51.7119 41.0959C52.1142 41.3195 52.6283 41.1742 52.8519 40.7718C53.0754 40.3695 52.9301 39.8554 52.5278 39.6318L50.7283 38.6259Z" fill="#005A45"/>
<path d="M57.9482 60.4312C57.49 60.476 57.1435 60.8783 57.1882 61.3477L57.6017 65.9524C57.6464 66.3883 58.0041 66.7124 58.44 66.7124C58.9429 66.7124 59.3229 66.2877 59.2782 65.7959L58.8647 61.1801C58.82 60.7218 58.4176 60.3865 57.9482 60.4312Z" fill="#005A45"/>
<path d="M73.6512 53.6247L70.7229 52.6412C70.2871 52.4959 69.8065 52.7306 69.6612 53.1664C69.5159 53.6023 69.7506 54.0829 70.1865 54.2282C73.1706 55.2117 73.1371 55.2453 73.3829 55.2453C73.7294 55.2453 74.0647 55.0217 74.1765 54.6753C74.3329 54.2394 74.0982 53.77 73.6512 53.6247Z" fill="#005A45"/>
</svg>
