<svg width="77" height="76" viewBox="0 0 77 76" fill="none" xmlns="http://www.w3.org/2000/svg">
<path d="M55.0155 21.4847C50.4847 17.3923 44.4924 15.0539 38.5001 15.3462C44.3462 15.6385 50.0462 18.2693 53.9924 22.5077C57.9385 26.7462 60.1309 32.3 59.9847 38C59.8385 43.5539 57.5001 49.1077 53.5539 53.0539C49.6078 57 44.0539 59.1923 38.5001 59.1923C32.9462 59.1923 27.3924 57 23.4462 53.0539C19.5001 49.1077 17.1616 43.7 17.0155 38C16.8693 32.4462 19.0616 26.7462 23.0078 22.5077C24.9078 20.4616 27.3924 18.7077 30.0232 17.3923C32.6539 16.2231 35.577 15.4923 38.5001 15.3462C32.5078 15.0539 26.5155 17.2462 21.9847 21.4847C17.4539 25.7231 14.8232 31.7154 14.677 38C14.5309 44.2847 17.0155 50.4231 21.4001 54.9539C25.7847 59.4846 32.0693 62.1154 38.3539 62.1154C44.6385 62.1154 50.9232 59.4846 55.3078 54.9539C59.6924 50.4231 62.177 44.2847 62.0308 38C62.177 31.7154 59.4001 25.7231 55.0155 21.4847Z" fill="#005A45"/>
<path d="M23.4462 36.1001C24.0308 34.3463 24.6154 32.8847 25.4923 31.5693C27.1 28.9386 29.2923 26.7463 31.9231 25.1386C33.2385 24.2616 34.8462 23.677 36.4539 23.0924C32.9462 21.9232 28.8539 23.2386 26.2231 25.8693C23.5923 28.5001 22.2769 32.5924 23.4462 36.1001Z" fill="#005A45"/>
<path d="M38.5 9.20771C39.8154 8.03848 40.4 6.28463 39.6693 4.53079C39.377 3.94617 39.0846 3.50771 38.5 2.9231C37.9154 3.50771 37.6231 3.94617 37.3308 4.53079C36.8923 5.55386 36.8923 6.57694 37.3308 7.60002C37.6231 8.18463 37.9154 8.6231 38.5 9.20771Z" fill="#005A45"/>
<path d="M38.5 66.7922C37.9154 67.3769 37.6231 67.8153 37.3308 68.3999C36.8923 69.423 36.8923 70.4461 37.3308 71.4692C37.6231 72.0538 37.9154 72.4922 38.5 73.0769C39.0846 72.4922 39.377 72.0538 39.6693 71.4692C40.1077 70.4461 40.1077 69.423 39.6693 68.3999C39.377 67.8153 39.0846 67.3769 38.5 66.7922Z" fill="#005A45"/>
<path d="M59.2539 15.6384C58.9616 16.223 58.8155 16.8077 58.9616 17.5384C59.6924 17.5384 60.277 17.3923 60.8616 17.2461C61.8847 16.8077 62.6155 16.0769 63.0539 15.0538C63.2001 14.6153 63.3462 14.0307 63.3462 13.1538C62.6155 13.1538 62.0309 13.3 61.4463 13.4461C60.4232 13.8846 59.5463 14.6153 59.2539 15.6384Z" fill="#005A45"/>
<path d="M13.6539 62.8461C14.3846 62.8461 14.9692 62.6999 15.5539 62.5537C16.5769 62.1153 17.3077 61.3845 17.7462 60.3614C17.8923 59.7768 18.0385 59.1922 18.0385 58.4614C15.5539 58.1691 13.5077 60.2153 13.6539 62.8461Z" fill="#005A45"/>
<path d="M67.2922 38C67.8769 38.5846 68.3153 38.8769 68.8999 39.1692C69.923 39.6076 70.9461 39.6076 71.9692 39.1692C72.5538 38.8769 72.9922 38.5846 73.5769 38C71.9692 36.1 69.0461 36.1 67.2922 38Z" fill="#005A45"/>
<path d="M8.10002 39.1693C8.68463 38.877 9.1231 38.5846 9.70771 38C9.1231 37.4154 8.68463 37.1231 8.10002 36.8308C7.07694 36.3923 6.05386 36.3923 5.03079 36.8308C4.44617 37.1231 4.00771 37.4154 3.4231 38C4.00771 38.5846 4.44617 38.877 5.03079 39.1693C6.05386 39.6077 7.07694 39.6077 8.10002 39.1693Z" fill="#005A45"/>
<path d="M60.8617 58.7539C60.2771 58.4616 59.6924 58.3155 58.9617 58.4616C58.9617 59.1924 59.1078 59.777 59.254 60.3616C59.6924 61.3847 60.4232 62.1155 61.4463 62.5539C61.8847 62.7001 62.4694 62.8462 63.3463 62.8462C63.3463 62.1155 63.2001 61.5309 63.054 60.9463C62.6155 59.9232 61.8847 59.0463 60.8617 58.7539Z" fill="#005A45"/>
<path d="M16.1384 17.2461C16.723 17.3923 17.3077 17.5384 18.0384 17.5384C18.0384 16.8077 17.8923 16.223 17.7461 15.6384C17.4538 14.6153 16.5769 13.8846 15.5538 13.4461C15.1153 13.3 14.5307 13.1538 13.6538 13.1538C13.6538 13.8846 13.8 14.4692 13.9461 15.0538C14.3846 16.223 15.2615 16.9538 16.1384 17.2461Z" fill="#005A45"/>
<path d="M7.07703 49.8385C6.63857 50.277 6.34626 50.7155 6.05396 51.4462C6.78472 51.7385 7.36934 51.8847 7.95395 51.8847C8.97703 51.8847 10.0001 51.4462 10.877 50.7155C11.3155 50.277 11.6078 49.8385 11.9001 49.1078C11.1693 48.6693 10.5847 48.6693 10.0001 48.6693C8.83088 48.5231 7.8078 48.9616 7.07703 49.8385Z" fill="#005A45"/>
<path d="M69.9232 26.1616C70.3616 25.7232 70.6539 25.2847 70.9463 24.5539C70.2155 24.1155 69.6309 24.1155 69.0463 24.1155C67.877 24.1155 66.8539 24.5539 66.1232 25.2847C65.6847 25.7232 65.3924 26.1616 65.1001 26.8924C65.8309 27.1847 66.4155 27.3309 67.0001 27.3309C68.1693 27.477 69.1924 27.0386 69.9232 26.1616Z" fill="#005A45"/>
<path d="M7.95395 24.1155C7.36934 24.1155 6.78472 24.2616 6.05396 24.5539C6.34626 25.2847 6.63857 25.7232 7.07703 26.1616C7.8078 26.8924 8.83088 27.3309 10.0001 27.3309C10.5847 27.3309 11.1693 27.1847 11.9001 26.8924C11.6078 26.1616 11.3155 25.577 10.877 25.2847C10.0001 24.5539 9.12319 24.1155 7.95395 24.1155Z" fill="#005A45"/>
<path d="M67.0001 48.5232C66.4155 48.5232 65.8309 48.6693 65.1001 48.9617C65.3924 49.6924 65.6847 50.1309 66.1232 50.5693C66.8539 51.3001 67.877 51.7386 69.0463 51.7386C69.6309 51.7386 70.2155 51.5924 70.9463 51.3001C70.6539 50.5693 70.3616 49.9847 69.9232 49.6924C69.1924 48.9617 68.1693 48.5232 67.0001 48.5232Z" fill="#005A45"/>
<path d="M27.3924 11.4001C27.8309 10.6693 27.8309 10.0847 27.8309 9.50011C27.8309 8.91549 27.6847 8.47703 27.5386 7.89242C27.3924 7.45396 27.1001 7.01549 26.6616 6.57703C26.2232 6.13857 25.7847 5.84626 25.0539 5.55396C24.7616 6.28472 24.6155 6.86934 24.6155 7.45395C24.6155 8.47703 25.0539 9.50011 25.7847 10.377C26.2232 10.6693 26.6616 11.1078 27.3924 11.4001Z" fill="#005A45"/>
<path d="M51.2153 65.6232C50.7769 65.1847 50.3384 64.8924 49.6076 64.6001C49.3153 65.3309 49.1692 65.9155 49.1692 66.5001C49.1692 67.5232 49.6076 68.5463 50.3384 69.4232C50.7769 69.8616 51.2153 70.1539 51.9461 70.4463C52.3846 69.7155 52.3846 69.1309 52.3846 68.5463C52.3846 67.9616 52.2384 67.5232 52.0923 66.9386C51.9461 66.5001 51.6538 66.0616 51.2153 65.6232Z" fill="#005A45"/>
<path d="M52.3846 7.45395C52.3846 6.86934 52.2384 6.28472 51.9461 5.55396C51.2153 5.84626 50.7769 6.13857 50.3384 6.57703C49.6076 7.3078 49.1692 8.33088 49.1692 9.50011C49.1692 10.0847 49.3153 10.6693 49.6076 11.4001C50.3384 11.1078 50.923 10.8155 51.2153 10.377C51.9461 9.50011 52.3846 8.62319 52.3846 7.45395Z" fill="#005A45"/>
<path d="M25.7847 65.6232C25.0539 66.3539 24.6155 67.377 24.6155 68.5463C24.6155 69.1309 24.7616 69.7155 25.0539 70.4463C25.7847 70.1539 26.3693 69.8616 26.6616 69.4232C27.3924 68.6924 27.8309 67.6693 27.8309 66.5001C27.8309 65.9155 27.6847 65.3309 27.3924 64.6001C26.6616 64.8924 26.2232 65.3309 25.7847 65.6232Z" fill="#005A45"/>
</svg>
