<svg width="81" height="67" viewBox="0 0 81 67" fill="none" xmlns="http://www.w3.org/2000/svg">
<path d="M21.0093 29.0501C20.9939 29.511 21.3514 29.8963 21.8063 29.9111C21.8151 29.9116 21.824 29.9116 21.8336 29.9116C22.2765 29.9116 22.6428 29.5554 22.6564 29.1041C22.8614 22.6441 22.4549 14.1103 22.6564 7.69076C22.6717 7.23037 22.3143 6.84488 21.8594 6.83029C21.4142 6.80467 21.0229 7.17704 21.0093 7.63775C20.8045 14.0845 21.2119 22.6407 21.0093 29.0501Z" fill="black"/>
<path d="M29.0767 29.0501C29.0613 29.511 29.4188 29.8963 29.8736 29.9111C29.8824 29.9116 29.8914 29.9116 29.901 29.9116C30.3439 29.9116 30.7101 29.5554 30.7238 29.1041C30.9288 22.6441 30.5223 14.1103 30.7238 7.69076C30.7391 7.23037 30.3817 6.84488 29.9268 6.83029C29.4616 6.80467 29.0903 7.17704 29.0767 7.63775C28.8719 14.0845 29.2793 22.6407 29.0767 29.0501Z" fill="black"/>
<path d="M38.7911 7.69058C38.8065 7.23019 38.449 6.84469 37.9942 6.8301C37.5498 6.80449 37.1577 7.17686 37.1441 7.63757C36.9392 14.0845 37.3467 22.6406 37.1441 29.0501C37.1287 29.511 37.4862 29.8963 37.941 29.9111C37.9498 29.9116 37.9588 29.9116 37.9684 29.9116C38.4112 29.9116 38.7775 29.5554 38.7911 29.1041C38.9961 22.6439 38.5897 14.1101 38.7911 7.69058Z" fill="black"/>
<path d="M21.0093 57.1127C20.9939 57.5736 21.3514 57.9589 21.8063 57.9737C21.8151 57.9742 21.824 57.9742 21.8336 57.9742C22.2765 57.9742 22.6428 57.618 22.6564 57.1667C22.8614 50.7066 22.4549 42.1734 22.6564 35.7538C22.6717 35.2934 22.3143 34.9079 21.8594 34.8934C21.4142 34.877 21.0229 35.2396 21.0093 35.7008C20.8045 42.1502 21.2119 50.7015 21.0093 57.1127Z" fill="black"/>
<path d="M29.0767 57.1127C29.0613 57.5736 29.4188 57.9589 29.8736 57.9737C29.8825 57.9742 29.8914 57.9742 29.901 57.9742C30.3439 57.9742 30.7101 57.618 30.7238 57.1667C30.9288 50.7066 30.5223 42.1734 30.7238 35.7538C30.7391 35.2934 30.3817 34.9079 29.9268 34.8934C29.4616 34.877 29.0903 35.2396 29.0767 35.7008C28.8717 42.1502 29.2793 50.7015 29.0767 57.1127Z" fill="black"/>
<path d="M38.7911 35.7537C38.8065 35.2933 38.449 34.9078 37.9942 34.8932C37.5498 34.8768 37.1577 35.2394 37.1441 35.7006C36.9391 42.1502 37.3467 50.7014 37.1441 57.1127C37.1287 57.5736 37.4862 57.9589 37.941 57.9737C37.9498 57.9741 37.9588 57.9741 37.9684 57.9741C38.4112 57.9741 38.7775 57.618 38.7911 57.1667C38.9961 50.7065 38.5897 42.1732 38.7911 35.7537Z" fill="black"/>
<path d="M50.5263 21.0075H50.5343C50.986 21.0075 51.3538 20.6392 51.3586 20.1813L51.402 15.6795C51.406 15.2186 51.0414 14.8414 50.5857 14.8369C50.5833 14.8369 50.5801 14.8369 50.5777 14.8369C50.1261 14.8369 49.7582 15.2052 49.7534 15.6631L49.71 20.1649C49.706 20.6258 50.0707 21.003 50.5263 21.0075Z" fill="black"/>
<path d="M57.6226 21.0075H57.6306C58.0823 21.0075 58.4502 20.6392 58.455 20.1813L58.4984 15.6795C58.5024 15.2186 58.1377 14.8414 57.682 14.8369C57.6796 14.8369 57.6764 14.8369 57.674 14.8369C57.2224 14.8369 56.8545 15.2052 56.8497 15.6631L56.8063 20.1649C56.8023 20.6258 57.167 21.003 57.6226 21.0075Z" fill="black"/>
<path d="M50.5263 32.1621H50.5343C50.986 32.1621 51.3538 31.7938 51.3586 31.3359L51.402 26.8341C51.406 26.3732 51.0414 25.996 50.5857 25.9915C50.5833 25.9915 50.5801 25.9915 50.5777 25.9915C50.1261 25.9915 49.7582 26.3598 49.7534 26.8177L49.71 31.3195C49.706 31.7804 50.0707 32.1576 50.5263 32.1621Z" fill="black"/>
<path d="M57.6226 32.1621H57.6306C58.0823 32.1621 58.4502 31.7938 58.455 31.3359L58.4984 26.8341C58.5024 26.3732 58.1377 25.996 57.682 25.9915C57.6796 25.9915 57.6764 25.9915 57.674 25.9915C57.2224 25.9915 56.8545 26.3598 56.8497 26.8177L56.8063 31.3195C56.8023 31.7804 57.167 32.1576 57.6226 32.1621Z" fill="black"/>
<path d="M50.5263 43.3167H50.5343C50.986 43.3167 51.3538 42.9484 51.3586 42.4904L51.402 37.9886C51.406 37.5278 51.0414 37.1505 50.5857 37.146C50.5833 37.146 50.5801 37.146 50.5777 37.146C50.1261 37.146 49.7582 37.5143 49.7534 37.9723L49.71 42.474C49.706 42.9349 50.0707 43.3123 50.5263 43.3167Z" fill="black"/>
<path d="M57.6226 43.3167H57.6306C58.0823 43.3167 58.4502 42.9484 58.455 42.4904L58.4984 37.9886C58.5024 37.5278 58.1377 37.1505 57.682 37.146C57.6796 37.146 57.6764 37.146 57.674 37.146C57.2224 37.146 56.8545 37.5143 56.8497 37.9723L56.8063 42.474C56.8023 42.9349 57.167 43.3123 57.6226 43.3167Z" fill="black"/>
<path d="M50.5263 54.4718H50.5343C50.986 54.4718 51.3538 54.1035 51.3586 53.6455L51.402 49.1434C51.406 48.6825 51.0414 48.3053 50.5857 48.3008C50.5833 48.3008 50.5801 48.3008 50.5777 48.3008C50.1261 48.3008 49.7582 48.6691 49.7534 49.1271L49.71 53.6292C49.706 54.09 50.0707 54.4673 50.5263 54.4718Z" fill="black"/>
<path d="M57.6226 54.4718H57.6306C58.0823 54.4718 58.4502 54.1035 58.455 53.6455L58.4984 49.1434C58.5024 48.6825 58.1377 48.3053 57.682 48.3008C57.6796 48.3008 57.6764 48.3008 57.674 48.3008C57.2224 48.3008 56.8545 48.6691 56.8497 49.1271L56.8063 53.6292C56.8023 54.09 57.167 54.4673 57.6226 54.4718Z" fill="black"/>
<path d="M70.757 25.6872C69.1917 25.4425 67.5989 25.7201 66.109 26.4342C66.083 21.7272 65.9868 17.1977 65.8141 12.9724C65.728 10.6847 63.8764 8.84675 61.5998 8.78855L45.1807 8.36496C45.1489 7.39928 45.1274 6.41916 45.0891 5.46256C44.991 2.90188 42.9227 0.851679 40.3844 0.794617L20.9587 0.297914C18.5863 0.229504 15.0062 0.128347 14.1037 6.06674C13.827 7.89517 13.9671 7.79077 14.1498 32.1028C12.8984 31.3482 11.4916 30.8077 10.0027 30.5754C4.11043 29.6522 -0.956749 36.7357 0.297915 42.3791V42.3786C1.14882 46.21 4.59683 49.2752 8.49647 49.6664C8.57895 49.6745 8.66111 49.6729 8.74343 49.6787C8.65359 55.2232 8.69619 59.5526 8.60522 64.9998C7.24998 65.0162 6.0203 65.0322 4.97928 65.0484C4.52444 65.0557 4.16056 65.4351 4.16777 65.896C4.17498 66.3523 4.54206 66.7174 4.99209 66.7174H5.00491C18.3677 66.5084 59.9608 66.2946 73.3982 66.0855C73.853 66.0782 74.2169 65.6988 74.2097 65.238C74.2025 64.7816 73.8354 64.4165 73.3854 64.4165C73.3814 64.4165 73.3774 64.4165 73.3726 64.4165C72.6498 64.4279 71.8288 64.4391 70.9502 64.4506C71.0525 58.222 71.0047 53.1519 71.107 47.0545C78.2922 46.3138 83.1653 38.5651 79.8137 31.9973C78.1393 28.716 74.6687 26.298 70.757 25.6872ZM10.2547 64.9809C10.3453 59.4836 10.3024 55.1473 10.393 49.6472C11.768 49.4926 13.1024 49.0311 14.2952 48.3171L14.4444 64.9126C14.4445 64.9214 14.4492 64.9286 14.4495 64.9374C12.9586 64.952 11.5559 64.9664 10.2547 64.9809ZM8.65919 48.0059C5.4463 47.6836 2.60609 45.1633 1.90652 42.013V42.0125C0.917239 37.5612 4.9804 31.4824 9.75162 32.2249C12.7286 32.6898 15.3579 34.5082 16.6146 36.9709C19.3735 42.3778 14.4223 48.582 8.65919 48.0059ZM42.1325 64.7103C34.4403 64.7699 24.2213 64.8455 16.0884 64.9217C16.0885 64.9131 16.0932 64.906 16.093 64.8972L15.9332 47.0947C18.864 44.3981 20.0341 40.0361 18.0797 36.2055C17.524 35.1164 16.7456 34.1353 15.8094 33.3029C15.6117 7.70096 15.4823 7.97298 15.7331 6.32044C16.4151 1.83876 18.505 1.90101 20.9143 1.96618L40.3448 2.46288C42.0169 2.50082 43.3766 3.84697 43.4418 5.52918C44.1873 24.2 43.7344 44.6613 42.1325 64.7103ZM63.046 64.5368C57.4037 64.5907 50.6494 64.6445 43.7871 64.6975C45.2554 46.2473 45.7429 27.4704 45.2333 10.0357L61.5577 10.4568C62.9674 10.4931 64.1136 11.6261 64.1668 13.0391C64.3508 17.5452 64.4501 22.3902 64.4666 27.4381C60.8594 30.1649 59.0371 35.0258 59.9001 38.9073V38.9069C60.4646 41.4474 62.0535 43.6807 64.1589 45.1756C63.9152 51.7832 63.5419 58.2921 63.046 64.5368ZM69.3009 64.471C67.8999 64.4875 66.3596 64.5041 64.7012 64.5205C65.1705 58.578 65.5275 52.3982 65.7698 46.1246C66.809 46.6194 67.9256 46.9496 69.0801 47.0653C69.2058 47.078 69.3317 47.0764 69.4575 47.0841C69.3549 53.3484 69.404 58.3282 69.3009 64.471ZM69.2428 45.4048C65.5448 45.0339 62.3038 42.1191 61.5087 38.5408V38.5403C60.3685 33.4135 65.0593 26.4841 70.5058 27.3365C73.9062 27.8674 76.9115 29.9469 78.3485 32.7634C81.4952 38.9261 75.8817 46.0632 69.2428 45.4048Z" fill="black"/>
<path d="M9.73785 35.3405C9.96575 35.3825 10.1775 35.2379 10.2217 35.0112C10.2659 34.7851 10.1203 34.5659 9.89721 34.5215C8.18562 34.1809 6.33806 34.8115 5.17965 36.1251C4.02124 37.4374 3.61059 39.3702 4.13463 41.0496C4.1902 41.2276 4.35196 41.3414 4.52749 41.3414C4.80472 41.3414 5.00443 41.0684 4.92035 40.7987C4.48249 39.3943 4.82538 37.778 5.79465 36.6808C6.76327 35.583 8.31214 35.0556 9.73785 35.3405Z" fill="black"/>
<path d="M73.3348 32.4421C73.4837 32.6182 73.7438 32.6376 73.9152 32.4886C74.0891 32.3387 74.1091 32.0756 73.9611 31.9003C69.8506 27.0265 61.9627 31.372 63.7959 37.52C63.8498 37.7005 64.0132 37.8167 64.1903 37.8167C64.4667 37.8167 64.6649 37.5468 64.5848 37.2788C63.0098 31.9965 69.7879 28.2399 73.3348 32.4421Z" fill="black"/>
<path d="M71.641 32.9302C71.7343 32.72 71.6418 32.4731 71.434 32.3786C68.6238 31.0987 65.3656 33.008 65.0855 36.133C65.0653 36.3629 65.232 36.5657 65.4589 36.5864C65.68 36.6088 65.8858 36.4409 65.9066 36.2084C66.1334 33.6675 68.7873 32.0889 71.096 33.1397C71.3013 33.2324 71.5476 33.1408 71.641 32.9302Z" fill="black"/>
<path d="M72.4685 32.7687C72.2431 32.7133 72.0232 32.849 71.9685 33.073C71.9137 33.2967 72.0482 33.5229 72.2687 33.5786L72.7236 33.6936C72.9446 33.7495 73.1682 33.6145 73.2244 33.3909C73.2792 33.1672 73.1454 32.9407 72.9249 32.8845L72.4685 32.7687Z" fill="black"/>
<path d="M77.1313 37.6701C76.9092 37.6203 76.6885 37.7635 76.6395 37.987C76.0965 40.4639 74.0565 42.4126 71.4623 42.7258C71.2369 42.753 71.075 42.9609 71.1024 43.1894C71.1293 43.4187 71.3346 43.5817 71.5604 43.5545C74.4493 43.2053 76.814 41.041 77.4446 38.1679C77.4936 37.9431 77.3536 37.7202 77.1313 37.6701Z" fill="black"/>
<path d="M60.6682 12.9432C60.8389 13.1298 60.8719 13.4672 60.8935 13.8258L61.1938 18.7772C61.2074 18.9985 61.3885 19.1687 61.6052 19.1687C61.6132 19.1687 61.6222 19.1682 61.6302 19.1679C61.8581 19.1541 62.0303 18.956 62.0167 18.7259L61.7164 13.7747C61.693 13.3856 61.6584 12.7977 61.2735 12.3768C60.8195 11.8801 60.1513 11.8594 59.5555 11.8753L53.8131 12.0481C53.5852 12.055 53.4067 12.2473 53.4131 12.478C53.4203 12.7079 53.5934 12.8769 53.8373 12.8826L59.5797 12.7098C59.988 12.6947 60.4492 12.7032 60.6682 12.9432Z" fill="black"/>
<path d="M58.2128 60.6334L47.0597 60.2438C46.8552 60.2255 46.6418 60.4158 46.633 60.6464C46.6258 60.8765 46.8038 61.0696 47.0307 61.0774L58.1838 61.467C58.1886 61.4674 58.1934 61.4674 58.1982 61.4674C58.4196 61.4674 58.6023 61.2903 58.6105 61.0644C58.6177 60.8342 58.4397 60.6412 58.2128 60.6334Z" fill="black"/>
<path d="M31.173 61.4107L18.3036 61.3383C18.3028 61.3383 18.302 61.3383 18.3012 61.3383C18.0751 61.3383 17.8906 61.5237 17.889 61.7531C17.8874 61.9838 18.0709 62.1715 18.2988 62.1728L31.1682 62.2453H31.1706C31.3967 62.2453 31.5812 62.0598 31.5828 61.8304C31.5844 61.5997 31.4009 61.412 31.173 61.4107Z" fill="black"/>
<path d="M14.4596 37.805C14.2574 37.9105 14.1778 38.1623 14.2824 38.3672C15.1221 40.0144 14.7727 42.2382 13.4685 43.5399C12.166 44.8421 9.96253 45.166 8.34848 44.2941C8.14877 44.1882 7.89844 44.2626 7.79066 44.4661C7.68351 44.6693 7.76007 44.9224 7.96058 45.0307C9.90744 46.0802 12.4674 45.7123 14.0483 44.1339C15.6229 42.5608 16.0294 39.9748 15.0151 37.9841C14.9102 37.7797 14.6615 37.7003 14.4596 37.805Z" fill="black"/>
</svg>
