<svg width="70" height="71" viewBox="0 0 70 71" fill="none" xmlns="http://www.w3.org/2000/svg">
<path d="M67.9412 47.0294C68.353 47.1324 68.7647 46.9265 68.8677 46.5147C68.9706 46.1029 68.7647 45.6912 68.353 45.5882C68.0441 45.4853 67.8382 45.4853 67.5294 45.3823C69.1765 44.3529 69.0735 41.6765 66.9118 41.0588C67.1177 39.7206 66.2941 38.6912 64.9559 38.5882C64.9559 37.0441 63.6177 36.0147 62.0735 36.4265C61.4559 34.5735 59.2941 34.1618 57.5441 34.9853C57.1324 35.1912 56.7206 35.5 56.3088 35.8088C56.3088 35.7059 56.2059 35.6029 56.2059 35.5C55.6912 34.6765 54.8677 34.0588 53.9412 33.9559C52.3971 33.75 50.75 34.7794 50.0294 36.3235C49.6177 37.1471 49.4118 38.1765 49.4118 39.3088H49.3088C48.5882 39.3088 47.8677 39.5147 47.353 40.0294C46.6324 40.8529 46.3235 42.0882 46.6324 43.3235C46.8382 44.25 47.4559 45.2794 47.9706 46C47.25 46.2059 46.6324 46.5147 46.0147 46.7206C45.9118 45.1765 44.5735 44.3529 43.2353 44.6618C42.8235 43.8382 41.8971 43.4265 40.8677 43.7353C40.5588 42.2941 39.1177 41.5735 37.7794 42.0882C37.2647 40.5441 35.6177 39.4118 33.7647 40.2353C33.8677 37.25 33.8677 34.3676 33.9706 32.5147C34.1765 32.2059 34.1765 31.6912 33.7647 31.4853C33.1471 31.0735 32.6324 30.6618 32.1177 30.1471C32.3235 30.25 32.5294 30.25 32.7353 30.1471C34.8971 29.1176 36.5441 27.4706 37.1618 25.4118C37.2647 25 37.0588 24.5882 36.6471 24.4853C36.2353 24.3823 35.8235 24.5882 35.7206 25C35.2059 26.5441 33.8677 27.9853 32.1177 28.8088C31.7059 29.0147 31.5 29.4265 31.8088 29.8382C30.8824 29.0147 30.1618 28.1912 29.4412 27.2647C29.1324 26.9559 28.7206 26.8529 28.3088 27.1618C28 27.4706 27.8971 27.8823 28.2059 28.2941C29.4412 29.8382 30.8824 31.1765 32.5294 32.4118C32.5294 33.5441 32.5294 33.8529 32.4265 34.9853C32.3235 34.9853 32.1177 34.9853 32.0147 35.0882C31.0882 35.6029 29.1324 35.8088 27.4853 35.6029C29.4412 32.7206 27.6912 28.8088 24.5 27.6765C25.6324 26.3382 26.1471 24.3823 25.5294 22.6323C24.9118 20.7794 23.1618 19.3382 21.3088 19.0294C21.7206 17.7941 21.7206 16.3529 21.103 14.9118C21 14.1912 19.7647 13.9853 20.6912 11.2059C21.103 9.86764 21.7206 8.94117 22.5441 8.32352C23.9853 7.29411 26.4559 7.08823 27.1765 8.52941C26.9706 9.04411 26.9706 9.55882 26.9706 9.97058C26.9706 10.2794 27.1765 10.5882 27.4853 10.6912C28.4118 11 28.9265 9.55882 28.8235 8.63235C29.6471 6.88235 32.5294 5.44117 35.103 6.05882C36.75 6.16176 38.0882 7.29411 38.5 8.73529C38.8088 9.86764 38.603 10.8971 37.8824 11.7206C37.6765 11.9265 37.5735 12.3382 37.7794 12.5441C37.8824 12.8529 38.1912 12.9559 38.5 12.9559C40.6618 12.8529 42.9265 14.0882 43.5441 15.6323C44.1618 17.1765 43.1324 19.0294 41.3824 19.8529C41.0735 19.9559 40.8677 20.3676 40.9706 20.6765C41.0735 21.2941 41.7941 21.2941 41.6912 21.2941C44.1618 21.2941 46.6324 23.0441 46.7353 25C46.8382 26.5441 45.2941 28.2941 43.2353 28.8088C42.4118 28.7059 41.2794 29.0147 41.4853 29.9412C41.5882 30.3529 41.8971 30.5588 42.3088 30.5588C42.6177 30.5588 43.0294 30.4559 43.4412 30.4559C44.1618 30.5588 44.8824 31.0735 44.8824 31.5882C45.0882 32.5147 44.1618 33.3382 43.2353 33.75C42 34.3676 40.4559 34.4706 39.1177 34.5735C38.8088 34.5735 38.603 34.7794 38.5 34.9853C38.1912 35.8088 36.5441 36.3235 35.4118 35.8088C35 35.6029 34.5882 35.8088 34.3824 36.1176C34.1765 36.5294 34.3824 36.9412 34.6912 37.1471C35.7206 37.6618 36.853 37.6618 37.9853 37.25C38.7059 36.9412 39.3235 36.5294 39.6324 36.0147C40.9706 35.9118 42.5147 35.7059 43.853 35.0882C45.603 34.2647 46.6324 32.7206 46.3235 31.1765C46.2206 30.5588 45.8088 30.0441 45.2941 29.6323C47.1471 28.6029 48.2794 26.75 48.1765 25C48.0735 22.8382 46.1177 20.8823 43.6471 20.1618C44.9853 18.8235 45.603 16.8676 44.8824 15.1176C44.1618 13.1618 42.103 11.8235 39.7353 11.5147C40.1471 10.4853 40.25 9.35294 39.8382 8.22058C39.2206 6.2647 37.5735 4.72058 35.4118 4.20588C32.6324 3.48529 29.5441 4.61764 27.8971 6.67646C26.353 5.02941 23.3677 5.33823 21.5147 6.67646C19.8677 7.91176 18.9412 10.0735 18.8382 11.8235C16.8824 10.6912 14.6177 11 12.8677 12.4412C12.353 12.8529 11.9412 13.2647 11.6324 13.7794C11.3235 13.4706 11.0147 13.2647 10.603 13.0588C9.26472 12.5441 7.51472 12.9559 6.27942 14.0882L6.17648 14.1912C4.11766 15.6323 3.29413 19.8529 4.11766 21.8088C2.05883 23.7647 1.23531 27.0588 2.26472 29.6323C2.57354 30.4559 3.08825 31.2794 2.98531 32.2059C2.98531 32.8235 2.67648 33.4412 2.4706 34.0588C1.54413 37.0441 3.60295 40.5441 6.69119 41.1618C7.7206 44.25 11.3235 45.8971 14.4118 44.1471C14.7206 44.0441 14.9265 43.9412 15.2353 43.8382C15.1324 45.3823 15.1324 46.6176 15.0294 48.2647C10.7059 48.4706 6.27942 48.8824 1.44119 49.7059C1.02942 49.8088 0.720599 50.2206 0.82354 50.6324C0.926482 51.0441 1.33825 51.3529 1.75001 51.25C2.67648 51.0441 3.50001 50.9412 4.42648 50.8382C4.42648 50.8382 4.52942 50.9412 4.63236 50.9412C11.5294 53.9265 17.5 59.5882 20.7941 66.2794C21 66.6912 21.4118 66.7941 21.8235 66.5882C22.2353 66.3823 22.3382 65.9706 22.1324 65.5588C19.0441 59.3824 13.6912 54.0294 7.30883 50.6324C12.4559 50.0147 17.1912 49.8088 21.7206 50.0147C21.7206 50.2206 21.8235 50.3235 22.0294 50.4265C27.3824 54.5441 31.7059 60 34.4853 66.0735C34.6912 66.4853 35.103 66.5882 35.5147 66.4853C35.9265 66.2794 36.0294 65.8676 35.9265 65.4559C33.1471 59.5882 29.1324 54.3382 24.0882 50.1176C29.2353 50.5294 33.8677 51.4559 38.8088 53.2059C38.8088 53.3088 38.9118 53.4118 39.0147 53.5147C42.9265 56.7059 45.9118 61.1324 47.353 66.0735C47.4559 66.4853 47.8677 66.6912 48.2794 66.5882C48.6912 66.4853 48.8971 66.0735 48.7941 65.6618C47.6618 61.6471 45.3971 57.9412 42.6177 54.8529C48.6912 57.6324 53.9412 61.5441 57.853 66.2794C58.1618 66.5882 58.5735 66.6912 58.9853 66.3824C59.2941 66.0735 59.3971 65.6618 59.0883 65.25C58.3677 64.4265 57.6471 63.5 56.8235 62.6765C59.9118 60.9265 63.7206 60.3088 67.2206 60.9265C67.6324 61.0294 68.0441 60.7206 68.1471 60.3088C68.25 59.8971 67.9412 59.4853 67.5294 59.3824C63.6177 58.6618 59.3971 59.4853 55.8971 61.4412C55.7941 61.4412 55.7941 61.5441 55.6912 61.5441C53.2206 59.1765 50.4412 57.1176 47.25 55.2647C53.0147 51.7647 59.8088 50.2206 66.603 50.8382C67.0147 50.8382 67.4265 50.5294 67.4265 50.1176C67.4265 49.7059 67.1177 49.2941 66.7059 49.2941C59.2941 48.5735 51.8824 50.4265 45.7059 54.4412C43.853 53.5147 41.8971 52.5882 39.9412 51.8676C47.6618 46 58.5735 44.0441 67.9412 47.0294ZM49.5147 44.9706C49.103 44.25 48.5882 43.6323 48.3824 42.8088C48.1765 42.0882 48.2794 41.3676 48.6912 41.0588C49 40.75 49.6177 40.6471 49.9265 40.9559C50.4412 41.5735 51.4706 41.1618 51.2647 40.3382C51.0588 39 51.1618 37.7647 51.5735 36.9412C51.9853 36.1176 52.9118 35.2941 53.9412 35.3971C54.353 35.3971 54.8677 35.7059 55.0735 36.2206C55.1765 36.4265 55.3824 36.8382 55.1765 37.25C54.8677 38.0735 56 38.6912 56.5147 37.9706C57.1324 37.1471 57.75 36.6323 58.3677 36.3235C59.8088 35.6029 61.0441 36.4265 60.8382 37.4559C60.7353 37.6618 60.6324 37.7647 60.6324 37.9706C60.4265 38.7941 61.7647 39.5147 62.2794 38.0735C62.3824 37.9706 62.4853 37.8676 62.5882 37.8676C63.4118 37.5588 63.7206 38.4853 63.4118 39C62.4853 39.8235 63.6177 41.0588 64.4412 40.1324C64.75 39.9265 65.1618 40.0294 65.3677 40.2353C65.5735 40.5441 65.4706 40.9559 65.1618 41.1618C64.1324 41.6765 64.853 43.1176 65.9853 42.5C66.3971 42.2941 66.9118 42.5 67.1177 42.8088C67.3235 43.2206 67.1177 43.7353 66.7059 43.9412C66.3971 44.1471 66.1912 44.4559 66.2941 44.8676C60.8382 43.5294 54.9706 43.7353 49.5147 45.3823C49.6177 45.2794 49.6177 45.0735 49.5147 44.9706ZM10.0882 14.6029C10.5 14.7059 10.8088 15.1176 10.9118 15.5294C10.8088 16.0441 10.7059 16.5588 10.8088 17.0735C10.8088 17.7941 11.8382 18.1029 12.25 17.4853C12.5588 16.9706 12.6618 16.3529 12.5588 15.6323C13.2794 13.7794 15.4412 12.4412 17.3971 12.9559C19.7647 13.6765 21 16.9706 19.5588 19.0294C19.1471 19.5441 19.5588 20.2647 20.2794 20.2647C21.9265 20.0588 23.6765 21.2941 24.1912 22.8382C24.7059 24.3823 23.9853 26.4412 22.4412 27.2647C21.7206 27.6765 22.0294 28.7059 22.853 28.7059C24.8088 28.7059 26.6618 30.3529 26.7647 32.3088C26.8677 33.9559 25.6324 35.6029 24.0882 36.2206C23.6765 36.2206 23.2647 36.3235 22.9559 36.5294C22.6471 36.7353 22.4412 37.0441 22.5441 37.4559C22.6471 37.7647 22.9559 38.0735 23.3677 37.9706C23.6765 37.9706 23.9853 37.8676 24.1912 37.7647C24.7059 37.8676 25.1177 38.2794 25.2206 38.7941C25.3235 39.7206 24.7059 40.6471 23.9853 41.0588C23.0588 41.6765 21.8235 41.7794 20.7941 41.8824C20.4853 41.8824 20.2794 42.0882 20.1765 42.3971C19.8677 43.2206 18.7353 43.6324 17.9118 43.2206C17.603 43.0147 17.0882 43.1176 16.8824 43.5294C16.9853 42.3971 16.9853 41.2647 16.9853 39.6176C17.1912 39.3088 17.1912 38.8971 16.8824 38.5882C16.3677 38.1765 15.9559 37.7647 15.4412 37.25H15.5441C15.6471 37.25 15.853 37.25 15.9559 37.1471C17.7059 36.1176 19.0441 34.3676 19.5588 32.3088C19.6618 31.8971 19.4559 31.4853 18.9412 31.3823C18.5294 31.2794 18.1177 31.4853 18.0147 31.8971C17.603 33.4412 16.5735 34.8823 15.1324 35.7059C14.9265 35.8088 14.7206 36.1176 14.7206 36.4265C14.103 35.8088 13.5882 35.0882 13.1765 34.3676C12.9706 34.0588 12.4559 33.9559 12.1471 34.1618C11.8382 34.3676 11.7353 34.8823 11.9412 35.1912C12.9706 36.7353 14.103 38.0735 15.5441 39.3088C15.5441 40.3382 15.5441 41.1618 15.4412 41.9853C15.3382 41.9853 15.2353 42.0882 15.2353 42.0882C14.103 42.9118 11.2206 42.9118 10.1912 42.1912C9.77942 41.8824 9.36766 41.4706 9.16178 40.9559C9.57354 40.8529 9.77942 40.3382 9.57354 39.9265L8.75001 38.0735C8.44119 37.4559 7.51472 37.4559 7.30883 38.1765C7.20589 38.3823 7.20589 38.5882 7.20589 38.8971C4.32354 37.3529 4.01472 33.8529 5.66178 31.6912C5.86766 31.3823 5.86766 30.9706 5.66178 30.7647C4.01472 28.6029 3.91178 25.3088 5.55883 23.1471L5.66178 23.0441C6.07354 23.3529 6.58825 23.6618 7.10295 23.7647C7.82354 23.9706 8.54413 23.0441 8.02942 22.0147C7.7206 21.3971 7.10295 20.9853 6.48531 20.9853C6.38236 20.9853 6.17648 20.9853 6.07354 20.9853C6.07354 20.8823 5.9706 20.7794 5.9706 20.6765C5.76472 19.9559 5.76472 19.1323 6.07354 18C6.38236 16.9706 6.79413 15.9412 7.51472 15.3235C8.23531 14.6029 9.36766 14.2941 10.0882 14.6029ZM16.7794 48.4706C16.7794 47.2353 16.8824 46.3088 16.8824 45.3823C18.4265 45.8971 21.5147 45.0735 22.1324 43.4265C22.75 43.3235 23.2647 43.2206 23.8824 43.0147C24.3971 42.9118 24.8088 42.9118 24.9118 42.8088C25.7353 42.3971 26.6618 41.6765 27.0735 40.8529C27.7941 39.5147 27.4853 37.7647 26.353 36.7353C28.2059 37.1471 30.8824 37.1471 32.5294 36.3235C32.5294 37.7647 32.4265 39.4118 32.4265 40.9559C30.6765 39.8235 28 41.1618 27.7941 43.9412C25.3235 43.5294 23.6765 46.5147 25.5294 48.7794C22.6471 48.4706 19.7647 48.3676 16.7794 48.4706ZM28.2059 49.0882C28.103 48.8824 28 48.6765 27.7941 48.5735C25.5294 47.6471 26.1471 45.1765 27.5882 45.4853C27.6912 45.4853 28 45.5882 28.103 45.7941C28.5147 46.5147 29.75 46 29.5441 45.1765C29.1324 43.2206 30.1618 42.0882 31.1912 42.0882C31.7059 42.0882 32.1177 42.5 32.2206 42.9118V43.1176C32.2206 43.5294 32.6324 43.8382 33.0441 43.8382C33.4559 43.8382 33.7647 43.5294 33.7647 43.1176C33.7647 43.0147 33.7647 42.9118 33.7647 42.8088C33.7647 41.9853 34.7941 41.1618 35.6177 41.3676C36.3382 41.4706 36.9559 42.5 36.75 43.2206C36.6471 43.4265 36.5441 43.6324 36.5441 43.7353C36.3382 44.5588 37.5735 45.0735 37.9853 44.25C38.0882 44.0441 38.0882 43.9412 38.1912 43.7353C38.3971 43.4265 39.0147 43.2206 39.4265 43.4265C39.8382 43.6324 39.9412 44.25 39.7353 44.6618C39.6324 44.7647 39.6324 44.8676 39.5294 44.9706C39.0147 45.6912 40.0441 46.6176 40.6618 46L40.9706 45.6912C41.3824 45.2794 42.103 44.8676 42.3088 45.4853C41.2794 46.8235 43.1324 47.75 43.75 46.2059C44.0588 46 44.4706 46 44.6765 46.2059C44.9853 46.4118 45.0882 47.1323 44.5735 47.4412C42.3088 48.4706 40.25 49.8088 38.3971 51.3529C38.3971 51.3529 38.3971 51.3529 38.2941 51.4559C34.4853 50.2206 31.5 49.6029 28.2059 49.0882Z" fill="black" stroke="white" stroke-width="0.2"/>
<path d="M62.1765 14.1912C63.103 13.0588 63.5147 11.7206 63.3088 10.3824C62.8971 7.19118 60.3236 5.95588 58.0588 6.16177C53.3236 6.57353 51.5736 11.9265 54.9706 14.9118C57.2353 16.7647 60.3236 16.5588 62.1765 14.1912ZM58.1618 7.60294C60.0147 7.5 61.4559 8.42647 61.7647 10.4853C61.8677 11.4118 61.5588 12.3382 60.9412 13.1618C59.603 14.8088 57.5441 15.0147 56 13.6765C53.5294 11.6177 54.8677 7.91177 58.1618 7.60294Z" fill="black" stroke="white" stroke-width="0.2"/>
</svg>
