<svg width="82" height="83" viewBox="0 0 82 83" fill="none" xmlns="http://www.w3.org/2000/svg">
<path d="M77.953 41.2138C77.367 41.1611 76.5151 40.9209 75.6364 40.8144C75.6702 38.7354 75.8495 35.9945 75.9825 33.8375C76.0189 33.2452 76.7055 33.3314 77.2075 33.0387C78.1661 32.4794 76.8239 30.8887 75.9292 29.9497C73.6911 27.6003 71.767 24.8852 69.6024 22.4696C68.8309 21.6088 68.0455 20.846 67.9335 19.3698C67.8695 18.5257 67.4921 18.0286 66.7333 18.0286C65.9344 18.0286 65.7567 19.0938 65.5794 20.3365C57.2018 20.2559 48.9659 19.4656 40.6128 19.972C40.5655 18.9785 40.4589 17.6899 39.3691 17.6899C38.3686 17.6899 38.6816 19.7927 38.5098 20.8536C36.429 22.5379 34.1389 24.5618 31.76 26.266C31.7245 25.4671 31.7628 24.2754 31.7945 23.5929C31.8042 20.9783 32.2489 18.3054 31.7334 15.7259C31.243 11.2766 25.2436 10.3282 22.0524 12.4C20.4481 13.4416 19.3132 15.1552 19.1382 17.0601C18.7274 21.5351 18.5593 26.007 18.9334 30.4968C19.0725 33.1649 20.9851 34.8214 23.2734 35.716C23.2779 37.4177 23.6259 39.1081 23.3834 40.7533C21.0705 40.998 12.729 40.9476 11.4686 40.9476C11.4686 39.5123 11.5991 37.8058 11.5991 36.4861C16.2619 35.3376 16.6632 30.7651 16.4199 25.6694C16.3403 22.7439 16.4573 19.9105 16.3507 16.895C16.2799 14.8873 15.5269 12.6471 13.7229 11.4994C11.3489 9.9891 7.76052 10.6689 5.98228 12.7657C3.4905 15.7033 4.11088 20.219 3.95905 23.7832C4.14586 28.4121 3.34188 35.0073 9.13787 36.3686C9.00987 38.1248 9.00987 39.483 8.88059 40.8939C7.22586 41.0542 5.44172 41.2671 3.95047 41.4004C2.67217 41.5068 2.75827 42.8597 4.08359 42.9981C5.86786 43.1845 9.01 43.158 11.2468 43.1312C14.4039 43.0935 18.2888 43.3189 21.4458 43.3176C24.8589 43.3162 41.1918 43.461 41.2579 43.3974C40.1928 44.8887 38.7282 47.099 37.6898 48.1641C34.2136 48.2362 29.1838 47.8595 25.7065 47.9243C20.2221 47.8836 15.2266 47.6951 9.73467 47.7442C8.33055 47.734 6.92528 47.7287 5.53063 47.9431C4.84376 48.0486 3.87052 47.951 3.92433 48.9595C4.05784 50.1937 5.54345 50.1814 6.77306 50.1346C9.71251 50.0807 13.342 50.0252 16.2798 50.0548C19.2175 50.0844 34.4541 50.2425 36.305 50.3477C35.799 51.1999 33.1268 54.6212 32.1241 55.7269C31.2718 55.7536 25.4703 55.8019 24.063 55.7864C21.2434 55.7555 18.4263 55.7383 15.6069 55.7988C13.1351 55.852 10.6599 55.7568 8.18859 55.818C7.10798 55.8447 5.14857 55.647 5.15484 56.832C5.14857 57.6442 6.15345 57.7561 6.86544 57.8463C9.15298 58.1359 11.4519 58.1407 13.7479 58.1612C18.6948 58.0653 28.4759 58.2833 30.4731 58.3099C29.4505 59.7165 27.4373 62.3713 26.3721 63.7954C24.8278 63.9819 20.8294 63.879 20.3008 63.8754C14.6289 63.8918 13.9363 63.8221 8.34016 63.9469C7.76808 63.9596 7.18588 64.0979 7.0411 64.7893C6.94001 65.2729 7.52554 65.7401 8.33234 65.8656C10.4009 65.9192 12.4721 65.9678 14.5415 65.9846C17.1819 65.9996 23.5228 65.8725 24.668 65.979C23.9885 66.759 21.1766 69.4122 20.8156 70.7407C20.6188 71.4641 20.3444 72.3167 21.6324 72.3167C22.7678 72.3167 23.7519 70.901 24.1089 70.4792C26.4902 67.7848 27.8805 65.8233 30.0327 62.9503C33.8523 57.9938 37.0865 53.7349 40.7257 48.6431C41.8392 47.0395 43.5749 45.0748 44.6667 43.5037C45.388 43.4293 48.102 43.3972 50.2055 43.3972C49.6259 44.7575 45.317 53.302 43.3618 56.9249C41.5512 60.2802 39.2342 64.4078 37.1306 67.6033C36.7541 68.1753 36.3929 68.7775 36.1565 69.4201C35.8786 70.1759 35.8476 71.2298 36.7257 71.5305C37.4771 71.7878 38.2422 71.3977 38.6577 70.7496C41.8287 65.8021 44.5469 60.4956 47.1668 55.1529C49.1001 51.2108 50.9798 47.2489 52.9482 43.3972C55.3715 43.2374 56.9691 43.4238 58.8598 43.3972C58.1794 46.5958 53.0927 62.0244 52.0249 68.923C51.8872 69.813 51.4268 72.3524 53.0002 72.2134C53.5296 72.1666 54.0399 71.7573 54.3595 70.9051C55.3109 68.3684 55.6894 66.3929 56.2768 63.7465C56.7996 61.3916 57.564 58.0016 58.194 55.6732C59.419 51.1462 60.2711 47.2584 61.4961 43.4504C62.9311 43.4238 65.0379 43.3439 66.529 43.5037C66.0807 51.4092 66.4411 59.5061 66.2678 67.4234C66.3207 68.312 66.2593 69.2167 66.5184 70.0769C66.895 71.6425 68.9952 71.1842 69.1187 69.6869C69.4314 65.899 69.5072 62.0793 69.4312 58.2396C69.4582 53.2768 69.4049 48.51 69.5382 43.424C70.4347 43.2967 74.8402 43.3339 76.515 43.2642C77.154 43.2375 78.2326 43.1978 78.5338 42.9058C79.349 42.1158 78.9103 41.3 77.953 41.2138ZM6.21393 19.2358C6.26723 17.4783 6.28145 16.4584 7.32708 15.0581C8.45188 13.5514 10.162 13.0152 11.747 13.8116C14.4512 15.1703 14.1672 19.2891 14.0785 22.8218C11.6109 22.9106 8.60294 22.7575 6.24942 22.7864C6.19624 21.6501 6.18151 20.3071 6.21393 19.2358ZM9.95979 34.2725C7.11247 34.1189 6.52655 29.849 6.44468 29.284C6.24954 27.9347 6.17843 26.0707 6.24954 25.1119C8.06033 25.0941 12.9826 25.3282 14.1496 25.3072C14.2383 26.6209 14.2246 28.2327 14.0057 29.7452C13.6676 32.0831 12.5575 34.4127 9.95979 34.2725ZM21.3205 17.8722C21.4207 17.0001 21.5383 16.3351 21.9474 15.691C23.1134 13.8545 26.0406 13.225 27.6767 14.1228C29.3208 15.0251 29.3099 16.6788 29.3808 18.1229C29.4108 19.4964 29.5413 21.6016 29.471 23.0352C28.7192 22.9951 23.8962 23.3129 21.0298 23.2958C21.0189 20.6663 21.2416 18.5598 21.3205 17.8722ZM24.5704 33.7932C20.562 33.4521 20.8746 28.1899 20.9487 25.3961C23.5864 25.315 26.8232 25.2212 29.3992 25.4139C29.4701 25.9644 29.5411 27.1716 29.4677 28.0048C27.4285 29.6746 25.6793 30.44 25.7598 31.4321C25.8308 32.3552 26.9952 31.967 27.0319 32.546C27.1089 33.7576 25.4046 33.8642 24.5704 33.7932ZM25.5645 40.7168C25.5113 39.7049 25.4457 37.2526 25.4402 35.9945C25.8309 36.0123 26.4345 35.9412 26.952 35.7764C27.0982 37.4763 27.2349 39.0632 27.3701 40.6342C26.896 40.6813 26.026 40.7345 25.5645 40.7168ZM34.6008 40.4948C34.5367 38.1788 33.8816 34.1038 36.7575 33.3581C36.9706 34.5564 37.0666 39.9629 37.0772 40.5214C36.225 40.5481 35.2399 40.5747 34.6008 40.4948ZM42.2433 40.4682C41.1516 40.5215 39.6335 40.5215 38.8348 40.4416C38.9222 38.8307 38.4452 34.4822 38.9413 33.0387C41.9963 33.1153 42.4688 38.3541 42.2433 40.4682ZM44.1872 40.8677C44.1606 39.7227 44.2164 38.5087 44.1872 37.4059C44.1908 35.5585 43.1511 33.4416 41.7641 32.2131C39.5196 30.2254 34.2188 31.0514 32.9887 34.4858C32.3897 36.1185 32.497 37.7521 32.6037 40.6812C31.9587 40.6317 30.4201 40.7078 29.5679 40.7078C29.408 38.8704 29.044 33.6125 29.0352 32.213C29.0312 31.5705 28.9798 31.1701 29.4347 30.8284C32.569 28.6436 36.649 25.2657 39.6604 22.9461C40.6353 23.3392 46.4097 30.0321 48.6129 32.658C49.057 33.2845 50.1465 33.5692 51.031 33.7044C51.031 36.0141 51.1643 38.7406 51.1643 40.9476C49.8858 41.0007 45.6253 40.8677 44.1872 40.8677ZM51.7529 31.2103C50.9512 31.2134 50.4641 30.5994 49.9824 30.0048C47.8867 27.4131 45.5627 25.0388 43.4273 22.6209C43.0681 22.214 43.6464 22.2881 43.7289 22.2694C44.8635 22.148 65.0633 22.3881 66.2068 22.5079C68.3516 24.8894 70.9853 27.9083 72.9123 30.1429C73.4447 30.7602 72.7617 30.6954 72.0838 30.7206C65.7045 30.9569 58.2451 31.1852 51.7529 31.2103ZM73.4794 40.8677C72.6274 40.8944 67.275 41.2138 64.3989 41.1073C58.5178 40.8895 59.0997 41.0275 53.3744 40.8411C53.3134 38.5785 53.1701 35.6832 53.3211 33.4915C58.1676 33.4915 60.162 33.3436 63.1741 33.305C69.4052 33.2252 71.642 33.1187 74.1453 33.0654C73.9321 35.7016 73.6658 38.6042 73.4794 40.8677ZM37.2575 27.9749C37.2002 29.8056 39.7485 29.3494 39.7002 27.8231C39.7277 26.2612 37.1054 26.4004 37.2575 27.9749ZM60.1457 36.8253C60.1501 38.69 62.4389 38.7477 62.4186 36.7251C62.3814 34.9758 60.1264 35.2361 60.1457 36.8253ZM66.7819 36.5754C66.5467 35.1347 64.6998 35.2069 64.6242 36.7674C64.5473 38.921 66.8532 38.3633 66.7819 36.5754ZM56.7084 35.6365C54.9039 35.4577 55.2238 38.2512 56.7109 38.1815C57.7963 38.0473 57.7308 35.7318 56.7084 35.6365ZM71.4019 36.8212C71.2276 35.3391 69.1674 35.3056 69.2062 36.9982C69.3043 38.702 71.3728 38.2663 71.4019 36.8212Z" fill="black" stroke="white" stroke-width="1.06494"/>
</svg>
