<svg width="421" height="442" viewBox="0 0 421 442" fill="none" xmlns="http://www.w3.org/2000/svg">
<path d="M224.696 307.659C227.035 307.553 229.405 307.393 231.785 307.091C230.828 307.157 229.871 307.224 228.958 307.279C227.501 307.384 226.098 307.522 224.696 307.659Z" fill="#005A45"/>
<mask id="path-2-inside-1_522_746" fill="white">
<path d="M224.393 239.914C153.291 262.587 114.973 279.361 65.0368 310.515C69.296 309.069 237.858 269.537 386.799 290.984C397.878 264.869 402.849 236.003 400.532 206.598C359.18 208.862 273.11 224.39 224.437 239.903"/>
</mask>
<path d="M65.0368 310.515L64.5075 309.667L65.3584 311.462L65.0368 310.515ZM386.799 290.984L386.656 291.974L387.419 292.083L387.719 291.374L386.799 290.984ZM400.532 206.598L401.529 206.519L401.452 205.546L400.477 205.6L400.532 206.598ZM224.393 239.914L224.09 238.961C152.931 261.652 114.532 278.457 64.5075 309.667L65.0368 310.515L65.5661 311.364C115.413 280.265 153.651 263.522 224.697 240.867L224.393 239.914ZM65.0368 310.515L65.3584 311.462C65.826 311.303 68.8592 310.541 74.1931 309.357C79.4908 308.182 86.9967 306.605 96.3516 304.82C115.062 301.249 141.163 296.846 171.782 293.157C233.031 285.78 312.309 281.268 386.656 291.974L386.799 290.984L386.941 289.994C312.348 279.253 232.874 283.784 171.543 291.172C140.871 294.866 114.724 299.277 95.9767 302.855C86.6028 304.644 79.0774 306.225 73.7599 307.405C68.4785 308.577 65.3124 309.366 64.7152 309.568L65.0368 310.515ZM386.799 290.984L387.719 291.374C398.86 265.115 403.859 236.088 401.529 206.519L400.532 206.598L399.535 206.677C401.839 235.918 396.896 264.624 385.878 290.593L386.799 290.984ZM400.532 206.598L400.477 205.6C359.038 207.868 272.884 223.413 224.133 238.95L224.437 239.903L224.74 240.855C273.337 225.368 359.323 209.856 400.587 207.597L400.532 206.598Z" fill="#005A45" mask="url(#path-2-inside-1_522_746)"/>
<mask id="path-4-inside-2_522_746" fill="white">
<path d="M398.815 192.159C397.882 186.327 396.678 180.521 395.146 174.707C369.711 78.325 270.981 20.7807 174.565 46.1787C78.1485 71.5767 20.581 170.293 45.9731 266.687C48.6585 276.881 52.2095 286.662 56.4616 295.934C77.4733 283.394 101.265 271.189 127.178 259.816C125.405 255.551 123.782 251.154 122.571 246.556C108.321 192.459 140.637 137.044 194.746 122.791C248.856 108.537 304.278 140.84 318.528 194.937C319.145 197.279 319.577 199.624 320.009 201.969C347.333 197.184 373.816 193.965 398.783 192.213"/>
</mask>
<path d="M395.146 174.707L396.113 174.453L396.113 174.452L395.146 174.707ZM56.4616 295.934L55.5526 296.351L56.0172 297.364L56.9741 296.793L56.4616 295.934ZM127.178 259.816L127.58 260.732L128.478 260.338L128.101 259.432L127.178 259.816ZM320.009 201.969L319.026 202.15L319.206 203.125L320.182 202.954L320.009 201.969ZM398.815 192.159L399.803 192.001C398.865 186.138 397.654 180.3 396.113 174.453L395.146 174.707L394.179 174.962C395.702 180.741 396.9 186.515 397.828 192.316L398.815 192.159ZM395.146 174.707L396.113 174.452C370.537 77.5361 271.261 19.6731 174.31 45.2117L174.565 46.1787L174.82 47.1457C270.702 21.8884 368.885 79.114 394.18 174.963L395.146 174.707ZM174.565 46.1787L174.31 45.2117C77.3599 70.7503 19.4733 170.013 45.0061 266.941L45.9731 266.687L46.9401 266.432C21.6888 170.572 78.9371 72.4031 174.82 47.1457L174.565 46.1787ZM45.9731 266.687L45.0061 266.941C47.7067 277.194 51.2775 287.029 55.5526 296.351L56.4616 295.934L57.3706 295.517C53.1416 286.296 49.6104 276.569 46.9401 266.432L45.9731 266.687ZM56.4616 295.934L56.9741 296.793C77.9466 284.276 101.7 272.09 127.58 260.732L127.178 259.816L126.776 258.901C100.829 270.288 77 282.512 55.9491 295.075L56.4616 295.934ZM127.178 259.816L128.101 259.432C126.338 255.191 124.734 250.84 123.538 246.301L122.571 246.556L121.604 246.81C122.831 251.468 124.471 255.911 126.254 260.2L127.178 259.816ZM122.571 246.556L123.538 246.301C109.429 192.738 141.425 137.87 195.001 123.758L194.746 122.791L194.491 121.824C139.848 136.218 107.213 192.179 121.604 246.81L122.571 246.556ZM194.746 122.791L195.001 123.758C248.576 109.645 303.452 141.629 317.561 195.191L318.528 194.937L319.495 194.682C305.104 140.051 249.135 107.429 194.491 121.824L194.746 122.791ZM318.528 194.937L317.561 195.191C318.167 197.492 318.593 199.8 319.026 202.15L320.009 201.969L320.993 201.788C320.562 199.449 320.123 197.067 319.495 194.682L318.528 194.937ZM320.009 201.969L320.182 202.954C347.473 198.175 373.922 194.96 398.853 193.211L398.783 192.213L398.713 191.216C373.711 192.97 347.193 196.193 319.837 200.984L320.009 201.969Z" fill="#005A45" mask="url(#path-4-inside-2_522_746)"/>
<mask id="path-6-inside-3_522_746" fill="white">
<path d="M369.742 322.245C332.952 328.967 293.874 338.101 256.532 350.304C217.012 363.219 184.803 376.761 157.78 389.91C191.469 402.422 229.15 405.069 266.51 395.227C310.336 383.683 346.08 356.963 369.687 322.213"/>
</mask>
<path d="M256.532 350.304L256.222 349.353L256.222 349.353L256.532 350.304ZM157.78 389.91L157.342 389.011L155.24 390.034L157.432 390.847L157.78 389.91ZM369.742 322.245L369.562 321.261C332.74 327.989 293.616 337.133 256.222 349.353L256.532 350.304L256.843 351.254C294.131 339.069 333.164 329.945 369.921 323.229L369.742 322.245ZM256.532 350.304L256.222 349.353C216.657 362.284 184.405 375.842 157.342 389.011L157.78 389.91L158.217 390.809C185.2 377.679 217.368 364.155 256.843 351.254L256.532 350.304ZM157.78 389.91L157.432 390.847C191.307 403.429 229.198 406.09 266.765 396.194L266.51 395.227L266.255 394.26C229.101 404.047 191.632 401.416 158.128 388.973L157.78 389.91ZM266.51 395.227L266.765 396.194C310.833 384.586 346.777 357.716 370.514 322.775L369.687 322.213L368.86 321.651C345.383 356.209 309.838 382.78 266.255 394.26L266.51 395.227Z" fill="#005A45" mask="url(#path-6-inside-3_522_746)"/>
<mask id="path-8-inside-4_522_746" fill="white">
<path d="M75.0551 327.593C91.8186 350.363 113.587 368.706 138.365 381.385C169.542 364.451 222.385 343.804 258.927 332.09C299.361 319.12 331.8 309.972 369.887 304.3C266.126 292.478 161.973 305.068 75.0437 327.55"/>
</mask>
<path d="M138.365 381.385L137.91 382.275L138.379 382.515L138.843 382.264L138.365 381.385ZM258.927 332.09L259.233 333.043L259.233 333.043L258.927 332.09ZM369.887 304.3L370.034 305.289L370 303.306L369.887 304.3ZM75.0551 327.593L74.2498 328.186C91.1063 351.082 112.995 369.526 137.91 382.275L138.365 381.385L138.821 380.495C114.179 367.885 92.5308 349.643 75.8604 327L75.0551 327.593ZM138.365 381.385L138.843 382.264C169.943 365.371 222.721 344.747 259.233 333.043L258.927 332.09L258.622 331.138C222.049 342.862 169.141 363.53 137.888 380.506L138.365 381.385ZM258.927 332.09L259.233 333.043C299.648 320.078 332.027 310.949 370.034 305.289L369.887 304.3L369.74 303.31C331.573 308.994 299.074 318.162 258.622 331.138L258.927 332.09ZM369.887 304.3L370 303.306C266.092 291.467 161.814 304.076 74.7933 326.581L75.0437 327.55L75.2941 328.518C162.133 306.06 266.159 293.488 369.774 305.293L369.887 304.3Z" fill="#005A45" mask="url(#path-8-inside-4_522_746)"/>
</svg>
