<svg width="400" height="284" viewBox="0 0 400 284" fill="none" xmlns="http://www.w3.org/2000/svg">
<path d="M397.039 169.566C397.039 169.566 397.351 169.123 397.529 168.945C396.549 166.949 394.813 166.195 392.454 166.417C393.967 167.482 395.525 168.546 397.039 169.611M199.562 124.635C199.562 124.635 199.162 124.414 198.983 124.281C198.271 125.035 197.425 125.744 196.891 126.631C196.669 126.986 196.98 127.74 197.069 128.317C197.603 128.095 198.36 128.006 198.583 127.651C199.073 126.72 199.251 125.655 199.562 124.68M81.726 99.8413C86.9345 99.5752 92.143 99.043 97.3515 99.0873C102.471 99.0873 107.635 99.4865 112.71 100.107C117.785 100.773 122.771 101.926 127.801 102.902C112.932 94.3414 97.2624 97.4462 81.726 99.8857M223.512 48.3904C213.273 59.479 206.952 71.6764 205.973 86.2689C208.688 80.0594 210.691 73.5393 213.451 67.374C216.301 61.0757 219.906 55.0879 223.512 48.4348M63.7857 104.454C75.1821 103.7 87.3352 102.192 99.4438 102.192C111.641 102.192 123.839 103.7 135.68 106.583C126.02 99.2647 74.9595 98.0228 63.7857 104.41M282.096 112.039C287.394 112.394 292.335 112.438 297.188 113.148C322.384 116.652 345.355 125.655 365.521 141.357C371.308 145.881 377.185 150.316 383.016 154.796C382.438 153.687 381.636 152.845 380.79 152.002C359.511 131.599 334.315 118.692 305.468 112.704C297.811 111.107 290.199 110.442 282.096 111.994M140.444 121.353C136.215 120.466 132.297 121.397 128.558 122.95C123.884 124.857 119.387 127.341 114.713 129.204C101.536 134.482 89.9171 141.978 79.7673 151.869C74.6924 156.836 69.3949 161.538 64.2754 166.461C57.865 172.627 51.4991 178.881 45.1332 185.09C45.0441 185.179 45.0441 185.401 44.8216 186.022C46.7358 184.425 48.3829 183.183 49.852 181.808C58.7999 173.336 67.6587 164.82 76.6066 156.393C82.6164 150.76 88.6262 144.994 95.8824 140.958C102.783 137.143 109.905 133.728 116.894 130.047C122.904 126.897 129.137 124.414 135.725 122.861C137.328 122.506 138.841 121.885 140.399 121.397M7.07125 126.631C10.5881 129.248 13.7933 131.377 16.6424 133.861C19.2244 136.123 22.6967 135.591 24.2548 132.486C25.7238 129.514 27.2819 126.543 29.3297 123.97C34.093 117.938 40.7705 114.567 47.7597 111.728C49.0061 111.24 50.1191 110.442 51.321 109.777C47.359 110.442 43.5306 111.373 39.8357 112.66C31.2884 115.587 22.7412 118.559 14.283 121.885C11.6565 122.906 9.43064 125.035 7.02673 126.631M194.042 72.9183C190.837 78.6844 188.121 84.4061 184.605 89.5512C182.112 93.1882 181.8 96.4704 183.536 100.285C184.115 101.527 184.605 102.857 185.317 104.011C187.454 107.337 188.745 110.974 189.323 114.877C189.813 118.16 191.46 120.91 194.176 123.393C194.71 121.93 195.289 120.777 195.556 119.535C196.268 116.297 196.758 113.015 197.559 109.777C199.073 103.523 200.853 97.3575 202.233 91.1036C202.634 89.2407 202.767 86.8012 201.922 85.2488C199.562 80.9021 196.624 76.8659 194.042 72.9627M227.875 75.003C227.296 76.4667 226.762 77.9303 226.094 79.3053C225.649 80.2811 225.159 81.4343 224.314 81.9666C220.93 84.0512 218.215 87.156 213.763 87.5552C209.623 87.91 206.818 90.5713 205.706 94.7406C204.103 100.684 202.411 106.583 200.853 112.527C200.052 115.587 199.785 118.736 200.408 122.018C207.442 118.736 214.253 115.498 221.108 112.349C225.07 110.531 228.543 108.402 231.169 104.543C234.731 99.3091 235.042 99.93 231.659 93.8979C231.525 93.6317 231.392 93.41 231.214 93.1438C227.519 87.5996 225.605 81.7448 227.83 75.003M200.319 128.184C203.346 126.498 206.329 125.212 208.911 123.349C214.431 119.357 220.218 115.853 226.628 113.813C231.08 112.394 234.018 109.954 235.799 105.696C236.333 104.41 238.025 103.079 239.449 102.724C251.246 99.8413 262.331 95.3172 272.659 88.9302C279.247 84.8496 286.326 82.5875 294.161 83.4303C295.051 83.519 295.986 83.5633 296.921 83.652C297.054 83.4746 297.188 83.2529 297.277 83.0754C296.609 82.5432 296.03 81.8335 295.273 81.5674C294.428 81.2569 293.404 81.3456 292.513 81.1682C285.346 79.6158 278.179 79.0392 270.967 81.1682C262.999 83.4746 254.852 85.3819 248.531 91.1479C244.48 94.8293 240.74 98.9099 236.867 102.813C236.289 103.39 235.532 103.833 234.864 104.365C234.731 104.188 234.552 104.011 234.419 103.878C236.467 99.3534 239.894 95.8051 243.411 92.4785C246.973 89.1076 250.757 85.9141 254.808 83.2085C258.992 80.3698 264.023 79.3497 269.009 78.6844C273.905 78.0191 278.802 77.4424 283.699 77.132C288.596 76.8215 293.137 78.64 297.544 80.6803C297.722 80.3698 297.9 80.0593 298.078 79.7045C297.01 78.64 295.897 77.6199 294.828 76.5554C293.27 74.9143 291.623 73.3175 290.199 71.5877C288.329 69.2813 286.815 66.7531 284.901 64.5354C283.031 62.4064 281.473 60.3217 280.984 57.4387C280.316 53.4912 279.292 52.5597 275.196 52.5597C271.368 52.5597 267.539 52.8702 263.667 53.0033C250.133 53.4912 239.672 59.479 232.06 70.5232C227.385 77.265 226.807 84.0956 231.214 91.1923C232.416 93.1438 233.707 95.1398 234.552 97.2688C235.042 98.4663 235.309 100.374 234.686 101.349C231.792 105.785 229.121 110.353 223.69 112.571C217.191 115.232 211.003 118.603 204.504 121.353C201.521 122.595 199.874 124.28 200.319 128.317M248.798 32.6447C248.931 32.4229 249.109 32.2012 249.288 31.9794C248.486 31.4028 247.596 30.8705 246.839 30.2496C236.378 21.2013 224.136 17.7417 210.513 18.6288C204.103 19.028 199.028 21.9553 196.402 27.9875C194.799 31.6689 193.686 35.5721 192.573 39.4752C192.217 40.8059 192.306 42.3583 192.573 43.7333C194.354 52.2049 195.467 60.6766 194.131 69.3256C193.998 70.3458 194.398 71.6321 194.932 72.5191C196.713 75.3135 198.627 78.0634 200.675 80.6803C203.791 84.7609 204.326 89.0633 202.723 93.9422C201.076 98.9542 199.918 104.099 198.627 109.2C197.381 114.079 196.223 119.002 195.066 123.881C194.888 124.635 195.066 125.478 195.066 126.853C196.001 125.833 196.402 125.168 196.98 124.813C199.028 123.482 199.117 121.575 199.162 119.357C199.251 116.297 199.74 113.192 200.453 110.176C201.565 105.386 203.079 100.728 204.281 95.9382C205.839 89.7729 208.555 87.023 214.921 86.1359C218.972 85.5593 221.286 82.4545 224.358 80.4142C224.759 80.1481 224.892 79.4384 225.159 78.9061C227.163 74.4707 229.121 70.0353 231.125 65.6442C232.46 62.7612 234.374 60.3661 237.134 58.6806C239.805 57.0839 241.497 54.6887 242.387 51.7614C243.011 49.6767 243.589 47.5921 244.302 45.5518C245.815 41.1607 247.908 39.697 252.493 39.5196C254.763 39.4309 256.989 39.2978 259.215 39.1204C259.883 39.0761 260.506 38.8543 261.129 38.6769C261.174 38.4551 261.218 38.189 261.263 37.9672C259.393 36.9471 257.568 35.7938 255.653 34.9511C253.517 34.0197 251.291 32.9108 249.109 35.1285C248.664 35.5721 247.774 35.6608 247.062 35.7938C244.88 36.2817 242.655 36.7696 240.473 37.1688C233.751 38.322 228.81 42.0034 225.337 47.8138C223.468 51.0073 221.598 54.1565 219.773 57.3943C215.41 65.1563 211.137 72.9627 209.267 81.8335C208.955 83.2972 208.288 84.7165 207.575 86.0472C207.175 86.7568 206.284 87.2447 205.616 87.8213C205.305 87.023 204.771 86.2246 204.682 85.3819C204.548 84.4061 204.771 83.3859 204.904 82.3658C206.017 75.136 208.288 68.2168 212.116 62.0515C215.855 56.0637 220.129 50.342 224.714 44.9752C229.433 39.4309 235.621 35.7051 242.877 34.1084C244.836 33.6648 246.795 33.1326 248.709 32.6447M7.29383 119.934C8.0061 119.756 8.36224 119.668 8.67386 119.579C17.1766 116.474 25.6348 113.236 34.2265 110.353C45.7564 106.45 57.5534 103.478 69.5284 101.172C80.0789 99.1317 90.5404 96.7809 101.313 96.3373C110.261 95.9382 118.987 96.6478 127.089 101.083C129.626 102.458 132.253 103.789 135.013 104.543C138.886 105.607 142.892 106.184 146.943 106.938C145.385 103.922 143.738 100.861 142.224 97.7567C137.817 88.7084 129.804 83.4746 121.613 78.4182C120.589 77.7973 119.343 77.4424 118.141 77.132C105.008 73.5836 91.6978 72.9183 78.2092 74.6925C71.4426 75.5796 64.6316 76.2892 57.865 76.4223C53.5914 76.511 49.852 77.3537 46.6022 80.1037C45.2222 81.2569 43.7532 82.3658 42.4622 83.6077C38.144 87.5996 33.2917 90.6157 27.5935 92.3011C20.0257 94.5632 14.5946 99.4421 11.0333 106.406C8.94096 110.531 7.42738 114.877 7.24932 119.978M181.533 129.514C181.577 129.293 181.622 129.071 181.711 128.805C179.619 128.184 177.571 127.252 175.434 127.075C165.373 126.055 156.203 122.728 148.145 116.696C145.385 114.611 142.358 113.236 139.197 111.95C127.356 107.071 114.891 105.341 102.204 104.853C87.2016 104.277 72.5556 106.583 57.9986 109.688C51.9888 110.974 46.8248 113.547 42.6848 118.115C40.8596 120.111 38.9453 121.974 37.0311 123.793C33.5588 127.075 30.1755 130.446 26.4806 133.462C25.1006 134.615 24.1212 135.68 23.8986 137.454C23.7651 138.518 23.4535 139.583 23.4535 140.692C23.4535 143.708 22.3851 146.28 20.7824 148.808C17.6217 153.732 15.7075 158.921 16.7314 164.998C17.6663 170.586 19.4024 175.598 24.2548 178.836C27.1929 180.788 29.4632 183.139 31.1994 186.155C31.6891 187.042 32.3123 187.84 32.9356 188.638C34.4491 190.501 35.7846 190.767 37.8769 189.526C39.4795 188.55 41.0376 187.441 42.3731 186.155C46.2461 182.385 49.941 178.348 53.8585 174.623C62.0051 166.905 70.4188 159.453 78.5208 151.691C88.7597 141.845 100.29 133.994 113.511 128.672C118.541 126.631 123.394 124.147 128.38 121.974C135.413 118.914 142.892 120.244 150.193 119.978C150.95 119.978 151.84 120.244 152.463 120.643C153.22 121.176 153.71 122.018 154.289 122.728C153.443 123.172 152.508 124.059 151.751 123.97C149.703 123.704 147.745 122.906 145.697 122.462C144.495 122.196 143.07 121.708 141.957 122.063C131.629 124.99 121.658 128.76 111.998 133.595C100.512 139.361 89.561 145.615 80.168 154.53C67.6587 166.373 54.8379 177.905 42.2396 189.659C40.9931 190.812 39.9692 192.32 39.2569 193.828C38.9453 194.538 39.3905 196.312 39.9692 196.534C43.219 197.908 45.2667 200.437 47.4035 203.054C48.0713 203.896 49.4068 204.517 50.5197 204.606C57.1972 205.094 62.6283 202.921 65.5219 196.578C67.7032 191.832 70.953 189.126 76.295 188.106C81.637 187.086 85.1538 183.36 86.4003 177.905C86.7564 176.397 86.6674 174.756 86.7119 173.159C87.0235 161.405 91.6533 152.357 103.005 147.566C106.121 146.28 108.392 144.018 110.439 141.401C116.716 133.284 124.64 127.918 135.28 127.829C139.821 127.829 144.361 128.539 148.857 128.982C151.128 129.204 153.354 129.426 155.001 128.494C154.511 127.208 153.932 126.188 153.799 125.123C153.799 124.813 155.268 123.881 155.535 124.014C156.781 124.813 157.805 125.922 158.918 126.942C158.785 127.119 158.651 127.341 158.562 127.518C160.654 127.607 162.791 127.563 164.839 127.873C168.4 128.361 172.051 128.716 175.479 129.736C177.704 130.401 179.53 130.135 181.533 129.647M203.524 129.071C203.213 129.248 202.856 129.381 202.545 129.559C200.764 130.401 199.073 131.288 197.203 129.647C196.758 129.248 195.912 129.204 195.244 129.159C194.487 129.071 193.152 129.426 193.063 129.159C192.751 128.405 192.573 127.297 192.929 126.587C193.597 125.123 193.152 124.192 192.306 123.039C191.193 121.531 189.768 119.978 189.412 118.293C188.077 111.773 185.228 105.918 182.379 99.9744C180.598 96.2486 181.043 92.7003 183.759 89.2407C187.454 84.4948 190.214 79.1279 192.039 73.3175C192.35 72.3417 192.707 71.0554 192.35 70.2127C188.656 61.4306 189.19 52.4267 190.659 43.3341C190.837 42.2696 190.703 40.9833 190.303 39.9631C188.032 34.5076 185.806 28.9633 183.225 23.6408C177.304 11.3103 167.332 4.65719 153.621 3.6814C152.909 3.63704 152.152 3.50398 151.529 3.14915C148.724 1.59675 145.919 1.95159 143.159 3.23786C140.978 4.258 138.93 4.30236 136.615 3.59269C135.725 3.32657 134.122 3.50398 133.633 4.08059C132.742 5.18944 133.855 6.07653 134.79 6.8749C143.026 14.0603 150.46 21.9997 155.802 31.5802C158.829 36.9914 162.213 42.0478 166.175 46.7937C171.873 53.6242 176.992 60.854 178.951 69.7248C180.153 75.1804 180.732 80.8134 181.399 86.3576C181.622 88.1762 181.488 90.1278 181.177 91.9463C181.088 92.5672 180.108 93.0551 179.53 93.6317C179.04 93.0551 178.417 92.5672 178.105 91.9463C177.838 91.414 177.749 90.66 177.793 90.039C177.927 86.8899 178.194 83.6964 178.239 80.5472C178.239 79.1723 178.372 77.5755 177.793 76.3779C173.52 67.4628 169.202 58.5476 164.616 49.7211C162.48 45.6405 160.298 41.4268 157.316 37.9672C152.241 32.0237 146.543 26.6125 141.112 21.0239C137.328 17.0764 133.722 13.0401 132.431 7.49586C132.075 6.03217 129.493 5.01203 128.602 6.12088C126.688 8.47165 124.373 7.71763 122.014 7.54022C120.011 7.3628 117.874 7.85069 117.473 10.0241C117.072 12.2861 117.117 14.7256 117.607 16.9877C118.007 18.7175 119.61 19.6933 121.435 19.2054C121.123 17.1207 120.634 15.1248 120.589 13.1732C120.589 12.5079 121.524 11.3103 122.103 11.266C122.771 11.2216 123.928 12.1087 124.106 12.774C124.462 14.3264 124.729 16.1006 124.373 17.6086C123.973 19.2941 124.418 20.0037 125.842 20.5804C127.267 21.157 128.602 21.8223 130.027 22.3989C138.574 26.0359 145.252 31.5802 148.902 40.318C149.169 40.8946 149.481 41.5155 149.97 41.9147C154.734 46.3058 157.939 51.8501 161.144 57.3056C161.99 58.725 162.302 60.5435 162.391 62.229C162.524 64.2249 162.391 66.1321 164.527 67.241C165.017 67.5071 165.462 68.2168 165.64 68.7934C166.442 71.9869 167.421 75.1804 167.777 78.4626C168 80.4142 168.667 81.7892 169.78 83.2529C172.585 86.9343 175.612 90.4826 177.793 94.5188C180.42 99.3978 182.334 104.676 184.382 109.821C185.495 112.571 186.163 115.454 187.142 118.248C187.543 119.357 188.166 120.422 188.834 121.442C189.412 122.329 190.347 123.039 190.837 124.014C191.238 124.857 191.193 125.922 191.371 126.897C190.525 126.365 189.501 125.966 188.878 125.256C188.166 124.458 187.854 123.349 187.276 122.462C186.563 121.397 185.985 120.156 185.005 119.402C177.393 113.414 171.917 105.696 167.51 97.2244C166.397 95.0511 165.507 92.3011 165.774 89.9947C166.397 84.8053 166.442 79.7045 165.551 74.5594C165.195 72.6078 164.795 70.9667 163.281 69.6361C161.011 67.5958 159.942 65.0676 160.076 61.9185C160.209 58.5476 159.096 55.6202 156.603 53.092C154.734 51.1848 152.775 49.1888 151.573 46.838C149.214 42.2252 145.43 39.2535 141.379 36.4148C139.999 35.439 138.841 34.2415 137.461 33.31C134.79 31.4471 132.253 29.3181 129.315 27.9875C125.175 26.1246 120.812 24.6609 116.449 23.3747C106.611 20.4473 96.3721 19.5602 86.1777 18.5401C79.8563 17.9191 73.4904 17.4312 67.3916 19.5159C61.827 21.4231 56.4405 23.7739 50.9649 25.9472C50.7868 25.9916 50.7423 26.302 50.3862 26.8343C52.0333 27.544 53.5469 28.298 55.1495 28.8302C62.8064 31.4471 70.6413 33.7536 78.1647 36.7253C86.0442 39.8301 93.7011 43.5558 101.402 47.0598C110.974 51.4065 120.634 55.4428 129.626 61.0758C140.355 67.8176 149.748 76.2005 159.185 84.4948C161.5 86.5351 163.058 89.4624 164.839 92.0793C165.195 92.6116 164.839 93.6761 164.839 94.4745C164.038 94.2527 163.192 94.164 162.48 93.8092C161.723 93.41 161.055 92.789 160.521 92.0793C158.117 88.8415 155.847 85.5149 153.443 82.2327C152.73 81.2569 151.929 80.2368 150.95 79.6602C146.365 76.8658 141.646 74.2933 137.105 71.4546C126.955 65.0233 116.894 58.3258 105.81 53.4912C94.903 48.7009 84.0409 43.8663 73.1343 39.2091C65.789 36.06 58.3992 33.1769 50.9649 30.2052C49.5403 29.6286 47.9823 29.4512 46.9139 29.1851C46.1571 31.1367 45.6674 32.7334 44.9106 34.1527C43.397 37.0358 43.6196 39.697 45.5338 42.2696C48.2494 46.0397 51.7662 48.5235 56.3959 49.1888C60.4915 49.7654 64.3199 51.0073 67.6142 53.5799C70.8194 56.1081 74.3808 56.4629 78.2982 55.975C85.3764 55.0436 91.8759 55.7976 97.1734 61.6524C100.913 65.866 106.121 66.9749 111.552 65.112C115.203 63.8701 118.452 64.3136 121.391 66.5757C126.376 70.3458 131.273 74.1602 136.17 78.0191C141.334 82.0996 146.186 86.5794 152.641 88.7528C154.289 89.3294 155.713 91.0148 156.826 92.5229C159.141 95.5833 160.343 99.6196 164.527 100.995C164.839 101.083 165.017 101.482 165.284 101.749C166.575 103.257 167.688 104.986 169.157 106.228C175.211 111.285 180.732 116.74 184.872 123.482C185.539 124.591 186.786 125.301 187.81 126.232C188.611 126.942 189.457 127.607 190.169 128.405C190.392 128.672 190.169 129.337 190.169 129.78C189.724 129.78 189.145 129.869 188.834 129.692C188.21 129.337 187.632 128.849 187.231 128.272C186.118 126.764 184.605 126.232 182.868 125.789C180.999 125.345 179.218 124.502 177.482 123.66C171.65 120.91 166.086 117.494 160.031 115.454C155.713 113.99 151.439 113.059 148.19 108.712C148.368 111.551 146.899 111.373 145.474 111.019C143.872 110.619 142.314 109.998 140.577 109.422C143.07 112.305 146.186 113.414 149.436 114.523C156.781 117.006 164.038 119.712 171.294 122.506C175.568 124.147 179.307 127.208 184.248 127.03C184.916 127.03 185.673 128.051 186.385 128.583C185.806 129.159 185.183 129.78 184.516 130.446C185.05 132.486 184.605 133.018 182.29 132.797C181.444 132.708 180.509 132.619 179.752 132.309C178.15 131.688 176.859 131.865 175.568 133.018C173.787 134.571 171.65 135.192 169.291 134.926C167.332 134.704 165.373 134.615 163.459 134.216C154.6 132.397 147.077 134.615 140.933 141.268C139.91 142.377 138.93 143.53 137.906 144.683C135.102 147.744 131.897 150.228 127.89 151.736C125.887 152.49 124.106 154.087 122.504 155.595C119.832 158.123 117.34 160.828 114.847 163.534C113.778 164.687 112.71 165.973 112.087 167.393C108.392 176.352 104.563 185.268 101.269 194.36C98.6425 201.679 97.3515 209.396 98.865 217.203C99.9334 222.525 100.156 227.759 99.3547 233.126C99.0431 235.299 99.1321 238.005 100.156 239.868C102.783 244.791 103.895 249.98 104.563 255.392C105.231 261.335 108.214 265.815 113.912 268.254C120.055 270.871 126.154 273.488 132.297 276.105C132.876 276.327 133.499 276.46 133.944 276.593C137.995 267.678 140.755 258.629 141.957 249.049C143.026 240.444 145.118 232.017 146.587 223.457C148.457 212.412 149.57 201.235 151.974 190.324C155.268 175.598 159.542 161.05 165.418 147.079C166.575 144.373 168.667 142.022 170.404 139.538C171.205 138.385 172.229 137.321 173.208 136.3C174.143 135.369 175.122 134.349 176.324 133.772C176.814 133.551 177.838 134.438 178.639 134.792C178.283 135.458 178.061 136.389 177.482 136.788C176.502 137.454 175.211 137.764 174.143 138.385C173.431 138.784 172.674 139.405 172.362 140.159C169.157 148.276 165.551 156.304 162.925 164.643C157.004 183.272 153.087 202.388 150.505 221.771C148.813 234.501 146.231 247.142 143.872 259.738C142.937 264.75 141.245 269.629 140.177 274.641C139.776 276.548 140.088 278.589 140.088 280.585C140.355 280.585 140.577 280.673 140.844 280.673C141.468 279.077 142.224 277.524 142.759 275.928C143.515 273.621 144.851 271.936 147.21 271.27C151.261 270.117 153.754 267.412 155.268 263.641C157.227 258.762 160.343 254.771 164.349 251.355C168.712 247.674 171.383 242.972 172.451 237.339C173.52 231.884 174.588 226.428 175.835 221.017C177.17 215.34 177.882 209.308 181.266 204.429C185.05 198.973 185.628 192.985 185.183 186.82C184.649 179.457 183.625 172.139 182.913 164.82C182.334 158.566 181.444 152.312 182.913 146.058C183.18 144.994 182.379 143.619 181.844 142.51C181.488 141.756 180.687 141.224 180.197 140.514C178.105 137.675 179.218 134.659 182.646 133.905C183.714 133.639 184.783 133.639 185.896 133.462C189.101 132.885 192.618 133.462 195.422 131.067C195.778 130.756 196.847 130.934 197.47 131.2C201.744 133.063 201.966 133.551 200.586 138.03C200.319 138.873 200.096 139.716 199.963 140.558C198.672 148.099 199.429 155.55 201.565 162.869C205.127 175.066 212.16 185.134 221.197 193.917C224.536 197.199 226.985 200.836 228.276 205.404C230.501 213.344 235.309 219.42 242.165 223.9C251.781 230.154 260.016 237.96 267.317 246.742C269.632 249.537 271.769 252.464 273.994 255.303C279.737 262.71 287.216 266.613 296.654 266.746C300.883 266.835 305.112 266.746 309.92 266.746C308.94 264.529 308.406 262.843 307.516 261.291C304.533 256.057 301.372 250.956 298.434 245.722C289.709 230.464 280.984 215.207 271.101 200.614C257.39 180.344 242.877 160.828 225.026 143.929C221.331 140.425 217.859 137.542 212.472 138.163C211.582 138.252 210.558 138.119 209.668 137.809C208.599 137.454 207.353 137.01 206.685 136.212C206.062 135.458 205.661 133.994 205.973 133.151C206.195 132.53 207.887 131.865 208.644 132.042C211.315 132.797 214.119 133.551 216.434 134.97C218.883 136.478 221.197 138.075 223.913 139.228C229.789 141.8 234.018 146.546 237.936 151.337C248.175 164.022 258.324 176.752 268.207 189.703C281.073 206.513 291.979 224.61 302.53 242.972C306.492 249.847 310.409 256.767 314.416 263.686C314.905 264.529 315.573 265.283 316.152 266.081C316.642 264.262 316.553 262.533 316.686 260.847C316.82 258.851 317.131 256.9 319.09 255.746C320.648 254.815 321.316 253.529 321.405 251.666C321.538 249.182 322.473 248.561 324.744 248.96C329.284 249.67 331.199 248.251 331.377 243.726C331.51 240.178 331.466 236.63 331.377 233.081C331.065 223.412 329.685 214.009 325.634 205.005C323.631 200.57 322.073 195.824 321.138 191.034C319.758 184.07 317.443 177.594 312.591 172.36C308.228 167.659 303.242 163.49 298.701 158.921C295.585 155.816 292.558 152.578 289.931 149.075C287.973 146.546 285.88 144.462 283.031 142.954C280.939 141.845 278.847 140.514 277.289 138.829C274.351 135.635 270.923 133.417 266.827 132.087C265.047 131.51 263.266 130.845 261.485 130.224C251.602 126.72 241.408 125.123 230.902 125.789C227.875 125.966 224.803 126.543 222.043 128.361C225.293 130.268 225.961 131.155 225.248 132.663C224.536 134.171 223.201 134.704 221.643 134.393C219.595 134.038 218.749 132.397 219.016 128.716C216.701 128.893 214.342 128.805 212.205 129.337C209.979 129.869 207.931 131.155 205.75 131.865C204.86 132.176 203.747 131.865 202.723 131.865C202.945 130.934 203.213 130.002 203.435 129.115C209.4 128.051 215.41 126.986 221.375 125.966C225.382 125.256 229.389 124.014 233.351 124.059C239.939 124.147 246.082 123.571 251.959 120.111C255.876 117.805 260.372 117.317 264.735 119.224C270.745 121.841 276.665 121.664 282.72 119.357C287.305 117.627 292.068 116.519 297.01 117.406C299.77 117.893 302.396 119.224 305.156 119.579C309.296 120.111 312.813 121.664 316.018 124.192C318.289 125.966 320.782 126.676 323.542 126.01C326.97 125.168 329.551 126.365 331.51 129.071C333.825 132.264 336.719 133.639 340.859 133.329C347.714 132.841 352.878 135.546 355.282 142.377C355.46 142.909 355.772 143.442 356.039 143.929C357.642 147.345 360.268 149.607 363.874 150.627C366.144 151.292 368.548 151.691 370.908 152.046C376.828 152.933 382.215 154.486 384.04 161.183C384.174 161.671 384.485 162.203 384.841 162.425C385.954 163.179 387.156 163.8 388.314 164.465C388.536 164.155 388.803 163.844 389.026 163.534C386.177 160.429 383.595 156.97 380.345 154.264C374.825 149.607 368.949 145.304 363.162 141.002C359.912 138.563 356.662 136.123 353.19 134.038C330.575 120.555 306.225 112.926 279.648 113.281C276.398 113.281 273.149 113.769 269.988 114.39C266.07 115.144 262.242 116.297 258.369 117.139C257.612 117.273 256.722 116.696 255.921 116.474C256.499 115.853 256.989 114.877 257.746 114.611C260.417 113.769 263.177 112.926 265.937 112.571C269.81 112.039 273.772 112.172 277.6 111.595C284.589 110.531 291.579 109.422 298.612 110.575C320.648 114.168 341.304 121.442 359.867 134.038C370.685 141.401 380.924 149.429 389.115 159.808C390.451 161.494 392.276 162.869 393.878 164.377C394.101 164.244 394.324 164.111 394.546 163.978C393.166 159.232 392.409 154.175 390.317 149.74C387.468 143.708 383.773 138.03 380.078 132.442C378.431 129.958 375.938 128.006 373.623 126.055C372.777 125.345 370.863 124.591 370.373 124.99C367.836 127.164 365.566 125.877 363.34 124.813C362.672 124.502 362.316 123.482 361.826 122.772C362.628 122.329 363.384 121.575 364.186 121.575C365.655 121.575 367.124 122.018 368.593 122.285C368.726 122.107 368.86 121.974 369.038 121.797C367.302 120.377 365.655 118.869 363.874 117.583C359.734 114.567 354.837 112.261 351.498 108.579C347.047 103.7 341.838 100.906 335.739 99.1317C327.014 96.6035 318.2 96.1599 309.252 97.2244C303.821 97.8897 298.746 97.047 294.161 93.7648C292.736 92.7447 290.911 92.2124 289.175 91.8132C285.435 90.9705 281.829 91.9463 278.313 93.2326C271.813 95.6277 266.649 100.152 261.085 104.099C258.235 106.095 256.099 108.712 254.763 111.95C251.647 119.579 245.593 122.418 237.758 122.817C231.169 123.172 224.581 123.571 218.081 124.547C213.095 125.301 207.664 125.123 203.658 129.115M209.757 124.724C212.383 124.281 214.965 123.66 217.592 123.393C224.536 122.728 231.436 122.151 238.381 121.664C243.589 121.264 248.219 119.801 251.424 115.365C252.181 114.301 252.804 113.148 253.339 111.95C255.075 108.091 257.612 104.942 261.129 102.547C264.735 100.107 268.163 97.4018 271.858 95.0954C277.155 91.8132 282.853 89.7729 289.219 90.7487C291.089 91.0592 293.092 91.7245 294.606 92.8334C298.835 95.8495 303.465 96.7809 308.45 96.1599C317.799 95.0067 326.969 95.4503 336.051 98.1115C342.239 99.8857 347.625 102.591 351.988 107.648C354.748 110.841 358.755 113.015 362.36 115.365C365.477 117.406 368.815 119.047 370.24 122.817C370.373 123.172 370.819 123.482 371.219 123.615C376.828 126.055 380.434 130.49 383.417 135.546C386.088 140.026 389.16 144.284 391.163 149.03C393.166 153.776 393.967 159.01 395.347 163.978C395.57 164.776 396.193 165.486 396.638 166.195C396.638 166.24 396.772 166.284 396.816 166.328C397.395 167.526 398.731 169.3 398.375 169.877C397.395 171.296 395.926 170.01 394.813 169.389C394.056 168.945 393.344 168.413 392.765 167.792C391.252 166.24 389.605 165.219 387.334 164.953C385.153 164.732 383.595 163.224 382.972 161.139C381.458 155.994 377.674 154.042 372.777 153.377C370.418 153.066 368.059 152.623 365.699 152.135C360.446 151.026 356.618 148.143 354.57 143.087C354.258 142.288 353.858 141.49 353.502 140.736C351.632 136.788 348.382 134.305 344.109 134.438C337.965 134.659 332.89 133.462 329.195 128.095C328.528 127.119 326.257 126.631 324.922 126.897C321.227 127.607 318.022 126.942 315.128 124.635C312.234 122.285 308.985 120.821 305.201 120.599C304.399 120.555 303.598 120.333 302.886 120.022C296.208 117.006 289.575 117.938 282.987 120.289C278.713 121.797 274.351 122.861 269.765 121.752C268.029 121.309 266.248 120.777 264.601 120.156C260.951 118.736 257.345 118.914 253.784 120.466C250.4 121.93 247.062 123.482 243.767 125.035C246.795 125.567 249.955 125.789 252.982 126.676C258.903 128.405 264.824 130.18 270.522 132.486C273.149 133.551 275.33 135.857 277.689 137.631C279.693 139.139 281.562 140.913 283.788 142.067C286.904 143.708 289.086 146.103 291.267 148.808C294.428 152.8 298.167 156.393 301.773 160.03C304.889 163.179 308.272 166.018 311.389 169.167C317.398 175.199 320.915 182.473 322.384 190.856C323.097 194.848 324.254 198.929 325.99 202.61C330.264 211.747 332.312 221.328 332.623 231.352C332.757 235.343 332.801 239.291 332.712 243.283C332.623 248.827 330.397 250.734 324.966 249.98C323.23 249.759 322.651 250.601 322.651 252.021C322.696 254.061 321.627 255.258 320.203 256.545C319.179 257.476 318.467 258.984 318.111 260.359C317.71 261.867 317.977 263.508 317.844 265.105C317.755 265.992 317.443 266.835 317.22 267.678C316.464 267.101 315.484 266.658 314.994 265.903C312.813 262.666 310.632 259.428 308.629 256.057C300.037 241.464 291.89 226.606 282.898 212.279C272.792 196.134 261.129 181.054 249.02 166.328C243.189 159.232 237.179 152.268 231.08 145.393C229.522 143.619 227.385 142.377 225.471 140.958C224.892 140.514 224.136 140.292 223.423 139.982C223.29 140.159 223.156 140.337 223.023 140.514C226.361 143.752 229.745 147.034 233.083 150.272C243.589 160.562 252.76 171.917 261.174 183.937C269.81 196.267 278.134 208.82 286.148 221.549C291.712 230.331 296.564 239.601 301.684 248.694C304.889 254.416 307.872 260.271 311.032 266.037C311.344 266.613 312.012 267.012 312.546 267.412C313.481 268.121 314.594 268.609 315.306 269.452C315.796 270.028 315.707 271.137 315.84 271.98C314.905 271.98 313.793 272.335 313.08 271.98C312.145 271.448 311.3 270.428 310.943 269.452C310.409 267.988 309.608 267.589 308.183 267.633C304.622 267.722 301.061 267.722 297.499 267.722C287.082 267.722 278.891 263.331 272.792 255.037C263.978 243.017 253.828 232.416 241.23 224.255C234.419 219.819 229.745 213.61 227.563 205.804C226.317 201.279 223.913 197.687 220.619 194.538C214.297 188.461 209 181.586 205.082 173.78C199.785 163.268 197.203 152.224 199.206 140.425C199.562 138.385 200.274 136.389 200.853 134.305C199.829 133.639 198.805 132.93 197.737 132.353C197.292 132.087 196.446 131.865 196.134 132.087C193.018 134.482 189.234 133.95 185.717 134.526C184.872 134.659 183.981 134.748 183.135 134.926C180.42 135.635 179.708 137.809 181.444 140.071C182.156 141.002 183.135 141.756 183.625 142.732C184.115 143.708 184.605 144.994 184.337 146.014C182.601 153.554 184.026 161.006 184.694 168.457C185.317 174.933 186.118 181.409 186.474 187.884C186.83 193.917 185.673 199.55 182.512 205.094C179.797 209.884 178.639 215.606 177.17 221.017C175.746 226.473 174.722 232.017 173.698 237.561C172.674 243.017 170.27 247.718 166.086 251.355C161.767 255.125 158.251 259.428 156.069 264.795C154.645 268.343 152.152 270.782 148.368 271.936C145.964 272.645 144.495 274.242 143.783 276.682C143.382 278.19 142.67 279.698 141.824 281.028C140.978 282.403 139.598 282.181 139.464 280.629C139.242 278.145 139.019 275.484 139.687 273.178C144.985 253.884 147.967 234.19 150.816 214.453C153.799 193.517 158.607 172.981 166.086 153.111C167.555 149.208 169.335 145.437 170.982 141.579C170.76 141.446 170.537 141.313 170.315 141.179C169.513 142.333 168.445 143.397 167.911 144.683C165.863 149.562 163.771 154.397 162.124 159.409C157.583 173.381 153.131 187.397 150.727 201.9C149.214 210.86 148.457 219.953 146.988 228.956C145.296 239.291 143.515 249.625 141.29 259.871C140.221 264.75 138.084 269.452 136.348 274.198C135.68 275.972 135.369 277.347 137.461 278.544C138.129 278.944 138.262 280.629 138.218 281.738C138.218 282.27 137.194 283.113 136.615 283.157C136.037 283.157 135.413 282.359 134.879 281.827C134.657 281.605 134.523 281.161 134.523 280.807C134.701 277.923 132.653 277.258 130.472 276.371C124.685 274.02 118.987 271.536 113.289 269.008C107.368 266.391 104.341 261.557 103.717 255.258C103.183 250.158 102.248 245.279 99.5773 240.799C97.9747 238.093 98.1528 235.077 98.6425 232.106C99.3547 227.848 99.4883 223.678 98.4644 219.42C96.194 210.15 97.8857 201.102 101.046 192.364C104.163 183.715 107.902 175.332 111.419 166.861C111.953 165.574 112.843 164.288 113.778 163.268C116.538 160.252 119.387 157.236 122.325 154.397C123.705 153.066 125.264 151.558 127 150.982C131.763 149.429 135.28 146.369 138.441 142.687C142.581 137.853 147.344 133.639 153.932 133.018C158.117 132.619 162.435 133.329 166.664 133.684C170.092 133.994 173.475 134.393 176.369 130.889C174.054 130.313 172.051 129.603 169.958 129.381C166.13 128.938 162.302 128.76 158.473 128.494C157.983 128.494 157.405 128.494 157.004 128.716C153.443 130.801 149.748 129.958 145.964 129.603C141.379 129.159 136.704 128.76 132.119 129.115C123.661 129.825 117.206 134.482 112.087 140.958C109.193 144.639 105.81 147.433 101.581 149.429C91.9204 153.909 88.2255 162.159 87.7358 172.272C87.6468 174.002 87.8249 175.776 87.5132 177.461C86.4003 183.538 82.6609 187.84 76.7847 189.038C71.3981 190.146 68.3265 192.896 66.1006 197.598C62.8509 204.429 56.7521 206.291 49.7184 205.67C48.5165 205.582 47.1364 204.606 46.3797 203.63C44.4209 201.146 42.4622 198.84 39.3905 197.642C37.7434 197.021 37.5208 195.336 38.0995 193.961C38.9008 192.098 40.1028 190.413 41.0821 188.816C39.9692 189.481 38.7673 190.324 37.3872 190.989C35.473 191.921 33.4698 191.699 32.3568 189.836C29.3742 184.957 25.3677 181.143 20.9605 177.55C17.3101 174.578 16.4643 170.01 15.574 165.53C14.372 159.409 16.0191 153.909 19.4024 149.075C22.207 145.038 22.1625 140.558 22.9193 135.635C18.7792 138.163 16.6424 135.502 14.1049 133.196C12.2797 131.51 9.96485 130.268 7.78352 129.026C5.69123 127.829 5.37961 127.075 7.29383 125.567C9.8313 123.615 12.5023 121.575 15.4404 120.289C27.2374 115.144 39.6131 111.684 51.9888 108.224C55.0604 107.382 57.954 105.918 60.9812 104.72C60.8922 104.454 60.8031 104.232 60.7141 103.966C56.0843 105.164 51.4101 106.14 46.9139 107.648C34.4046 111.817 21.9399 116.208 9.47516 120.51C7.91707 121.043 7.07125 122.063 6.49253 123.615C5.86929 125.256 4.75637 126.764 3.73248 128.272C3.42087 128.716 2.53053 129.159 2.17439 128.982C1.72922 128.805 1.37309 128.006 1.32857 127.43C1.01695 125.035 2.26343 123.349 4.17765 122.24C5.69123 121.353 6.04736 120.2 6.26995 118.603C8.27321 105.43 14.4165 95.3616 27.9942 91.2366C33.5588 89.5512 38.0995 86.2689 42.3286 82.4545C46.1125 79.0836 49.9855 75.757 55.5056 75.4465C61.2928 75.1804 67.08 74.8256 72.8672 74.4264C77.9866 74.0715 83.1061 73.4949 88.27 73.0514C98.9986 72.1199 109.371 73.9828 119.699 76.6441C120.322 76.8215 120.945 77.0433 121.524 77.3537C130.472 82.4988 138.797 88.3092 143.515 97.9785C144.851 100.728 146.231 103.434 147.789 106.051C150.416 110.486 154.244 112.837 159.408 114.345C165.462 116.075 171.071 119.357 176.814 122.107C179.263 123.26 181.444 125.123 184.783 124.946C183.581 123.127 182.69 121.264 181.355 119.845C177.126 115.41 172.674 111.152 168.356 106.805C167.109 105.563 165.996 104.144 164.795 102.813C164.483 102.458 164.216 101.882 163.815 101.749C160.877 100.728 159.274 98.3776 158.028 95.8495C156.203 92.1237 153.398 90.0391 149.525 88.4423C145.652 86.8455 142.269 84.0069 138.886 81.4343C133.321 77.2207 127.979 72.8296 122.504 68.4829C119.209 65.9104 115.781 64.9346 111.552 66.3983C105.854 68.3942 100.468 66.7974 96.5947 62.4951C91.7423 57.1282 85.8216 56.2855 79.3666 57.1282C74.5588 57.7492 70.3297 57.1282 66.4568 54.1121C63.6077 51.8501 60.1354 50.963 56.574 50.4307C51.6772 49.6767 47.8042 47.1485 44.9551 43.1123C42.8183 40.0962 42.5957 37.0801 44.2874 33.7536C45.0441 32.2899 45.3112 30.6488 46.0235 28.4754C46.7803 28.5641 48.2939 28.3867 49.6294 28.8746C54.9714 30.7375 60.3134 32.6003 65.5219 34.8181C79.5892 40.8502 93.612 47.0155 107.59 53.1807C119.343 58.3701 129.804 65.6886 140.622 72.4304C143.426 74.2046 146.409 75.757 149.57 77.0433C147.077 75.0473 144.628 73.007 142.091 71.0998C131.941 63.4265 121.213 56.7734 109.416 51.7614C96.3276 46.2171 83.4177 40.2293 70.3297 34.7737C65.1213 32.6003 59.5566 31.4028 54.1701 29.673C52.9236 29.2738 51.7217 28.7415 50.6533 28.0319C49.3178 27.1004 49.4068 25.7698 50.8759 25.1932C57.0192 22.7981 63.1625 20.2255 69.4394 18.2739C75.1375 16.5441 81.1028 17.2538 86.9345 17.786C98.4199 18.8505 109.861 20.2255 120.945 23.7295C127.935 25.9472 134.523 28.7415 139.91 33.9753C141.868 35.8826 144.228 37.3019 146.409 38.9874C146.543 38.8986 146.721 38.7656 146.854 38.6769C146.543 38.0116 146.276 37.3462 145.919 36.7253C142.759 31.3584 138.129 27.6327 132.609 24.9271C129.76 23.5077 126.866 22.1327 123.973 20.8465C123.349 20.5804 122.593 20.5804 121.88 20.6247C119.209 20.7578 117.295 19.6489 116.583 17.1207C116.138 15.4796 115.96 13.7055 116.093 12.02C116.405 8.16117 118.942 6.20959 122.815 6.74184C124.685 7.00796 126.332 7.3628 128.024 5.63298C128.78 4.83461 130.695 5.14509 132.208 4.92332C133.499 2.08465 133.989 1.81852 137.328 2.92738C139.153 3.50398 140.844 3.45963 142.581 2.66125C145.741 1.24192 148.947 0.754021 152.196 2.52819C152.641 2.74996 153.176 2.88302 153.665 2.92738C168.89 3.94752 179.173 11.8426 185.317 25.5037C187.053 29.3181 188.656 33.2213 190.303 37.0358C190.614 37.7454 190.926 38.4551 191.416 39.6083C192.261 36.9027 192.885 34.5963 193.641 32.3786C197.292 21.7779 202.901 17.8747 214.119 17.8304C226.896 17.7417 238.292 21.5561 247.863 30.1165C249.911 31.935 251.87 33.31 254.63 33.931C256.811 34.4189 258.903 35.7051 260.862 36.9027C261.663 37.3906 262.019 38.5438 262.598 39.3865C261.708 39.7857 260.862 40.451 259.972 40.5841C257.612 40.8502 255.208 40.8946 252.804 41.0276C248.575 41.2051 246.973 42.3139 245.548 46.2614C245.237 47.1485 244.925 48.0356 244.702 48.967C243.545 54.1121 241.141 58.2371 236.511 61.2088C232.594 63.6926 231.57 68.3498 229.923 72.5191C230.323 71.9425 230.68 71.3216 231.08 70.745C231.525 70.0797 231.97 69.4143 232.46 68.7934C240.117 58.4145 250.445 52.8702 263.355 52.2493C267.361 52.0718 271.323 51.7614 275.33 51.7614C279.96 51.7614 281.473 53.0033 282.275 57.4831C282.72 60.0112 284.055 61.9185 285.702 63.8701C287.839 66.3983 289.575 69.2369 291.579 71.8095C292.647 73.1845 293.982 74.4264 295.229 75.6683C296.386 76.8215 297.722 77.886 298.701 79.1279C299.057 79.5715 299.102 80.769 298.79 81.2569C297.677 83.0311 298.434 84.0512 299.814 85.2044C301.506 86.6238 303.108 88.1762 304.533 89.8616C305.423 90.8818 305.69 92.2568 304.266 93.2769C302.797 94.3858 300.705 94.2083 299.859 92.7003C299.057 91.2366 298.39 89.5068 298.212 87.8657C297.944 85.648 296.743 85.0714 294.784 84.8496C286.415 83.8738 279.069 86.6238 272.125 90.9705C262.509 96.9583 252.048 101.083 241.052 103.744C238.782 104.277 237.268 105.297 236.422 107.47C234.909 111.373 232.06 113.591 227.964 114.877C221.375 116.962 215.41 120.377 209.89 124.547C209.935 124.724 209.979 124.946 210.024 125.123M388.759 161.139C389.427 162.647 389.872 164.421 392.543 164.554C391.029 163.179 389.916 162.159 388.759 161.139ZM174.544 136.079C174.677 136.345 174.855 136.567 174.989 136.833C175.924 136.3 176.814 135.813 177.749 135.28C177.526 134.97 177.348 134.659 177.17 134.349C176.28 134.926 175.434 135.502 174.544 136.079ZM312.19 268.387C312.19 268.387 311.878 268.742 311.7 268.964C312.145 270.383 312.858 271.448 315.395 271.182C314.015 269.984 313.125 269.186 312.19 268.387ZM208.51 129.647C205.958 129.706 204.355 130.327 203.702 131.51C205.572 130.801 207.041 130.224 208.51 129.647ZM136.304 282.315C137.995 279.964 137.773 279.343 135.102 278.678C135.502 279.919 135.859 280.984 136.304 282.315ZM2.79763 128.095C3.95507 126.055 4.80089 124.547 5.64671 123.039C2.75311 124.192 2.17439 125.123 2.79763 128.095ZM257.568 115.365C257.657 115.676 257.746 115.986 257.879 116.341C261.129 115.498 264.379 114.656 267.629 113.857C267.584 113.591 267.495 113.369 267.45 113.148L257.568 115.41V115.365ZM122.414 17.9635C124.329 15.4796 123.973 13.2619 121.391 11.8426C121.791 14.2377 122.103 16.1006 122.414 17.9635ZM152.953 122.329C150.816 120.732 148.457 120.377 145.519 120.998C148.101 122.196 150.282 123.482 152.953 122.329ZM362.761 122.95C365.521 125.212 367.435 125.567 369.127 124.014C367.168 123.127 365.343 121.885 362.761 122.95ZM222.221 134.305C223.245 133.063 223.824 132.353 224.403 131.688C223.512 131.022 222.666 130.18 221.643 129.736C221.375 129.603 220.04 130.801 220.129 131.022C220.53 131.998 221.242 132.841 222.221 134.305ZM146.721 110.442C146.899 110.043 147.077 109.644 147.255 109.289C145.029 106.583 141.557 107.204 138.663 106.317C138.574 106.539 138.485 106.761 138.396 106.938C141.156 108.091 143.961 109.289 146.721 110.442ZM179.129 92.1237C180.954 89.9503 180.732 84.3617 179.129 81.523V92.1237ZM299.458 85.5593C299.146 85.7367 298.835 85.9585 298.523 86.1359C299.102 87.9544 299.503 89.8616 300.348 91.5027C300.616 92.035 302.129 91.9463 303.108 92.1237C303.153 91.3253 303.554 90.2608 303.197 89.7729C302.129 88.2649 300.749 86.9343 299.458 85.5593ZM155.669 82.6762C157.271 87.156 161.589 92.2568 164.394 93.0551C162.702 88.6197 159.631 85.648 155.669 82.6762ZM217.235 137.365C217.235 137.365 217.324 136.966 217.369 136.788C215.188 134.881 212.695 133.417 209.757 133.107C208.777 133.018 207.753 133.506 206.774 133.728C207.531 134.659 208.288 135.635 209.089 136.522C209.222 136.655 209.489 136.7 209.712 136.744C212.205 136.966 214.698 137.188 217.235 137.365ZM193.018 68.1281C194.131 60.3661 193.419 52.7815 191.594 45.2413C190.169 53.0033 189.858 60.6766 193.018 68.1281ZM165.017 47.5477C169.647 56.6847 174.277 65.8216 178.906 75.003C177.571 64.1805 172.14 55.4428 165.017 47.5477ZM243.011 94.2083C256.9 81.7005 273.46 76.511 292.558 79.7045C283.521 76.3779 274.529 78.5957 265.536 80.1924C255.965 81.9222 248.709 87.4221 243.011 94.2083ZM44.599 114.833C44.599 114.833 44.3764 114.567 44.2428 114.434C35.9182 118.337 28.929 123.66 25.3232 132.442C25.5458 132.663 25.7238 132.885 25.9464 133.107L44.599 114.877V114.833ZM175.479 125.7C166.976 121.176 158.072 117.76 148.679 115.498C156.559 121.619 165.462 125.123 175.479 125.7ZM155.58 33.931C152.463 26.4351 137.817 9.13697 133.544 8.02811C138.04 19.3828 148.679 25.1045 155.58 33.931ZM186.029 118.027C181.444 105.696 178.283 92.6116 167.955 82.765C166.575 88.531 166.13 93.7204 169.513 98.5994C170.76 100.374 171.739 102.325 172.897 104.144C176.28 109.599 180.554 114.256 186.029 118.027ZM112.888 104.365C113.378 104.499 113.867 104.632 114.357 104.72C122.504 105.74 130.472 107.248 138.084 110.486C139.019 110.886 139.999 111.196 140.933 111.551C141.023 111.285 141.156 111.019 141.245 110.752C138.307 109.466 135.458 107.648 132.386 107.071C125.931 105.829 119.387 105.253 112.888 104.41C109.46 104.011 105.988 103.39 102.56 103.212C89.9617 102.636 77.4969 104.232 65.0767 105.962C61.2038 106.494 57.2863 107.337 53.8585 109.555C54.5262 109.555 55.105 109.377 55.7282 109.244C68.1484 106.14 80.7467 104.099 93.523 103.833C99.978 103.7 106.433 104.188 112.888 104.365Z" stroke="#BC9D5A" stroke-width="0.46" stroke-miterlimit="10"/>
</svg>
