<svg width="9" height="14" viewBox="0 0 9 14" fill="none" xmlns="http://www.w3.org/2000/svg">
<path d="M0.204545 14L0 12.2889L2.33182 6.18333C2.53636 6.36482 2.75795 6.51713 2.99659 6.64028C3.23523 6.76343 3.49091 6.85741 3.76364 6.92222L1.51364 12.7944L0.204545 14ZM8.79545 14L7.48636 12.7944L5.23636 6.92222C5.50909 6.85741 5.76477 6.76343 6.00341 6.64028C6.24205 6.51713 6.46364 6.36482 6.66818 6.18333L9 12.2889L8.79545 14ZM4.5 6.22222C3.81818 6.22222 3.23864 5.99537 2.76136 5.54167C2.28409 5.08796 2.04545 4.53704 2.04545 3.88889C2.04545 3.38333 2.19886 2.93287 2.50568 2.5375C2.8125 2.14213 3.20455 1.86667 3.68182 1.71111V0H5.31818V1.71111C5.79545 1.86667 6.1875 2.14213 6.49432 2.5375C6.80114 2.93287 6.95455 3.38333 6.95455 3.88889C6.95455 4.53704 6.71591 5.08796 6.23864 5.54167C5.76136 5.99537 5.18182 6.22222 4.5 6.22222ZM4.5 4.66667C4.73182 4.66667 4.92614 4.59213 5.08295 4.44306C5.23977 4.29398 5.31818 4.10926 5.31818 3.88889C5.31818 3.66852 5.23977 3.4838 5.08295 3.33472C4.92614 3.18565 4.73182 3.11111 4.5 3.11111C4.26818 3.11111 4.07386 3.18565 3.91705 3.33472C3.76023 3.4838 3.68182 3.66852 3.68182 3.88889C3.68182 4.10926 3.76023 4.29398 3.91705 4.44306C4.07386 4.59213 4.26818 4.66667 4.5 4.66667Z" fill="#407A6B"/>
</svg>
